<svg width="50" height="40" viewBox="0 0 50 40" fill="none" xmlns="http://www.w3.org/2000/svg">
<path d="M40.9375 5.46875C40.9375 5.46875 40.9375 5.46875 40.8594 5.46875C37.9688 4.14062 34.7656 3.125 31.5625 2.57812C31.4844 2.57812 31.4844 2.5 31.4844 2.5L31.4062 2.57812C30.9375 3.35938 30.5469 4.21875 30.2344 5C28.5156 4.76562 26.7188 4.60938 24.9219 4.60938C23.125 4.60938 21.4062 4.76562 19.6875 5C19.375 4.21875 18.9844 3.35938 18.5156 2.57812H18.4375C18.3594 2.57812 18.3594 2.57812 18.3594 2.57812C15.1562 3.125 11.9531 4.14062 9.0625 5.46875C8.98438 5.46875 8.98438 5.46875 8.98438 5.46875C3.04688 14.375 1.40625 23.0469 2.1875 31.6406C2.1875 31.6406 2.1875 31.7188 2.26562 31.7188C5.625 34.2969 9.53125 36.25 13.75 37.5C13.8281 37.5 13.8281 37.5 13.9062 37.5C14.7656 36.25 15.5469 35 16.25 33.6719V33.5938C16.25 33.5156 16.1719 33.5156 16.1719 33.4375C14.9219 32.9688 13.6719 32.4219 12.5781 31.7188C12.5 31.7188 12.5 31.7188 12.5 31.6406C12.5 31.5625 12.5 31.5625 12.5781 31.4844C12.8125 31.3281 13.0469 31.1719 13.2812 30.9375C13.2812 30.9375 13.2812 30.9375 13.3594 30.9375C13.3594 30.9375 13.3594 30.9375 13.4375 30.9375C20.9375 34.375 29.0625 34.375 36.4844 30.9375H36.5625H36.6406C36.875 31.1719 37.1094 31.3281 37.3438 31.4844C37.4219 31.5625 37.4219 31.5625 37.4219 31.6406C37.4219 31.7188 37.4219 31.7188 37.3438 31.7188C36.1719 32.4219 35 32.9688 33.75 33.4375C33.6719 33.5156 33.6719 33.5156 33.6719 33.5938V33.6719C34.375 35 35.1562 36.25 36.0156 37.5C36.0156 37.5 36.0938 37.5 36.1719 37.5C40.3125 36.25 44.2188 34.2969 47.6562 31.7188C47.7344 31.7188 47.7344 31.6406 47.7344 31.6406C48.6719 21.7188 46.0938 13.125 40.9375 5.46875ZM17.3438 26.4062C15.0781 26.4062 13.2031 24.2969 13.2031 21.7969C13.2031 19.2188 15.0781 17.1875 17.3438 17.1875C19.6875 17.1875 21.4844 19.2188 21.4844 21.7969C21.4844 24.2969 19.6094 26.4062 17.3438 26.4062ZM32.5781 26.4062C30.3125 26.4062 28.5156 24.2969 28.5156 21.7969C28.5156 19.2188 30.3125 17.1875 32.5781 17.1875C34.9219 17.1875 36.7969 19.2188 36.7188 21.7969C36.7188 24.2969 34.9219 26.4062 32.5781 26.4062Z" fill="black"/>
</svg>
