<svg xmlns="http://www.w3.org/2000/svg" enable-background="new 0 0 24 24" viewBox="0 0 24 24"><path d="M0.506,24c-0.133,0-0.26-0.053-0.354-0.146C0.059,23.76,0.006,23.633,0.006,23.5L0,11.799C0,5.293,5.427,0,12.098,0C18.661,0.001,24,5.382,24,11.996c0,6.614-5.34,11.995-11.902,11.995L0.506,24L0.506,24z M12.096,1.001c-2.926,0-5.699,1.125-7.81,3.167C2.167,6.219,1,8.929,1,11.799L1.006,23l11.092-0.009C18.109,22.99,23,18.058,23,11.996S18.109,1.001,12.098,1.001C12.097,1.001,12.097,1.001,12.096,1.001z M5.043,19.482c-0.136,0-0.268-0.055-0.363-0.156c-0.123-0.131-0.168-0.318-0.115-0.49l1.115-3.655C5.188,14.199,4.928,13.104,4.928,12c0-3.899,3.172-7.071,7.071-7.071S19.07,8.101,19.07,12s-3.172,7.071-7.071,7.071c-0.979,0-1.957-0.205-2.841-0.594l-3.995,0.99C5.123,19.477,5.083,19.482,5.043,19.482z M11.999,5.929c-3.348,0-6.071,2.724-6.071,6.071c0,1.01,0.252,2.01,0.729,2.894c0.064,0.118,0.078,0.256,0.039,0.384l-0.918,3.007l3.309-0.82c0.11-0.028,0.229-0.016,0.334,0.033c0.805,0.38,1.673,0.573,2.578,0.573c3.348,0,6.071-2.724,6.071-6.071S15.347,5.929,11.999,5.929z"/></svg>