<svg width="34" height="34" viewBox="0 0 34 34" fill="none" xmlns="http://www.w3.org/2000/svg">
<path d="M1.40096 33H32.6009C32.8216 33 33.001 32.8212 33.001 32.5999V30.3055C33.001 27.9096 31.4779 25.868 29.3509 25.0823V4.27092C29.3509 2.46736 27.8838 1 26.08 1H7.88785C6.08428 1 4.61692 2.46707 4.61692 4.27092V25.0945C2.50785 25.8888 1 27.9218 1 30.3054V32.5997C1.00056 32.8207 1.17969 32.9999 1.40067 32.9999L1.40096 33ZM16.6009 25.5336V32.1999H8.38809V25.5336H16.6009ZM26.6159 15.5593C26.2624 19.2197 22.0866 22.1193 17.0009 22.1193C11.9152 22.1193 7.73881 19.2197 7.38595 15.5593C7.37228 15.3673 7.36363 15.174 7.36167 14.9792C7.41887 11.1207 11.7202 7.99431 17.0009 7.99431C22.2822 7.99431 26.5831 11.1207 26.6402 14.9792C26.6383 15.1737 26.6296 15.3673 26.6159 15.5593H26.6159ZM25.6971 10.7105C23.8244 8.59303 20.626 7.19411 17.0007 7.19411C13.3754 7.19411 10.1771 8.59282 8.30431 10.7105C9.86066 7.47225 13.174 5.23089 17.0007 5.23089C20.8274 5.23089 24.1408 7.47168 25.6971 10.7105ZM17.0007 22.9191C20.3456 22.9191 23.3255 21.7279 25.2379 19.8803C23.5434 22.6574 20.4851 24.5157 17.0007 24.5157C13.5164 24.5157 10.458 22.6577 8.76359 19.8803C10.6759 21.7274 13.6559 22.9191 17.0007 22.9191ZM25.6129 25.5332V32.1995H17.4007V25.5332H25.6129ZM32.2005 30.3047V32.1992H26.4129V25.5332H27.4285C30.0596 25.5332 32.2006 27.6736 32.2006 30.3047H32.2005ZM5.41767 4.27047C5.41767 2.90804 6.52624 1.79976 7.88838 1.79976H26.0805C27.4429 1.79976 28.5512 2.90833 28.5512 4.27047V24.8462C28.1888 24.7717 27.8132 24.7326 27.4293 24.7326H20.4337C24.2861 23.3877 27.1151 19.8467 27.4142 15.6155C27.4315 15.4302 27.4435 15.2444 27.4435 15.0558C27.4435 15.0293 27.441 15.0033 27.4407 14.9771C27.441 14.9419 27.4435 14.9076 27.4435 14.8722C27.4435 12.9121 26.9 11.0772 25.9566 9.5086V3.86603C25.9566 3.64477 25.7775 3.46592 25.5565 3.46592C25.3358 3.46592 25.1564 3.64477 25.1564 3.86603V8.36238C23.2413 5.96839 20.2979 4.43075 17.0007 4.43075C11.2427 4.43075 6.55788 9.11517 6.55788 14.8729C6.55788 14.908 6.56039 14.9424 6.56067 14.9778C6.56039 15.0043 6.55788 15.0302 6.55788 15.0565C6.55788 15.2448 6.56987 15.4309 6.58717 15.6162C6.88628 19.8469 9.71524 23.3883 13.5677 24.7333H6.57267C6.17619 24.7333 5.79032 24.7766 5.41696 24.8552L5.41724 4.27027L5.41767 4.27047ZM1.80074 30.3047C1.80074 27.6736 3.94167 25.5327 6.57281 25.5327H7.58845V32.1989L1.80081 32.1992L1.80074 30.3047Z" fill="#141414" stroke="#141414" stroke-width="0.5"/>
<path d="M12.3552 10.5543C9.67417 11.4721 8.81253 13.6981 8.77682 13.7923C8.69925 13.9996 8.80388 14.2298 9.01091 14.3074C9.05722 14.3247 9.10438 14.3325 9.15125 14.3325C9.31336 14.3325 9.4657 14.2337 9.52597 14.0733C9.53323 14.0532 10.2863 12.1076 12.6144 11.3113C12.8231 11.2396 12.9347 11.0125 12.8636 10.8032C12.7916 10.5945 12.5645 10.4835 12.3552 10.5543L12.3552 10.5543Z" fill="#141414" stroke="#141414" stroke-width="0.5"/>
<path d="M10.4182 27.8H13.1515C13.3722 27.8 13.5516 27.6211 13.5516 27.3999C13.5516 27.1786 13.3724 26.9998 13.1515 26.9998H10.4182C10.1975 26.9998 10.0181 27.1786 10.0181 27.3999C10.0181 27.6214 10.1969 27.8 10.4182 27.8Z" fill="#141414" stroke="#141414" stroke-width="0.5"/>
<path d="M13.151 28.8665H10.4177C10.197 28.8665 10.0176 29.0453 10.0176 29.2666C10.0176 29.4878 10.1967 29.6667 10.4177 29.6667H13.151C13.3717 29.6667 13.5511 29.4878 13.5511 29.2666C13.5508 29.0453 13.3717 28.8665 13.151 28.8665Z" fill="#141414" stroke="#141414" stroke-width="0.5"/>
</svg>
