<svg width="211" height="63" viewBox="0 0 211 63" fill="none" xmlns="http://www.w3.org/2000/svg">
    <path d="M74.9639 11.7956V17.5527H92.5615V20.4313H74.9639V26.1884H92.5615V29.067H71.5469V8.91699H92.5615V11.7956H74.9639Z" fill="white" />
    <path d="M113.409 22.8491L117.213 29.067H113.239L109.652 23.1955H98.5225V29.067H95.1055V8.91699H110.723C115.238 8.91699 118.332 11.5652 118.332 16.0562C118.35 19.5964 116.448 21.9866 113.409 22.8491ZM98.531 20.3169H109.32C111.478 20.3169 114.943 20.3169 114.943 16.0562C114.943 11.7956 111.478 11.7956 109.32 11.7956H98.531V20.3169Z" fill="white" />
    <path d="M132.832 18.3879H145.241V29.0673H141.835V25.6709C139.818 27.8584 136.581 29.3566 132.267 29.3566C124.941 29.3566 120.34 25.4406 120.34 18.9924C120.34 12.5736 124.941 8.62988 133.118 8.62988C141.069 8.62988 144.93 12.0263 145.248 16.6611H141.841C141.556 14.7559 140.222 11.5084 133.128 11.5084C124.78 11.5084 123.759 16.5745 123.759 18.9924C123.759 21.4397 124.809 26.478 133.128 26.478C139.66 26.478 141.841 22.9084 141.841 21.2665H132.839L132.832 18.3879Z" fill="white" />
    <path d="M147.512 18.9647C147.512 12.5442 151.26 8.62988 160.006 8.62988C168.719 8.62988 172.5 12.5736 172.5 18.9647C172.5 25.3834 168.724 29.3566 160.006 29.3566C151.26 29.3566 147.512 25.4128 147.512 18.9647ZM169.094 18.9647C169.094 13.4084 166.083 11.5171 160.006 11.5171C153.929 11.5171 150.92 13.3894 150.92 18.9647C150.92 24.578 153.958 26.478 160.006 26.478C166.054 26.478 169.094 24.5486 169.094 18.9647Z" fill="white" />
    <path d="M90.8915 47.5012L94.4691 53.3726H87.0867L84.1327 48.336H77.801V53.3726H71.5547V33.2227H87.1721C91.6859 33.2227 94.7817 36.2744 94.7817 40.7655C94.7817 43.8744 93.3056 46.32 90.8915 47.5012ZM77.801 42.9824H85.7523C86.9158 42.9824 88.5338 42.9824 88.5338 40.7655C88.5338 38.578 86.9158 38.578 85.7523 38.578H77.801V42.9824Z" fill="white" />
    <path d="M114.13 49.4289H103.879L102.17 53.3726H95.2695L104.526 33.2227H113.472L122.698 53.3726H115.826L114.13 49.4289ZM112.141 44.8824L109.004 37.6566L105.852 44.8824H112.141Z" fill="white" />
    <path d="M129.848 38.578V42.2048H142.909V47.5601H129.848V53.3744H123.602V33.2227H144.616V38.578H129.848Z" fill="white" />
    <path d="M152.113 38.578V42.2048H165.175V47.5601H152.113V53.3744H145.867V33.2227H166.882V38.578H152.113Z" fill="white" />
    <path d="M188.573 48.0191V53.3726H168.129V33.2227H174.375V48.0191H188.573Z" fill="white" />
    <path d="M196.237 38.145V41.1396H210.999V45.4574H196.237V48.4503H210.999V53.3726H189.984V33.2227H210.999V38.145H196.237Z" fill="white" />
    <path d="M60.9945 30.1393L52.6895 9.81273C52.5787 9.54081 52.4159 9.29375 52.2107 9.08571C52.0055 8.87766 51.7618 8.71272 51.4936 8.60033L31.4374 0.174214C31.1669 0.059222 30.8765 0 30.5832 0C30.2899 0 29.9995 0.059222 29.7289 0.174214L9.68308 8.58994C9.41495 8.70249 9.17133 8.86749 8.96612 9.07552C8.76092 9.28354 8.59815 9.53052 8.48713 9.80233L0.171851 30.1393C0.058419 30.4136 0 30.708 0 31.0053C0 31.3027 0.058419 31.5971 0.171851 31.8713L8.47688 52.1962C8.58774 52.4681 8.75045 52.7152 8.95568 52.9232C9.1609 53.1313 9.4046 53.2962 9.67283 53.4086L29.7289 61.8295C29.9996 61.9439 30.29 62.0027 30.5832 62.0027C30.8764 62.0027 31.1668 61.9439 31.4374 61.8295L51.4867 53.4103C51.755 53.298 51.9988 53.1331 52.204 52.9251C52.4092 52.717 52.5719 52.4699 52.6827 52.1979L60.9945 31.8644C61.107 31.5911 61.165 31.298 61.165 31.0019C61.165 30.7058 61.107 30.4126 60.9945 30.1393ZM40.4925 55.2393L32.032 51.687L35.5379 43.1102L43.9984 46.6625L40.4925 55.2393ZM20.6876 55.2393L17.1817 46.6625L25.6422 43.1102L29.1463 51.687L20.6876 55.2393ZM6.67783 41.037L10.182 32.4602L18.6425 36.0142L15.1383 44.591L6.67783 41.037ZM20.6876 6.76096L29.1429 10.3219L25.6371 18.8987L17.1766 15.3447L20.6876 6.76096ZM40.4942 6.76096L43.9932 15.3447L35.5379 18.8935L32.0286 10.3219L40.4942 6.76096ZM25.3039 21.0897C25.3226 21.1558 25.3454 21.2206 25.3723 21.2837L28.4476 28.8334L21.0002 25.7055C20.937 25.6795 20.8738 25.657 20.8088 25.6362L17.6379 17.8751L25.3039 21.0897ZM19.9409 27.7838C20.0007 27.815 20.0622 27.8445 20.1237 27.8704L27.5711 30.9984L20.1237 34.1246C20.0622 34.1524 20.0007 34.1818 19.9409 34.213L12.2783 31.0019L19.9409 27.7838ZM20.8174 36.3589C20.8826 36.34 20.9465 36.3168 21.0088 36.2896L28.4561 33.1634L25.3706 40.7131C25.3449 40.7772 25.3227 40.8413 25.3022 40.9054L17.6464 44.1217L20.8174 36.3589ZM35.8796 40.9088C35.8591 40.8448 35.8368 40.7807 35.8112 40.7166L32.7205 33.1669L40.1679 36.3018C40.2297 36.3287 40.293 36.3518 40.3575 36.371L43.5302 44.1338L35.8796 40.9088ZM41.2357 34.2234C41.1759 34.1922 41.1144 34.1627 41.0529 34.135L33.6055 31.0019L41.0529 27.8739C41.1144 27.8479 41.1759 27.8185 41.2357 27.7873L48.8915 31.0019L41.2357 34.2234ZM40.3592 25.6466C40.2943 25.6673 40.2311 25.6899 40.1679 25.7158L32.7205 28.8369L35.8061 21.2871C35.8317 21.2231 35.8539 21.159 35.8744 21.0932L43.5302 17.8786L40.3592 25.6466ZM33.7559 20.2116C33.7251 20.2722 33.6961 20.3328 33.6688 20.3969L30.5934 27.9466L27.5181 20.3969C27.4908 20.3328 27.4618 20.2722 27.431 20.2116L30.5832 12.4436L33.7559 20.2116ZM15.1332 17.4162L18.6373 25.993L10.1803 29.547L6.67612 20.9702L15.1332 17.4162ZM27.4105 41.806C27.4413 41.7448 27.4703 41.6825 27.4976 41.619L30.5729 34.0709L33.6483 41.619C33.6756 41.6825 33.7046 41.7448 33.7354 41.806L30.5832 49.5601L27.4105 41.806ZM46.0332 44.6014L42.529 36.0246L50.9895 32.4706L54.5022 41.0405L46.0332 44.6014ZM50.9878 29.5453L42.5273 25.993L46.0315 17.4162L54.5022 20.9615L50.9878 29.5453ZM50.7145 10.6493L53.8667 18.3636L46.2228 15.1542L43.0553 7.39833L50.6649 10.5939C50.6765 10.5976 50.6871 10.6039 50.6959 10.6123C50.7048 10.6207 50.7117 10.6309 50.7162 10.6424L50.7145 10.6493ZM30.5507 2.18159C30.5616 2.17701 30.5732 2.17466 30.5849 2.17466C30.5966 2.17466 30.6082 2.17701 30.6191 2.18159L38.2287 5.37711L30.5832 8.57955L22.9394 5.37018L30.5507 2.18159ZM10.4536 10.6424C10.4577 10.6313 10.4641 10.6212 10.4724 10.6129C10.4806 10.6045 10.4905 10.598 10.5015 10.5939L18.1111 7.39833L14.9453 15.1472L7.30143 18.3566L10.4536 10.6424ZM2.14859 31.0365C2.14001 31.0142 2.14001 30.9895 2.14859 30.9672L5.29736 23.253L8.46322 31.0019L5.29736 38.7508L2.14859 31.0365ZM10.4536 51.37L7.30143 43.6558L14.9453 46.8651L18.1111 54.6054L10.5015 51.4099C10.4812 51.403 10.4642 51.3888 10.4536 51.37ZM30.6139 59.8377C30.592 59.8464 30.5676 59.8464 30.5456 59.8377L22.9359 56.6422L30.5832 53.4242L38.227 56.6336L30.6139 59.8377ZM50.7162 51.37C50.7121 51.3811 50.7057 51.3912 50.6974 51.3995C50.6892 51.4079 50.6793 51.4144 50.6684 51.4185L43.0553 54.6054L46.2211 46.8565L53.865 43.6471L50.7162 51.37ZM59.0212 31.0365L55.869 38.7491L52.7032 31.0019L55.869 23.253L59.0212 30.9672C59.0298 30.9895 59.0298 31.0142 59.0212 31.0365Z" fill="#FC3F27" />
</svg>
    