<svg width="248" height="248" viewBox="0 0 248 248" fill="none" xmlns="http://www.w3.org/2000/svg">
<path d="M248 124L211.682 36.3281L124 0L36.3378 36.2991L0 124L36.3184 211.682L124 248L211.653 211.701L248 124ZM124 232.5L47.2847 200.715L15.5 124L47.2847 47.2944L124 15.5L200.706 47.2653L232.5 124L200.725 200.715L124 232.5Z" fill="white"/>
<path d="M124 100.75V85.25H62V100.75L85.25 124L62 147.25V162.75H124V147.25H85.25L108.5 124L85.25 100.75H124Z" fill="white"/>
<path d="M155 147.25H139.5V162.75H155V147.25Z" fill="white"/>
<path d="M155 85.25H139.5V100.75H155V85.25Z" fill="white"/>
<path d="M170.5 85.25H155V100.75H170.5V85.25Z" fill="white"/>
<path d="M186 85.25H170.5V100.75H186V85.25Z" fill="white"/>
<path d="M155 116.25H139.5V131.75H155V116.25Z" fill="#FF4221"/>
<path d="M170.5 116.25H155V131.75H170.5V116.25Z" fill="#FF4221"/>
<path d="M170.5 116.25H139.5V131.75H170.5V116.25Z" fill="#FF4221"/>
<path d="M186 85.25H139.5V100.75H186V85.25Z" fill="white"/>
</svg>
