<svg width="39" height="40" viewBox="0 0 39 40" fill="none" xmlns="http://www.w3.org/2000/svg">
<path d="M12.8906 31.0938C12.8906 30.9375 12.7344 30.7812 12.5 30.7812C12.2656 30.7812 12.1094 30.9375 12.1094 31.0938C12.1094 31.25 12.2656 31.4062 12.5 31.3281C12.7344 31.3281 12.8906 31.25 12.8906 31.0938ZM10.4688 30.7031C10.4688 30.8594 10.625 31.0938 10.8594 31.0938C11.0156 31.1719 11.25 31.0938 11.3281 30.9375C11.3281 30.7812 11.25 30.625 11.0156 30.5469C10.7812 30.4688 10.5469 30.5469 10.4688 30.7031ZM13.9844 30.625C13.75 30.625 13.5938 30.7812 13.5938 31.0156C13.5938 31.1719 13.8281 31.25 14.0625 31.1719C14.2969 31.0938 14.4531 31.0156 14.375 30.8594C14.375 30.7031 14.1406 30.5469 13.9844 30.625ZM19.0625 0.625C8.28125 0.625 0 8.90625 0 19.6875C0 28.3594 5.39062 35.7812 13.2031 38.4375C14.2188 38.5938 14.5312 37.9688 14.5312 37.5C14.5312 36.9531 14.5312 34.2969 14.5312 32.6562C14.5312 32.6562 9.0625 33.8281 7.89062 30.3125C7.89062 30.3125 7.03125 28.0469 5.78125 27.5C5.78125 27.5 3.98438 26.25 5.85938 26.25C5.85938 26.25 7.8125 26.4062 8.90625 28.2812C10.625 31.3281 13.4375 30.4688 14.6094 29.9219C14.7656 28.6719 15.2344 27.8125 15.8594 27.2656C11.4844 26.7969 7.03125 26.1719 7.03125 18.6719C7.03125 16.4844 7.65625 15.4688 8.90625 14.0625C8.67188 13.5156 8.04688 11.4844 9.14062 8.75C10.7031 8.28125 14.5312 10.8594 14.5312 10.8594C16.0938 10.3906 17.7344 10.2344 19.375 10.2344C21.0938 10.2344 22.7344 10.3906 24.2969 10.8594C24.2969 10.8594 28.0469 8.20312 29.6875 8.75C30.7812 11.4844 30.0781 13.5156 29.9219 14.0625C31.1719 15.4688 31.9531 16.4844 31.9531 18.6719C31.9531 26.1719 27.3438 26.7969 22.9688 27.2656C23.6719 27.8906 24.2969 29.0625 24.2969 30.9375C24.2969 33.5156 24.2188 36.7969 24.2188 37.4219C24.2188 37.9688 24.6094 38.5938 25.625 38.3594C33.4375 35.7812 38.75 28.3594 38.75 19.6875C38.75 8.90625 29.9219 0.625 19.0625 0.625ZM7.57812 27.5781C7.42188 27.6562 7.5 27.8906 7.57812 28.0469C7.73438 28.125 7.89062 28.2031 8.04688 28.125C8.125 28.0469 8.125 27.8125 7.96875 27.6562C7.8125 27.5781 7.65625 27.5 7.57812 27.5781ZM6.71875 26.9531C6.64062 27.1094 6.71875 27.1875 6.875 27.2656C7.03125 27.3438 7.1875 27.3438 7.26562 27.1875C7.26562 27.1094 7.1875 27.0312 7.03125 26.9531C6.875 26.875 6.79688 26.875 6.71875 26.9531ZM9.21875 29.7656C9.14062 29.8438 9.14062 30.0781 9.375 30.2344C9.53125 30.3906 9.76562 30.4688 9.84375 30.3125C9.92188 30.2344 9.92188 30 9.76562 29.8438C9.60938 29.6875 9.375 29.6094 9.21875 29.7656ZM8.35938 28.5938C8.20312 28.6719 8.20312 28.9062 8.35938 29.0625C8.51562 29.2188 8.67188 29.2969 8.82812 29.2188C8.90625 29.1406 8.90625 28.9062 8.82812 28.75C8.67188 28.5938 8.51562 28.5156 8.35938 28.5938Z" fill="black"/>
</svg>
