<svg width="562" height="562" viewBox="0 0 562 562" fill="none" xmlns="http://www.w3.org/2000/svg">
<g filter="url(#filter0_i_705_20471)">
<circle cx="281.287" cy="280.374" r="184.826" transform="rotate(40.4115 281.287 280.374)" fill="url(#paint0_linear_705_20471)"/>
</g>
<g filter="url(#filter1_di_705_20471)">
<path d="M410.033 129.163C448.442 161.864 473.016 207.917 478.799 258.029C484.581 308.141 471.14 358.581 441.188 399.17C411.236 439.759 367.003 467.477 317.415 476.729C267.826 485.982 216.574 476.081 174.001 449.023C131.427 421.966 100.701 379.767 88.0229 330.942C75.3449 282.117 81.6587 230.301 105.69 185.949C129.722 141.597 169.682 108.011 217.507 91.969C265.333 75.9269 317.463 78.6226 363.379 99.5122L280.87 280.867L410.033 129.163Z" fill="url(#paint1_linear_705_20471)" shape-rendering="crispEdges"/>
</g>
<defs>
<filter id="filter0_i_705_20471" x="96.4573" y="95.5449" width="369.659" height="369.659" filterUnits="userSpaceOnUse" color-interpolation-filters="sRGB">
<feFlood flood-opacity="0" result="BackgroundImageFix"/>
<feBlend mode="normal" in="SourceGraphic" in2="BackgroundImageFix" result="shape"/>
<feColorMatrix in="SourceAlpha" type="matrix" values="0 0 0 0 0 0 0 0 0 0 0 0 0 0 0 0 0 0 127 0" result="hardAlpha"/>
<feOffset dy="2"/>
<feComposite in2="hardAlpha" operator="arithmetic" k2="-1" k3="1"/>
<feColorMatrix type="matrix" values="0 0 0 0 1 0 0 0 0 1 0 0 0 0 1 0 0 0 0.11 0"/>
<feBlend mode="normal" in2="shape" result="effect1_innerShadow_705_20471"/>
</filter>
<filter id="filter1_di_705_20471" x="77.6272" y="81.625" width="406.485" height="406.485" filterUnits="userSpaceOnUse" color-interpolation-filters="sRGB">
<feFlood flood-opacity="0" result="BackgroundImageFix"/>
<feColorMatrix in="SourceAlpha" type="matrix" values="0 0 0 0 0 0 0 0 0 0 0 0 0 0 0 0 0 0 127 0" result="hardAlpha"/>
<feOffset dy="4"/>
<feGaussianBlur stdDeviation="2"/>
<feComposite in2="hardAlpha" operator="out"/>
<feColorMatrix type="matrix" values="0 0 0 0 0 0 0 0 0 0 0 0 0 0 0 0 0 0 0.25 0"/>
<feBlend mode="normal" in2="BackgroundImageFix" result="effect1_dropShadow_705_20471"/>
<feBlend mode="normal" in="SourceGraphic" in2="effect1_dropShadow_705_20471" result="shape"/>
<feColorMatrix in="SourceAlpha" type="matrix" values="0 0 0 0 0 0 0 0 0 0 0 0 0 0 0 0 0 0 127 0" result="hardAlpha"/>
<feOffset dy="2"/>
<feComposite in2="hardAlpha" operator="arithmetic" k2="-1" k3="1"/>
<feColorMatrix type="matrix" values="0 0 0 0 1 0 0 0 0 1 0 0 0 0 1 0 0 0 0.3 0"/>
<feBlend mode="normal" in2="shape" result="effect2_innerShadow_705_20471"/>
</filter>
<linearGradient id="paint0_linear_705_20471" x1="146.755" y1="135.148" x2="445.478" y2="680.799" gradientUnits="userSpaceOnUse">
<stop stop-color="#EFEFEF"/>
<stop offset="1" stop-color="#292835" stop-opacity="0"/>
</linearGradient>
<linearGradient id="paint1_linear_705_20471" x1="302.54" y1="524.219" x2="120.856" y2="81.2502" gradientUnits="userSpaceOnUse">
<stop stop-color="#FF5E18"/>
<stop offset="1" stop-color="#FF5E18" stop-opacity="0"/>
</linearGradient>
</defs>
</svg>
