<svg width="528" height="257" viewBox="0 0 528 257" fill="none" xmlns="http://www.w3.org/2000/svg">
<path d="M528 128.499C382.077 299.834 145.923 299.834 0 128.499C145.916 -42.8328 382.077 -42.8328 528 128.499Z" fill="url(#paint0_linear_693_17711)"/>
<circle cx="264" cy="128" r="107" fill="#F6F6F6"/>
<path d="M312.955 73.4248L267.987 54.797C266.726 54.2709 265.374 54 264.008 54C262.642 54 261.29 54.2709 260.029 54.797L215.053 73.4248C213.789 73.9433 212.641 74.7075 211.675 75.6731C210.708 76.6386 209.944 77.7862 209.424 79.0495L190.797 124.019C190.271 125.281 190 126.634 190 128C190 129.367 190.271 130.72 190.797 131.981L209.424 176.951C209.944 178.214 210.708 179.362 211.675 180.327C212.641 181.293 213.789 182.057 215.053 182.575L260.021 201.203C261.282 201.729 262.634 202 264 202C265.366 202 266.718 201.729 267.979 201.203L312.947 182.575C314.211 182.055 315.359 181.291 316.327 180.326C317.291 179.36 318.055 178.213 318.576 176.951L337.203 131.981C337.729 130.72 338 129.368 338 128.002C338 126.636 337.729 125.284 337.203 124.023L318.576 79.0495C318.057 77.7869 317.294 76.6397 316.329 75.6742C315.364 74.7088 314.217 73.9442 312.955 73.4248ZM306.052 174.626L266.505 191.004L250.126 151.456L289.694 135.077L306.052 174.626ZM217.37 85.9406L256.917 102.319L240.539 141.868L200.991 125.489L217.37 85.9406ZM288.376 124.007C288.254 124.298 288.147 124.596 288.056 124.898L252.252 139.727L267.084 103.925C267.383 103.829 267.679 103.726 267.975 103.606L302.801 89.1803L288.376 124.007ZM264.152 64.005L299.737 78.746L263.836 93.6187C263.545 93.7386 263.257 93.8744 262.977 94.0182L227.181 79.1894L263.84 64.0091C263.892 63.9884 263.947 63.9787 264.003 63.9808C264.059 63.9829 264.114 63.9965 264.164 64.021L264.152 64.005ZM218.868 173.335C218.818 173.315 218.773 173.284 218.735 173.246C218.697 173.207 218.668 173.162 218.648 173.111L203.907 137.526L239.648 152.33L254.457 188.076L218.868 173.335ZM327.971 127.826C327.993 127.876 328.004 127.93 328.004 127.984C328.004 128.038 327.993 128.092 327.971 128.142L312.791 164.802L297.963 129.001C298.107 128.721 298.243 128.438 298.363 128.142L313.231 92.2404L327.971 127.826Z" fill="#807e7e"/>
<defs>
<linearGradient id="paint0_linear_693_17711" x1="111.643" y1="46.5669" x2="656.412" y2="337.155" gradientUnits="userSpaceOnUse">
<stop stop-color="#FF5E18"/>
<stop offset="1" stop-color="#F6F6F6"/>
</linearGradient>
</defs>
</svg>
