<svg width="416" height="402" viewBox="0 0 416 402" fill="none" xmlns="http://www.w3.org/2000/svg">
<path d="M211.291 0.0250883C96.3726 -1.76623 0.268001 92.6038 0.000559296 207.586C-0.0948664 248.765 12.0227 289.048 34.8198 323.336C57.617 357.625 90.0693 384.378 128.07 400.211C129.428 400.767 130.888 401.03 132.355 400.981C133.821 400.933 135.261 400.574 136.579 399.929C137.897 399.284 139.063 398.368 140.002 397.239C140.94 396.111 141.629 394.797 142.024 393.383L175.896 272.969C176.491 270.887 176.418 268.671 175.688 266.632C174.958 264.593 173.607 262.835 171.826 261.604C162.705 255.454 155.307 247.071 150.337 237.254C145.367 227.436 142.99 216.511 143.431 205.515C144.117 189.373 150.803 174.068 162.178 162.598C173.554 151.128 188.8 144.32 204.931 143.505C213.663 143.093 222.389 144.458 230.579 147.516C238.769 150.575 246.253 155.265 252.579 161.301C258.904 167.338 263.94 174.595 267.38 182.635C270.82 190.675 272.594 199.329 272.594 208.074C272.604 218.634 270.024 229.034 265.079 238.363C260.134 247.692 252.976 255.665 244.233 261.581C242.436 262.81 241.069 264.572 240.326 266.62C239.583 268.667 239.502 270.896 240.094 272.992L273.954 393.406C274.348 394.82 275.038 396.134 275.976 397.263C276.914 398.391 278.081 399.308 279.399 399.953C280.717 400.598 282.157 400.956 283.623 401.005C285.09 401.053 286.55 400.791 287.908 400.234C325.833 384.436 358.235 357.758 381.026 323.565C403.818 289.372 415.979 249.195 415.977 208.098C415.984 153.483 394.526 101.055 356.232 62.1279C317.938 23.2006 265.88 0.895234 211.291 0.0250883Z" fill="url(#paint0_linear_693_17701)"/>
<defs>
<linearGradient id="paint0_linear_693_17701" x1="124.5" y1="9.27579e-07" x2="295.5" y2="434" gradientUnits="userSpaceOnUse">
<stop stop-color="#FF5E18"/>
<stop offset="1" stop-color="#F6F6F6"/>
</linearGradient>
</defs>
</svg>
