<svg width="213" height="82" viewBox="0 0 213 82" fill="none" xmlns="http://www.w3.org/2000/svg">
<path fill-rule="evenodd" clip-rule="evenodd" d="M97.3649 31.1421V37.3831H112.737V43.8951H97.3571V50.6899H113.061V57.1961H90.2131V24.6379H113.069V31.1421H97.3649ZM128.464 45.6913H124.478V57.198H117.324V24.6379H131.731C138.042 24.6379 142.674 28.7452 142.674 35.1695C142.674 37.7341 141.929 40.1954 140.185 42.1184C139.025 43.3844 137.542 44.3102 135.895 44.7961L143.608 57.1961H135.302L128.464 45.6913ZM124.478 31.1421V39.1871H130.992C133.449 39.1871 135.384 37.7302 135.384 35.1656C135.384 32.601 133.449 31.1421 130.992 31.1421H124.478ZM168.868 48.9503V45.4144H159.679V38.9082H176.022V51.667L175.796 51.9167C172.307 55.7763 167.646 57.7929 162.446 57.7929C152.72 57.7929 145.406 50.7543 145.406 40.9365C145.406 31.1187 152.726 24.1289 162.446 24.1289C167.936 24.1289 172.437 26.4341 175.587 30.9218L176.141 31.7019L170.175 35.0583L169.721 34.4089C168.893 33.2524 167.801 32.31 166.536 31.6601C165.27 31.0102 163.868 30.6715 162.446 30.6721C156.595 30.6721 152.695 35.2066 152.695 40.9268C152.695 46.647 156.582 51.2301 162.446 51.2301C164.615 51.2301 167.168 50.372 168.868 48.9405V48.9503ZM178.985 40.9365C178.985 31.2689 185.883 24.1289 195.609 24.1289C205.335 24.1289 212.231 31.2689 212.231 40.9365C212.231 50.6041 205.333 57.7422 195.609 57.7422C185.885 57.7422 178.985 50.6061 178.985 40.9365ZM204.941 40.9365C204.941 35.2943 201.524 30.6819 195.609 30.6819C189.694 30.6819 186.275 35.2729 186.275 40.9365C186.275 46.6002 189.69 51.195 195.609 51.195C201.528 51.195 204.941 46.5592 204.941 40.9365Z" fill="black"/>
<path fill-rule="evenodd" clip-rule="evenodd" d="M38.3959 51.5364H54.2674V58.9124H27.7317V52.2093L38.1736 40.6499L27.7824 29.8199V23.0973H54.2674V30.4713H38.7333L48.3658 40.5583L38.3959 51.5364Z" fill="black"/>
<path d="M40.9995 7.46182L64.719 17.2854L74.5426 41.0049L64.719 64.7243L40.9995 74.5499L17.2801 64.7243L7.45453 41.0049L17.2801 17.2854L40.9995 7.46182ZM40.9995 0C40.578 0.000197212 40.1605 0.0830206 39.7708 0.243786L13.0519 11.3136C12.6622 11.4749 12.3082 11.7113 12.01 12.0095C11.7119 12.3077 11.4754 12.6617 11.3141 13.0513L0.244283 39.7703C-0.0814277 40.5571 -0.0814277 41.441 0.244283 42.2277L11.3141 68.9467C11.4751 69.3365 11.7115 69.6907 12.0097 69.9889C12.3079 70.2871 12.6621 70.5234 13.0519 70.6844L39.7708 81.7543C40.1601 81.9166 40.5778 82.0001 40.9995 82C41.4213 81.9999 41.8388 81.9164 42.2282 81.7543L68.9472 70.6844C69.3368 70.5232 69.6908 70.2867 69.989 69.9885C70.2872 69.6904 70.5237 69.3363 70.6849 68.9467L81.7548 42.2277C82.0805 41.441 82.0805 40.5571 81.7548 39.7703L70.6849 13.0513C70.3587 12.2648 69.7337 11.6398 68.9472 11.3136L42.2282 0.243786C41.8384 0.0832142 41.4211 0.00039848 40.9995 0Z" fill="black"/>
</svg>
