<svg width="82" height="82" viewBox="0 0 82 82" fill="none" xmlns="http://www.w3.org/2000/svg">
<path fill-rule="evenodd" clip-rule="evenodd" d="M38.3959 51.5363H54.2674V58.9123H27.7317V52.2092L38.1736 40.6498L27.7824 29.8198V23.0972H54.2674V30.4712H38.7333L48.3658 40.5581L38.3959 51.5363Z" fill="black"/>
<path d="M40.9995 7.46182L64.719 17.2854L74.5426 41.0049L64.719 64.7243L40.9995 74.5499L17.2801 64.7243L7.45453 41.0049L17.2801 17.2854L40.9995 7.46182ZM40.9995 0C40.578 0.000197212 40.1605 0.0830206 39.7708 0.243786L13.0519 11.3136C12.6622 11.4749 12.3082 11.7113 12.01 12.0095C11.7119 12.3077 11.4754 12.6617 11.3141 13.0513L0.244283 39.7703C-0.0814277 40.5571 -0.0814277 41.441 0.244283 42.2277L11.3141 68.9467C11.4751 69.3365 11.7115 69.6907 12.0097 69.9889C12.3079 70.2871 12.6621 70.5234 13.0519 70.6844L39.7708 81.7543C40.1601 81.9166 40.5778 82.0001 40.9995 82C41.4213 81.9999 41.8388 81.9164 42.2282 81.7543L68.9472 70.6844C69.3368 70.5232 69.6908 70.2867 69.989 69.9885C70.2872 69.6904 70.5237 69.3363 70.6849 68.9467L81.7548 42.2277C82.0805 41.441 82.0805 40.5571 81.7548 39.7703L70.6849 13.0513C70.3587 12.2648 69.7337 11.6398 68.9472 11.3136L42.2282 0.243786C41.8384 0.0832142 41.4211 0.00039848 40.9995 0Z" fill="black"/>
</svg>
