<svg width="40" height="40" viewBox="0 0 40 40" fill="none" xmlns="http://www.w3.org/2000/svg">
<path d="M15.7031 23.9062C16.7969 23.9062 17.6562 23.0469 17.6562 21.9531C17.6562 20.9375 16.7969 20 15.7031 20C14.6094 20 13.75 20.9375 13.75 21.9531C13.75 23.0469 14.6094 23.9062 15.7031 23.9062ZM39.375 20C39.375 9.29688 30.7031 0.625 20 0.625C9.29688 0.625 0.625 9.29688 0.625 20C0.625 30.7031 9.29688 39.375 20 39.375C30.7031 39.375 39.375 30.7031 39.375 20ZM28.9844 16.7969C31.7188 16.7969 32.5781 20.4688 30.1562 21.7188C30.2344 22.1094 30.3125 22.5 30.3125 22.9688C30.3125 27.0312 25.7031 30.3906 20 30.3906C14.2969 30.3906 9.6875 27.0312 9.6875 22.9688C9.6875 22.5 9.6875 22.1094 9.76562 21.7188C7.34375 20.4688 8.20312 16.7969 10.9375 16.7969C11.6406 16.7969 12.3438 17.1094 12.8125 17.5781C14.5312 16.4062 16.875 15.625 19.4531 15.5469L21.0156 8.75C21.0156 8.51562 21.25 8.35938 21.4844 8.4375L26.3281 9.45312C26.6406 8.82812 27.2656 8.4375 28.0469 8.4375C29.1406 8.4375 30 9.29688 30 10.3906C30 11.4062 29.1406 12.2656 28.0469 12.2656C26.9531 12.2656 26.0938 11.4062 26.0938 10.3906L21.7969 9.375L20.3906 15.5469C23.0469 15.625 25.3906 16.4062 27.1094 17.5781C27.6562 17.1094 28.2812 16.7969 28.9844 16.7969ZM23.5938 25.8594C22.1875 27.3438 17.6562 27.2656 16.3281 25.8594C16.1719 25.7031 15.8594 25.7031 15.625 25.8594C15.4688 26.0938 15.4688 26.4062 15.625 26.5625C17.4219 28.3594 22.5 28.3594 24.2969 26.5625C24.4531 26.4062 24.4531 26.0938 24.2969 25.8594C24.0625 25.7031 23.8281 25.7031 23.5938 25.8594ZM24.2188 20C23.125 20 22.2656 20.9375 22.2656 21.9531C22.2656 23.0469 23.2031 23.9062 24.2188 23.9062C25.3125 23.9062 26.1719 23.0469 26.1719 21.9531C26.1719 20.9375 25.3125 20 24.2188 20Z" fill="black"/>
</svg>
