<svg width="39" height="40" viewBox="0 0 39 40" fill="none" xmlns="http://www.w3.org/2000/svg">
<path d="M19.375 0.625C8.67188 0.625 0 9.29688 0 20C0 30.7031 8.67188 39.375 19.375 39.375C30.0781 39.375 38.75 30.7031 38.75 20C38.75 9.29688 30.0781 0.625 19.375 0.625ZM28.8281 13.9062L25.7031 28.9062C25.4688 30 24.8438 30.2344 23.9062 29.7656L19.0625 26.1719L16.7188 28.4375C16.4844 28.6719 16.25 28.9062 15.7812 28.9062L16.0938 23.9844L25.0781 15.8594C25.4688 15.5469 25 15.3125 24.4531 15.625L13.3594 22.6562L8.59375 21.1719C7.57812 20.8594 7.57812 20.0781 8.82812 19.6094L27.5 12.4219C28.3594 12.1094 29.1406 12.6562 28.8281 13.9062Z" fill="black"/>
</svg>
