<svg width="40" height="40" viewBox="0 0 40 40" fill="none" xmlns="http://www.w3.org/2000/svg">
<path d="M35.8594 11.875C37.4219 10.7031 38.8281 9.29688 39.9219 7.65625C38.5156 8.28125 36.875 8.75 35.2344 8.90625C36.9531 7.89062 38.2031 6.32812 38.8281 4.375C37.2656 5.3125 35.4688 6.01562 33.6719 6.40625C32.1094 4.76562 30 3.82812 27.6562 3.82812C23.125 3.82812 19.4531 7.5 19.4531 12.0312C19.4531 12.6562 19.5312 13.2812 19.6875 13.9062C12.8906 13.5156 6.79688 10.2344 2.73438 5.3125C2.03125 6.48438 1.64062 7.89062 1.64062 9.45312C1.64062 12.2656 3.04688 14.7656 5.3125 16.25C3.98438 16.1719 2.65625 15.8594 1.5625 15.2344V15.3125C1.5625 19.2969 4.375 22.5781 8.125 23.3594C7.5 23.5156 6.71875 23.6719 6.01562 23.6719C5.46875 23.6719 5 23.5938 4.45312 23.5156C5.46875 26.7969 8.51562 29.1406 12.1094 29.2188C9.29688 31.4062 5.78125 32.7344 1.95312 32.7344C1.25 32.7344 0.625 32.6562 0 32.5781C3.59375 34.9219 7.89062 36.25 12.5781 36.25C27.6562 36.25 35.8594 23.8281 35.8594 12.9688C35.8594 12.5781 35.8594 12.2656 35.8594 11.875Z" fill="black"/>
</svg>
