<svg width="11" height="11" viewBox="0 0 11 11" fill="none" xmlns="http://www.w3.org/2000/svg">
    <path d="M3.75959 10.5164L4.09559 10.0844L5.22359 7.73238L5.31959 6.77238H5.65559L5.77559 7.73238L6.90359 10.0844L7.21559 10.5164L9.73559 8.76438L9.42359 8.33238L7.55159 6.50838L6.66359 6.12438L6.75959 5.78838L7.69559 6.00438L10.2876 5.66838L10.8156 5.50038L9.80759 2.47638L9.32759 2.64438L7.02359 3.89238L6.37559 4.61238L6.08759 4.37238L6.56759 3.58038L7.02359 0.988376V0.484375H3.95159V0.988376L4.43159 3.58038L4.91159 4.37238L4.59959 4.61238L3.95159 3.89238L1.67159 2.64438L1.16759 2.47638L0.183594 5.50038L0.687594 5.66838L3.27959 6.00438L4.23959 5.78838L4.31159 6.12438L3.44759 6.50838L1.55159 8.33238L1.26359 8.76438L3.75959 10.5164Z" fill="#FF5E18" />
</svg>
    