<svg width="18" height="18" viewBox="0 0 18 18" fill="none" xmlns="http://www.w3.org/2000/svg">
    <path d="M0 3C0 2.20435 0.31607 1.44129 0.87868 0.87868C1.44129 0.31607 2.20435 0 3 0H15C15.7956 0 16.5587 0.31607 17.1213 0.87868C17.6839 1.44129 18 2.20435 18 3V12C18 12.7956 17.6839 13.5587 17.1213 14.1213C16.5587 14.6839 15.7956 15 15 15H12V15.75C12 15.9489 12.079 16.1397 12.2197 16.2803C12.3603 16.421 12.5511 16.5 12.75 16.5H13.5C13.6989 16.5 13.8897 16.579 14.0303 16.7197C14.171 16.8603 14.25 17.0511 14.25 17.25C14.25 17.4489 14.171 17.6397 14.0303 17.7803C13.8897 17.921 13.6989 18 13.5 18H4.5C4.30109 18 4.11032 17.921 3.96967 17.7803C3.82902 17.6397 3.75 17.4489 3.75 17.25C3.75 17.0511 3.82902 16.8603 3.96967 16.7197C4.11032 16.579 4.30109 16.5 4.5 16.5H5.25C5.44891 16.5 5.63968 16.421 5.78033 16.2803C5.92098 16.1397 6 15.9489 6 15.75V15H3C2.20435 15 1.44129 14.6839 0.87868 14.1213C0.31607 13.5587 0 12.7956 0 12V3ZM10.6275 16.5C10.545 16.2652 10.5 16.0125 10.5 15.75V15H7.5V15.75C7.5 16.0125 7.455 16.2652 7.3725 16.5H10.6275ZM15 13.5C15.3978 13.5 15.7794 13.342 16.0607 13.0607C16.342 12.7794 16.5 12.3978 16.5 12H1.5C1.5 12.3978 1.65804 12.7794 1.93934 13.0607C2.22064 13.342 2.60218 13.5 3 13.5H15ZM16.5 3C16.5 2.60218 16.342 2.22064 16.0607 1.93934C15.7794 1.65804 15.3978 1.5 15 1.5H3C2.60218 1.5 2.22064 1.65804 1.93934 1.93934C1.65804 2.22064 1.5 2.60218 1.5 3V10.5H16.5V3Z" fill="white" />
</svg>
    