<svg width="34" height="34" viewBox="0 0 34 34" fill="none" xmlns="http://www.w3.org/2000/svg">
    <path d="M28.0852 0.84375H13.1261V20.7902H33.2024V6.0334C33.2105 3.23148 30.9054 0.84375 28.0852 0.84375ZM8.53213 0.84375H6.02261C3.20245 0.84375 0.791016 3.1259 0.791016 6.04152V8.53482H8.53213V0.84375ZM0.791016 13.2047H8.53213V20.8958H0.791016V13.2047ZM25.4694 33.1511H27.9789C30.7991 33.1511 33.2105 30.869 33.2105 27.9534V25.4682H25.4694V33.1511ZM13.1261 25.4682H20.8672V33.1593H13.1261V25.4682ZM0.791016 25.4682V27.9615C0.791016 30.7634 3.08801 33.1593 6.02261 33.1593H8.53213V25.4682H0.791016Z" fill="white" />
</svg>