<svg width="55" height="48" viewBox="0 0 55 48" fill="none" xmlns="http://www.w3.org/2000/svg">
    <ellipse cx="21.9975" cy="26.2531" rx="21.4975" ry="20.7531" fill="#585858" />
    <path d="M20.0224 31.6566L14.3848 26.3188L15.9159 24.851L20.0224 28.8542L28.3049 20.8477L29.8361 22.3155L20.0224 31.6566Z" fill="#807e7e" />
    <path d="M47.076 10.532L47.412 10.1L48.54 7.748L48.636 6.788H48.972L49.092 7.748L50.22 10.1L50.532 10.532L53.052 8.78L52.74 8.348L50.868 6.524L49.98 6.14L50.076 5.804L51.012 6.02L53.604 5.684L54.132 5.516L53.124 2.492L52.644 2.66L50.34 3.908L49.692 4.628L49.404 4.388L49.884 3.596L50.34 1.004V0.5H47.268V1.004L47.748 3.596L48.228 4.388L47.916 4.628L47.268 3.908L44.988 2.66L44.484 2.492L43.5 5.516L44.004 5.684L46.596 6.02L47.556 5.804L47.628 6.14L46.764 6.524L44.868 8.348L44.58 8.78L47.076 10.532Z" fill="#FF5E18" />
</svg>
    