<svg width="12" height="18" viewBox="0 0 12 18" fill="none" xmlns="http://www.w3.org/2000/svg">
    <path d="M10.6009 0H1.39995C0.699969 0 0.130859 0.576563 0.130859 1.28571V16.7143C0.130859 17.4234 0.699969 18 1.39995 18H10.6009C11.3009 18 11.87 17.4234 11.87 16.7143V1.28571C11.87 0.576563 11.3009 0 10.6009 0ZM10.4423 16.5536H1.55859V1.44643H10.4423V16.5536ZM5.20724 14.5045C5.20724 14.7176 5.29081 14.922 5.43956 15.0727C5.58831 15.2234 5.79006 15.308 6.00042 15.308C6.21079 15.308 6.41254 15.2234 6.56129 15.0727C6.71004 14.922 6.79361 14.7176 6.79361 14.5045C6.79361 14.2913 6.71004 14.087 6.56129 13.9363C6.41254 13.7856 6.21079 13.7009 6.00042 13.7009C5.79006 13.7009 5.58831 13.7856 5.43956 13.9363C5.29081 14.087 5.20724 14.2913 5.20724 14.5045Z" fill="white" />
</svg>
    