<svg width="50" height="40" viewBox="0 0 50 40" fill="none" xmlns="http://www.w3.org/2000/svg">
<g clip-path="url(#clip0_254_5649)">
<path d="M50 25.9618C50 19.0989 43.2812 13.5006 35.0082 13.5006C26.7352 13.5006 20.0624 19.0989 20.0624 25.9618C20.0624 32.8248 26.7812 38.423 35.0542 38.423C36.6544 38.423 38.1625 38.2432 39.5787 37.8361C39.9908 37.7452 40.4468 37.7907 40.8589 37.9725L44.5613 39.9584C44.7893 40.0948 45.1094 39.8675 45.0174 39.5968L44.2853 36.6623C44.1933 36.2118 44.3313 35.7593 44.7413 35.4885C47.9437 33.1864 50 29.7994 50 25.9618ZM29.6615 24.3375C28.5194 24.3375 27.6053 23.4344 27.6053 22.3061C27.6053 21.1777 28.5194 20.2746 29.6615 20.2746C30.8037 20.2746 31.7178 21.1777 31.7178 22.3061C31.7178 23.4344 30.8037 24.3375 29.6615 24.3375ZM39.7627 24.3375C38.6206 24.3375 37.7065 23.4344 37.7065 22.3061C37.7065 21.1777 38.6206 20.2746 39.7627 20.2746C40.9049 20.2746 41.819 21.1777 41.819 22.3061C41.819 23.4344 40.8589 24.3375 39.7627 24.3375Z" fill="black"/>
<path d="M18.8303 26.0073C18.8303 18.3776 26.1432 12.1905 35.1923 12.1905H35.8783C34.4142 5.28209 27.0113 0 18.0982 0C8.08898 0 0 6.59223 0 14.7653C0 19.2807 2.5143 23.3435 6.44478 26.0528C6.71881 26.2326 6.81083 26.5488 6.76482 26.8649L5.39465 31.651C5.30264 31.9672 5.66869 32.2834 5.98873 32.1016L11.3354 28.9418C11.7014 28.7165 12.1115 28.6711 12.5235 28.8055C14.3057 29.256 16.18 29.5287 18.1002 29.5287C18.5122 29.5287 18.9223 29.5287 19.3803 29.4833C19.0123 28.3549 18.8303 27.1811 18.8303 26.0073ZM24.1769 7.81148C25.5031 7.81148 26.5992 8.89438 26.5992 10.2045C26.5992 11.5147 25.5031 12.5976 24.1769 12.5976C22.8508 12.5976 21.7546 11.5147 21.7546 10.2045C21.7546 8.89438 22.8528 7.81148 24.1769 7.81148ZM12.0195 12.5976C10.6933 12.5976 9.59716 11.5147 9.59716 10.2045C9.59716 8.89438 10.6933 7.81148 12.0195 7.81148C13.3456 7.81148 14.4417 8.89438 14.4417 10.2045C14.4417 11.5147 13.3916 12.5976 12.0195 12.5976Z" fill="black"/>
</g>
<defs>
<clipPath id="clip0_254_5649">
<rect width="50" height="40" fill="white"/>
</clipPath>
</defs>
</svg>
