<svg width="45" height="40" viewBox="0 0 45 40" fill="none" xmlns="http://www.w3.org/2000/svg">
<path d="M42.8906 9.76562C42.4219 7.89062 40.9375 6.40625 39.1406 5.9375C35.7812 5 22.5 5 22.5 5C22.5 5 9.14062 5 5.78125 5.9375C3.98438 6.40625 2.5 7.89062 2.03125 9.76562C1.09375 13.0469 1.09375 20.0781 1.09375 20.0781C1.09375 20.0781 1.09375 27.0312 2.03125 30.3906C2.5 32.2656 3.98438 33.6719 5.78125 34.1406C9.14062 35 22.5 35 22.5 35C22.5 35 35.7812 35 39.1406 34.1406C40.9375 33.6719 42.4219 32.2656 42.8906 30.3906C43.8281 27.0312 43.8281 20.0781 43.8281 20.0781C43.8281 20.0781 43.8281 13.0469 42.8906 9.76562ZM18.125 26.4062V13.75L29.2188 20.0781L18.125 26.4062Z" fill="black"/>
</svg>
