<svg width="227" height="102" viewBox="0 0 227 102" fill="none" xmlns="http://www.w3.org/2000/svg">
<path d="M20.5421 48.4867C19.6243 44.4841 18.937 40.4322 18.4835 36.3509V36.1656C12.4824 32.8305 6.56378 29.3308 0.655401 25.8723L0.367188 25.6973V76.3611L0.511294 76.2273C1.04838 75.669 1.64559 75.1719 2.29204 74.745C10.0635 70.4012 17.732 65.9236 25.5035 61.5593C23.4329 57.3715 21.7714 52.9937 20.5421 48.4867Z" fill="url(#paint0_linear_324_9962)"/>
<path d="M2.294 24.8012C16.0871 16.8341 29.8767 8.85677 43.6629 0.869141C43.735 7.04514 43.5394 13.2211 43.6629 19.4589C43.7865 20.863 43.7865 22.2751 43.6629 23.6792C34.8081 23.5707 26.118 26.0771 18.681 30.8845C18.681 32.6447 18.5266 34.3945 18.5781 36.1547C12.577 32.8197 6.65838 29.3199 0.75 25.8614C1.22349 25.4908 1.74845 25.1305 2.294 24.8012Z" fill="#8BE4EE"/>
<path d="M43.663 0.869141C57.5693 9.10381 86.895 25.8099 86.895 25.8099C86.895 25.8099 74.5944 32.8402 68.6346 36.2268C68.6861 34.5181 68.5728 32.8094 68.6346 31.0801C61.1135 26.3695 52.4439 23.8131 43.5703 23.6895C43.5703 23.6895 43.735 7.06573 43.663 0.869141Z" fill="#92C8E2"/>
<path d="M18.617 30.8946C25.9563 26.0992 34.5544 23.5914 43.321 23.6893H43.568V28.383C36.0777 28.1366 28.6918 30.1915 22.4049 34.2708C22.4049 35.681 22.302 37.1015 22.4049 38.522C21.1697 37.7294 19.8419 37.0603 18.5449 36.3501V36.1648C18.4626 34.4046 18.5758 32.6548 18.617 30.8946Z" fill="#8FB9D4"/>
<path d="M24.4427 35.3108C30.1515 31.7096 36.8245 29.939 43.5677 30.2362V37.7504C42.0443 38.2033 40.315 38.5635 39.3269 39.9428C38.4557 40.976 38.0077 42.3004 38.0726 43.6503C38.1375 45.0001 38.7106 46.2754 39.6768 47.2202C40.4003 47.8329 40.9563 48.6191 41.2929 49.5054C35.6522 46.3041 30.0526 42.9897 24.4427 39.7473C24.4427 38.2444 24.0619 36.7313 24.4427 35.3108Z" fill="#8FB9D4"/>
<path d="M43.5703 23.6895C52.4284 23.8286 61.079 26.3918 68.5831 31.1007C68.5831 32.8094 68.6861 34.518 68.5831 36.2473V36.3811C66.9877 37.2252 65.4334 38.1516 63.8379 39.0059C63.8379 37.4928 64.2496 35.8562 63.7658 34.4048C62.418 33.4495 60.9551 32.6679 59.4118 32.0785C54.4504 29.8963 49.0875 28.2082 43.5703 28.4244V23.6895Z" fill="#829DB4"/>
<path d="M43.5703 30.2365C48.4532 30.1588 53.2909 31.1826 57.7237 33.2319C59.2471 33.9421 60.7396 34.7347 62.2321 35.517C62.2802 36.9996 62.2045 38.4835 62.0057 39.9534C61.9836 40.0382 61.9664 40.1241 61.9542 40.2108C56.6737 43.165 51.5271 46.3147 46.2672 49.2792C46.5348 47.2205 48.8405 46.0471 48.7376 43.834C49.2214 40.746 46.3907 38.2962 43.5909 37.7507C43.5703 35.2494 43.5703 32.7378 43.5703 30.2365Z" fill="#829DB4"/>
<path d="M63.8049 34.384C62.4571 33.4287 60.9942 32.6471 59.4509 32.0577C54.4483 29.8961 49.0855 28.208 43.5682 28.4241C36.0779 28.1777 28.692 30.2326 22.4051 34.3119C22.4051 35.7221 22.3022 37.1426 22.4051 38.5631L22.5698 38.6969C23.1874 39.0674 23.8256 39.4071 24.4638 39.7262C24.4638 38.2646 24.0829 36.7514 24.4638 35.331C30.1644 31.7266 36.8298 29.9489 43.5682 30.2358C48.4511 30.158 53.2888 31.1819 57.7216 33.2311C59.245 33.9414 60.7375 34.7339 62.2301 35.5162C62.2782 36.9988 62.2024 38.4827 62.0036 39.9527L63.8461 39.2836C63.8512 39.1842 63.8512 39.0845 63.8461 38.9851C63.8461 37.472 64.2887 35.8353 63.8049 34.384Z" fill="url(#paint1_linear_324_9962)"/>
<path d="M18.5234 36.3496C19.8204 37.0598 21.1482 37.7289 22.3834 38.5215L22.5481 38.6553C22.8296 42.5595 23.5196 46.4235 24.6068 50.1839C27.211 60.1581 33.6135 69.8133 43.5671 73.6218V78.0068H43.2995C35.5692 74.9805 29.4344 68.7427 25.4817 61.5374C23.4099 57.3431 21.7484 52.9583 20.5203 48.4443C19.6248 44.4541 18.9581 40.4159 18.5234 36.3496Z" fill="#3580B0"/>
<path d="M24.4453 39.748C30.0552 43.0316 35.6548 46.3461 41.3058 49.5473C40.1095 53.0146 39.1129 56.5476 38.3207 60.1289H43.5703V71.6574C34.4401 67.8489 28.6862 58.8216 26.1849 49.5782C25.3151 46.3594 24.733 43.0698 24.4453 39.748Z" fill="#3580B0"/>
<path d="M63.8791 38.9861C65.4745 38.1318 67.0288 37.2054 68.6243 36.3613C68.264 38.42 68.0993 40.6125 67.77 42.7329C66.6756 49.3228 64.5533 55.6999 61.4807 61.6315C57.5178 68.7853 51.4241 75.2084 43.5703 78.0082V73.2012C48.8551 71.0559 53.3262 67.2946 56.3443 62.4549C58.1734 59.7748 59.6312 56.8593 60.6778 53.788C62.3666 49.1131 63.4359 44.2372 63.8585 39.2846C63.8705 39.1856 63.8773 39.0859 63.8791 38.9861Z" fill="#1D4D75"/>
<path d="M46.2775 49.2794C51.5374 46.3149 56.684 43.1651 61.9645 40.2109C61.5988 44.0605 60.8083 47.8579 59.6073 51.5336C58.5288 54.8441 57.0566 58.0131 55.2224 60.9726C52.3824 65.4302 48.3442 68.9975 43.5703 71.2659V60.108H48.9949C48.295 56.4435 47.2759 52.8512 46.2775 49.2794Z" fill="#1D4D75"/>
<path d="M39.3394 39.9435C40.3687 38.5641 42.0568 38.2039 43.5802 37.751V50.8956C42.8185 50.4427 42.0465 49.9795 41.2951 49.506C40.9585 48.6197 40.4025 47.8335 39.679 47.2208C38.7143 46.2747 38.143 44.9987 38.08 43.6489C38.017 42.299 38.4669 40.9753 39.3394 39.9435Z" fill="#86D2EB"/>
<path d="M43.5689 37.751C46.3893 38.2965 49.2199 40.7155 48.7156 43.8343C48.8185 46.0474 46.5128 47.2106 46.2452 49.2795C45.3599 49.8251 44.4541 50.3603 43.5586 50.8956C43.5689 46.5106 43.5689 42.1256 43.5689 37.751Z" fill="#84A7CE"/>
<path d="M86.8741 38.8625V25.8105C86.7609 25.8105 74.5942 32.8409 68.6343 36.2274V36.3612C68.2741 38.4199 68.1094 40.6124 67.78 42.7328C66.6823 49.3232 64.5566 55.7004 61.4805 61.6314C67.9447 65.1002 74.2545 68.8367 80.6878 72.3879C82.7465 73.4172 84.5272 74.9921 86.8638 75.3215C86.9668 63.1754 86.8021 51.0704 86.8741 38.8625Z" fill="url(#paint2_linear_324_9962)"/>
<path d="M26.2255 49.567C25.3424 46.3528 24.7465 43.0666 24.4448 39.7471C23.8066 39.4074 23.1684 39.0677 22.5508 38.7178C22.8322 42.622 23.5222 46.486 24.6094 50.2463C27.2137 60.1588 33.6161 69.814 43.5698 73.6225V73.2005V71.6462C34.4808 67.8376 28.7268 58.8104 26.2255 49.567Z" fill="url(#paint3_linear_324_9962)"/>
<path d="M43.5675 50.8944C44.463 50.3591 45.3688 49.865 46.254 49.2783C47.2834 52.8501 48.3127 56.4837 48.9715 60.0966H43.5469C43.5675 57.0292 43.5675 53.9618 43.5675 50.8944Z" fill="#225EA6"/>
<path d="M41.3043 49.5049C42.0557 49.9784 42.8277 50.4416 43.5894 50.8945V60.1585H38.3398C39.1226 56.5533 40.1124 52.9962 41.3043 49.5049Z" fill="#30ADD9"/>
<path d="M62.016 39.9532C61.9939 40.038 61.9767 40.1239 61.9645 40.2106C61.5988 44.0602 60.8083 47.8575 59.6073 51.5333C58.5288 54.8438 57.0566 58.0128 55.2224 60.9722C52.3824 65.4298 48.3442 68.9972 43.5703 71.2656V73.211C48.8566 71.0631 53.3279 67.2979 56.3443 62.4545C58.1734 59.7743 59.6312 56.8588 60.6778 53.7875C62.3666 49.1126 63.4359 44.2367 63.8585 39.2842L62.016 39.9532Z" fill="url(#paint4_linear_324_9962)"/>
<path d="M2.2921 74.7444C10.0636 70.4006 17.7321 65.923 25.5036 61.5586C29.4562 68.7639 35.591 75.012 43.3213 78.0279C43.6426 80.3672 43.7254 82.7331 43.5684 85.0892V94.3532C43.5684 96.5765 43.2905 98.8411 43.9286 101.013L43.9801 101.26C43.0056 100.866 42.0742 100.373 41.2009 99.7881C27.6137 91.9308 14.0402 84.0633 0.480469 76.1854C1.02938 75.6398 1.63695 75.1565 2.2921 74.7444Z" fill="#1F75B2"/>
<path d="M43.5695 78.0076C51.4027 75.2078 57.4964 68.7436 61.4593 61.6309C67.9235 65.0997 74.2333 68.8362 80.6667 72.3874C82.7253 73.4167 84.5061 74.9916 86.8427 75.321H87.0073C86.9044 76.2886 85.906 76.5665 85.206 77.0194C71.4129 85.0379 57.6713 93.077 43.8783 101.023C43.2401 98.8516 43.5283 96.587 43.518 94.3637V85.0997C43.6763 82.7542 43.597 80.3988 43.2812 78.0693L43.5695 78.0076Z" fill="#225BA5"/>
<path d="M98.6584 65.6053V56.2178H103.27C108.571 56.2178 109.991 56.3824 111.649 57.1853C113.8 58.2147 114.675 59.9748 114.5 62.9187C114.526 64.379 113.97 65.7897 112.956 66.8405C111.535 68.261 110.135 68.6521 105.915 68.8065L102.827 68.9197V75.0957H98.7098L98.6584 65.6053ZM108.262 65.1524C108.717 64.9387 109.121 64.6298 109.446 64.2466C109.657 64.0043 109.816 63.7213 109.914 63.415C110.011 63.1086 110.045 62.7856 110.012 62.4658C110.012 60.088 109.219 59.5425 105.39 59.3778L102.807 59.3058V65.3994H105.226C106.244 65.4313 107.262 65.3485 108.262 65.1524ZM112.812 74.8487C112.812 74.7561 113.151 73.8194 113.543 72.79C113.934 71.7607 114.757 69.702 115.313 68.2918C115.869 66.8817 117.186 63.5054 118.205 60.9012L120.058 56.1251H125.38L125.997 57.7823C126.79 59.841 128.849 65.1112 129.703 67.2625C131.607 72.1313 132.4 74.1899 132.523 74.5811L132.657 75.0134H130.341L128.036 74.9516L127.356 73.0268L126.677 71.0813H118.442L118.329 71.6166C118.247 71.8945 117.948 72.7797 117.65 73.5929L117.083 75.0443H114.932C114.219 75.1138 113.5 75.0474 112.812 74.8487ZM124.073 63.7731C123.352 61.7144 122.734 59.9954 122.693 59.9645C122.652 59.9336 122.415 60.088 121.87 61.6526L120.563 65.3788L119.811 67.5404H125.39L124.073 63.7731ZM134.829 74.9105C134.757 74.8487 134.695 70.6078 134.695 65.4715V56.2178H139.842C145.122 56.2178 146.543 56.3516 148.015 56.9898C151.432 58.4411 151.957 63.9789 148.859 65.9964C148.471 66.2673 148.039 66.4693 147.583 66.5934C147.366 66.5934 147.521 66.7684 147.994 67.0258C149.024 67.6125 149.693 68.7139 150.166 70.577C150.408 71.9126 150.834 73.2081 151.432 74.4267C151.539 74.5838 151.62 74.7577 151.669 74.9413C150.938 75.0919 150.19 75.1404 149.446 75.0854H147.222L146.914 74.4678C146.625 73.7093 146.387 72.9321 146.203 72.1415C146.03 70.9564 145.547 69.8379 144.803 68.8991C144.052 68.0654 143.517 67.8698 141.201 67.8698H139.029V75.0751H136.97C136.253 75.095 135.535 75.0398 134.829 74.9105ZM145.122 64.6171C145.7 64.2044 146.117 63.6056 146.304 62.9214C146.492 62.2371 146.438 61.5092 146.152 60.86C145.699 59.8307 145.205 59.7072 142.034 59.6557L139.049 59.5734V64.895H141.787C142.903 64.9835 144.026 64.8719 145.102 64.5657L145.122 64.6171ZM158.473 67.3963V59.7484H152.297V56.2178H169.044V59.7998H162.817V75.034H158.473V67.3963ZM171.309 65.6053V56.2178H173.532C175.745 56.2178 175.745 56.2178 176.064 56.7427C176.383 57.2677 182.631 66.1302 182.951 66.5008C183.043 66.614 183.445 67.2007 183.856 67.8286L184.618 68.9506L184.587 62.5482L184.525 56.1663H188.509V75.034H184.196L183.167 73.6444C182.621 72.8724 182.034 72.0592 181.89 71.8327C181.746 71.6063 181.098 70.7211 180.47 69.8461C179.842 68.9712 179.204 68.0963 179.06 67.8698C178.916 67.6434 178.514 67.0978 178.185 66.6552C177.855 66.2126 177.032 65.0391 176.322 63.9995L175.014 62.0747V68.5492L175.066 75.034H171.309V65.6053ZM192.441 65.6053V56.2178H206.975V59.7998H196.785V63.9172H205.091V67.1184H196.785V71.4519H207.16V75.034H192.441V65.6053ZM209.806 65.6053V56.2178H214.952C217.855 56.2178 220.593 56.3104 221.211 56.4236C224.299 56.9898 225.894 58.7705 225.915 61.6938C226.024 62.7494 225.76 63.81 225.167 64.6905C224.575 65.5709 223.692 66.2153 222.673 66.5111C222.467 66.5111 222.6 66.6655 223.012 66.8919C224.258 67.5507 224.783 68.4977 225.452 71.3284C225.656 72.1959 225.928 73.046 226.265 73.8708C226.491 74.3443 226.697 74.7766 226.728 74.9002C226.008 75.0306 225.276 75.0721 224.546 75.0237H222.281L221.993 74.4061C221.676 73.5936 221.411 72.7616 221.201 71.9151C220.336 68.4977 219.574 67.8801 216.26 67.8595H214.129V75.0649H209.806V65.6053ZM220.315 64.4524C220.622 64.2633 220.891 64.019 221.108 63.7319C221.46 62.9032 221.539 61.9839 221.334 61.1071C221.288 60.8365 221.167 60.5842 220.986 60.3787C220.804 60.1732 220.568 60.0226 220.305 59.9439C219.584 59.6043 219.132 59.5425 216.816 59.5425H214.139V64.823H216.929C219.358 64.8436 219.79 64.7921 220.315 64.4524ZM157.722 52.6768C156.925 52.5781 156.137 52.4199 155.364 52.2034C154.085 51.8486 152.889 51.2414 151.848 50.4177C150.807 49.5939 149.941 48.5701 149.302 47.4067C148.344 45.4303 148.375 45.348 150.65 44.3187C152.925 43.2893 153.12 43.2893 153.244 44.0201C153.683 45.2569 154.519 46.3136 155.622 47.0258C156.984 47.7521 158.495 48.157 160.038 48.2095C161.387 48.1747 162.695 47.7374 163.795 46.9537C164.052 46.7352 164.261 46.4648 164.408 46.1602C164.554 45.8556 164.635 45.5235 164.645 45.1857C164.654 44.8478 164.593 44.5117 164.464 44.1991C164.335 43.8866 164.142 43.6047 163.898 43.3717C163.156 42.6717 161.077 41.838 157.722 40.9321C152.575 39.5425 150.403 37.8441 149.682 34.6841C148.488 29.3624 152.462 25.7598 159.513 25.7598C164.289 25.7598 167.634 27.6126 169.404 31.277C169.716 31.7915 169.926 32.3611 170.022 32.9548C168.58 33.546 167.102 34.0445 165.596 34.4473C165.442 34.4473 165.236 34.1077 165.102 33.6856C164.776 32.8356 164.216 32.095 163.488 31.5487C162.76 31.0024 161.892 30.6728 160.985 30.5976C158.535 30.1756 156.322 30.7417 155.478 32.0078C155.219 32.3156 155.072 32.7018 155.061 33.1036C155.05 33.5054 155.175 33.8992 155.416 34.2209C156.116 35.3737 156.816 35.6723 162.117 37.1236C163.362 37.4633 164.515 37.803 164.659 37.8853L166.265 38.6367C167.76 39.3014 169.009 40.4172 169.837 41.8277C170.176 42.5379 170.228 43.0114 170.228 44.9157C170.228 47.0361 170.228 47.242 169.703 48.1787C168.437 50.577 165.894 52.1313 162.384 52.6357C160.85 52.9728 159.262 52.9868 157.722 52.6768ZM98.6584 39.3676V26.5215L106.821 26.5729C114.86 26.6347 114.994 26.6553 116.208 27.0876C119.204 28.1787 120.449 29.9183 120.449 32.9548C120.539 33.8674 120.341 34.7852 119.883 35.5796C119.465 36.3484 118.877 37.0114 118.163 37.518C117.449 38.0246 116.63 38.3615 115.766 38.5029C115.148 38.6676 114.942 38.7911 115.22 38.7911C116.878 38.9953 118.43 39.7154 119.657 40.8498C120.789 42.0129 120.974 42.5997 120.974 45.0495C121.088 46.0987 120.94 47.1598 120.542 48.1375C119.898 49.375 118.893 50.3874 117.66 51.0402C115.601 52.0695 115.128 52.0695 106.595 52.1931L98.6172 52.2754L98.6584 39.3676ZM112.41 47.8801C113.168 47.7662 113.857 47.3742 114.342 46.7807C114.827 46.1871 115.074 45.4342 115.035 44.6686C115.149 44.0481 115.075 43.4077 114.821 42.8299C114.568 42.252 114.148 41.7631 113.615 41.4262C112.925 40.9939 112.75 40.9733 108.622 40.9219L104.299 40.8601V48.0654H107.943C109.94 48.0345 111.957 47.9831 112.41 47.8801ZM112.585 36.8251C113.034 36.6447 113.428 36.3522 113.731 35.9754C114.034 35.5987 114.235 35.1505 114.315 34.6738C114.539 33.8877 114.449 33.0453 114.065 32.3236C113.682 31.602 113.033 31.0571 112.256 30.8035C111.916 30.7417 109.991 30.6903 107.984 30.6903H104.299V37.103H108.066C111.072 37.103 112.019 37.0516 112.585 36.8251ZM125.071 39.3676V26.5421H131.638C138.174 26.5421 140.058 26.6759 141.623 27.2008C145.246 28.4257 146.965 30.8447 146.965 34.7458C146.965 39.2749 144.639 42.3115 140.398 43.2584C138.623 43.5285 136.83 43.6627 135.035 43.6599L130.918 43.7731V52.2034H125.061L125.071 39.3676ZM137.958 38.9147C140.017 38.3176 140.81 37.103 140.81 34.7973C140.901 34.0846 140.756 33.3616 140.398 32.7386C139.492 31.2873 138.072 30.8858 133.717 30.8858H130.928V39.1926H134.016C135.336 39.2607 136.66 39.1674 137.958 38.9147ZM171.875 52.0387C172.123 51.1574 172.439 50.297 172.822 49.4653C172.915 49.2595 173.213 48.508 173.501 47.7669C173.789 47.0258 174.345 45.523 174.798 44.3701C175.251 43.2173 176.085 41.066 176.672 39.5631C177.258 38.0603 177.824 36.6501 177.917 36.4751C178.01 36.3001 178.483 35.0855 178.946 33.84C179.41 32.5945 180.233 30.4432 180.758 29.0742L181.726 26.5729H188.931L189.425 27.7567C189.888 28.8581 190.815 31.2667 193.542 38.2662C194.17 39.8719 194.757 41.3542 194.85 41.5703C194.942 41.7865 195.436 43.0114 197.752 49.1256C198.226 50.3711 198.699 51.5343 198.782 51.7093C198.861 51.8452 198.923 51.9904 198.967 52.1416C197.919 52.2191 196.867 52.2363 195.817 52.1931L192.729 52.1004L192.122 50.402C191.803 49.4756 191.37 48.2507 191.195 47.7155L190.856 46.6861H179.76L179.574 47.2214C179.461 47.4993 179.029 48.7139 178.596 49.8976L177.824 52.1004L174.86 52.1519C173.864 52.2494 172.86 52.2113 171.875 52.0387ZM189.044 41.8791C189.044 41.7453 188.499 40.1601 187.253 36.6398C186.759 35.2914 186.141 33.5518 185.874 32.7284C185.745 32.2054 185.529 31.7078 185.236 31.2564C185.192 31.2638 185.152 31.2865 185.124 31.3205C185.096 31.3545 185.081 31.3975 185.081 31.4417C185.081 31.5549 184.711 32.6666 184.258 33.9533C182.611 38.5544 181.499 41.7453 181.499 41.8791C182.753 42.0175 184.016 42.0622 185.277 42.0129C186.534 42.062 187.793 42.0173 189.044 41.8791ZM199.615 52.0387C199.615 51.8843 201.334 47.4067 201.674 46.6347C201.767 46.4288 202.446 44.6892 203.198 42.7644C205.441 36.9383 206.574 34.015 206.769 33.6136C206.965 33.2121 207.932 30.6697 209.085 27.6332L209.507 26.5421H213.141C216.733 26.5421 216.785 26.5421 216.96 26.9744C217.052 27.2008 217.691 28.8375 218.37 30.5976C219.049 32.3578 219.955 34.6532 220.356 35.7443C220.758 36.8354 221.643 39.0279 222.353 40.7777C223.064 42.5276 223.681 44.154 223.774 44.3598C223.867 44.5657 224.299 45.6259 224.7 46.717C225.102 47.8081 225.73 49.455 226.11 50.3814C226.491 51.3078 226.79 52.1004 226.79 52.1004C225.761 52.1524 224.731 52.1524 223.702 52.1004H220.521L219.976 50.5873C219.642 49.6961 219.329 48.7969 219.039 47.8904L218.638 46.717H213.048L207.469 46.7788L207.037 48.0037C206.79 48.683 206.368 49.8874 206.111 50.7005L205.616 52.1519H202.611C201.611 52.2232 200.607 52.1853 199.615 52.0387ZM216.785 41.8071C216.785 41.7144 216.322 40.3043 215.755 38.6573C215.189 37.0104 214.51 35.0752 214.242 34.3341C213.975 33.593 213.635 32.6048 213.429 32.0799L213.069 31.1329L212.842 31.699C212.729 32.0181 212.359 33.0783 211.998 34.0562C211.638 35.0341 210.969 36.9589 210.485 38.2971C209.693 40.5101 209.26 41.7968 209.26 41.9306C209.26 42.0644 210.959 41.9821 213.038 41.9821C214.29 42.0419 215.544 41.9833 216.785 41.8071Z" fill="#1B639F"/>
<defs>
<linearGradient id="paint0_linear_324_9962" x1="12.9251" y1="28.1162" x2="12.9251" y2="73.7569" gradientUnits="userSpaceOnUse">
<stop stop-color="#39C8DE"/>
<stop offset="1" stop-color="#2EA3D8"/>
</linearGradient>
<linearGradient id="paint1_linear_324_9962" x1="63.2388" y1="34.1472" x2="23.4139" y2="34.1472" gradientUnits="userSpaceOnUse">
<stop stop-color="#7BC8E5"/>
<stop offset="1" stop-color="#7EEAFF"/>
</linearGradient>
<linearGradient id="paint2_linear_324_9962" x1="74.1824" y1="26.4281" x2="74.1824" y2="74.0966" gradientUnits="userSpaceOnUse">
<stop stop-color="#3A95C8"/>
<stop offset="1" stop-color="#3277C1"/>
</linearGradient>
<linearGradient id="paint3_linear_324_9962" x1="21.0685" y1="40.9308" x2="41.0685" y2="73.8901" gradientUnits="userSpaceOnUse">
<stop stop-color="#34D6FE"/>
<stop offset="1" stop-color="#36E4EE"/>
</linearGradient>
<linearGradient id="paint4_linear_324_9962" x1="64.8981" y1="41.6105" x2="46.4936" y2="72.6037" gradientUnits="userSpaceOnUse">
<stop stop-color="#2397C4"/>
<stop offset="1" stop-color="#1C8088"/>
</linearGradient>
</defs>
</svg>
