<svg width="317" height="79" viewBox="0 0 317 79" fill="none" xmlns="http://www.w3.org/2000/svg">
<path d="M298.89 49.6401C297.281 49.6401 295.793 49.2454 294.488 48.4864C293.182 47.7274 292.12 46.6344 291.361 45.2378C290.602 43.8412 290.207 42.2321 290.207 40.4408C290.207 38.6495 290.602 37.0403 291.361 35.6437C292.12 34.2471 293.152 33.1845 294.488 32.3951C295.793 31.6361 297.281 31.2414 298.89 31.2414C300.499 31.2414 301.987 31.6361 303.293 32.3951C304.598 33.1541 305.661 34.2471 306.42 35.6437C307.179 37.0403 307.574 38.6495 307.574 40.4408C307.574 42.2624 307.179 43.8412 306.42 45.2378C305.661 46.6344 304.598 47.697 303.293 48.4864C301.987 49.2758 300.499 49.6401 298.89 49.6401ZM298.89 57.1696C302.291 57.1696 305.357 56.4409 308.059 55.014C310.761 53.587 312.887 51.5832 314.435 49.0329C315.983 46.4826 316.743 43.6287 316.743 40.4408C316.743 37.2529 315.983 34.3989 314.435 31.8486C312.887 29.2983 310.761 27.3249 308.059 25.8675C305.357 24.4406 302.291 23.7119 298.89 23.7119C295.49 23.7119 292.423 24.4406 289.721 25.8675C287.019 27.2945 284.894 29.2983 283.346 31.8486C281.797 34.3989 281.038 37.2529 281.038 40.4408C281.038 43.6287 281.797 46.4826 283.346 49.0329C284.894 51.5832 287.019 53.5567 289.721 55.014C292.423 56.4713 295.49 57.1696 298.89 57.1696ZM266.283 48.5775C264.765 49.2758 263.125 49.6401 261.364 49.6401C259.603 49.6401 258.025 49.2454 256.628 48.456C255.262 47.6666 254.169 46.604 253.41 45.2074C252.651 43.8108 252.256 42.2321 252.256 40.4408C252.256 37.6476 253.106 35.4312 254.776 33.7614C256.446 32.0915 258.692 31.2718 261.425 31.2718C264.461 31.2718 267.072 32.4558 269.228 34.8544L275.027 29.6323C273.448 27.7196 271.444 26.2926 269.046 25.2603C266.647 24.2584 263.975 23.7423 260.97 23.7423C257.539 23.7423 254.472 24.4406 251.74 25.8675C249.007 27.2945 246.882 29.268 245.364 31.8183C243.846 34.3686 243.057 37.2529 243.057 40.4408C243.057 43.659 243.816 46.5433 245.364 49.0632C246.882 51.6136 249.007 53.587 251.709 55.014C254.412 56.4409 257.448 57.1392 260.818 57.1392C263.216 57.1392 265.584 56.7749 267.983 56.0766C270.381 55.3783 272.476 54.3764 274.328 53.0405V39.7121H266.283V48.5775ZM227.694 36.2813C227.694 37.769 227.208 38.9531 226.267 39.7425C225.326 40.5622 223.899 40.9569 222.047 40.9569H217.007V31.545H222.047C223.899 31.545 225.326 31.9701 226.267 32.7898C227.208 33.6096 227.694 34.7936 227.694 36.2813ZM227.785 56.532H237.531L230.609 46.4219C232.643 45.4503 234.191 44.0841 235.284 42.3535C236.377 40.6229 236.924 38.5887 236.924 36.2813C236.924 33.8524 236.347 31.7575 235.193 29.9663C234.039 28.175 232.37 26.8087 230.244 25.8372C228.089 24.8656 225.569 24.3799 222.654 24.3799H207.899V56.532H217.007V48.0006H221.956L227.785 56.532ZM183.883 57.1696C188.65 57.1696 192.384 55.8641 195.026 53.2531C197.667 50.642 199.003 46.9683 199.003 42.1713V24.3799H190.047V41.9284C190.047 47.0594 188.012 49.6401 183.974 49.6401C179.906 49.6401 177.872 47.0594 177.872 41.9284V24.3799H168.764V42.2017C168.764 46.9684 170.099 50.6724 172.741 53.2834C175.382 55.8641 179.117 57.1696 183.883 57.1696ZM159.868 56.532V24.3799H152.369L141.348 42.9304L130.053 24.3799H122.585V56.532H130.995V39.955L139.222 53.3745H143.23L151.488 39.4996V56.532H159.868ZM97.7798 49.5187V43.6287H112.049V36.8278H97.7798V31.4236H113.993V24.3799H88.793V56.532H114.6V49.5187H97.7798Z" fill="white"/>
<path d="M54.7875 21.4656C58.795 21.4656 62.0438 18.2169 62.0438 14.2094C62.0438 10.2019 58.795 6.95312 54.7875 6.95312C50.78 6.95312 47.5312 10.2019 47.5312 14.2094C47.5312 18.2169 50.78 21.4656 54.7875 21.4656Z" fill="url(#paint0_linear_324_10008)"/>
<path d="M66.567 37.011C70.2392 37.011 73.216 34.0341 73.216 30.3619C73.216 26.6898 70.2392 23.7129 66.567 23.7129C62.8948 23.7129 59.918 26.6898 59.918 30.3619C59.918 34.0341 62.8948 37.011 66.567 37.011Z" fill="url(#paint1_linear_324_10008)"/>
<path d="M66.5653 57.1696C69.9021 57.1696 72.6071 54.4646 72.6071 51.1278C72.6071 47.7909 69.9021 45.0859 66.5653 45.0859C63.2284 45.0859 60.5234 47.7909 60.5234 51.1278C60.5234 54.4646 63.2284 57.1696 66.5653 57.1696Z" fill="url(#paint2_linear_324_10008)"/>
<path d="M54.7862 72.7149C57.7876 72.7149 60.2208 70.2817 60.2208 67.2803C60.2208 64.2789 57.7876 61.8457 54.7862 61.8457C51.7847 61.8457 49.3516 64.2789 49.3516 67.2803C49.3516 70.2817 51.7847 72.7149 54.7862 72.7149Z" fill="url(#paint3_linear_324_10008)"/>
<path d="M35.3547 78.4536C38.0208 78.4536 40.1821 76.2923 40.1821 73.6262C40.1821 70.9601 38.0208 68.7988 35.3547 68.7988C32.6886 68.7988 30.5273 70.9601 30.5273 73.6262C30.5273 76.2923 32.6886 78.4536 35.3547 78.4536Z" fill="url(#paint4_linear_324_10008)"/>
<path d="M15.9545 71.5009C18.2853 71.5009 20.1747 69.6114 20.1747 67.2807C20.1747 64.95 18.2853 63.0605 15.9545 63.0605C13.6238 63.0605 11.7344 64.95 11.7344 67.2807C11.7344 69.6114 13.6238 71.5009 15.9545 71.5009Z" fill="url(#paint5_linear_324_10008)"/>
<path d="M4.17545 54.7405C6.17082 54.7405 7.78839 53.123 7.78839 51.1276C7.78839 49.1322 6.17082 47.5146 4.17545 47.5146C2.18007 47.5146 0.5625 49.1322 0.5625 51.1276C0.5625 53.123 2.18007 54.7405 4.17545 54.7405Z" fill="url(#paint6_linear_324_10008)"/>
<path d="M4.1737 33.3669C5.83371 33.3669 7.17942 32.0212 7.17942 30.3612C7.17942 28.7012 5.83371 27.3555 4.1737 27.3555C2.51368 27.3555 1.16797 28.7012 1.16797 30.3612C1.16797 32.0212 2.51368 33.3669 4.1737 33.3669Z" fill="url(#paint7_linear_324_10008)"/>
<path d="M15.9571 16.6076C17.2818 16.6076 18.3556 15.5337 18.3556 14.2091C18.3556 12.8844 17.2818 11.8105 15.9571 11.8105C14.6324 11.8105 13.5586 12.8844 13.5586 14.2091C13.5586 15.5337 14.6324 16.6076 15.9571 16.6076Z" fill="url(#paint8_linear_324_10008)"/>
<path d="M35.3557 15.7269C39.6985 15.7269 43.2191 12.2063 43.2191 7.86347C43.2191 3.5206 39.6985 0 35.3557 0C31.0128 0 27.4922 3.5206 27.4922 7.86347C27.4922 12.2063 31.0128 15.7269 35.3557 15.7269Z" fill="url(#paint9_linear_324_10008)"/>
<path d="M45.4959 31.9391C47.7093 31.9391 49.5036 30.1448 49.5036 27.9315C49.5036 25.7181 47.7093 23.9238 45.4959 23.9238C43.2826 23.9238 41.4883 25.7181 41.4883 27.9315C41.4883 30.1448 43.2826 31.9391 45.4959 31.9391Z" fill="url(#paint10_linear_324_10008)"/>
<path d="M52.0213 40.5309C54.0502 40.5309 55.695 38.8862 55.695 36.8573C55.695 34.8284 54.0502 33.1836 52.0213 33.1836C49.9924 33.1836 48.3477 34.8284 48.3477 36.8573C48.3477 38.8862 49.9924 40.5309 52.0213 40.5309Z" fill="url(#paint11_linear_324_10008)"/>
<path d="M52.0233 51.7341C53.8678 51.7341 55.363 50.2388 55.363 48.3944C55.363 46.5499 53.8678 45.0547 52.0233 45.0547C50.1788 45.0547 48.6836 46.5499 48.6836 48.3944C48.6836 50.2388 50.1788 51.7341 52.0233 51.7341Z" fill="url(#paint12_linear_324_10008)"/>
<path d="M45.494 60.3259C47.154 60.3259 48.4997 58.9802 48.4997 57.3202C48.4997 55.6602 47.154 54.3145 45.494 54.3145C43.834 54.3145 42.4883 55.6602 42.4883 57.3202C42.4883 58.9802 43.834 60.3259 45.494 60.3259Z" fill="url(#paint13_linear_324_10008)"/>
<path d="M34.746 63.5144C36.2215 63.5144 37.4177 62.3182 37.4177 60.8427C37.4177 59.3671 36.2215 58.1709 34.746 58.1709C33.2704 58.1709 32.0742 59.3671 32.0742 60.8427C32.0742 62.3182 33.2704 63.5144 34.746 63.5144Z" fill="url(#paint14_linear_324_10008)"/>
<path d="M23.9706 59.658C25.2617 59.658 26.3084 58.6113 26.3084 57.3202C26.3084 56.0291 25.2617 54.9824 23.9706 54.9824C22.6795 54.9824 21.6328 56.0291 21.6328 57.3202C21.6328 58.6113 22.6795 59.658 23.9706 59.658Z" fill="url(#paint15_linear_324_10008)"/>
<path d="M17.4413 50.3983C18.548 50.3983 19.4451 49.5011 19.4451 48.3944C19.4451 47.2878 18.548 46.3906 17.4413 46.3906C16.3346 46.3906 15.4375 47.2878 15.4375 48.3944C15.4375 49.5011 16.3346 50.3983 17.4413 50.3983Z" fill="url(#paint16_linear_324_10008)"/>
<path d="M17.4394 38.5272C18.3616 38.5272 19.1092 37.7796 19.1092 36.8573C19.1092 35.9351 18.3616 35.1875 17.4394 35.1875C16.5171 35.1875 15.7695 35.9351 15.7695 36.8573C15.7695 37.7796 16.5171 38.5272 17.4394 38.5272Z" fill="url(#paint17_linear_324_10008)"/>
<path d="M23.9687 29.2675C24.7065 29.2675 25.3046 28.6694 25.3046 27.9316C25.3046 27.1938 24.7065 26.5957 23.9687 26.5957C23.2309 26.5957 22.6328 27.1938 22.6328 27.9316C22.6328 28.6694 23.2309 29.2675 23.9687 29.2675Z" fill="url(#paint18_linear_324_10008)"/>
<path d="M34.747 28.782C37.1615 28.782 39.1189 26.8246 39.1189 24.4101C39.1189 21.9955 37.1615 20.0381 34.747 20.0381C32.3324 20.0381 30.375 21.9955 30.375 24.4101C30.375 26.8246 32.3324 28.782 34.747 28.782Z" fill="url(#paint19_linear_324_10008)"/>
<path d="M39.392 37.9812C40.398 37.9812 41.2136 37.1656 41.2136 36.1595C41.2136 35.1535 40.398 34.3379 39.392 34.3379C38.3859 34.3379 37.5703 35.1535 37.5703 36.1595C37.5703 37.1656 38.3859 37.9812 39.392 37.9812Z" fill="url(#paint20_linear_324_10008)"/>
<path d="M42.3378 41.867C43.26 41.867 44.0077 41.1194 44.0077 40.1972C44.0077 39.275 43.26 38.5273 42.3378 38.5273C41.4156 38.5273 40.668 39.275 40.668 40.1972C40.668 41.1194 41.4156 41.867 42.3378 41.867Z" fill="url(#paint21_linear_324_10008)"/>
<path d="M42.3384 46.9072C43.1767 46.9072 43.8564 46.2275 43.8564 45.3891C43.8564 44.5507 43.1767 43.8711 42.3384 43.8711C41.5 43.8711 40.8203 44.5507 40.8203 45.3891C40.8203 46.2275 41.5 46.9072 42.3384 46.9072Z" fill="url(#paint22_linear_324_10008)"/>
<path d="M39.3936 50.794C40.1481 50.794 40.7598 50.1823 40.7598 49.4278C40.7598 48.6732 40.1481 48.0615 39.3936 48.0615C38.639 48.0615 38.0273 48.6732 38.0273 49.4278C38.0273 50.1823 38.639 50.794 39.3936 50.794Z" fill="url(#paint23_linear_324_10008)"/>
<path d="M34.566 52.2199C35.2367 52.2199 35.7804 51.6762 35.7804 51.0055C35.7804 50.3347 35.2367 49.791 34.566 49.791C33.8953 49.791 33.3516 50.3347 33.3516 51.0055C33.3516 51.6762 33.8953 52.2199 34.566 52.2199Z" fill="url(#paint24_linear_324_10008)"/>
<path d="M29.7072 50.4905C30.294 50.4905 30.7698 50.0147 30.7698 49.4279C30.7698 48.841 30.294 48.3652 29.7072 48.3652C29.1203 48.3652 28.6445 48.841 28.6445 49.4279C28.6445 50.0147 29.1203 50.4905 29.7072 50.4905Z" fill="url(#paint25_linear_324_10008)"/>
<path d="M26.7624 46.3002C27.2654 46.3002 27.6732 45.8924 27.6732 45.3893C27.6732 44.8863 27.2654 44.4785 26.7624 44.4785C26.2594 44.4785 25.8516 44.8863 25.8516 45.3893C25.8516 45.8924 26.2594 46.3002 26.7624 46.3002Z" fill="url(#paint26_linear_324_10008)"/>
<path d="M26.7629 40.9565C27.1821 40.9565 27.522 40.6167 27.522 40.1975C27.522 39.7783 27.1821 39.4385 26.7629 39.4385C26.3437 39.4385 26.0039 39.7783 26.0039 40.1975C26.0039 40.6167 26.3437 40.9565 26.7629 40.9565Z" fill="url(#paint27_linear_324_10008)"/>
<path d="M29.7088 36.7672C30.0441 36.7672 30.316 36.4953 30.316 36.16C30.316 35.8246 30.0441 35.5527 29.7088 35.5527C29.3734 35.5527 29.1016 35.8246 29.1016 36.16C29.1016 36.4953 29.3734 36.7672 29.7088 36.7672Z" fill="url(#paint28_linear_324_10008)"/>
<path d="M34.5672 36.5543C35.6571 36.5543 36.5407 35.6708 36.5407 34.5809C36.5407 33.491 35.6571 32.6074 34.5672 32.6074C33.4773 32.6074 32.5938 33.491 32.5938 34.5809C32.5938 35.6708 33.4773 36.5543 34.5672 36.5543Z" fill="url(#paint29_linear_324_10008)"/>
<defs>
<linearGradient id="paint0_linear_324_10008" x1="4.5881" y1="64.4069" x2="60.8338" y2="8.16082" gradientUnits="userSpaceOnUse">
<stop stop-color="#FFD363"/>
<stop offset="1" stop-color="#FF1055"/>
</linearGradient>
<linearGradient id="paint1_linear_324_10008" x1="18.4282" y1="78.4899" x2="74.6738" y2="22.2439" gradientUnits="userSpaceOnUse">
<stop stop-color="#FFD363"/>
<stop offset="1" stop-color="#FF1055"/>
</linearGradient>
<linearGradient id="paint2_linear_324_10008" x1="28.7264" y1="88.9695" x2="84.9721" y2="32.7236" gradientUnits="userSpaceOnUse">
<stop stop-color="#FFD363"/>
<stop offset="1" stop-color="#FF1055"/>
</linearGradient>
<linearGradient id="paint3_linear_324_10008" x1="30.8867" y1="91.1682" x2="87.1324" y2="34.9222" gradientUnits="userSpaceOnUse">
<stop stop-color="#FFD363"/>
<stop offset="1" stop-color="#FF1055"/>
</linearGradient>
<linearGradient id="paint4_linear_324_10008" x1="24.4067" y1="84.577" x2="80.6524" y2="28.3309" gradientUnits="userSpaceOnUse">
<stop stop-color="#FFD363"/>
<stop offset="1" stop-color="#FF1055"/>
</linearGradient>
<linearGradient id="paint5_linear_324_10008" x1="11.6402" y1="71.5876" x2="67.886" y2="15.3416" gradientUnits="userSpaceOnUse">
<stop stop-color="#FFD363"/>
<stop offset="1" stop-color="#FF1055"/>
</linearGradient>
<linearGradient id="paint6_linear_324_10008" x1="-2.19949" y1="57.5039" x2="54.0462" y2="1.25789" gradientUnits="userSpaceOnUse">
<stop stop-color="#FFD363"/>
<stop offset="1" stop-color="#FF1055"/>
</linearGradient>
<linearGradient id="paint7_linear_324_10008" x1="-12.5023" y1="47.0226" x2="43.7434" y2="-9.22345" gradientUnits="userSpaceOnUse">
<stop stop-color="#FFD363"/>
<stop offset="1" stop-color="#FF1055"/>
</linearGradient>
<linearGradient id="paint8_linear_324_10008" x1="-14.6597" y1="44.8228" x2="41.586" y2="-11.4232" gradientUnits="userSpaceOnUse">
<stop stop-color="#FFD363"/>
<stop offset="1" stop-color="#FF1055"/>
</linearGradient>
<linearGradient id="paint9_linear_324_10008" x1="-8.18021" y1="51.4164" x2="48.0655" y2="-4.82955" gradientUnits="userSpaceOnUse">
<stop stop-color="#FFD363"/>
<stop offset="1" stop-color="#FF1055"/>
</linearGradient>
<linearGradient id="paint10_linear_324_10008" x1="6.78348" y1="66.6416" x2="63.0292" y2="10.3956" gradientUnits="userSpaceOnUse">
<stop stop-color="#FFD363"/>
<stop offset="1" stop-color="#FF1055"/>
</linearGradient>
<linearGradient id="paint11_linear_324_10008" x1="14.4515" y1="74.4455" x2="70.6972" y2="18.1995" gradientUnits="userSpaceOnUse">
<stop stop-color="#FFD363"/>
<stop offset="1" stop-color="#FF1055"/>
</linearGradient>
<linearGradient id="paint12_linear_324_10008" x1="20.1615" y1="80.2537" x2="76.4072" y2="24.0076" gradientUnits="userSpaceOnUse">
<stop stop-color="#FFD363"/>
<stop offset="1" stop-color="#FF1055"/>
</linearGradient>
<linearGradient id="paint13_linear_324_10008" x1="21.3564" y1="81.4715" x2="77.6022" y2="25.2255" gradientUnits="userSpaceOnUse">
<stop stop-color="#FFD363"/>
<stop offset="1" stop-color="#FF1055"/>
</linearGradient>
<linearGradient id="paint14_linear_324_10008" x1="17.7653" y1="77.8191" x2="74.011" y2="21.5731" gradientUnits="userSpaceOnUse">
<stop stop-color="#FFD363"/>
<stop offset="1" stop-color="#FF1055"/>
</linearGradient>
<linearGradient id="paint15_linear_324_10008" x1="10.693" y1="70.6201" x2="66.9387" y2="14.3741" gradientUnits="userSpaceOnUse">
<stop stop-color="#FFD363"/>
<stop offset="1" stop-color="#FF1055"/>
</linearGradient>
<linearGradient id="paint16_linear_324_10008" x1="3.02107" y1="62.8162" x2="59.2668" y2="6.5702" gradientUnits="userSpaceOnUse">
<stop stop-color="#FFD363"/>
<stop offset="1" stop-color="#FF1055"/>
</linearGradient>
<linearGradient id="paint17_linear_324_10008" x1="-2.68948" y1="57.0075" x2="53.5562" y2="0.761508" gradientUnits="userSpaceOnUse">
<stop stop-color="#FFD363"/>
<stop offset="1" stop-color="#FF1055"/>
</linearGradient>
<linearGradient id="paint18_linear_324_10008" x1="-3.88523" y1="55.7888" x2="52.3605" y2="-0.457131" gradientUnits="userSpaceOnUse">
<stop stop-color="#FFD363"/>
<stop offset="1" stop-color="#FF1055"/>
</linearGradient>
<linearGradient id="paint19_linear_324_10008" x1="-0.293124" y1="59.4433" x2="55.9526" y2="3.19731" gradientUnits="userSpaceOnUse">
<stop stop-color="#FFD363"/>
<stop offset="1" stop-color="#FF1055"/>
</linearGradient>
<linearGradient id="paint20_linear_324_10008" x1="7.849" y1="67.728" x2="64.0947" y2="11.4819" gradientUnits="userSpaceOnUse">
<stop stop-color="#FFD363"/>
<stop offset="1" stop-color="#FF1055"/>
</linearGradient>
<linearGradient id="paint21_linear_324_10008" x1="11.3079" y1="71.2461" x2="67.5536" y2="15.0001" gradientUnits="userSpaceOnUse">
<stop stop-color="#FFD363"/>
<stop offset="1" stop-color="#FF1055"/>
</linearGradient>
<linearGradient id="paint22_linear_324_10008" x1="13.8818" y1="73.8649" x2="70.1275" y2="17.6188" gradientUnits="userSpaceOnUse">
<stop stop-color="#FFD363"/>
<stop offset="1" stop-color="#FF1055"/>
</linearGradient>
<linearGradient id="paint23_linear_324_10008" x1="14.4216" y1="74.4147" x2="70.6672" y2="18.1687" gradientUnits="userSpaceOnUse">
<stop stop-color="#FFD363"/>
<stop offset="1" stop-color="#FF1055"/>
</linearGradient>
<linearGradient id="paint24_linear_324_10008" x1="12.8024" y1="72.7667" x2="69.0482" y2="16.5207" gradientUnits="userSpaceOnUse">
<stop stop-color="#FFD363"/>
<stop offset="1" stop-color="#FF1055"/>
</linearGradient>
<linearGradient id="paint25_linear_324_10008" x1="9.61161" y1="69.5225" x2="65.8573" y2="13.2765" gradientUnits="userSpaceOnUse">
<stop stop-color="#FFD363"/>
<stop offset="1" stop-color="#FF1055"/>
</linearGradient>
<linearGradient id="paint26_linear_324_10008" x1="6.15379" y1="66.0035" x2="62.3995" y2="9.75751" gradientUnits="userSpaceOnUse">
<stop stop-color="#FFD363"/>
<stop offset="1" stop-color="#FF1055"/>
</linearGradient>
<linearGradient id="paint27_linear_324_10008" x1="3.58066" y1="63.3846" x2="59.8263" y2="7.13856" gradientUnits="userSpaceOnUse">
<stop stop-color="#FFD363"/>
<stop offset="1" stop-color="#FF1055"/>
</linearGradient>
<linearGradient id="paint28_linear_324_10008" x1="3.04162" y1="62.8354" x2="59.2873" y2="6.58944" gradientUnits="userSpaceOnUse">
<stop stop-color="#FFD363"/>
<stop offset="1" stop-color="#FF1055"/>
</linearGradient>
<linearGradient id="paint29_linear_324_10008" x1="4.6617" y1="64.4826" x2="60.9074" y2="8.23657" gradientUnits="userSpaceOnUse">
<stop stop-color="#FFD363"/>
<stop offset="1" stop-color="#FF1055"/>
</linearGradient>
</defs>
</svg>
