<svg width="249" height="91" viewBox="0 0 249 91" fill="none" xmlns="http://www.w3.org/2000/svg">
<path fill-rule="evenodd" clip-rule="evenodd" d="M173.033 26.9708V22.4346H168.915V26.9708H173.033ZM90.4738 36.5052V54.7766H86.3555V35.8755C86.3555 34.3633 86.8383 33.0751 87.8045 32.0111C88.7708 30.947 89.9398 30.415 91.3129 30.415H103.668V34.9513H91.8849C91.3255 34.9513 90.9503 35.0564 90.7599 35.2665C90.5691 35.4763 90.4738 35.8896 90.4738 36.5052ZM131.124 35.8755V54.7766H113.583C112.21 54.7766 111.041 54.2445 110.074 53.1804C109.109 52.1166 108.625 50.8284 108.625 49.3164V40.3277H126.968V36.5052C126.968 35.8896 126.879 35.4763 126.701 35.2665C126.523 35.0564 126.154 34.9513 125.595 34.9513H108.625V30.415H126.167C127.54 30.415 128.709 30.947 129.675 32.0111C130.641 33.0751 131.124 34.3633 131.124 35.8755ZM126.968 50.2404H114.155C113.596 50.2404 113.221 50.1353 113.03 49.9252C112.839 49.7152 112.744 49.3024 112.744 48.6864V44.5699H126.968V50.2404ZM163.691 30.415L151.488 54.7766H147.369L135.167 30.415H139.933L149.429 49.6522L158.924 30.415H163.691ZM173.033 30.415V54.7766H168.915V30.415H173.033ZM192.939 54.7766V50.2404H185.275C184.715 50.2404 184.34 50.1353 184.15 49.9252C183.959 49.7152 183.864 49.3024 183.864 48.6864V34.9513H192.939V30.415H183.864V22.7286H179.745V49.3164C179.745 50.8284 180.228 52.1166 181.194 53.1804C182.16 54.2445 183.329 54.7766 184.703 54.7766H192.939ZM219.213 53.1804C218.247 54.2445 217.078 54.7766 215.705 54.7766H203.121C201.748 54.7766 200.579 54.2445 199.613 53.1804C198.647 52.1166 198.163 50.8284 198.163 49.3164V35.8755C198.163 34.3633 198.647 33.0751 199.613 32.0111C200.579 30.947 201.748 30.415 203.121 30.415H215.705C217.078 30.415 218.247 30.947 219.213 32.0111C220.18 33.0751 220.663 34.3633 220.663 35.8755V49.3164C220.663 50.8284 220.18 52.1166 219.213 53.1804ZM215.133 50.2404H203.693C203.134 50.2404 202.759 50.1353 202.568 49.9252C202.377 49.7152 202.282 49.3024 202.282 48.6864V36.5052C202.282 35.8896 202.377 35.4763 202.568 35.2665C202.759 35.0564 203.134 34.9513 203.693 34.9513H215.133C215.692 34.9513 216.061 35.0564 216.239 35.2665C216.417 35.4763 216.506 35.8896 216.506 36.5052V48.6864C216.506 49.3024 216.417 49.7152 216.239 49.9252C216.061 50.1353 215.692 50.2404 215.133 50.2404ZM230.31 36.5052V54.7766H226.192V30.415H243.735C245.107 30.415 246.276 30.947 247.242 32.0111C248.208 33.0751 248.692 34.3633 248.692 35.8755V54.7766H244.573V36.5052C244.573 35.8896 244.478 35.4763 244.287 35.2665C244.096 35.0564 243.72 34.9513 243.162 34.9513H231.721C231.162 34.9513 230.787 35.0564 230.596 35.2665C230.406 35.4763 230.31 35.8896 230.31 36.5052Z" fill="white"/>
<path d="M65.2918 85.7702C68.39 85.7702 71.0234 84.5255 73.1916 82.0363C75.3605 79.547 76.4446 76.5242 76.4446 72.9683V45.2306H43.6601V53.9783H68.9164V72.9683C68.9164 74.1063 68.5602 75.084 67.8476 75.9021C67.1351 76.7199 66.2834 77.1291 65.2918 77.1291H20.6802C19.6889 77.1291 18.8369 76.7199 18.1244 75.9021C17.4118 75.084 17.0555 74.1063 17.0555 72.9683V21.7601C17.0555 20.6221 17.4118 19.6442 18.1244 18.8263C18.8369 18.0083 19.6889 17.5994 20.6802 17.5994H65.2918C66.2834 17.5994 67.1351 18.0083 67.8476 18.8263C68.5602 19.6442 68.9164 20.6221 68.9164 21.7601V24.854H76.4446V21.7601C76.4446 18.2039 75.3605 15.1812 73.1916 12.692C71.0234 10.2027 68.39 8.95801 65.2918 8.95801H20.6802C17.5822 8.95801 14.9489 10.2027 12.7803 12.692C10.6117 15.1812 9.52734 18.2039 9.52734 21.7601V72.9683C9.52734 76.5242 10.6117 79.547 12.7803 82.0363C14.9489 84.5255 17.5822 85.7702 20.6802 85.7702H65.2918Z" fill="white"/>
<path fill-rule="evenodd" clip-rule="evenodd" d="M33.1219 19.4509C34.9405 10.5072 29.1919 1.92188 20.2817 0.275111C11.3715 -1.37164 2.67408 4.5437 0.85542 13.4875C-0.963265 22.4311 4.78553 31.0164 13.6957 32.6632C22.6059 34.3101 31.3033 28.3947 33.1219 19.4509Z" fill="url(#paint0_radial_324_10045)"/>
<path fill-rule="evenodd" clip-rule="evenodd" d="M84.5063 80.7396C85.7799 74.4787 81.7559 68.468 75.5186 67.3141C69.2813 66.1601 63.1925 70.2997 61.9189 76.5606C60.6453 82.8211 64.6693 88.8321 70.9066 89.9861C77.1442 91.14 83.233 87.0001 84.5063 80.7396Z" fill="url(#paint1_radial_324_10045)"/>
<path fill-rule="evenodd" clip-rule="evenodd" d="M58.568 50.349C59.8416 44.0881 55.8177 38.0771 49.5804 36.9235C43.3438 35.7694 37.2549 39.9092 35.9814 46.17C34.7078 52.4306 38.732 58.4413 44.9689 59.5955C51.2059 60.7492 57.2944 56.6096 58.568 50.349Z" fill="url(#paint2_radial_324_10045)"/>
<defs>
<radialGradient id="paint0_radial_324_10045" cx="0" cy="0" r="1" gradientUnits="userSpaceOnUse" gradientTransform="translate(24.2108 23.8587) rotate(-131.349) scale(27.4228 25.2025)">
<stop stop-color="white"/>
<stop offset="0.501768" stop-color="#3C4149"/>
<stop offset="0.761481" stop-color="#454A52"/>
<stop offset="0.882295" stop-color="#CBD0DA"/>
</radialGradient>
<radialGradient id="paint1_radial_324_10045" cx="0" cy="0" r="1" gradientUnits="userSpaceOnUse" gradientTransform="translate(69.0875 74.2017) rotate(42.954) scale(16.315 14.994)">
<stop stop-color="white"/>
<stop offset="0.501768" stop-color="#3C4149"/>
<stop offset="0.761481" stop-color="#454A52"/>
<stop offset="1" stop-color="#CBD0DA"/>
</radialGradient>
<radialGradient id="paint2_radial_324_10045" cx="0" cy="0" r="1" gradientUnits="userSpaceOnUse" gradientTransform="translate(43.15 43.8112) rotate(42.9554) scale(16.3146 14.9937)">
<stop stop-color="white"/>
<stop offset="0.501768" stop-color="#3C4149"/>
<stop offset="0.761481" stop-color="#454A52"/>
<stop offset="1" stop-color="#CBD0DA"/>
</radialGradient>
</defs>
</svg>
