<svg width="246" height="46" viewBox="0 0 246 46" fill="none" xmlns="http://www.w3.org/2000/svg">
<path fill-rule="evenodd" clip-rule="evenodd" d="M44.3252 0.503906H34.8313C34.3322 0.503906 33.9238 0.911347 33.9238 1.40915V33.4392C33.9238 33.937 33.5153 34.3437 33.0178 34.3437H0.906721C0.406872 34.3437 0 34.7519 0 35.2497V44.7191C0 45.2169 0.406872 45.6244 0.906721 45.6244H44.3252H45.2327V44.7191V1.40915C45.2327 0.911347 44.8243 0.503906 44.3252 0.503906Z" fill="#F29700"/>
<path fill-rule="evenodd" clip-rule="evenodd" d="M1.03307 29.8494H11.8478C12.4168 29.8494 12.8816 29.3857 12.8816 28.8181V18.0305C12.8816 17.4637 12.4168 17 11.8478 17H1.03307C0.464883 17 0 17.4637 0 18.0305V28.8181C0 29.3857 0.464883 29.8494 1.03307 29.8494Z" fill="#F29700"/>
<path fill-rule="evenodd" clip-rule="evenodd" d="M17.1307 13.3533H27.9454C28.5144 13.3533 28.9793 12.8896 28.9793 12.3228V1.53519C28.9793 0.967627 28.5144 0.503906 27.9454 0.503906H27.3653H17.8714H17.1307C16.5625 0.503906 16.0977 0.967627 16.0977 1.53519V12.3228C16.0977 12.8896 16.5625 13.3533 17.1307 13.3533Z" fill="#F29700"/>
<path fill-rule="evenodd" clip-rule="evenodd" d="M185.424 13.1836C185.055 13.1836 184.647 13.465 184.517 13.8091L175.044 38.7977C174.914 39.1417 174.635 39.1766 174.423 38.8754L168.334 30.2137C168.123 29.9133 167.95 29.3663 167.95 28.9985V12.8206C167.95 12.4536 167.648 12.1523 167.28 12.1523H164.053C163.685 12.1523 163.384 12.4536 163.384 12.8206V29.1119C163.384 29.4797 163.21 30.0266 162.997 30.3262L155.232 41.3065C155.02 41.6062 155.099 42.0168 155.408 42.2173L157.798 43.7742C158.107 43.9747 158.534 43.8946 158.749 43.5958L165.307 34.453C165.521 34.1541 165.872 34.1549 166.085 34.4538L172.105 42.8713C172.32 43.1701 172.675 43.4151 172.894 43.4151H173.964H176.945H177.892C178.045 43.4151 178.275 43.1329 178.403 42.7881L189.136 13.8106C189.264 13.4658 189.066 13.1836 188.698 13.1836H185.424Z" fill="#807e7e"/>
<path fill-rule="evenodd" clip-rule="evenodd" d="M77.7804 3.27539C77.4117 3.27539 76.8951 3.48545 76.6313 3.74228L62.6037 17.3868C62.3399 17.6428 62.3407 18.0621 62.6045 18.319L64.9234 20.5654C65.188 20.8215 65.6211 20.8223 65.8865 20.5662L78.7761 8.16705C79.0415 7.91181 79.5597 7.70333 79.9284 7.70333H87.4809C87.8497 7.70333 88.3678 7.91181 88.6324 8.16705L101.523 20.5662C101.788 20.8223 102.221 20.8215 102.486 20.5654L104.805 18.319C105.069 18.0621 105.069 17.6428 104.806 17.3868L90.778 3.74228C90.5142 3.48545 89.9977 3.27539 89.6289 3.27539H77.7804Z" fill="#807e7e"/>
<path fill-rule="evenodd" clip-rule="evenodd" d="M86.0417 31.0905C86.0417 30.7235 86.3437 30.4223 86.7116 30.4223H101.148C101.517 30.4223 101.819 30.1219 101.819 29.7541V26.7268C101.819 26.359 101.517 26.0578 101.148 26.0578H86.7116C86.3437 26.0578 86.0417 25.7573 86.0417 25.3903V20.8197C86.0417 20.4527 86.3437 20.1523 86.7116 20.1523H95.3982C95.7669 20.1523 96.0681 19.851 96.0681 19.4832V16.4116C96.0681 16.0446 95.7669 15.7441 95.3982 15.7441H72.0126C71.6446 15.7441 71.3427 16.0446 71.3427 16.4116V19.4832C71.3427 19.851 71.6446 20.1523 72.0126 20.1523H80.7468C81.1155 20.1523 81.4167 20.4527 81.4167 20.8197V25.3903C81.4167 25.7573 81.1155 26.0578 80.7468 26.0578H66.2623C65.8936 26.0578 65.5932 26.359 65.5932 26.7268V29.7541C65.5932 30.1219 65.8936 30.4223 66.2623 30.4223H80.7468C81.1155 30.4223 81.4167 30.7235 81.4167 31.0905V38.43C81.4167 38.7978 81.1155 39.0982 80.7468 39.0982H65.416C65.0473 39.0982 64.7461 39.3987 64.7461 39.7665V42.8389C64.7461 43.2067 65.0473 43.5072 65.416 43.5072H101.999C102.367 43.5072 102.669 43.2067 102.669 42.8389V39.7665C102.669 39.3987 102.367 39.0982 101.999 39.0982H86.7116C86.3437 39.0982 86.0417 38.7978 86.0417 38.43V31.0905Z" fill="#807e7e"/>
<path fill-rule="evenodd" clip-rule="evenodd" d="M160.354 8.21736C160.354 7.84955 160.655 7.54913 161.024 7.54913H170.306C170.675 7.54913 170.976 7.84955 170.976 8.21736V31.3836C170.976 31.7506 171.278 32.051 171.646 32.051H174.873C175.241 32.051 175.542 31.7506 175.542 31.3836V3.94558C175.542 3.57777 175.241 3.27734 174.873 3.27734H156.46C156.091 3.27734 155.789 3.57777 155.789 3.94558V31.3836C155.789 31.7506 156.091 32.051 156.46 32.051H159.684C160.052 32.051 160.354 31.7506 160.354 31.3836V8.21736Z" fill="#807e7e"/>
<path fill-rule="evenodd" clip-rule="evenodd" d="M194.426 3.94558C194.426 3.57777 194.124 3.27734 193.756 3.27734H190.53C190.162 3.27734 189.86 3.57777 189.86 3.94558V5.60863C189.86 5.97644 189.558 6.27687 189.19 6.27687H179.181C178.813 6.27687 178.512 6.57729 178.512 6.9451V9.95731C178.512 10.3243 178.813 10.6255 179.181 10.6255H189.19C189.558 10.6255 189.86 10.926 189.86 11.2938V38.5344C189.86 38.9022 189.558 39.2026 189.19 39.2026H185.923C185.555 39.2026 185.253 39.5031 185.253 39.8709V42.8403C185.253 43.2081 185.555 43.5085 185.923 43.5085H193.756C194.124 43.5085 194.426 43.2081 194.426 42.8403V11.2938C194.426 10.926 194.727 10.6255 195.096 10.6255H197.035C197.403 10.6255 197.705 10.3243 197.705 9.95731V6.9451C197.705 6.57729 197.403 6.27687 197.035 6.27687H195.096C194.727 6.27687 194.426 5.97644 194.426 5.60863V3.94558Z" fill="#807e7e"/>
<path fill-rule="evenodd" clip-rule="evenodd" d="M218.898 29.0924C218.898 29.4602 219.2 29.7606 219.568 29.7606H228.694C229.063 29.7606 229.364 30.0618 229.364 30.4288V38.4143C229.364 38.7822 229.063 39.0826 228.694 39.0826H219.568C219.2 39.0826 218.898 39.383 218.898 39.7508V42.7202C218.898 43.088 219.2 43.3885 219.568 43.3885H243.815C244.183 43.3885 244.485 43.088 244.485 42.7202V39.7508C244.485 39.383 244.183 39.0826 243.815 39.0826H234.597C234.228 39.0826 233.927 38.7822 233.927 38.4143V30.4288C233.927 30.0618 234.228 29.7606 234.597 29.7606H243.815C244.183 29.7606 244.485 29.4602 244.485 29.0924V26.0794C244.485 25.7116 244.183 25.4111 243.815 25.4111H219.568C219.2 25.4111 218.898 25.7116 218.898 26.0794V29.0924Z" fill="#807e7e"/>
<path fill-rule="evenodd" clip-rule="evenodd" d="M235.576 13.7532C235.282 13.5321 235.282 13.1706 235.577 12.9494L241.912 8.20443C242.207 7.98406 242.448 7.5029 242.448 7.1351V4.19186C242.448 3.82484 242.147 3.52441 241.778 3.52441H219.485C219.116 3.52441 218.814 3.82484 218.814 4.19186V7.13748C218.814 7.50528 219.116 7.80571 219.485 7.80571H234.322C234.69 7.80571 234.94 7.87547 234.878 7.96187C234.816 8.04748 234.523 8.29797 234.229 8.51833L218.039 20.5933C217.745 20.8137 217.69 21.2298 217.919 21.5168L219.825 23.9115C220.054 24.1992 220.482 24.2547 220.777 24.0336L230.835 16.5007C231.13 16.2803 231.612 16.2803 231.906 16.5015L241.918 24.0328C242.213 24.2539 242.646 24.2048 242.883 23.9234L244.86 21.5731C245.096 21.2909 245.05 20.8795 244.756 20.6583L235.576 13.7532Z" fill="#807e7e"/>
<path fill-rule="evenodd" clip-rule="evenodd" d="M116.574 18.9679C116.574 18.6001 116.875 18.2997 117.244 18.2997H126.645C127.014 18.2997 127.315 18.6001 127.315 18.9679V27.0192C127.315 27.387 127.014 27.6874 126.645 27.6874H117.244C116.875 27.6874 116.574 27.387 116.574 27.0192V18.9679ZM131.859 18.9679C131.859 18.6001 132.161 18.2997 132.53 18.2997H142.937C143.306 18.2997 143.607 18.6001 143.607 18.9679V27.0192C143.607 27.387 143.306 27.6874 142.937 27.6874H132.53C132.161 27.6874 131.859 27.387 131.859 27.0192V18.9679ZM148.854 39.8139C148.854 39.4461 148.552 39.1457 148.183 39.1457H117.244C116.875 39.1457 116.574 38.8453 116.574 38.4775V32.7186C116.574 32.3508 116.875 32.0496 117.244 32.0496H147.483C147.851 32.0496 148.152 31.7492 148.152 31.3821V14.6485C148.152 14.2807 147.851 13.9803 147.483 13.9803H143.343C142.975 13.9803 142.743 13.6878 142.828 13.3303L144.6 5.91315C144.685 5.55565 144.453 5.26315 144.085 5.26315H139.671H138.332H118.626C118.258 5.26315 118.001 4.96589 118.056 4.60205L118.173 3.82126C118.228 3.45741 117.971 3.16016 117.604 3.16016H114.397C114.028 3.16016 113.674 3.45583 113.608 3.81729L112.684 8.89048C112.619 9.25195 112.866 9.54841 113.235 9.54841H116.44H117.781H138.332C138.7 9.54841 138.939 9.8425 138.862 10.2016L138.195 13.3263C138.118 13.6862 137.754 13.9803 137.385 13.9803H112.653C112.286 13.9803 111.984 14.2807 111.984 14.6485V42.8388C111.984 43.2066 112.286 43.5071 112.653 43.5071H148.183C148.552 43.5071 148.854 43.2066 148.854 42.8388V39.8139Z" fill="#807e7e"/>
<path fill-rule="evenodd" clip-rule="evenodd" d="M203.268 38.7627C202.9 38.7627 202.598 39.0631 202.598 39.4309V42.4003C202.598 42.7681 202.9 43.0694 203.268 43.0694H214.592C214.96 43.0694 215.262 42.7681 215.262 42.4003V39.4309C215.262 39.0631 214.96 38.7627 214.592 38.7627H203.268Z" fill="#807e7e"/>
<path fill-rule="evenodd" clip-rule="evenodd" d="M74.5725 36.4097C74.5725 36.7767 74.2705 37.0779 73.9018 37.0779H70.7637C70.3949 37.0779 70.0938 36.7767 70.0938 36.4097V33.2786C70.0938 32.9108 70.3949 32.6104 70.7637 32.6104H73.9018C74.2705 32.6104 74.5725 32.9108 74.5725 33.2786V36.4097Z" fill="#807e7e"/>
<path fill-rule="evenodd" clip-rule="evenodd" d="M97.2874 36.4097C97.2874 36.7767 96.9854 37.0779 96.6167 37.0779H93.4785C93.1098 37.0779 92.8086 36.7767 92.8086 36.4097V33.2786C92.8086 32.9108 93.1098 32.6104 93.4785 32.6104H96.6167C96.9854 32.6104 97.2874 32.9108 97.2874 33.2786V36.4097Z" fill="#807e7e"/>
<path fill-rule="evenodd" clip-rule="evenodd" d="M210.399 30.0941C210.031 30.0941 209.829 29.8111 209.952 29.4639L213.686 18.8942C213.809 18.5478 213.607 18.2648 213.238 18.2656L209.596 18.2743C209.228 18.2751 208.827 18.5597 208.705 18.9069L203.489 33.769C203.367 34.1162 203.568 34.4 203.937 34.4H214.588C214.956 34.4 215.258 34.0987 215.258 33.7309V30.7623C215.258 30.3945 214.956 30.0941 214.588 30.0941H210.399Z" fill="#807e7e"/>
<path fill-rule="evenodd" clip-rule="evenodd" d="M208.465 15.4994C208.593 15.1546 208.807 14.5926 208.943 14.2501L213.033 3.89765C213.168 3.55521 212.978 3.27539 212.609 3.27539H208.834C208.466 3.27539 208.059 3.55759 207.931 3.9024L202.828 17.6373C202.7 17.9821 202.897 18.2635 203.266 18.2635H206.774C207.142 18.2635 207.548 17.9813 207.676 17.6365L208.465 15.4994Z" fill="#F29700"/>
</svg>
