<svg width="267" height="73" viewBox="0 0 267 73" fill="none" xmlns="http://www.w3.org/2000/svg">
<path fill-rule="evenodd" clip-rule="evenodd" d="M176.125 62.8206C176.125 57.6086 179.859 53.4014 186.794 53.4014C193.728 53.4014 196.741 57.64 196.741 60.403V60.5914H195.046C195.046 58.425 192.85 55.1282 186.857 55.1282C180.863 55.1282 177.914 58.268 177.914 62.9148C177.914 66.8395 180.455 70.6386 186.951 70.6386C192.567 70.6386 195.172 67.8442 195.172 65.1754H196.866V65.3324C196.866 68.4722 193.728 72.3341 186.951 72.3341C179.012 72.3341 176.125 67.6245 176.125 62.9148" fill="#C4AA60"/>
<path fill-rule="evenodd" clip-rule="evenodd" d="M200.922 53.8418H217.113V55.4431H202.679V62.0993H214.383V63.575H202.679V70.3255H217.364V71.9268H200.922V53.8418Z" fill="#C4AA60"/>
<path fill-rule="evenodd" clip-rule="evenodd" d="M51.5542 43.98C43.7485 44.4682 35.9199 44.4682 28.1142 43.98C20.6824 43.8496 13.5942 40.8248 8.35594 35.5482C3.11763 30.2716 0.142074 23.1592 0.0615347 15.7222C-0.0720482 13.2915 0.0119636 10.8537 0.312565 8.43795C0.731343 6.29292 1.86624 4.35396 3.53109 2.93913C5.19594 1.52431 7.29191 0.71761 9.47519 0.651367C9.13335 5.66915 9.13335 10.7044 9.47519 15.7222C9.83394 20.7279 11.9589 25.4431 15.4708 29.0261C18.9827 32.6091 23.6529 34.8266 28.6477 35.2828C36.2178 35.9129 43.8272 35.9129 51.3973 35.2828C61.7837 34.0583 69.0009 28.0928 70.2246 18.1398C71.9819 18.1398 77.1908 22.1587 76.7201 25.7066C75.4022 35.6596 64.1685 43.2892 51.617 44.0114" fill="#C4AA60"/>
<path fill-rule="evenodd" clip-rule="evenodd" d="M115.503 43.7631H114.561C112.366 43.7302 110.272 42.8368 108.729 41.275C107.186 39.7132 106.317 37.6077 106.309 35.4114V4.39062H115.722L115.503 43.7631Z" fill="#C4AA60"/>
<path fill-rule="evenodd" clip-rule="evenodd" d="M240.394 36.0679C232.424 36.3819 222.32 36.5389 212.153 36.2563C197.185 35.8167 190.188 29.4117 183.536 22.1274C190.157 14.8746 196.338 8.87766 212.153 8.59509C220.531 8.59509 233.271 8.3753 240.394 8.59509C250.78 9.03465 257.025 14.5606 257.025 22.0332C257.025 29.5058 249.055 35.597 240.394 35.9737V36.0679ZM241.147 0.24334C233.553 0.0235575 220.155 0.0235575 211.369 0.0235575C204.9 -0.101289 198.488 1.24713 192.617 3.96684C186.746 6.68655 181.569 10.7064 177.479 15.7223C173.452 10.6351 168.288 6.5645 162.402 3.83792C156.516 1.11134 150.073 -0.195135 143.59 0.0235575H64.1704C59.9832 0.0779391 55.8645 1.09432 52.1322 2.99425C48.3999 4.89418 45.1538 7.62684 42.6445 10.9813C44.5294 12.2481 46.7388 12.9454 49.0089 12.99C51.2791 13.0345 53.5141 12.4244 55.4471 11.2325C57.9604 9.15562 61.1309 8.04251 64.3901 8.09272H143.339C158.213 8.09272 165.304 15.0944 171.204 21.939C167.171 27.2701 161.74 31.3782 155.514 33.8073C153.589 34.4846 151.936 35.7695 150.804 37.4683C149.673 39.1672 149.123 41.1881 149.238 43.2266V43.4777C154.731 42.9304 160.058 41.2902 164.908 38.6536C169.758 36.017 174.032 32.4372 177.479 28.1244C181.521 33.2175 186.68 37.3111 192.556 40.0879C198.433 42.8648 204.87 44.2503 211.369 44.1371C219.778 44.4197 232.989 44.1371 241.147 44.1371C255.864 43.9801 266.784 34.2155 266.784 22.0018C266.784 9.78819 256.335 0.808496 241.147 0.24334Z" fill="#C4AA60"/>
<path fill-rule="evenodd" clip-rule="evenodd" d="M72.5473 65.9604L65.9578 55.1596L59.2427 65.9604H72.5473ZM73.4573 67.4675H58.3013L55.4459 72.2399H53.4062L64.9223 53.4014H66.9933L78.5093 72.2399H76.3128L73.4573 67.4675Z" fill="#C4AA60"/>
<path fill-rule="evenodd" clip-rule="evenodd" d="M81.6484 53.4014H83.5312V70.5758H97.3379V72.2399H81.6484V53.4014Z" fill="#C4AA60"/>
<path fill-rule="evenodd" clip-rule="evenodd" d="M100.473 53.4014H102.355V70.5758H116.162V72.2399H100.473V53.4014Z" fill="#C4AA60"/>
<path fill-rule="evenodd" clip-rule="evenodd" d="M120.023 72.2399H121.718V53.4014H120.023V72.2399Z" fill="#C4AA60"/>
<path fill-rule="evenodd" clip-rule="evenodd" d="M144.719 65.9604L138.13 55.1596L131.415 65.9604H144.719ZM145.629 67.4675H130.473L127.618 72.2399H125.578L137.094 53.4014H139.165L150.681 72.2399H148.485L145.629 67.4675Z" fill="#C4AA60"/>
<path fill-rule="evenodd" clip-rule="evenodd" d="M150.68 53.4014H153.535L170.762 69.6967H170.825V53.4014H172.645V72.2399H170.762L152.531 54.9712H152.5V72.2399H150.68V53.4014Z" fill="#C4AA60"/>
</svg>
