<svg width="50" height="51" viewBox="0 0 50 51" fill="none" xmlns="http://www.w3.org/2000/svg">
    <path d="M36.7687 19.2675C37.9253 18.4001 38.9663 17.3591 39.7759 16.1446C38.735 16.6073 37.5205 16.9543 36.306 17.0699C37.5783 16.3181 38.5036 15.1615 38.9663 13.7157C37.8097 14.4097 36.4795 14.9302 35.1494 15.2193C33.9928 14.0049 32.4314 13.3109 30.6964 13.3109C27.3422 13.3109 24.6241 16.029 24.6241 19.3832C24.6241 19.8459 24.682 20.3085 24.7976 20.7712C19.7663 20.482 15.2554 18.0531 12.2482 14.4097C11.7277 15.2772 11.4386 16.3181 11.4386 17.4748C11.4386 19.5567 12.4795 21.4073 14.1567 22.5061C13.1735 22.4483 12.1904 22.2169 11.3807 21.7543V21.8121C11.3807 24.7615 13.4627 27.1904 16.2386 27.7687C15.7759 27.8844 15.1976 28.0001 14.6771 28.0001C14.2723 28.0001 13.9253 27.9422 13.5205 27.8844C14.2723 30.3133 16.5277 32.0483 19.188 32.1061C17.106 33.7254 14.5036 34.7085 11.6699 34.7085C11.1494 34.7085 10.6868 34.6507 10.2241 34.5928C12.8844 36.3278 16.0651 37.3109 19.535 37.3109C30.6964 37.3109 36.7687 28.1157 36.7687 20.0772C36.7687 19.788 36.7687 19.5567 36.7687 19.2675Z" fill="#FF5E18" />
    <rect x="1" y="1.31091" width="48" height="48" rx="24" stroke="#FF5E18" stroke-width="2" />
</svg>
    