<svg width="50" height="51" viewBox="0 0 50 51" fill="none" xmlns="http://www.w3.org/2000/svg">
    <path d="M27.0584 23.2525C25.9663 22.1608 24.4854 21.5476 22.9413 21.5476C21.3971 21.5476 19.9162 22.1608 18.8241 23.2525L14.7057 27.3696C13.6135 28.4617 13 29.943 13 31.4874C13 33.0319 13.6135 34.5131 14.7057 35.6052C15.7978 36.6973 17.279 37.3109 18.8235 37.3109C20.3679 37.3109 21.8492 36.6973 22.9413 35.6052L24.9998 33.5467" stroke="#FF5E18" stroke-width="2" stroke-linecap="round" stroke-linejoin="round" />
    <path d="M22.9414 27.3693C24.0335 28.461 25.5144 29.0742 27.0585 29.0742C28.6027 29.0742 30.0836 28.461 31.1757 27.3693L35.2942 23.2522C36.3863 22.1601 36.9998 20.6788 36.9998 19.1344C36.9998 17.5899 36.3863 16.1087 35.2942 15.0166C34.2021 13.9245 32.7208 13.3109 31.1764 13.3109C29.6319 13.3109 28.1507 13.9245 27.0585 15.0166L25 17.0751" stroke="#FF5E18" stroke-width="2" stroke-linecap="round" stroke-linejoin="round" />
    <rect x="1" y="1.31091" width="48" height="48" rx="24" stroke="#FF5E18" stroke-width="2" />
</svg>
    