<svg width="54" height="47" viewBox="0 0 54 47" fill="none" xmlns="http://www.w3.org/2000/svg">
<ellipse cx="21.4975" cy="25.2966" rx="21.4975" ry="20.7531" fill="url(#paint0_linear_412_23042)"/>
<path d="M19.5219 30.7012L13.8843 25.3635L15.4155 23.8956L19.5219 27.8989L27.8044 19.8923L29.3356 21.3602L19.5219 30.7012Z" fill="white"/>
<path d="M46.576 10.0321L46.912 9.60012L48.04 7.24812L48.136 6.28812H48.472L48.592 7.24812L49.72 9.60012L50.032 10.0321L52.552 8.28012L52.24 7.84812L50.368 6.02412L49.48 5.64012L49.576 5.30412L50.512 5.52012L53.104 5.18412L53.632 5.01612L52.624 1.99212L52.144 2.16012L49.84 3.40812L49.192 4.12812L48.904 3.88812L49.384 3.09612L49.84 0.504123V0.00012207H46.768V0.504123L47.248 3.09612L47.728 3.88812L47.416 4.12812L46.768 3.40812L44.488 2.16012L43.984 1.99212L43 5.01612L43.504 5.18412L46.096 5.52012L47.056 5.30412L47.128 5.64012L46.264 6.02412L44.368 7.84812L44.08 8.28012L46.576 10.0321Z" fill="#FF5E18"/>
<defs>
<linearGradient id="paint0_linear_412_23042" x1="21.4975" y1="4.54346" x2="21.4975" y2="46.0496" gradientUnits="userSpaceOnUse">
<stop stop-color="#FF5E18"/>
<stop offset="1" stop-color="#FF7C44"/>
</linearGradient>
</defs>
</svg>
