<svg width="54" height="47" viewBox="0 0 54 47" fill="none" xmlns="http://www.w3.org/2000/svg">
<ellipse cx="21.4975" cy="25.7531" rx="21.4975" ry="20.7531" fill="#585858"/>
<path d="M19.5219 31.1578L13.8843 25.8201L15.4155 24.3522L19.5219 28.3555L27.8044 20.3489L29.3356 21.8168L19.5219 31.1578Z" fill="#807e7e"/>
<path d="M46.576 10.032L46.912 9.6L48.04 7.248L48.136 6.288H48.472L48.592 7.248L49.72 9.6L50.032 10.032L52.552 8.28L52.24 7.848L50.368 6.024L49.48 5.64L49.576 5.304L50.512 5.52L53.104 5.184L53.632 5.016L52.624 1.992L52.144 2.16L49.84 3.408L49.192 4.128L48.904 3.888L49.384 3.096L49.84 0.504001V0H46.768V0.504001L47.248 3.096L47.728 3.888L47.416 4.128L46.768 3.408L44.488 2.16L43.984 1.992L43 5.016L43.504 5.184L46.096 5.52L47.056 5.304L47.128 5.64L46.264 6.024L44.368 7.848L44.08 8.28L46.576 10.032Z" fill="#FF5E18"/>
</svg>
