<svg width="1011" height="811" viewBox="0 0 1011 811" fill="none" xmlns="http://www.w3.org/2000/svg">
<path d="M957.874 675.024C992.425 623.989 831.156 454.475 597.67 296.403C364.183 138.332 146.896 51.5618 112.345 102.597C77.7942 153.632 239.063 323.146 472.55 481.217C706.036 639.289 923.323 726.059 957.874 675.024Z" stroke="#FF5E18" stroke-width="3" stroke-miterlimit="10"/>
<path d="M901.152 633.867C930.542 590.456 793.346 446.252 594.716 311.778C396.086 177.305 211.24 103.485 181.85 146.896C152.46 190.308 289.656 334.512 488.286 468.986C686.916 603.459 871.762 677.279 901.152 633.867Z" stroke="#141414" stroke-width="3" stroke-miterlimit="10"/>
<path fill-rule="evenodd" clip-rule="evenodd" d="M643.606 659.4L516.499 764.525L646.3 736.572L683.309 718.079L643.606 659.4Z" fill="#141414"/>
<path fill-rule="evenodd" clip-rule="evenodd" d="M321.589 281.487L184.161 327.577L195.229 510.715L331.505 475.096L321.589 281.487Z" fill="#FF5E18"/>
<path fill-rule="evenodd" clip-rule="evenodd" d="M337.262 480.813L195.22 510.714C234.571 386.407 270.546 323.443 321.577 281.51L337.262 480.813Z" fill="url(#paint0_linear_183_2077)"/>
<path fill-rule="evenodd" clip-rule="evenodd" d="M404.878 172.318L495.468 233.847L609.875 148.768L520.952 84.4294L404.878 172.318Z" fill="url(#paint1_linear_183_2077)"/>
<path fill-rule="evenodd" clip-rule="evenodd" d="M305.449 602.772L401.406 660.896L374.865 542.41L281.398 483.301L305.449 602.772Z" fill="url(#paint2_linear_183_2077)"/>
<path fill-rule="evenodd" clip-rule="evenodd" d="M525.826 334.33L618.062 397.165L563.067 471.909L469.314 410.826L525.826 334.33Z" fill="url(#paint3_linear_183_2077)"/>
<path fill-rule="evenodd" clip-rule="evenodd" d="M357.865 515.355L453.822 573.479L427.207 454.986L333.787 395.906L357.865 515.355Z" fill="url(#paint4_linear_183_2077)"/>
<path fill-rule="evenodd" clip-rule="evenodd" d="M402.268 246.335L492.648 307.969L492.641 308.043L402.193 246.328L402.268 246.335Z" fill="#FF5E18"/>
<path fill-rule="evenodd" clip-rule="evenodd" d="M398.183 255.08L488.773 316.609L603.227 231.56L514.331 167.198L398.183 255.08Z" fill="url(#paint5_linear_183_2077)"/>
<path fill-rule="evenodd" clip-rule="evenodd" d="M487.021 293.207L578.404 355.835L618.071 397.166L525.834 334.332L487.021 293.207Z" fill="url(#paint6_linear_183_2077)"/>
<path fill-rule="evenodd" clip-rule="evenodd" d="M547.018 387.792L640.235 450.296L635.801 492.446L541.706 430.507L547.018 387.792Z" fill="url(#paint7_linear_183_2077)"/>
<path fill-rule="evenodd" clip-rule="evenodd" d="M330.27 554.461L427.065 611.643L427.559 611.964L428.151 612.296L428.732 612.476L429.388 612.664L332.622 555.435L331.969 555.222L331.387 555.042L330.862 554.792L330.27 554.461Z" fill="#FF5E18"/>
<path fill-rule="evenodd" clip-rule="evenodd" d="M332.623 555.438L429.389 612.666L549.097 645.064L451.687 586.476L332.623 555.438Z" fill="url(#paint8_linear_183_2077)"/>
<path fill-rule="evenodd" clip-rule="evenodd" d="M541.707 430.509L635.801 492.449L507.223 527.432L412.222 467.926L541.707 430.509Z" fill="url(#paint9_linear_183_2077)"/>
<path fill-rule="evenodd" clip-rule="evenodd" d="M618.789 466.336L713.413 529L783.904 358.086L692.794 292.09L618.789 466.336Z" fill="url(#paint10_linear_183_2077)"/>
<path fill-rule="evenodd" clip-rule="evenodd" d="M521.833 161.55L610.618 226.025L610.537 226.092L521.783 161.545L521.833 161.55Z" fill="#FF5E18"/>
<path fill-rule="evenodd" clip-rule="evenodd" d="M561.674 269.383L652.571 333.437L578.404 355.835L487.021 293.207L561.674 269.383Z" fill="url(#paint11_linear_183_2077)"/>
<path fill-rule="evenodd" clip-rule="evenodd" d="M514.33 167.197L603.226 231.559L710.509 246.97L621.376 180.914L514.33 167.197Z" fill="url(#paint12_linear_183_2077)"/>
<path fill-rule="evenodd" clip-rule="evenodd" d="M463.993 583.26L561.235 642.032L703.434 541.671L608.579 479.334L463.993 583.26Z" fill="url(#paint13_linear_183_2077)"/>
<path fill-rule="evenodd" clip-rule="evenodd" d="M333.787 395.906L427.207 454.986L488.768 316.608L398.178 255.079L333.787 395.906Z" fill="url(#paint14_linear_183_2077)"/>
<path fill-rule="evenodd" clip-rule="evenodd" d="M566.599 229.125L656.719 293.729L652.569 333.436L561.672 269.382L566.599 229.125Z" fill="url(#paint15_linear_183_2077)"/>
<path fill-rule="evenodd" clip-rule="evenodd" d="M694.189 277.998L784.955 344.21L741.827 215.202L653.42 148.342L694.189 277.998Z" fill="url(#paint16_linear_183_2077)"/>
<path d="M419.895 287.104L402.441 275.476L348.514 394.32L416.46 439.256" stroke="#FF5E18" stroke-width="3" stroke-linecap="round" stroke-linejoin="round"/>
<path fill-rule="evenodd" clip-rule="evenodd" d="M692.789 292.092L783.9 358.088L784.262 357.174L784.55 356.253L784.837 355.333L785.076 354.407L785.289 353.479L785.449 352.596L785.613 351.663L785.696 350.798L785.779 349.932L785.79 349.035L785.742 348.232L785.679 347.327L785.556 346.517L785.43 345.756L785.229 344.988L784.954 344.213L694.188 278.001L694.389 278.769L694.59 279.537L694.712 280.347L694.782 281.177L694.823 282.055L694.893 282.885L694.811 283.75L694.777 284.621L694.635 285.58L694.548 286.495L694.31 287.421L694.094 288.373L693.808 289.27L693.493 290.213L693.205 291.133L692.789 292.092Z" fill="#141414" stroke="#141414" stroke-width="3" stroke-linecap="round" stroke-linejoin="round"/>
<path d="M380.41 415.192L420.765 324.197L427.707 330.152L387.781 420.315" stroke="#FF5E18" stroke-width="3" stroke-linecap="round" stroke-linejoin="round"/>
<path d="M626.635 198.21L541.076 186.576L491.525 221.387L501.301 228.238L527.368 210.12" stroke="#FF5E18" stroke-width="3" stroke-linecap="round" stroke-linejoin="round"/>
<path fill-rule="evenodd" clip-rule="evenodd" d="M642.849 447.305L737.473 509.969L807.959 339.104L716.959 272.994C692.265 331.09 667.561 389.194 642.849 447.305Z" fill="url(#paint17_linear_183_2077)"/>
<path fill-rule="evenodd" clip-rule="evenodd" d="M726.235 133.825L748.206 149.879L737.726 118.579L716.293 102.377L726.235 133.825Z" fill="#141414"/>
<path fill-rule="evenodd" clip-rule="evenodd" d="M674.047 481.385L694.178 494.767L709.189 458.396L689.802 444.287L674.047 481.385Z" fill="#141414"/>
<path fill-rule="evenodd" clip-rule="evenodd" d="M679.98 526.274L637.79 498.527L601.217 525.248L632.797 547.038L643.853 539.212L664.03 540.12L679.98 526.274Z" fill="#FF5E18"/>
<path d="M535.657 309.641L521.913 299.666L579.253 281.771L597.344 294.558" stroke="#FF5E18" stroke-width="3" stroke-linecap="round" stroke-linejoin="round"/>
<path d="M604.574 299.641L621.853 311.801" stroke="#FF5E18" stroke-width="3" stroke-linecap="round" stroke-linejoin="round"/>
<path d="M607.506 225.18L577.27 201.348L630.025 209.443" stroke="#FF5E18" stroke-width="3" stroke-linecap="round" stroke-linejoin="round"/>
<path d="M509.381 516.109L446.285 475.255L530.565 450.705" stroke="#FF5E18" stroke-width="3" stroke-linecap="round" stroke-linejoin="round"/>
<path fill-rule="evenodd" clip-rule="evenodd" d="M608.583 479.337L703.437 541.673L704.236 541.151L704.995 540.525L705.783 539.851L706.47 539.193L707.216 538.441L707.912 537.684L708.581 536.95L709.211 536.112L709.813 535.296L710.44 534.482L710.999 533.588L711.552 532.767L712.038 531.865L712.555 530.892L712.967 529.983L713.41 529.002L663.775 496.125L618.786 466.338L618.343 467.319L617.85 468.295L617.34 469.194L616.847 470.17L616.287 471.065L615.727 471.96L615.118 472.85L614.417 473.656L613.79 474.47L613.118 475.229L612.368 476.031L611.672 476.787L610.933 477.465L610.122 478.112L609.388 478.74L608.583 479.337Z" fill="#141414" stroke="#141414" stroke-width="3" stroke-linecap="round" stroke-linejoin="round"/>
<path d="M434.259 192.323L404.879 172.316L470.689 122.515" stroke="#141414" stroke-width="3" stroke-linecap="round" stroke-linejoin="round"/>
<path d="M295.431 552.626L281.379 483.301" stroke="#141414" stroke-width="3" stroke-miterlimit="10"/>
<path d="M547.014 387.793L593.613 419.007" stroke="#141414" stroke-width="3" stroke-linecap="round" stroke-linejoin="round"/>
<path d="M550.055 299.991L588.325 288.132" stroke="#FF5E18" stroke-width="3" stroke-linecap="round" stroke-linejoin="round"/>
<path d="M449.13 410.815L413.513 387.141L435.485 336.712" stroke="#FF5E18" stroke-width="3" stroke-linecap="round" stroke-linejoin="round"/>
<path fill-rule="evenodd" clip-rule="evenodd" d="M653.422 148.345L741.829 215.205L741.614 214.586L741.278 213.929L740.988 213.303L740.645 212.721L740.269 212.211L739.844 211.696L739.412 211.255L738.933 210.785L738.42 210.412L650.094 143.484L650.607 143.858L651.039 144.299L651.469 144.764L651.894 145.279L652.244 145.787L652.588 146.368L652.877 146.995L653.142 147.619L653.422 148.345Z" fill="#141414" stroke="#141414" stroke-width="3" stroke-linecap="round" stroke-linejoin="round"/>
<path fill-rule="evenodd" clip-rule="evenodd" d="M590.211 696.241L577.395 710.462L563.838 579.393C562.707 569.303 576.626 567.815 577.912 576.798L590.211 696.241Z" fill="url(#paint18_linear_183_2077)"/>
<path fill-rule="evenodd" clip-rule="evenodd" d="M686.425 205.033L736.837 241.778L712.873 170.156L663.773 132.988L686.425 205.033Z" fill="#141414"/>
<path d="M347.041 414.719L370.494 533.658" stroke="#FF5E18" stroke-width="3" stroke-linecap="round" stroke-linejoin="round"/>
<path fill-rule="evenodd" clip-rule="evenodd" d="M451.68 586.476L549.09 645.064L549.404 645.169L549.751 645.202L550.065 645.307L550.485 645.348L550.807 645.378L551.227 645.419L551.549 645.449L551.902 645.408L552.305 645.372L552.651 645.405L553.052 645.394L553.387 645.276L553.815 645.242L554.215 645.231L554.551 645.113L554.983 645.03L457.605 586.37L457.245 586.485L456.844 586.496L456.484 586.612L456.076 586.697L455.723 586.739L455.32 586.775L454.969 586.791L454.566 586.827L454.245 586.797L453.825 586.756L453.496 586.8L453.076 586.76L452.761 586.655L452.415 586.622L452.094 586.591L451.68 586.476Z" fill="#141414" stroke="#141414" stroke-width="3" stroke-linecap="round" stroke-linejoin="round"/>
<path fill-rule="evenodd" clip-rule="evenodd" d="M457.608 586.368L554.986 645.028L555.322 644.911L555.754 644.827L556.095 644.66L556.529 644.552L556.944 644.392L557.284 644.225L557.724 644.067L558.064 643.9L558.503 643.743L558.851 643.501L559.273 643.267L559.645 643.028L560.066 642.794L560.439 642.555L560.858 642.346L561.237 642.033L463.995 583.261L463.568 583.545L463.196 583.784L462.775 584.018L462.395 584.331L461.973 584.565L461.608 584.73L461.187 584.964L460.767 585.173L460.4 585.363L459.985 585.523L459.62 585.687L459.205 585.847L458.791 586.007L458.43 586.123L458.016 586.282L457.608 586.368Z" fill="#141414" stroke="#141414" stroke-width="3" stroke-linecap="round" stroke-linejoin="round"/>
<path fill-rule="evenodd" clip-rule="evenodd" d="M736.962 482.39L745.574 488.106L752.007 472.525L743.722 466.517L736.962 482.39Z" fill="#FF5E18"/>
<path fill-rule="evenodd" clip-rule="evenodd" d="M898.238 129.281L701.397 197.983L732.032 389.708L927.615 340.401L898.238 129.281Z" fill="#FF5E18"/>
<path fill-rule="evenodd" clip-rule="evenodd" d="M937.552 351.583L732.033 389.707C779.869 248.194 826.93 182.049 898.239 129.28L937.552 351.583Z" fill="url(#paint19_linear_183_2077)"/>
<path d="M412.221 467.926L494.252 519.277" stroke="#FF5E18" stroke-width="3" stroke-miterlimit="10"/>
<path d="M381.166 534.73L363.824 443.977L385.276 456.861L403.147 544.171" stroke="#FF5E18" stroke-width="3" stroke-linecap="round" stroke-linejoin="round"/>
<path d="M525.83 334.328L592.626 379.804" stroke="#141414" stroke-width="3" stroke-linecap="round" stroke-linejoin="round"/>
<path fill-rule="evenodd" clip-rule="evenodd" d="M469.316 410.852L547.016 387.794L541.704 430.509L412.209 468.025L417.835 429.856L476.628 350.11L436.118 306.128L441.389 270.097L566.612 229.227L561.661 269.482L487.007 293.306L525.843 334.457L469.316 410.852ZM513.637 131.919L384.062 230.494L383.41 231.056L382.685 231.585L382.003 232.194L381.413 232.886L380.731 233.494L380.115 234.184L379.525 234.876L378.903 235.64L378.357 236.387L377.735 237.151L377.264 237.904L376.709 238.749L376.237 239.503L375.806 240.36L375.377 241.192L374.972 242.027L302.527 399.203L302.089 400.134L301.734 400.974L301.372 401.887L301.091 402.734L300.885 403.588L300.646 404.513L300.438 405.391L300.362 406.183L300.277 407.073L300.128 408.631L300.057 409.373L299.978 410.189L300.031 410.943L300.108 411.699L300.235 412.46L326.062 547.523L326.263 548.291L326.472 548.985L326.677 549.703L326.935 550.402L327.231 550.954L327.568 551.61L327.918 552.118L328.343 552.633L328.768 553.148L329.2 553.589L329.711 553.987L330.224 554.36L330.792 554.689L331.317 554.939L331.921 555.147L332.577 555.334L451.638 586.397L452.034 586.435L452.701 586.499L453.048 586.532L453.443 586.57L453.79 586.603L454.531 586.674L454.927 586.712L455.249 586.743L455.669 586.783L455.991 586.814L456.423 586.73L456.744 586.761L457.165 586.801L457.5 586.684L457.908 586.598L458.347 586.44L458.683 586.323L459.122 586.165L459.537 586.005L459.877 585.838L460.316 585.681L460.657 585.514L461.103 585.282L461.525 585.048L461.866 584.881L462.312 584.649L462.667 584.333L463.111 584.126L463.458 583.885L463.887 583.577L608.597 479.662L609.403 479.066L610.134 478.462L610.947 477.791L611.686 477.113L612.358 476.354L613.108 475.552L613.805 474.795L614.407 473.979L615.108 473.173L615.742 472.285L616.302 471.391L616.861 470.496L617.354 469.52L617.84 468.618L618.357 467.644L618.773 466.686L692.852 292.447L693.295 291.466L693.583 290.546L693.871 289.625L694.159 288.704L694.397 287.778L694.611 286.851L694.7 285.911L694.79 284.971L694.876 284.081L694.959 283.215L694.911 282.412L694.847 281.508L694.923 280.716L694.803 279.881L694.602 279.113L694.401 278.346L653.607 148.687L653.35 147.989L653.063 147.337L652.798 146.713L652.43 146.129L652.079 145.621L651.654 145.106L651.222 144.665L650.793 144.2L650.279 143.826L649.712 143.498L649.194 143.174L648.533 142.511L647.934 142.254L647.266 142.19L646.611 142.003L645.943 141.939L525.179 127.883L524.833 127.85L524.511 127.819L523.843 127.755L523.571 127.729L523.225 127.696L522.65 127.965L522.304 127.932L521.983 127.901L521.636 127.868L521.303 127.961L520.943 128.076L520.621 128.045L520.261 128.161L519.903 128.251C517.634 129.135 515.519 130.373 513.637 131.919V131.919ZM514.325 167.223L621.374 180.914L656.248 296.555L590.704 449.674L463.733 541.386L357.886 515.407L333.811 395.934L398.177 255.104L514.325 167.223Z" fill="#F6F6F6" stroke="#FF5E18" stroke-width="3" stroke-linecap="round" stroke-linejoin="round"/>
<path fill-rule="evenodd" clip-rule="evenodd" d="M656.926 707.168L628.364 674.961L636.639 634.401L662.062 649.862L683.308 718.079L656.926 707.168Z" fill="url(#paint20_linear_183_2077)"/>
<path d="M701.396 197.982L732.032 389.707L851.088 367.638" stroke="#141414" stroke-width="3" stroke-linecap="round" stroke-linejoin="round"/>
<path fill-rule="evenodd" clip-rule="evenodd" d="M630.738 727.773L516.49 764.528L517.39 745.997L612.103 647.927L636.631 634.403L656.917 707.17L630.738 727.773Z" fill="url(#paint21_linear_183_2077)"/>
<path fill-rule="evenodd" clip-rule="evenodd" d="M542.908 710.482C537.266 719.9 533.924 730.515 533.154 741.467C533.194 742.322 533.322 743.17 533.536 743.999C534.764 748.11 537.218 747.246 540.098 746.1L623.749 711.957L545.276 733.718C544.465 726.029 543.708 718.295 542.908 710.482Z" fill="url(#paint22_linear_183_2077)"/>
<path fill-rule="evenodd" clip-rule="evenodd" d="M543.096 733.207C539.913 731.005 540.558 722.183 543.025 710.49L612.777 662.264L623.728 712.101L548.324 733.083C546.597 733.392 544.688 734.308 543.096 733.207Z" fill="url(#paint23_linear_183_2077)"/>
<path fill-rule="evenodd" clip-rule="evenodd" d="M655.036 700.351L623.775 711.983L611.356 717.108L602.186 718.002C630.587 692.446 636.045 687.827 687.016 667.901L655.036 700.351Z" fill="#141414"/>
<path d="M340.432 557.457L426.11 579.834" stroke="#141414" stroke-width="3" stroke-miterlimit="10"/>
<path fill-rule="evenodd" clip-rule="evenodd" d="M371.127 401.573L356.296 391.743L367.85 367.245L381.741 376.985L371.127 401.573Z" fill="#FF5E18"/>
<path fill-rule="evenodd" clip-rule="evenodd" d="M502.551 198.188L495.633 192.509L416.317 251.749L423.962 256.873L502.551 198.188Z" fill="#FF5E18"/>
<path d="M487.816 405.358L528.769 351.131L540.49 359.041" stroke="#FF5E18" stroke-width="3" stroke-linecap="round" stroke-linejoin="round"/>
<path d="M514.485 504.667L473.568 479.013L543.72 458.153" stroke="#FF5E18" stroke-width="3" stroke-linecap="round" stroke-linejoin="round"/>
<path d="M410.775 528.354L399.301 474.074L414.094 483.002L424.672 531.781" stroke="#FF5E18" stroke-width="3" stroke-linecap="round" stroke-linejoin="round"/>
<path d="M435.242 490.719L443.793 528.872" stroke="#FF5E18" stroke-width="3" stroke-linecap="round" stroke-linejoin="round"/>
<path d="M593.503 238.215L601.765 231.419L638.186 236.528" stroke="#FF5E18" stroke-width="3" stroke-linecap="round" stroke-linejoin="round"/>
<path d="M541.074 186.576L603.226 231.557" stroke="#FF5E18" stroke-width="3" stroke-miterlimit="10"/>
<path d="M566.598 229.125L625.376 271.287" stroke="#141414" stroke-width="3" stroke-miterlimit="10"/>
<path d="M614.705 393.449L578.401 355.834L622.78 342.463" stroke="#FF5E18" stroke-width="3" stroke-linecap="round" stroke-linejoin="round"/>
<path d="M497.788 583.451L609.663 502.672L677.633 549.433" stroke="#FF5E18" stroke-width="3" stroke-linecap="round" stroke-linejoin="round"/>
<path d="M453.628 324.974L476.637 350.012L417.843 429.758" stroke="#141414" stroke-width="3" stroke-linecap="round" stroke-linejoin="round"/>
<path d="M438.231 291.855L441.397 269.997L539.264 238.039" stroke="#141414" stroke-width="3" stroke-miterlimit="10"/>
<path d="M374.454 459.644C374.413 459.313 374.497 458.979 374.689 458.707C374.882 458.435 375.168 458.244 375.493 458.171C375.655 458.141 375.821 458.144 375.982 458.178C376.143 458.213 376.295 458.28 376.43 458.374C376.565 458.468 376.68 458.588 376.768 458.727C376.856 458.866 376.916 459.021 376.944 459.183L377.829 464.01C377.872 464.169 377.881 464.336 377.856 464.499C377.831 464.662 377.773 464.818 377.684 464.957C377.596 465.097 377.48 465.216 377.343 465.308C377.206 465.4 377.051 465.463 376.889 465.492C376.728 465.527 376.562 465.529 376.401 465.499C376.239 465.47 376.085 465.408 375.947 465.318C375.81 465.229 375.691 465.112 375.599 464.976C375.506 464.841 375.442 464.688 375.409 464.527L374.454 459.644ZM387.133 512.816C387.167 512.976 387.17 513.142 387.14 513.304C387.11 513.466 387.049 513.62 386.959 513.757C386.869 513.895 386.753 514.013 386.617 514.106C386.481 514.198 386.328 514.263 386.167 514.296C385.848 514.352 385.518 514.284 385.248 514.105C384.977 513.925 384.785 513.649 384.712 513.333L383.76 508.425C383.712 508.1 383.79 507.769 383.979 507.5C384.167 507.23 384.45 507.042 384.772 506.975C385.102 506.914 385.443 506.987 385.719 507.177C385.996 507.367 386.186 507.659 386.247 507.989L387.133 512.816ZM384.827 500.666C384.881 500.995 384.806 501.333 384.616 501.608C384.427 501.883 384.139 502.074 383.812 502.141C383.49 502.186 383.164 502.103 382.902 501.91C382.641 501.717 382.465 501.43 382.414 501.109L381.458 496.226C381.401 495.903 381.469 495.57 381.649 495.295C381.828 495.02 382.105 494.824 382.424 494.746C382.749 494.699 383.08 494.777 383.349 494.965C383.619 495.153 383.806 495.437 383.874 495.758L384.827 500.666ZM382.476 488.462C382.515 488.62 382.521 488.784 382.495 488.944C382.468 489.104 382.409 489.257 382.321 489.393C382.233 489.53 382.119 489.647 381.984 489.737C381.849 489.828 381.698 489.89 381.538 489.92C381.208 489.98 380.867 489.908 380.591 489.718C380.314 489.527 380.124 489.235 380.063 488.905L379.103 484.072C379.061 483.744 379.141 483.412 379.328 483.14C379.516 482.868 379.797 482.674 380.118 482.596C380.279 482.558 380.446 482.553 380.608 482.581C380.771 482.609 380.927 482.671 381.065 482.761C381.204 482.851 381.322 482.969 381.414 483.106C381.505 483.244 381.568 483.399 381.598 483.562L382.476 488.462Z" fill="#141414"/>
<path d="M404.153 284.724C404.215 284.576 404.306 284.441 404.421 284.328C404.536 284.215 404.673 284.125 404.822 284.065C404.972 284.005 405.132 283.976 405.293 283.978C405.455 283.981 405.614 284.015 405.762 284.08C406.071 284.218 406.314 284.472 406.437 284.787C406.561 285.102 406.556 285.453 406.424 285.765L404.441 290.317C404.374 290.464 404.278 290.595 404.159 290.705C404.041 290.814 403.902 290.899 403.75 290.954C403.599 291.009 403.438 291.034 403.277 291.026C403.115 291.018 402.957 290.979 402.812 290.91C402.658 290.85 402.518 290.759 402.401 290.643C402.284 290.527 402.192 290.387 402.132 290.234C402.072 290.08 402.044 289.916 402.05 289.751C402.057 289.586 402.097 289.424 402.17 289.276L404.153 284.724ZM374.626 358.538C374.563 358.689 374.471 358.827 374.354 358.943C374.238 359.059 374.099 359.151 373.947 359.213C373.795 359.275 373.632 359.306 373.468 359.304C373.304 359.303 373.141 359.269 372.99 359.204C372.841 359.142 372.707 359.051 372.593 358.936C372.48 358.821 372.391 358.684 372.331 358.535C372.271 358.385 372.242 358.225 372.244 358.064C372.247 357.902 372.281 357.743 372.345 357.595L374.331 353.019C374.39 352.868 374.48 352.731 374.595 352.616C374.709 352.501 374.846 352.41 374.996 352.35C375.147 352.29 375.308 352.261 375.471 352.265C375.633 352.269 375.793 352.306 375.94 352.374C376.091 352.434 376.229 352.524 376.344 352.638C376.46 352.752 376.552 352.889 376.615 353.039C376.677 353.189 376.709 353.35 376.708 353.513C376.707 353.675 376.673 353.836 376.609 353.986L374.626 358.538ZM389.548 324.404C389.417 324.705 389.17 324.942 388.864 325.063C388.558 325.183 388.216 325.177 387.914 325.046C387.761 324.989 387.621 324.901 387.504 324.787C387.387 324.674 387.295 324.536 387.235 324.385C387.174 324.233 387.146 324.07 387.152 323.907C387.158 323.744 387.198 323.584 387.27 323.437L389.253 318.885C389.38 318.584 389.62 318.345 389.921 318.22C390.223 318.095 390.562 318.093 390.864 318.216C391.016 318.279 391.154 318.371 391.27 318.488C391.386 318.604 391.477 318.742 391.539 318.895C391.601 319.047 391.633 319.21 391.631 319.374C391.63 319.538 391.596 319.701 391.531 319.852L389.548 324.404ZM399.508 301.699C399.373 302 399.124 302.236 398.816 302.354C398.507 302.472 398.165 302.462 397.863 302.328C397.562 302.193 397.326 301.944 397.208 301.635C397.09 301.327 397.1 300.984 397.234 300.683L399.217 296.131C399.277 295.977 399.368 295.837 399.484 295.719C399.6 295.601 399.739 295.508 399.892 295.446C400.045 295.383 400.209 295.353 400.375 295.356C400.54 295.359 400.703 295.396 400.853 295.464C401.006 295.532 401.144 295.63 401.259 295.751C401.374 295.873 401.464 296.016 401.523 296.173C401.582 296.329 401.61 296.496 401.604 296.663C401.599 296.83 401.56 296.995 401.491 297.147L399.508 301.699Z" fill="#141414"/>
<path d="M193.988 490.332L184.163 327.577L278.815 295.835" stroke="#141414" stroke-width="3" stroke-linecap="round" stroke-linejoin="round"/>
<path d="M595.205 529.414C595.475 529.23 595.806 529.16 596.128 529.218C596.449 529.277 596.734 529.46 596.921 529.728C597.029 529.85 597.111 529.993 597.161 530.148C597.211 530.303 597.229 530.467 597.213 530.629C597.198 530.791 597.149 530.949 597.07 531.091C596.992 531.234 596.885 531.359 596.756 531.459L592.756 534.395C592.495 534.589 592.17 534.68 591.846 534.649C591.522 534.618 591.22 534.467 591 534.227C590.902 534.094 590.832 533.942 590.795 533.78C590.758 533.619 590.754 533.451 590.783 533.288C590.813 533.125 590.876 532.97 590.967 532.832C591.059 532.694 591.178 532.576 591.317 532.486L595.205 529.414ZM512.225 592.77C511.949 592.948 511.615 593.015 511.292 592.957C510.968 592.898 510.679 592.718 510.484 592.453C510.3 592.183 510.23 591.852 510.288 591.53C510.347 591.209 510.53 590.924 510.798 590.736L514.797 587.8C515.069 587.612 515.403 587.537 515.729 587.591C516.054 587.646 516.346 587.825 516.541 588.092C516.747 588.349 516.844 588.676 516.813 589.004C516.782 589.331 516.624 589.634 516.373 589.848L512.225 592.77ZM532.317 578.147C532.186 578.243 532.037 578.312 531.879 578.349C531.721 578.387 531.557 578.392 531.396 578.365C531.236 578.338 531.083 578.279 530.946 578.192C530.809 578.105 530.69 577.991 530.598 577.858C530.421 577.583 530.353 577.252 530.407 576.93C530.461 576.607 530.633 576.316 530.89 576.114L534.907 573.254C535.16 573.05 535.482 572.953 535.806 572.984C536.13 573.014 536.428 573.171 536.638 573.42C536.843 573.677 536.941 574.004 536.909 574.332C536.878 574.659 536.72 574.962 536.47 575.176L532.317 578.147ZM542.374 570.849C542.243 570.947 542.093 571.017 541.933 571.054C541.774 571.091 541.608 571.095 541.447 571.066C541.286 571.037 541.133 570.974 540.997 570.883C540.861 570.792 540.746 570.673 540.657 570.535C540.561 570.404 540.493 570.255 540.455 570.097C540.418 569.939 540.413 569.775 540.44 569.615C540.466 569.455 540.525 569.301 540.612 569.164C540.699 569.027 540.813 568.909 540.947 568.816L544.941 565.929C545.199 565.724 545.526 565.626 545.853 565.658C546.181 565.689 546.484 565.847 546.697 566.097C546.795 566.231 546.865 566.383 546.903 566.544C546.94 566.706 546.944 566.873 546.914 567.036C546.885 567.199 546.822 567.355 546.73 567.493C546.639 567.631 546.52 567.749 546.381 567.839L542.374 570.849ZM562.491 556.229C562.234 556.435 561.907 556.532 561.579 556.501C561.251 556.47 560.948 556.312 560.735 556.061C560.535 555.802 560.442 555.476 560.473 555.15C560.504 554.824 560.658 554.522 560.903 554.305L564.927 551.372C565.18 551.167 565.503 551.07 565.827 551.101C566.15 551.132 566.449 551.289 566.658 551.537C566.758 551.667 566.829 551.816 566.869 551.975C566.908 552.133 566.914 552.299 566.887 552.46C566.86 552.621 566.8 552.775 566.711 552.912C566.622 553.049 566.505 553.166 566.369 553.257L562.491 556.229ZM582.58 541.632C582.323 541.837 581.996 541.935 581.668 541.903C581.341 541.872 581.038 541.714 580.824 541.464C580.726 541.33 580.656 541.178 580.619 541.016C580.582 540.855 580.578 540.688 580.607 540.525C580.637 540.361 580.7 540.206 580.791 540.068C580.883 539.93 581.002 539.812 581.141 539.722L585.14 536.786C585.274 536.687 585.426 536.618 585.588 536.58C585.749 536.543 585.916 536.539 586.079 536.569C586.242 536.598 586.398 536.661 586.536 536.752C586.674 536.844 586.792 536.963 586.882 537.102C586.98 537.233 587.05 537.383 587.087 537.543C587.124 537.702 587.128 537.868 587.099 538.029C587.069 538.19 587.007 538.343 586.916 538.479C586.824 538.615 586.706 538.731 586.568 538.819L582.58 541.632Z" fill="#141414"/>
<path d="M601.013 591.711C600.737 591.872 600.412 591.929 600.097 591.871C599.782 591.814 599.498 591.645 599.297 591.397C599.189 591.275 599.108 591.131 599.057 590.976C599.007 590.821 598.989 590.658 599.005 590.495C599.02 590.333 599.069 590.176 599.148 590.033C599.226 589.891 599.333 589.766 599.462 589.666L602.592 587.47C602.867 587.293 603.198 587.226 603.521 587.279C603.843 587.333 604.134 587.505 604.336 587.762C604.435 587.895 604.504 588.047 604.542 588.209C604.579 588.37 604.583 588.538 604.553 588.701C604.524 588.864 604.461 589.019 604.369 589.157C604.278 589.295 604.159 589.413 604.02 589.503L601.013 591.711ZM620.372 577.967C620.115 578.172 619.788 578.27 619.46 578.238C619.133 578.207 618.83 578.049 618.617 577.799C618.417 577.539 618.323 577.213 618.354 576.888C618.386 576.562 618.539 576.26 618.785 576.043L622.851 573.188C622.985 573.091 623.136 573.022 623.296 572.985C623.456 572.947 623.622 572.942 623.784 572.969C623.946 572.996 624.102 573.055 624.241 573.143C624.38 573.231 624.501 573.345 624.595 573.48C624.772 573.755 624.84 574.085 624.786 574.408C624.732 574.73 624.56 575.021 624.303 575.224L620.372 577.967ZM640.673 563.514C640.541 563.612 640.391 563.681 640.232 563.719C640.072 563.756 639.907 563.76 639.746 563.73C639.585 563.701 639.431 563.639 639.295 563.547C639.16 563.456 639.044 563.338 638.956 563.2C638.856 563.07 638.785 562.921 638.745 562.762C638.706 562.604 638.7 562.439 638.727 562.277C638.754 562.116 638.814 561.962 638.903 561.825C638.992 561.688 639.109 561.571 639.245 561.481L643.314 558.601C643.439 558.5 643.585 558.427 643.741 558.388C643.898 558.348 644.06 558.343 644.219 558.373C644.377 558.402 644.527 558.465 644.659 558.558C644.791 558.651 644.901 558.771 644.981 558.91C645.187 559.167 645.284 559.494 645.253 559.822C645.222 560.15 645.064 560.453 644.813 560.666L640.673 563.514Z" fill="#141414"/>
<path d="M333.787 395.906L398.178 255.079L514.326 167.197" stroke="#141414" stroke-width="3" stroke-linecap="round" stroke-linejoin="round"/>
<path d="M656.226 296.528L590.685 449.623L463.736 541.362L357.867 515.355" stroke="#141414" stroke-width="3" stroke-linecap="round" stroke-linejoin="round"/>
<path d="M581.175 456.449L541.707 430.509L412.222 467.926" stroke="#141414" stroke-width="3" stroke-linecap="round" stroke-linejoin="round"/>
<path fill-rule="evenodd" clip-rule="evenodd" d="M593.473 675.493L612.794 662.144L640.923 649.863L656.837 625.956L665.051 613.666C659.449 616.399 654.388 618.959 649.803 621.49C617.404 639.277 610.024 653.544 593.473 675.493Z" fill="#141414"/>
<path d="M516.499 764.524L630.747 727.77L656.927 707.167" stroke="#FF5E18" stroke-width="3" stroke-linecap="round" stroke-linejoin="round"/>
<path d="M551.524 732.042L602.134 717.97" stroke="#322C24" stroke-width="3" stroke-linecap="round" stroke-linejoin="round"/>
<path d="M541.127 728.802L543.03 710.492L612.769 662.14L618.243 687.071" stroke="#141414" stroke-width="3" stroke-linecap="round" stroke-linejoin="round"/>
<path d="M516.491 764.527L517.392 745.996L534.848 727.877L542.878 710.478" stroke="#141414" stroke-width="3" stroke-miterlimit="10"/>
<path d="M547.945 721.468L591.652 702.343L601.436 711.191" stroke="#FF5E18" stroke-width="3" stroke-linecap="round" stroke-linejoin="round"/>
<path d="M628.201 721.687L601.582 730.718L597.775 728.258L558.104 742.503" stroke="#FF5E18" stroke-width="3" stroke-linecap="round" stroke-linejoin="round"/>
<path d="M593.473 675.491C618.641 641.989 627.494 632.929 665.055 613.615" stroke="#141414" stroke-width="3" stroke-linecap="round" stroke-linejoin="round"/>
<path d="M640.926 649.786L612.766 662.138" stroke="#FF5E18" stroke-width="3" stroke-linecap="round" stroke-linejoin="round"/>
<path d="M537.854 440.447C538.165 440.379 538.491 440.434 538.763 440.599C539.035 440.764 539.233 441.028 539.316 441.335C539.411 441.649 539.377 441.987 539.223 442.276C539.069 442.565 538.808 442.782 538.495 442.879L533.702 444.192C533.382 444.272 533.044 444.23 532.754 444.073C532.464 443.915 532.244 443.655 532.136 443.343C532.061 443.021 532.111 442.682 532.278 442.396C532.445 442.111 532.715 441.9 533.032 441.807L537.854 440.447ZM449.998 467.674C449.838 467.718 449.671 467.73 449.507 467.708C449.343 467.687 449.184 467.633 449.041 467.549C448.898 467.466 448.773 467.355 448.673 467.222C448.574 467.09 448.502 466.939 448.462 466.778C448.422 466.623 448.413 466.462 448.436 466.305C448.459 466.147 448.514 465.995 448.597 465.859C448.68 465.722 448.789 465.604 448.919 465.511C449.048 465.417 449.195 465.351 449.35 465.316L454.148 463.953C454.301 463.905 454.462 463.889 454.621 463.907C454.781 463.925 454.934 463.977 455.072 464.058C455.211 464.14 455.33 464.25 455.423 464.38C455.516 464.511 455.58 464.66 455.612 464.817C455.662 464.969 455.68 465.129 455.665 465.288C455.651 465.447 455.604 465.601 455.527 465.741C455.451 465.881 455.346 466.004 455.22 466.102C455.094 466.2 454.95 466.271 454.795 466.311L449.998 467.674ZM473.95 460.957C473.795 461.007 473.631 461.026 473.469 461.011C473.306 460.997 473.148 460.95 473.004 460.873C472.86 460.797 472.733 460.692 472.63 460.565C472.528 460.439 472.452 460.292 472.406 460.136C472.356 459.98 472.338 459.817 472.352 459.654C472.367 459.492 472.414 459.334 472.49 459.19C472.567 459.046 472.672 458.919 472.799 458.816C472.925 458.714 473.071 458.637 473.228 458.592L478.028 457.205C478.35 457.129 478.689 457.18 478.975 457.346C479.26 457.513 479.471 457.783 479.564 458.101C479.648 458.42 479.604 458.76 479.441 459.047C479.279 459.335 479.01 459.547 478.693 459.639L473.95 460.957ZM497.821 454.308C497.5 454.362 497.171 454.301 496.89 454.138C496.61 453.974 496.395 453.718 496.284 453.412C496.202 453.09 496.25 452.748 496.417 452.461C496.585 452.173 496.859 451.963 497.18 451.876L501.923 450.558C502.078 450.508 502.242 450.49 502.404 450.504C502.567 450.519 502.725 450.565 502.869 450.642C503.013 450.719 503.14 450.824 503.242 450.95C503.345 451.077 503.421 451.223 503.466 451.38C503.561 451.693 503.527 452.031 503.373 452.321C503.219 452.61 502.958 452.826 502.645 452.923L497.821 454.308ZM521.725 447.562C521.571 447.607 521.408 447.62 521.249 447.6C521.089 447.58 520.935 447.528 520.796 447.447C520.656 447.366 520.535 447.258 520.439 447.129C520.343 447 520.274 446.853 520.236 446.696C520.148 446.379 520.184 446.04 520.337 445.749C520.49 445.457 520.749 445.235 521.06 445.128L525.875 443.842C526.188 443.754 526.524 443.791 526.811 443.944C527.098 444.097 527.316 444.354 527.418 444.663C527.462 444.823 527.474 444.99 527.453 445.155C527.432 445.319 527.378 445.477 527.294 445.62C527.211 445.764 527.099 445.889 526.967 445.988C526.834 446.088 526.683 446.16 526.522 446.2L521.725 447.562Z" fill="#141414"/>
<path d="M564.063 460.297C564.38 460.203 564.721 460.236 565.015 460.39C565.308 460.544 565.529 460.806 565.631 461.121C565.675 461.281 565.687 461.448 565.665 461.612C565.644 461.777 565.59 461.935 565.507 462.078C565.423 462.222 565.312 462.347 565.179 462.446C565.047 462.546 564.896 462.618 564.735 462.658L559.985 464.05C559.663 464.126 559.324 464.075 559.038 463.908C558.752 463.742 558.541 463.472 558.448 463.154C558.404 462.994 558.392 462.827 558.414 462.663C558.435 462.499 558.489 462.34 558.573 462.197C558.656 462.054 558.767 461.929 558.9 461.829C559.032 461.73 559.183 461.658 559.344 461.618L564.063 460.297ZM500.183 480.81C499.862 480.874 499.528 480.819 499.245 480.654C498.962 480.489 498.749 480.226 498.647 479.915C498.581 479.596 498.632 479.265 498.793 478.981C498.953 478.698 499.211 478.483 499.518 478.376L504.335 477.065C504.486 477.02 504.645 477.006 504.802 477.024C504.959 477.042 505.111 477.092 505.248 477.171C505.385 477.249 505.505 477.355 505.6 477.481C505.695 477.607 505.764 477.751 505.802 477.904C505.896 478.218 505.862 478.556 505.709 478.845C505.555 479.134 505.293 479.351 504.98 479.448L500.183 480.81ZM548.012 467.371C547.699 467.458 547.364 467.422 547.076 467.269C546.789 467.116 546.571 466.858 546.469 466.549C546.425 466.39 546.413 466.223 546.434 466.058C546.456 465.894 546.51 465.735 546.593 465.592C546.677 465.449 546.788 465.324 546.92 465.225C547.053 465.125 547.204 465.053 547.365 465.013L552.09 463.618C552.252 463.567 552.422 463.549 552.591 463.567C552.759 463.585 552.922 463.638 553.069 463.722C553.216 463.807 553.344 463.921 553.444 464.058C553.544 464.195 553.615 464.351 553.651 464.517C553.697 464.67 553.711 464.831 553.693 464.989C553.675 465.148 553.625 465.301 553.546 465.441C553.468 465.58 553.362 465.702 553.236 465.799C553.109 465.897 552.964 465.968 552.81 466.008L548.012 467.371Z" fill="#141414"/>
<path d="M697.832 317.856L642.815 447.302L678.513 470.909" stroke="#141414" stroke-width="3" stroke-linecap="round" stroke-linejoin="round"/>
<path d="M588.803 303.298C589.108 303.199 589.44 303.221 589.729 303.36C590.018 303.499 590.242 303.745 590.354 304.046C590.406 304.198 590.427 304.359 590.416 304.52C590.405 304.68 590.362 304.837 590.291 304.981C590.219 305.125 590.119 305.253 589.998 305.358C589.876 305.464 589.734 305.544 589.582 305.594L584.837 307.186C584.524 307.274 584.189 307.237 583.901 307.084C583.614 306.931 583.396 306.674 583.294 306.365C583.193 306.056 583.215 305.72 583.354 305.427C583.494 305.134 583.741 304.906 584.044 304.789L588.803 303.298ZM549.329 318.611C549.016 318.705 548.678 318.672 548.389 318.518C548.099 318.364 547.883 318.102 547.786 317.789C547.686 317.484 547.708 317.153 547.847 316.864C547.987 316.575 548.232 316.351 548.533 316.239L553.295 314.723C553.447 314.671 553.609 314.65 553.769 314.661C553.93 314.672 554.086 314.714 554.23 314.786C554.374 314.858 554.503 314.958 554.608 315.079C554.713 315.201 554.793 315.342 554.843 315.495C554.943 315.8 554.921 316.132 554.782 316.421C554.643 316.71 554.397 316.934 554.096 317.046L549.329 318.611ZM572.978 310.892C572.664 310.98 572.329 310.943 572.042 310.79C571.754 310.638 571.537 310.38 571.434 310.071C571.335 309.766 571.357 309.434 571.496 309.145C571.635 308.856 571.881 308.632 572.182 308.52L576.944 307.005C577.249 306.905 577.58 306.927 577.869 307.066C578.158 307.205 578.382 307.451 578.494 307.752C578.595 308.061 578.573 308.396 578.434 308.689C578.294 308.982 578.048 309.211 577.745 309.327L572.978 310.892Z" fill="#141414"/>
<path d="M478.707 222.01C478.832 221.901 478.977 221.82 479.134 221.769C479.291 221.719 479.457 221.701 479.621 221.717C479.785 221.733 479.944 221.782 480.089 221.861C480.234 221.94 480.361 222.048 480.463 222.178C480.667 222.43 480.764 222.753 480.733 223.077C480.702 223.401 480.546 223.699 480.297 223.909L476.34 226.924C476.071 227.105 475.743 227.176 475.423 227.122C475.103 227.068 474.816 226.894 474.621 226.635C474.513 226.51 474.431 226.365 474.381 226.208C474.33 226.051 474.313 225.885 474.328 225.721C474.344 225.556 474.393 225.397 474.472 225.252C474.551 225.108 474.659 224.981 474.789 224.879L478.707 222.01ZM436.545 256.805C436.422 256.913 436.279 256.994 436.124 257.044C435.969 257.094 435.805 257.112 435.643 257.097C435.481 257.081 435.324 257.033 435.181 256.954C435.038 256.875 434.913 256.768 434.814 256.639C434.609 256.386 434.512 256.064 434.543 255.74C434.574 255.416 434.731 255.118 434.979 254.908L438.936 251.893C439.062 251.788 439.208 251.709 439.365 251.661C439.521 251.613 439.686 251.596 439.849 251.611C440.013 251.627 440.171 251.675 440.316 251.752C440.46 251.829 440.588 251.934 440.692 252.061C440.8 252.186 440.882 252.331 440.932 252.488C440.983 252.645 441 252.811 440.985 252.975C440.969 253.139 440.92 253.299 440.841 253.443C440.762 253.588 440.654 253.715 440.524 253.817L436.545 256.805ZM446.492 249.347C446.235 249.553 445.908 249.65 445.58 249.619C445.253 249.587 444.95 249.43 444.736 249.179C444.629 249.057 444.547 248.914 444.497 248.759C444.447 248.603 444.429 248.44 444.445 248.278C444.46 248.115 444.509 247.958 444.587 247.815C444.666 247.673 444.773 247.548 444.902 247.448L448.835 244.43C449.092 244.225 449.419 244.127 449.747 244.159C450.074 244.19 450.377 244.348 450.59 244.598C450.702 244.719 450.786 244.862 450.838 245.017C450.891 245.173 450.91 245.338 450.894 245.501C450.878 245.664 450.829 245.823 450.748 245.965C450.667 246.108 450.557 246.232 450.425 246.33L446.492 249.347ZM456.415 241.887C456.158 242.092 455.831 242.19 455.503 242.158C455.176 242.127 454.873 241.969 454.659 241.719C454.551 241.594 454.47 241.449 454.419 241.292C454.369 241.135 454.351 240.969 454.367 240.805C454.383 240.641 454.432 240.481 454.511 240.337C454.59 240.192 454.698 240.065 454.827 239.963L458.785 236.948C459.037 236.743 459.36 236.646 459.684 236.677C460.008 236.708 460.306 236.865 460.516 237.113C460.624 237.238 460.706 237.383 460.756 237.54C460.806 237.698 460.824 237.863 460.808 238.027C460.792 238.192 460.744 238.351 460.664 238.496C460.585 238.64 460.477 238.767 460.348 238.869L456.415 241.887Z" fill="#141414"/>
<path d="M559.897 323.417C559.592 323.524 559.257 323.505 558.967 323.365C558.676 323.225 558.453 322.975 558.346 322.67C558.262 322.367 558.288 322.045 558.42 321.76C558.553 321.475 558.783 321.247 559.069 321.117L563.831 319.601C564.147 319.522 564.482 319.565 564.768 319.722C565.053 319.879 565.269 320.138 565.372 320.448C565.422 320.603 565.44 320.767 565.426 320.929C565.412 321.091 565.365 321.249 565.288 321.393C565.211 321.537 565.107 321.664 564.98 321.767C564.853 321.87 564.707 321.946 564.55 321.991L559.897 323.417ZM571.721 319.558C571.416 319.665 571.082 319.646 570.791 319.505C570.5 319.365 570.277 319.115 570.17 318.811C570.062 318.495 570.08 318.149 570.22 317.846C570.361 317.543 570.613 317.307 570.925 317.186L575.687 315.67C576 315.583 576.336 315.619 576.623 315.772C576.91 315.925 577.128 316.183 577.23 316.492C577.284 316.649 577.306 316.815 577.293 316.98C577.28 317.146 577.234 317.307 577.157 317.454C577.08 317.601 576.973 317.73 576.844 317.834C576.715 317.939 576.566 318.015 576.406 318.06L571.721 319.558Z" fill="#141414"/>
<path d="M591.465 588.277C591.333 588.377 591.182 588.449 591.022 588.488C590.861 588.527 590.694 588.534 590.531 588.506C590.368 588.479 590.212 588.419 590.072 588.329C589.933 588.24 589.814 588.123 589.722 587.985C589.623 587.852 589.553 587.7 589.516 587.538C589.479 587.377 589.475 587.209 589.504 587.046C589.534 586.883 589.597 586.728 589.688 586.59C589.78 586.452 589.899 586.334 590.038 586.244L593.143 584.045C593.268 583.937 593.413 583.856 593.57 583.805C593.727 583.755 593.893 583.737 594.057 583.753C594.221 583.769 594.381 583.818 594.525 583.897C594.67 583.976 594.797 584.084 594.899 584.213C595.099 584.473 595.193 584.798 595.161 585.124C595.13 585.45 594.976 585.752 594.731 585.969L591.465 588.277ZM600.633 581.668C600.376 581.873 600.049 581.971 599.721 581.939C599.393 581.908 599.091 581.75 598.877 581.5C598.715 581.219 598.657 580.89 598.715 580.571C598.773 580.252 598.943 579.964 599.194 579.758L603.26 576.903C603.394 576.807 603.545 576.738 603.705 576.7C603.865 576.663 604.031 576.657 604.193 576.684C604.356 576.712 604.511 576.771 604.65 576.858C604.789 576.946 604.91 577.06 605.004 577.195C605.103 577.328 605.172 577.48 605.21 577.642C605.247 577.803 605.251 577.971 605.222 578.134C605.192 578.297 605.129 578.452 605.038 578.59C604.946 578.728 604.827 578.846 604.688 578.936L600.633 581.668ZM620.926 567.289C620.793 567.387 620.641 567.457 620.479 567.495C620.318 567.532 620.15 567.536 619.987 567.506C619.824 567.477 619.669 567.414 619.531 567.322C619.393 567.231 619.275 567.112 619.185 566.973C618.986 566.718 618.893 566.396 618.924 566.074C618.954 565.752 619.107 565.455 619.35 565.242L623.417 562.387C623.549 562.287 623.7 562.215 623.861 562.176C624.021 562.136 624.189 562.13 624.352 562.157C624.515 562.185 624.671 562.245 624.81 562.334C624.949 562.424 625.069 562.541 625.161 562.678C625.343 562.952 625.414 563.284 625.36 563.608C625.306 563.932 625.13 564.223 624.869 564.422L620.926 567.289Z" fill="#141414"/>
<path d="M699.933 348.626C699.993 348.474 700.083 348.337 700.197 348.221C700.311 348.105 700.447 348.013 700.598 347.951C700.748 347.888 700.909 347.857 701.072 347.858C701.234 347.859 701.395 347.892 701.545 347.956C701.843 348.093 702.078 348.339 702.201 348.642C702.325 348.946 702.329 349.286 702.212 349.592L700.278 354.149C700.218 354.303 700.128 354.443 700.011 354.56C699.895 354.677 699.756 354.768 699.602 354.828C699.448 354.889 699.284 354.917 699.119 354.91C698.954 354.904 698.793 354.863 698.644 354.791C698.493 354.731 698.356 354.642 698.241 354.527C698.126 354.413 698.036 354.276 697.975 354.125C697.915 353.975 697.886 353.813 697.89 353.651C697.894 353.489 697.932 353.329 698 353.182L699.933 348.626ZM666.772 434.344C666.709 434.496 666.616 434.634 666.5 434.75C666.383 434.866 666.245 434.957 666.093 435.019C665.941 435.081 665.778 435.113 665.613 435.111C665.449 435.11 665.287 435.076 665.135 435.011C664.982 434.952 664.842 434.861 664.725 434.745C664.608 434.628 664.516 434.489 664.456 434.335C664.395 434.182 664.368 434.017 664.374 433.852C664.38 433.688 664.421 433.526 664.493 433.378L666.353 428.814C666.421 428.661 666.518 428.523 666.64 428.408C666.762 428.293 666.905 428.204 667.061 428.144C667.218 428.085 667.385 428.057 667.552 428.063C667.719 428.068 667.884 428.107 668.036 428.176C668.332 428.308 668.565 428.549 668.685 428.85C668.805 429.15 668.804 429.486 668.68 429.785L666.772 434.344ZM672.778 416.701C677.243 418.551 668.246 414.77 672.728 416.697L672.778 416.701ZM676.352 411.428C676.229 411.741 675.988 411.992 675.68 412.126C675.372 412.26 675.024 412.267 674.711 412.145C674.559 412.077 674.421 411.979 674.306 411.857C674.191 411.736 674.101 411.593 674.042 411.436C673.983 411.28 673.955 411.113 673.96 410.946C673.966 410.778 674.004 410.614 674.074 410.462L675.983 405.903C676.043 405.749 676.134 405.609 676.25 405.491C676.366 405.373 676.504 405.28 676.657 405.218C676.81 405.155 676.975 405.125 677.14 405.128C677.305 405.131 677.468 405.168 677.619 405.236C677.916 405.373 678.149 405.619 678.269 405.923C678.388 406.228 678.386 406.567 678.261 406.87L676.352 411.428ZM686.027 388.572C685.897 388.89 685.646 389.144 685.329 389.277C685.012 389.411 684.655 389.413 684.337 389.283C684.018 389.153 683.764 388.902 683.631 388.585C683.497 388.268 683.495 387.911 683.625 387.593L685.534 383.034C685.592 382.877 685.681 382.733 685.796 382.61C685.91 382.488 686.048 382.389 686.201 382.32C686.354 382.251 686.519 382.213 686.686 382.209C686.854 382.204 687.021 382.233 687.177 382.293C687.479 382.425 687.716 382.671 687.836 382.977C687.957 383.283 687.951 383.625 687.819 383.927L686.027 388.572ZM690.843 377.104C690.712 377.405 690.466 377.642 690.159 377.763C689.853 377.883 689.511 377.877 689.21 377.746C689.059 377.686 688.922 377.596 688.807 377.482C688.691 377.368 688.601 377.231 688.541 377.08C688.48 376.93 688.451 376.768 688.456 376.606C688.46 376.444 688.497 376.284 688.565 376.137L690.424 371.573C690.551 371.272 690.791 371.033 691.093 370.908C691.394 370.783 691.733 370.781 692.036 370.904C692.193 370.962 692.337 371.051 692.459 371.166C692.582 371.28 692.681 371.418 692.75 371.571C692.818 371.724 692.856 371.889 692.861 372.056C692.866 372.224 692.837 372.391 692.777 372.547L690.843 377.104Z" fill="#141414"/>
<path d="M708.789 356.462C708.849 356.308 708.939 356.167 709.055 356.05C709.171 355.932 709.31 355.839 709.463 355.776C709.616 355.714 709.781 355.683 709.946 355.687C710.111 355.69 710.274 355.727 710.425 355.795C710.576 355.854 710.713 355.944 710.828 356.059C710.943 356.173 711.033 356.31 711.094 356.46C711.154 356.611 711.183 356.772 711.179 356.935C711.174 357.097 711.137 357.256 711.069 357.404L709.133 361.985C709.074 362.136 708.984 362.273 708.869 362.388C708.755 362.503 708.618 362.593 708.468 362.654C708.317 362.714 708.156 362.743 707.993 362.739C707.831 362.735 707.672 362.698 707.524 362.63C707.228 362.498 706.993 362.257 706.868 361.957C706.744 361.658 706.739 361.321 706.855 361.018L708.789 356.462ZM680.418 430.71C680.355 430.862 680.263 431 680.147 431.116C680.03 431.232 679.892 431.323 679.74 431.385C679.587 431.447 679.424 431.478 679.26 431.477C679.096 431.476 678.933 431.442 678.782 431.377C678.631 431.315 678.493 431.222 678.378 431.105C678.263 430.988 678.173 430.849 678.113 430.697C678.053 430.544 678.025 430.381 678.029 430.217C678.034 430.054 678.072 429.892 678.14 429.743L680.049 425.184C680.172 424.872 680.413 424.621 680.721 424.487C681.029 424.352 681.377 424.346 681.69 424.468C681.978 424.609 682.203 424.851 682.322 425.148C682.441 425.446 682.445 425.777 682.334 426.077L680.418 430.71ZM685.235 419.242C685.102 419.544 684.858 419.783 684.552 419.908C684.246 420.032 683.904 420.033 683.599 419.909C683.286 419.786 683.035 419.545 682.901 419.237C682.767 418.929 682.76 418.581 682.882 418.268L684.816 413.712C684.878 413.563 684.969 413.428 685.084 413.315C685.199 413.202 685.336 413.113 685.485 413.053C685.635 412.993 685.795 412.963 685.956 412.966C686.118 412.968 686.277 413.003 686.425 413.067C686.576 413.127 686.713 413.217 686.829 413.331C686.945 413.445 687.037 413.581 687.1 413.732C687.162 413.882 687.194 414.043 687.193 414.206C687.192 414.368 687.158 414.529 687.094 414.679L685.235 419.242ZM694.917 396.311C694.854 396.463 694.761 396.601 694.645 396.717C694.528 396.833 694.39 396.924 694.238 396.986C694.086 397.048 693.923 397.079 693.758 397.078C693.594 397.077 693.432 397.043 693.281 396.978C693.13 396.918 692.992 396.829 692.877 396.714C692.762 396.6 692.672 396.463 692.612 396.312C692.551 396.162 692.522 396 692.526 395.838C692.531 395.676 692.568 395.516 692.636 395.369L694.495 390.805C694.555 390.654 694.645 390.517 694.759 390.401C694.873 390.285 695.009 390.193 695.16 390.131C695.31 390.068 695.471 390.037 695.634 390.037C695.796 390.038 695.957 390.072 696.107 390.136C696.263 390.192 696.407 390.278 696.529 390.39C696.652 390.502 696.751 390.637 696.82 390.788C696.89 390.939 696.928 391.102 696.933 391.268C696.938 391.434 696.91 391.6 696.85 391.755L694.917 396.311ZM704.591 373.454C704.459 373.756 704.214 373.995 703.909 374.12C703.603 374.244 703.261 374.245 702.955 374.121C702.807 374.059 702.672 373.967 702.559 373.852C702.446 373.737 702.357 373.601 702.297 373.451C702.237 373.302 702.207 373.142 702.209 372.98C702.212 372.819 702.246 372.66 702.311 372.512L704.251 367.881C704.378 367.58 704.618 367.341 704.92 367.216C705.221 367.091 705.56 367.089 705.863 367.212C706.157 367.354 706.388 367.599 706.511 367.902C706.635 368.204 706.641 368.541 706.53 368.848L704.591 373.454Z" fill="#141414"/>
<path d="M664.923 169.984C664.869 169.827 664.848 169.661 664.861 169.495C664.873 169.33 664.92 169.169 664.997 169.022C665.074 168.875 665.18 168.746 665.309 168.641C665.438 168.537 665.587 168.46 665.747 168.416C666.055 168.318 666.389 168.344 666.678 168.488C666.967 168.632 667.188 168.883 667.295 169.188L668.739 173.918C668.795 174.072 668.819 174.235 668.81 174.399C668.801 174.562 668.759 174.722 668.686 174.869C668.614 175.016 668.513 175.147 668.389 175.253C668.265 175.36 668.121 175.441 667.965 175.491C667.65 175.597 667.306 175.575 667.007 175.429C666.708 175.284 666.478 175.027 666.367 174.714L664.923 169.984ZM698.495 268.729C698.545 268.884 698.563 269.048 698.549 269.211C698.534 269.373 698.487 269.531 698.411 269.675C698.334 269.819 698.229 269.946 698.103 270.049C697.976 270.151 697.83 270.228 697.673 270.273C697.516 270.327 697.35 270.348 697.185 270.335C697.019 270.323 696.858 270.276 696.711 270.199C696.564 270.122 696.435 270.016 696.331 269.887C696.226 269.758 696.149 269.609 696.105 269.449L694.656 264.768C694.556 264.449 694.581 264.104 694.725 263.803C694.87 263.502 695.124 263.267 695.436 263.146C695.76 263.056 696.106 263.091 696.406 263.244C696.706 263.398 696.937 263.658 697.053 263.974L698.495 268.729ZM694.825 256.748C694.921 257.073 694.889 257.422 694.735 257.723C694.58 258.024 694.316 258.255 693.996 258.366C693.841 258.416 693.678 258.435 693.515 258.42C693.353 258.406 693.195 258.359 693.051 258.282C692.907 258.206 692.78 258.101 692.677 257.974C692.574 257.847 692.498 257.701 692.453 257.545L690.935 252.807C690.881 252.65 690.86 252.484 690.872 252.319C690.885 252.153 690.931 251.992 691.008 251.845C691.086 251.699 691.192 251.569 691.321 251.465C691.45 251.36 691.599 251.284 691.759 251.239C691.916 251.19 692.081 251.173 692.244 251.189C692.408 251.205 692.566 251.254 692.71 251.333C692.854 251.412 692.981 251.52 693.082 251.649C693.183 251.778 693.257 251.927 693.3 252.085L694.825 256.748ZM687.334 233.072C687.389 233.224 687.413 233.386 687.404 233.547C687.395 233.709 687.353 233.867 687.28 234.012C687.208 234.157 687.107 234.285 686.984 234.39C686.86 234.494 686.717 234.573 686.562 234.62C686.25 234.728 685.908 234.71 685.609 234.569C685.31 234.429 685.078 234.177 684.962 233.868L683.52 229.113C683.466 228.958 683.445 228.793 683.458 228.63C683.471 228.466 683.517 228.307 683.594 228.162C683.671 228.017 683.778 227.89 683.906 227.788C684.035 227.686 684.183 227.612 684.342 227.57C684.647 227.47 684.978 227.492 685.267 227.631C685.557 227.77 685.78 228.016 685.892 228.317L687.334 233.072ZM683.648 221.264C683.735 221.578 683.699 221.913 683.546 222.2C683.393 222.488 683.135 222.705 682.826 222.808C682.512 222.902 682.174 222.868 681.885 222.714C681.596 222.561 681.38 222.299 681.283 221.986L679.767 217.224C679.679 216.911 679.716 216.575 679.869 216.288C680.022 216 680.279 215.783 680.588 215.681C680.744 215.627 680.908 215.606 681.072 215.618C681.235 215.631 681.395 215.677 681.54 215.755C681.684 215.832 681.812 215.938 681.914 216.067C682.016 216.195 682.09 216.343 682.132 216.502L683.648 221.264ZM676.233 197.57C676.323 197.894 676.288 198.241 676.134 198.54C675.981 198.84 675.72 199.071 675.404 199.188C675.091 199.282 674.753 199.248 674.463 199.094C674.174 198.94 673.958 198.679 673.861 198.366L672.345 193.604C672.295 193.449 672.277 193.285 672.291 193.123C672.306 192.96 672.352 192.802 672.429 192.658C672.506 192.514 672.61 192.387 672.737 192.284C672.864 192.182 673.01 192.106 673.167 192.06C673.322 192.01 673.486 191.992 673.648 192.006C673.811 192.021 673.968 192.068 674.112 192.144C674.256 192.221 674.383 192.326 674.486 192.453C674.589 192.579 674.665 192.725 674.71 192.882L676.233 197.57Z" fill="#141414"/>
<path d="M616.962 536.165L581.448 562.513" stroke="#FF5E18" stroke-width="3" stroke-linecap="round" stroke-linejoin="round"/>
<path d="M786.033 640.245C792.247 640.84 797.767 636.284 798.362 630.07C798.957 623.856 794.402 618.336 788.187 617.741C781.973 617.146 776.453 621.702 775.858 627.916C775.264 634.13 779.819 639.65 786.033 640.245Z" fill="#FF5E18"/>
<path fill-rule="evenodd" clip-rule="evenodd" d="M172.451 25.1861C189.598 24.3808 206.364 30.4108 219.071 41.953C231.777 53.4952 239.386 69.6067 240.227 86.7521C241.023 103.912 234.976 120.687 223.414 133.393C211.852 146.098 195.721 153.697 178.562 154.519C170.068 154.933 161.576 153.666 153.573 150.79C145.57 147.913 138.214 143.485 131.926 137.759C125.639 132.033 120.544 125.121 116.935 117.421C113.325 109.721 111.271 101.384 110.892 92.8884C110.473 84.3975 111.735 75.9075 114.605 67.9053C117.475 59.9031 121.896 52.5462 127.615 46.2563C133.334 39.9665 140.238 34.8675 147.932 31.2518C155.626 27.6361 163.958 25.5748 172.451 25.1861V25.1861Z" fill="url(#paint24_radial_183_2077)"/>
<path d="M824.433 507.961C829.596 508.456 834.181 504.671 834.676 499.508C835.17 494.346 831.385 489.76 826.223 489.266C821.06 488.772 816.474 492.556 815.98 497.719C815.486 502.881 819.27 507.467 824.433 507.961Z" fill="#141414"/>
<path d="M704.435 594.574C639.854 564.01 565.104 521.067 488.227 469.061C391.11 403.239 308.665 335.103 253.174 277.633" stroke="white" stroke-width="3" stroke-miterlimit="10"/>
<path d="M654.004 591.966C596.792 561.084 535.231 523.746 472.447 481.201C376.468 416.261 292.683 349.344 229.781 289.518" stroke="#141414" stroke-width="3" stroke-miterlimit="10"/>
<defs>
<linearGradient id="paint0_linear_183_2077" x1="216.205" y1="465.432" x2="300.664" y2="300.073" gradientUnits="userSpaceOnUse">
<stop stop-color="#FF5E18"/>
<stop offset="1" stop-color="#F6F6F6"/>
</linearGradient>
<linearGradient id="paint1_linear_183_2077" x1="415.914" y1="138.91" x2="571.38" y2="105.128" gradientUnits="userSpaceOnUse">
<stop stop-color="#FF5E18"/>
<stop offset="1" stop-color="#F6F6F6"/>
</linearGradient>
<linearGradient id="paint2_linear_183_2077" x1="255" y1="535.498" x2="396" y2="588.998" gradientUnits="userSpaceOnUse">
<stop stop-color="#FF5E18"/>
<stop offset="1" stop-color="#F6F6F6"/>
</linearGradient>
<linearGradient id="paint3_linear_183_2077" x1="450.498" y1="447.002" x2="605.998" y2="385.502" gradientUnits="userSpaceOnUse">
<stop stop-color="#FF5E18"/>
<stop offset="1" stop-color="#F6F6F6"/>
</linearGradient>
<linearGradient id="paint4_linear_183_2077" x1="343.998" y1="467.502" x2="437.998" y2="473.002" gradientUnits="userSpaceOnUse">
<stop stop-color="#FF5E18"/>
<stop offset="1" stop-color="#F6F6F6"/>
</linearGradient>
<linearGradient id="paint5_linear_183_2077" x1="430" y1="299.5" x2="547" y2="209.5" gradientUnits="userSpaceOnUse">
<stop stop-color="#FF5E18"/>
<stop offset="1" stop-color="#F6F6F6"/>
</linearGradient>
<linearGradient id="paint6_linear_183_2077" x1="498.998" y1="308.5" x2="572.998" y2="357" gradientUnits="userSpaceOnUse">
<stop stop-color="#FF5E18"/>
<stop offset="1" stop-color="#F6F6F6"/>
</linearGradient>
<linearGradient id="paint7_linear_183_2077" x1="523.998" y1="416.999" x2="612.498" y2="426.999" gradientUnits="userSpaceOnUse">
<stop stop-color="#FF5E18"/>
<stop offset="1" stop-color="#F6F6F6"/>
</linearGradient>
<linearGradient id="paint8_linear_183_2077" x1="378.724" y1="579.566" x2="490.23" y2="613.948" gradientUnits="userSpaceOnUse">
<stop stop-color="#FF5E18"/>
<stop offset="1" stop-color="#F6F6F6"/>
</linearGradient>
<linearGradient id="paint9_linear_183_2077" x1="439.002" y1="498.501" x2="573.002" y2="464.501" gradientUnits="userSpaceOnUse">
<stop stop-color="#FF5E18"/>
<stop offset="1" stop-color="#F6F6F6"/>
</linearGradient>
<linearGradient id="paint10_linear_183_2077" x1="603.537" y1="460.085" x2="754.45" y2="343.513" gradientUnits="userSpaceOnUse">
<stop stop-color="#FF5E18"/>
<stop offset="1" stop-color="#F6F6F6"/>
</linearGradient>
<linearGradient id="paint11_linear_183_2077" x1="481.998" y1="326.5" x2="558.998" y2="268" gradientUnits="userSpaceOnUse">
<stop stop-color="#FF5E18"/>
<stop offset="1" stop-color="#F6F6F6"/>
</linearGradient>
<linearGradient id="paint12_linear_183_2077" x1="602.998" y1="256.499" x2="626.998" y2="176.999" gradientUnits="userSpaceOnUse">
<stop stop-color="#FF5E18"/>
<stop offset="1" stop-color="#F6F6F6"/>
</linearGradient>
<linearGradient id="paint13_linear_183_2077" x1="519.013" y1="639.163" x2="639.067" y2="532.115" gradientUnits="userSpaceOnUse">
<stop stop-color="#FF5E18"/>
<stop offset="1" stop-color="#F6F6F6"/>
</linearGradient>
<linearGradient id="paint14_linear_183_2077" x1="433.5" y1="460" x2="483.5" y2="300.5" gradientUnits="userSpaceOnUse">
<stop stop-color="#FF5E18"/>
<stop offset="1" stop-color="#F6F6F6"/>
</linearGradient>
<linearGradient id="paint15_linear_183_2077" x1="564" y1="234.501" x2="642.5" y2="289.001" gradientUnits="userSpaceOnUse">
<stop stop-color="#FF5E18"/>
<stop offset="1" stop-color="#F6F6F6"/>
</linearGradient>
<linearGradient id="paint16_linear_183_2077" x1="717.679" y1="154.069" x2="734.032" y2="309.114" gradientUnits="userSpaceOnUse">
<stop stop-color="#E7703D"/>
<stop offset="1" stop-color="#F6F6F6"/>
</linearGradient>
<linearGradient id="paint17_linear_183_2077" x1="777.077" y1="433.027" x2="680.356" y2="387.581" gradientUnits="userSpaceOnUse">
<stop stop-color="#F6F6F6"/>
<stop offset="1" stop-color="#FF5E18"/>
</linearGradient>
<linearGradient id="paint18_linear_183_2077" x1="583.218" y1="571.987" x2="596.122" y2="693.963" gradientUnits="userSpaceOnUse">
<stop stop-color="#FF5E18"/>
<stop offset="1" stop-color="#141414"/>
</linearGradient>
<linearGradient id="paint19_linear_183_2077" x1="858.264" y1="125.453" x2="785.297" y2="360.192" gradientUnits="userSpaceOnUse">
<stop stop-color="#F6F6F6"/>
<stop offset="1" stop-color="#FF5E18"/>
</linearGradient>
<linearGradient id="paint20_linear_183_2077" x1="661.554" y1="636.786" x2="654.04" y2="715.277" gradientUnits="userSpaceOnUse">
<stop stop-color="#FF5E18"/>
<stop offset="1" stop-color="#F6F6F6"/>
</linearGradient>
<linearGradient id="paint21_linear_183_2077" x1="514.763" y1="774.769" x2="653.746" y2="730.675" gradientUnits="userSpaceOnUse">
<stop stop-color="#FF5E18"/>
<stop offset="1" stop-color="#F6F6F6"/>
</linearGradient>
<linearGradient id="paint22_linear_183_2077" x1="539.928" y1="733.506" x2="587.795" y2="741.832" gradientUnits="userSpaceOnUse">
<stop stop-color="#141414"/>
<stop offset="1" stop-color="#F6F6F6"/>
</linearGradient>
<linearGradient id="paint23_linear_183_2077" x1="587.91" y1="659.884" x2="565.894" y2="735.988" gradientUnits="userSpaceOnUse">
<stop stop-color="#FF5E18"/>
<stop offset="1" stop-color="#F6F6F6"/>
</linearGradient>
<radialGradient id="paint24_radial_183_2077" cx="0" cy="0" r="1" gradientUnits="userSpaceOnUse" gradientTransform="translate(175.543 89.8631) rotate(64.4166) scale(56.3492 56.3491)">
<stop stop-color="#FF5E18"/>
<stop offset="0.463542" stop-color="#FF5E18" stop-opacity="0.875"/>
<stop offset="1" stop-color="#FF5E18" stop-opacity="0"/>
</radialGradient>
</defs>
</svg>
