<svg width="1011" height="811" viewBox="0 0 1011 811" fill="none" xmlns="http://www.w3.org/2000/svg">
<path d="M957.875 675.025C992.426 623.99 831.157 454.475 597.67 296.404C364.184 138.333 146.897 51.5625 112.346 102.598C77.7947 153.633 239.064 323.147 472.55 481.218C706.037 639.29 923.324 726.06 957.875 675.025Z" stroke="#FF5E18" stroke-width="3" stroke-miterlimit="10"/>
<path d="M901.152 633.866C930.542 590.455 793.346 446.251 594.716 311.777C396.086 177.304 211.239 103.484 181.85 146.895C152.46 190.307 289.656 334.511 488.286 468.985C686.916 603.458 871.762 677.278 901.152 633.866Z" stroke="white" stroke-width="3" stroke-miterlimit="10"/>
<path fill-rule="evenodd" clip-rule="evenodd" d="M643.605 659.401L516.498 764.526L646.3 736.573L683.308 718.08L643.605 659.401Z" fill="white"/>
<path fill-rule="evenodd" clip-rule="evenodd" d="M321.59 281.487L184.162 327.577L195.23 510.715L331.505 475.096L321.59 281.487Z" fill="#FF5E18"/>
<path fill-rule="evenodd" clip-rule="evenodd" d="M337.262 480.813L195.22 510.714C234.572 386.407 270.546 323.443 321.578 281.51L337.262 480.813Z" fill="url(#paint0_linear_704_19721)"/>
<path fill-rule="evenodd" clip-rule="evenodd" d="M404.879 172.318L495.469 233.847L609.876 148.768L520.952 84.4289L404.879 172.318Z" fill="url(#paint1_linear_704_19721)"/>
<path fill-rule="evenodd" clip-rule="evenodd" d="M305.448 602.773L401.405 660.898L374.864 542.411L281.397 483.302L305.448 602.773Z" fill="url(#paint2_linear_704_19721)"/>
<path fill-rule="evenodd" clip-rule="evenodd" d="M525.827 334.329L618.063 397.163L563.068 471.907L469.315 410.824L525.827 334.329Z" fill="url(#paint3_linear_704_19721)"/>
<path fill-rule="evenodd" clip-rule="evenodd" d="M357.865 515.353L453.822 573.477L427.207 454.984L333.787 395.905L357.865 515.353Z" fill="url(#paint4_linear_704_19721)"/>
<path fill-rule="evenodd" clip-rule="evenodd" d="M402.267 246.336L492.647 307.97L492.64 308.044L402.193 246.329L402.267 246.336Z" fill="#FF5E18"/>
<path fill-rule="evenodd" clip-rule="evenodd" d="M398.183 255.08L488.773 316.609L603.227 231.56L514.331 167.198L398.183 255.08Z" fill="url(#paint5_linear_704_19721)"/>
<path fill-rule="evenodd" clip-rule="evenodd" d="M487.022 293.208L578.405 355.836L618.071 397.167L525.835 334.332L487.022 293.208Z" fill="url(#paint6_linear_704_19721)"/>
<path fill-rule="evenodd" clip-rule="evenodd" d="M547.019 387.793L640.236 450.297L635.802 492.447L541.707 430.508L547.019 387.793Z" fill="url(#paint7_linear_704_19721)"/>
<path fill-rule="evenodd" clip-rule="evenodd" d="M330.271 554.462L427.066 611.644L427.56 611.965L428.152 612.297L428.733 612.477L429.389 612.665L332.623 555.436L331.969 555.223L331.388 555.043L330.863 554.793L330.271 554.462Z" fill="#FF5E18"/>
<path fill-rule="evenodd" clip-rule="evenodd" d="M332.623 555.438L429.389 612.667L549.096 645.064L451.686 586.476L332.623 555.438Z" fill="url(#paint8_linear_704_19721)"/>
<path fill-rule="evenodd" clip-rule="evenodd" d="M541.707 430.509L635.801 492.448L507.223 527.431L412.222 467.925L541.707 430.509Z" fill="url(#paint9_linear_704_19721)"/>
<path fill-rule="evenodd" clip-rule="evenodd" d="M618.79 466.336L713.414 529L783.905 358.086L692.794 292.09L618.79 466.336Z" fill="url(#paint10_linear_704_19721)"/>
<path fill-rule="evenodd" clip-rule="evenodd" d="M521.832 161.55L610.617 226.026L610.536 226.093L521.782 161.545L521.832 161.55Z" fill="#FF5E18"/>
<path fill-rule="evenodd" clip-rule="evenodd" d="M561.675 269.383L652.572 333.437L578.405 355.835L487.022 293.207L561.675 269.383Z" fill="url(#paint11_linear_704_19721)"/>
<path fill-rule="evenodd" clip-rule="evenodd" d="M514.33 167.198L603.227 231.559L710.51 246.97L621.376 180.914L514.33 167.198Z" fill="url(#paint12_linear_704_19721)"/>
<path fill-rule="evenodd" clip-rule="evenodd" d="M463.992 583.262L561.235 642.034L703.433 541.672L608.578 479.336L463.992 583.262Z" fill="url(#paint13_linear_704_19721)"/>
<path fill-rule="evenodd" clip-rule="evenodd" d="M333.787 395.907L427.207 454.986L488.768 316.609L398.178 255.08L333.787 395.907Z" fill="url(#paint14_linear_704_19721)"/>
<path fill-rule="evenodd" clip-rule="evenodd" d="M566.599 229.125L656.719 293.728L652.569 333.435L561.672 269.381L566.599 229.125Z" fill="url(#paint15_linear_704_19721)"/>
<path fill-rule="evenodd" clip-rule="evenodd" d="M694.189 277.998L784.955 344.211L741.827 215.202L653.42 148.342L694.189 277.998Z" fill="url(#paint16_linear_704_19721)"/>
<path d="M419.896 287.105L402.442 275.476L348.515 394.32L416.461 439.257" stroke="#FF5E18" stroke-width="3" stroke-linecap="round" stroke-linejoin="round"/>
<path fill-rule="evenodd" clip-rule="evenodd" d="M692.79 292.091L783.901 358.087L784.263 357.173L784.551 356.253L784.838 355.332L785.077 354.406L785.29 353.478L785.45 352.595L785.614 351.663L785.697 350.797L785.78 349.932L785.791 349.034L785.743 348.231L785.68 347.327L785.557 346.516L785.431 345.755L785.23 344.988L784.954 344.213L694.189 278L694.39 278.768L694.591 279.536L694.713 280.346L694.783 281.176L694.824 282.054L694.894 282.884L694.812 283.75L694.778 284.62L694.636 285.58L694.549 286.495L694.311 287.42L694.095 288.373L693.809 289.269L693.494 290.212L693.206 291.133L692.79 292.091Z" fill="white" stroke="white" stroke-width="3" stroke-linecap="round" stroke-linejoin="round"/>
<path d="M380.41 415.193L420.765 324.199L427.707 330.154L387.781 420.316" stroke="#FF5E18" stroke-width="3" stroke-linecap="round" stroke-linejoin="round"/>
<path d="M626.636 198.211L541.077 186.576L491.526 221.388L501.302 228.239L527.369 210.12" stroke="#FF5E18" stroke-width="3" stroke-linecap="round" stroke-linejoin="round"/>
<path fill-rule="evenodd" clip-rule="evenodd" d="M642.848 447.305L737.472 509.968L807.958 339.104L716.959 272.994C692.264 331.09 667.561 389.194 642.848 447.305Z" fill="url(#paint17_linear_704_19721)"/>
<path fill-rule="evenodd" clip-rule="evenodd" d="M726.234 133.826L748.206 149.879L737.726 118.58L716.292 102.378L726.234 133.826Z" fill="white"/>
<path fill-rule="evenodd" clip-rule="evenodd" d="M674.046 481.385L694.177 494.766L709.189 458.395L689.801 444.286L674.046 481.385Z" fill="white"/>
<path fill-rule="evenodd" clip-rule="evenodd" d="M679.98 526.274L637.79 498.527L601.217 525.248L632.797 547.038L643.853 539.212L664.03 540.12L679.98 526.274Z" fill="#FF5E18"/>
<path d="M535.658 309.642L521.913 299.666L579.253 281.772L597.345 294.559" stroke="#FF5E18" stroke-width="3" stroke-linecap="round" stroke-linejoin="round"/>
<path d="M604.574 299.642L621.852 311.802" stroke="#FF5E18" stroke-width="3" stroke-linecap="round" stroke-linejoin="round"/>
<path d="M607.506 225.179L577.27 201.347L630.025 209.442" stroke="#FF5E18" stroke-width="3" stroke-linecap="round" stroke-linejoin="round"/>
<path d="M509.381 516.107L446.285 475.253L530.566 450.704" stroke="#FF5E18" stroke-width="3" stroke-linecap="round" stroke-linejoin="round"/>
<path fill-rule="evenodd" clip-rule="evenodd" d="M608.583 479.335L703.437 541.671L704.236 541.149L704.995 540.523L705.783 539.85L706.47 539.192L707.216 538.439L707.912 537.683L708.581 536.948L709.211 536.11L709.813 535.294L710.44 534.481L710.999 533.586L711.552 532.765L712.038 531.864L712.555 530.89L712.967 529.981L713.41 529L663.775 496.123L618.786 466.336L618.343 467.317L617.85 468.293L617.34 469.193L616.847 470.169L616.287 471.063L615.727 471.958L615.118 472.848L614.417 473.655L613.79 474.468L613.118 475.227L612.368 476.029L611.672 476.786L610.933 477.464L610.122 478.11L609.388 478.738L608.583 479.335Z" fill="white" stroke="white" stroke-width="3" stroke-linecap="round" stroke-linejoin="round"/>
<path d="M434.258 192.324L404.879 172.317L470.689 122.516" stroke="white" stroke-width="3" stroke-linecap="round" stroke-linejoin="round"/>
<path d="M295.431 552.626L281.379 483.301" stroke="white" stroke-width="3" stroke-miterlimit="10"/>
<path d="M547.015 387.792L593.614 419.006" stroke="white" stroke-width="3" stroke-linecap="round" stroke-linejoin="round"/>
<path d="M550.055 299.99L588.325 288.131" stroke="#FF5E18" stroke-width="3" stroke-linecap="round" stroke-linejoin="round"/>
<path d="M449.13 410.813L413.513 387.14L435.485 336.711" stroke="#FF5E18" stroke-width="3" stroke-linecap="round" stroke-linejoin="round"/>
<path fill-rule="evenodd" clip-rule="evenodd" d="M653.422 148.344L741.83 215.205L741.615 214.585L741.278 213.929L740.989 213.302L740.645 212.72L740.27 212.21L739.845 211.695L739.413 211.255L738.934 210.785L738.42 210.411L650.094 143.484L650.608 143.857L651.04 144.298L651.469 144.763L651.894 145.278L652.245 145.786L652.588 146.368L652.878 146.995L653.142 147.619L653.422 148.344Z" fill="white" stroke="white" stroke-width="3" stroke-linecap="round" stroke-linejoin="round"/>
<path fill-rule="evenodd" clip-rule="evenodd" d="M590.21 696.241L577.394 710.462L563.837 579.393C562.707 569.302 576.625 567.815 577.911 576.797L590.21 696.241Z" fill="url(#paint18_linear_704_19721)"/>
<path fill-rule="evenodd" clip-rule="evenodd" d="M686.424 205.034L736.837 241.779L712.872 170.157L663.773 132.989L686.424 205.034Z" fill="white"/>
<path d="M347.04 414.719L370.493 533.658" stroke="#FF5E18" stroke-width="3" stroke-linecap="round" stroke-linejoin="round"/>
<path fill-rule="evenodd" clip-rule="evenodd" d="M451.681 586.475L549.091 645.063L549.405 645.168L549.751 645.202L550.066 645.306L550.486 645.347L550.807 645.377L551.228 645.418L551.549 645.449L551.903 645.407L552.305 645.371L552.652 645.404L553.052 645.393L553.388 645.275L553.815 645.241L554.216 645.23L554.551 645.112L554.983 645.029L457.605 586.369L457.245 586.484L456.845 586.495L456.484 586.611L456.077 586.696L455.723 586.738L455.321 586.774L454.97 586.79L454.567 586.826L454.245 586.796L453.825 586.755L453.496 586.799L453.076 586.759L452.762 586.654L452.415 586.621L452.094 586.59L451.681 586.475Z" fill="white" stroke="white" stroke-width="3" stroke-linecap="round" stroke-linejoin="round"/>
<path fill-rule="evenodd" clip-rule="evenodd" d="M457.608 586.368L554.986 645.028L555.322 644.911L555.754 644.827L556.095 644.66L556.529 644.552L556.944 644.392L557.284 644.225L557.724 644.067L558.064 643.9L558.504 643.743L558.851 643.501L559.273 643.267L559.645 643.028L560.067 642.794L560.439 642.555L560.858 642.346L561.238 642.033L463.995 583.261L463.569 583.545L463.196 583.784L462.775 584.018L462.395 584.331L461.974 584.565L461.609 584.73L461.187 584.964L460.767 585.173L460.4 585.363L459.985 585.523L459.62 585.687L459.206 585.847L458.791 586.007L458.431 586.123L458.016 586.282L457.608 586.368Z" fill="white" stroke="white" stroke-width="3" stroke-linecap="round" stroke-linejoin="round"/>
<path fill-rule="evenodd" clip-rule="evenodd" d="M736.963 482.391L745.574 488.107L752.007 472.526L743.723 466.517L736.963 482.391Z" fill="#FF5E18"/>
<path fill-rule="evenodd" clip-rule="evenodd" d="M898.238 129.28L701.396 197.983L732.031 389.707L927.615 340.4L898.238 129.28Z" fill="#FF5E18"/>
<path fill-rule="evenodd" clip-rule="evenodd" d="M937.551 351.584L732.032 389.708C779.869 248.194 826.929 182.049 898.239 129.28L937.551 351.584Z" fill="url(#paint19_linear_704_19721)"/>
<path d="M412.222 467.926L494.253 519.277" stroke="#FF5E18" stroke-width="3" stroke-miterlimit="10"/>
<path d="M381.165 534.729L363.824 443.976L385.276 456.86L403.146 544.17" stroke="#FF5E18" stroke-width="3" stroke-linecap="round" stroke-linejoin="round"/>
<path d="M525.829 334.329L592.626 379.804" stroke="white" stroke-width="3" stroke-linecap="round" stroke-linejoin="round"/>
<path fill-rule="evenodd" clip-rule="evenodd" d="M469.317 410.852L547.016 387.794L541.704 430.509L412.209 468.025L417.835 429.857L476.629 350.111L436.118 306.128L441.389 270.097L566.612 229.228L561.661 269.482L487.008 293.306L525.843 334.458L469.317 410.852ZM513.637 131.919L384.063 230.495L383.41 231.056L382.685 231.586L382.003 232.194L381.413 232.886L380.731 233.495L380.116 234.185L379.525 234.877L378.903 235.641L378.358 236.387L377.735 237.151L377.264 237.905L376.709 238.75L376.237 239.503L375.806 240.361L375.377 241.193L374.973 242.028L302.528 399.203L302.089 400.135L301.734 400.974L301.372 401.888L301.092 402.734L300.885 403.588L300.647 404.514L300.438 405.392L300.362 406.183L300.277 407.074L300.128 408.632L300.057 409.373L299.979 410.189L300.031 410.943L300.109 411.699L300.235 412.46L326.063 547.524L326.264 548.292L326.472 548.985L326.677 549.704L326.935 550.402L327.232 550.955L327.568 551.611L327.919 552.119L328.344 552.633L328.768 553.148L329.2 553.589L329.711 553.987L330.225 554.361L330.792 554.69L331.317 554.94L331.921 555.147L332.577 555.335L451.638 586.398L452.034 586.436L452.702 586.499L453.048 586.533L453.444 586.57L453.79 586.604L454.532 586.675L454.927 586.712L455.249 586.743L455.669 586.783L455.991 586.814L456.423 586.731L456.744 586.762L457.165 586.802L457.501 586.684L457.908 586.599L458.347 586.441L458.683 586.323L459.122 586.166L459.537 586.006L459.877 585.839L460.317 585.681L460.657 585.514L461.104 585.282L461.525 585.048L461.866 584.881L462.312 584.649L462.667 584.334L463.111 584.127L463.458 583.886L463.887 583.577L608.597 479.663L609.403 479.066L610.135 478.462L610.948 477.791L611.686 477.113L612.358 476.354L613.108 475.553L613.805 474.796L614.407 473.98L615.108 473.174L615.742 472.286L616.302 471.391L616.862 470.496L617.354 469.52L617.84 468.619L618.358 467.645L618.774 466.686L692.852 292.448L693.295 291.467L693.583 290.546L693.871 289.625L694.159 288.704L694.397 287.779L694.611 286.851L694.701 285.911L694.791 284.972L694.876 284.081L694.959 283.216L694.911 282.413L694.848 281.508L694.923 280.717L694.804 279.882L694.603 279.114L694.402 278.346L653.608 148.688L653.35 147.989L653.063 147.338L652.798 146.713L652.43 146.129L652.079 145.621L651.654 145.107L651.222 144.666L650.793 144.201L650.28 143.827L649.712 143.498L649.194 143.174L648.534 142.512L647.934 142.255L647.267 142.191L646.611 142.003L645.943 141.939L525.179 127.883L524.833 127.85L524.511 127.819L523.844 127.755L523.572 127.729L523.225 127.696L522.651 127.966L522.304 127.933L521.983 127.902L521.637 127.869L521.303 127.961L520.943 128.077L520.621 128.046L520.261 128.161L519.903 128.252C517.634 129.136 515.519 130.374 513.637 131.919ZM514.326 167.223L621.374 180.915L656.248 296.555L590.705 449.675L463.733 541.387L357.886 515.407L333.811 395.934L398.178 255.105L514.326 167.223Z" fill="#25211A" stroke="#FF5E18" stroke-width="3" stroke-linecap="round" stroke-linejoin="round"/>
<path fill-rule="evenodd" clip-rule="evenodd" d="M656.925 707.169L628.364 674.962L636.639 634.402L662.062 649.863L683.307 718.08L656.925 707.169Z" fill="url(#paint20_linear_704_19721)"/>
<path d="M701.396 197.983L732.031 389.708L851.088 367.639" stroke="white" stroke-width="3" stroke-linecap="round" stroke-linejoin="round"/>
<path fill-rule="evenodd" clip-rule="evenodd" d="M630.739 727.772L516.49 764.526L517.391 745.995L612.103 647.925L636.632 634.402L656.918 707.169L630.739 727.772Z" fill="url(#paint21_linear_704_19721)"/>
<path fill-rule="evenodd" clip-rule="evenodd" d="M542.908 710.48C537.265 719.898 533.924 730.514 533.154 741.465C533.193 742.32 533.321 743.169 533.535 743.997C534.764 748.108 537.217 747.245 540.097 746.098L623.749 711.955L545.276 733.716C544.464 726.027 543.707 718.293 542.908 710.48Z" fill="url(#paint22_linear_704_19721)"/>
<path fill-rule="evenodd" clip-rule="evenodd" d="M543.097 733.208C539.914 731.007 540.559 722.184 543.026 710.492L612.777 662.266L623.729 712.103L548.325 733.085C546.598 733.394 544.689 734.309 543.097 733.208Z" fill="url(#paint23_linear_704_19721)"/>
<path fill-rule="evenodd" clip-rule="evenodd" d="M655.035 700.351L623.775 711.982L611.355 717.107L602.186 718.002C630.586 692.445 636.045 687.827 687.016 667.9L655.035 700.351Z" fill="white"/>
<path d="M340.432 557.458L426.11 579.834" stroke="white" stroke-width="3" stroke-miterlimit="10"/>
<path fill-rule="evenodd" clip-rule="evenodd" d="M371.126 401.575L356.295 391.745L367.849 367.247L381.741 376.987L371.126 401.575Z" fill="#FF5E18"/>
<path fill-rule="evenodd" clip-rule="evenodd" d="M502.55 198.188L495.632 192.509L416.316 251.748L423.961 256.873L502.55 198.188Z" fill="#FF5E18"/>
<path d="M487.816 405.359L528.769 351.132L540.49 359.042" stroke="#FF5E18" stroke-width="3" stroke-linecap="round" stroke-linejoin="round"/>
<path d="M514.486 504.668L473.568 479.014L543.72 458.154" stroke="#FF5E18" stroke-width="3" stroke-linecap="round" stroke-linejoin="round"/>
<path d="M410.776 528.355L399.301 474.076L414.094 483.004L424.673 531.782" stroke="#FF5E18" stroke-width="3" stroke-linecap="round" stroke-linejoin="round"/>
<path d="M435.242 490.718L443.793 528.871" stroke="#FF5E18" stroke-width="3" stroke-linecap="round" stroke-linejoin="round"/>
<path d="M593.503 238.215L601.765 231.419L638.186 236.528" stroke="#FF5E18" stroke-width="3" stroke-linecap="round" stroke-linejoin="round"/>
<path d="M541.074 186.576L603.226 231.557" stroke="#FF5E18" stroke-width="3" stroke-miterlimit="10"/>
<path d="M566.598 229.125L625.377 271.287" stroke="white" stroke-width="3" stroke-miterlimit="10"/>
<path d="M614.705 393.448L578.401 355.832L622.78 342.462" stroke="#FF5E18" stroke-width="3" stroke-linecap="round" stroke-linejoin="round"/>
<path d="M497.788 583.452L609.662 502.672L677.633 549.433" stroke="#FF5E18" stroke-width="3" stroke-linecap="round" stroke-linejoin="round"/>
<path d="M453.629 324.973L476.637 350.01L417.844 429.756" stroke="white" stroke-width="3" stroke-linecap="round" stroke-linejoin="round"/>
<path d="M438.232 291.855L441.397 269.997L539.264 238.039" stroke="white" stroke-width="3" stroke-miterlimit="10"/>
<path d="M374.453 459.643C374.413 459.312 374.497 458.979 374.689 458.706C374.881 458.434 375.168 458.243 375.493 458.171C375.655 458.141 375.821 458.143 375.982 458.178C376.143 458.213 376.295 458.279 376.43 458.373C376.565 458.468 376.68 458.588 376.768 458.727C376.856 458.866 376.916 459.021 376.943 459.183L377.829 464.009C377.872 464.169 377.881 464.335 377.856 464.498C377.831 464.661 377.772 464.817 377.684 464.957C377.595 465.096 377.479 465.215 377.342 465.308C377.205 465.4 377.051 465.462 376.888 465.491C376.728 465.526 376.562 465.529 376.4 465.499C376.239 465.469 376.085 465.408 375.947 465.318C375.809 465.228 375.691 465.112 375.598 464.976C375.506 464.84 375.441 464.687 375.409 464.526L374.453 459.643ZM387.132 512.815C387.167 512.976 387.169 513.142 387.14 513.303C387.11 513.465 387.048 513.619 386.958 513.757C386.869 513.894 386.753 514.013 386.617 514.105C386.481 514.198 386.328 514.262 386.167 514.295C385.847 514.352 385.518 514.283 385.247 514.104C384.976 513.925 384.785 513.649 384.712 513.332L383.759 508.425C383.712 508.099 383.79 507.768 383.978 507.499C384.166 507.23 384.45 507.042 384.771 506.974C385.102 506.913 385.442 506.986 385.719 507.176C385.995 507.367 386.185 507.659 386.247 507.989L387.132 512.815ZM384.826 500.666C384.88 500.995 384.805 501.333 384.616 501.607C384.427 501.882 384.139 502.074 383.812 502.141C383.49 502.186 383.163 502.103 382.902 501.91C382.64 501.717 382.465 501.429 382.413 501.108L381.458 496.225C381.401 495.902 381.469 495.57 381.648 495.295C381.827 495.02 382.104 494.824 382.423 494.746C382.748 494.698 383.079 494.777 383.349 494.965C383.618 495.153 383.806 495.436 383.874 495.758L384.826 500.666ZM382.476 488.462C382.515 488.619 382.521 488.783 382.494 488.943C382.467 489.103 382.408 489.256 382.321 489.393C382.233 489.529 382.118 489.646 381.983 489.737C381.849 489.827 381.697 489.889 381.538 489.919C381.207 489.98 380.867 489.907 380.59 489.717C380.314 489.527 380.124 489.235 380.062 488.905L379.103 484.071C379.061 483.743 379.141 483.412 379.328 483.139C379.515 482.867 379.796 482.674 380.117 482.596C380.278 482.558 380.445 482.552 380.608 482.581C380.771 482.609 380.926 482.67 381.065 482.76C381.203 482.851 381.322 482.968 381.413 483.106C381.505 483.244 381.567 483.398 381.597 483.561L382.476 488.462Z" fill="white"/>
<path d="M404.153 284.724C404.215 284.576 404.306 284.441 404.421 284.328C404.536 284.215 404.673 284.126 404.822 284.066C404.972 284.006 405.132 283.976 405.293 283.979C405.455 283.981 405.614 284.015 405.762 284.08C406.071 284.218 406.314 284.472 406.437 284.787C406.561 285.102 406.556 285.454 406.424 285.765L404.441 290.317C404.374 290.464 404.278 290.596 404.159 290.705C404.041 290.814 403.902 290.899 403.75 290.954C403.599 291.009 403.438 291.034 403.277 291.026C403.115 291.019 402.957 290.979 402.812 290.91C402.658 290.85 402.518 290.76 402.401 290.643C402.284 290.527 402.192 290.388 402.132 290.234C402.072 290.08 402.044 289.916 402.05 289.751C402.057 289.586 402.097 289.425 402.17 289.276L404.153 284.724ZM374.626 358.538C374.563 358.69 374.471 358.827 374.354 358.943C374.238 359.059 374.099 359.151 373.947 359.213C373.795 359.275 373.632 359.306 373.468 359.305C373.304 359.303 373.141 359.269 372.99 359.205C372.841 359.142 372.707 359.051 372.593 358.936C372.48 358.821 372.391 358.685 372.331 358.535C372.271 358.385 372.242 358.225 372.244 358.064C372.247 357.903 372.281 357.744 372.345 357.596L374.331 353.019C374.39 352.868 374.48 352.731 374.595 352.616C374.709 352.501 374.846 352.411 374.996 352.35C375.147 352.29 375.308 352.261 375.471 352.265C375.633 352.269 375.793 352.307 375.94 352.375C376.091 352.435 376.229 352.524 376.344 352.639C376.46 352.753 376.552 352.889 376.615 353.039C376.677 353.189 376.709 353.35 376.708 353.513C376.707 353.676 376.673 353.837 376.609 353.986L374.626 358.538ZM389.548 324.404C389.417 324.706 389.17 324.943 388.864 325.063C388.558 325.183 388.216 325.177 387.914 325.046C387.761 324.99 387.621 324.902 387.504 324.788C387.387 324.674 387.295 324.537 387.235 324.385C387.174 324.233 387.146 324.071 387.152 323.907C387.158 323.744 387.198 323.584 387.27 323.437L389.253 318.885C389.38 318.584 389.62 318.345 389.921 318.22C390.223 318.095 390.562 318.093 390.864 318.216C391.016 318.279 391.154 318.371 391.27 318.488C391.386 318.604 391.477 318.743 391.539 318.895C391.601 319.047 391.633 319.21 391.631 319.374C391.63 319.539 391.596 319.701 391.531 319.852L389.548 324.404ZM399.508 301.699C399.373 302.001 399.124 302.236 398.816 302.354C398.507 302.472 398.165 302.463 397.863 302.328C397.562 302.193 397.326 301.944 397.208 301.636C397.09 301.327 397.1 300.984 397.234 300.683L399.217 296.131C399.277 295.977 399.368 295.837 399.484 295.719C399.6 295.601 399.739 295.508 399.892 295.446C400.045 295.383 400.209 295.353 400.375 295.356C400.54 295.359 400.703 295.396 400.853 295.464C401.006 295.532 401.144 295.63 401.259 295.751C401.374 295.873 401.464 296.016 401.523 296.173C401.582 296.329 401.61 296.496 401.604 296.663C401.599 296.831 401.56 296.995 401.491 297.147L399.508 301.699Z" fill="white"/>
<path d="M193.987 490.333L184.162 327.578L278.814 295.836" stroke="white" stroke-width="3" stroke-linecap="round" stroke-linejoin="round"/>
<path d="M595.204 529.413C595.474 529.229 595.806 529.159 596.127 529.218C596.448 529.277 596.734 529.46 596.921 529.727C597.029 529.85 597.11 529.993 597.16 530.148C597.21 530.303 597.228 530.467 597.213 530.629C597.197 530.791 597.149 530.948 597.07 531.091C596.991 531.234 596.884 531.359 596.755 531.458L592.756 534.395C592.494 534.589 592.17 534.679 591.846 534.648C591.521 534.617 591.22 534.467 591 534.227C590.902 534.093 590.832 533.941 590.794 533.78C590.757 533.618 590.753 533.451 590.783 533.288C590.812 533.125 590.875 532.969 590.967 532.831C591.059 532.693 591.178 532.575 591.316 532.485L595.204 529.413ZM512.225 592.769C511.949 592.948 511.615 593.015 511.291 592.956C510.968 592.897 510.679 592.717 510.483 592.453C510.299 592.183 510.229 591.851 510.288 591.53C510.347 591.208 510.53 590.923 510.797 590.736L514.797 587.8C515.068 587.611 515.402 587.536 515.728 587.591C516.054 587.645 516.345 587.825 516.541 588.091C516.746 588.348 516.844 588.675 516.812 589.003C516.781 589.331 516.623 589.634 516.373 589.847L512.225 592.769ZM532.317 578.147C532.185 578.243 532.036 578.311 531.878 578.349C531.72 578.386 531.556 578.391 531.396 578.364C531.236 578.338 531.083 578.279 530.945 578.192C530.808 578.105 530.69 577.991 530.597 577.857C530.421 577.582 530.353 577.251 530.407 576.929C530.461 576.607 530.633 576.316 530.889 576.113L534.906 573.254C535.159 573.049 535.482 572.952 535.806 572.983C536.129 573.014 536.428 573.171 536.637 573.419C536.843 573.676 536.94 574.004 536.909 574.331C536.878 574.659 536.72 574.962 536.469 575.175L532.317 578.147ZM542.374 570.849C542.242 570.947 542.092 571.016 541.933 571.054C541.773 571.091 541.608 571.095 541.447 571.066C541.286 571.036 541.133 570.974 540.997 570.882C540.861 570.791 540.745 570.673 540.657 570.535C540.561 570.404 540.492 570.255 540.455 570.097C540.417 569.938 540.412 569.774 540.439 569.614C540.466 569.454 540.525 569.301 540.612 569.164C540.699 569.027 540.813 568.908 540.946 568.816L544.941 565.929C545.198 565.723 545.525 565.626 545.853 565.657C546.181 565.689 546.483 565.846 546.697 566.097C546.795 566.23 546.865 566.383 546.902 566.544C546.94 566.705 546.944 566.873 546.914 567.036C546.884 567.199 546.822 567.354 546.73 567.492C546.638 567.63 546.519 567.748 546.38 567.838L542.374 570.849ZM562.49 556.229C562.233 556.434 561.906 556.532 561.578 556.5C561.251 556.469 560.948 556.311 560.734 556.061C560.535 555.801 560.441 555.476 560.472 555.15C560.503 554.824 560.657 554.522 560.903 554.305L564.927 551.371C565.18 551.167 565.503 551.069 565.826 551.1C566.15 551.131 566.448 551.288 566.658 551.537C566.757 551.667 566.829 551.816 566.868 551.974C566.908 552.133 566.914 552.298 566.887 552.459C566.86 552.62 566.8 552.774 566.71 552.911C566.621 553.049 566.505 553.166 566.369 553.256L562.49 556.229ZM582.58 541.631C582.323 541.837 581.996 541.934 581.668 541.903C581.34 541.871 581.037 541.714 580.824 541.463C580.726 541.33 580.656 541.177 580.618 541.016C580.581 540.854 580.577 540.687 580.607 540.524C580.636 540.361 580.699 540.206 580.791 540.068C580.883 539.93 581.001 539.812 581.14 539.721L585.14 536.785C585.273 536.687 585.426 536.617 585.587 536.58C585.748 536.542 585.916 536.538 586.079 536.568C586.242 536.598 586.397 536.66 586.535 536.752C586.673 536.844 586.791 536.963 586.882 537.102C586.979 537.233 587.049 537.383 587.086 537.542C587.124 537.702 587.128 537.867 587.098 538.028C587.069 538.189 587.006 538.343 586.915 538.479C586.824 538.615 586.705 538.73 586.567 538.818L582.58 541.631Z" fill="white"/>
<path d="M601.014 591.711C600.737 591.872 600.412 591.929 600.097 591.871C599.782 591.814 599.498 591.645 599.297 591.397C599.189 591.275 599.108 591.131 599.058 590.976C599.007 590.821 598.989 590.658 599.005 590.495C599.021 590.333 599.069 590.176 599.148 590.033C599.227 589.891 599.334 589.766 599.463 589.666L602.593 587.47C602.868 587.293 603.199 587.226 603.521 587.279C603.843 587.333 604.134 587.505 604.337 587.762C604.435 587.895 604.505 588.047 604.542 588.209C604.579 588.37 604.583 588.538 604.554 588.701C604.524 588.864 604.461 589.019 604.37 589.157C604.278 589.295 604.159 589.413 604.02 589.503L601.014 591.711ZM620.373 577.967C620.115 578.172 619.788 578.27 619.461 578.238C619.133 578.207 618.83 578.049 618.617 577.799C618.417 577.539 618.323 577.213 618.355 576.888C618.386 576.562 618.54 576.26 618.785 576.043L622.851 573.188C622.985 573.091 623.136 573.022 623.296 572.985C623.456 572.947 623.622 572.942 623.784 572.969C623.947 572.996 624.102 573.055 624.241 573.143C624.38 573.231 624.501 573.345 624.595 573.48C624.772 573.755 624.84 574.085 624.786 574.408C624.732 574.73 624.56 575.021 624.304 575.224L620.373 577.967ZM640.673 563.514C640.541 563.612 640.391 563.681 640.232 563.719C640.073 563.756 639.907 563.76 639.746 563.73C639.585 563.701 639.432 563.639 639.296 563.547C639.16 563.456 639.044 563.338 638.956 563.2C638.857 563.07 638.785 562.921 638.746 562.762C638.706 562.604 638.7 562.439 638.727 562.277C638.754 562.116 638.814 561.962 638.903 561.825C638.993 561.688 639.109 561.571 639.245 561.481L643.314 558.601C643.44 558.5 643.586 558.427 643.742 558.388C643.898 558.348 644.061 558.343 644.219 558.373C644.377 558.402 644.527 558.465 644.659 558.558C644.791 558.651 644.901 558.771 644.982 558.91C645.187 559.167 645.285 559.494 645.253 559.822C645.222 560.15 645.064 560.453 644.814 560.666L640.673 563.514Z" fill="white"/>
<path d="M333.787 395.906L398.178 255.079L514.326 167.198" stroke="white" stroke-width="3" stroke-linecap="round" stroke-linejoin="round"/>
<path d="M656.226 296.528L590.685 449.623L463.737 541.362L357.867 515.355" stroke="white" stroke-width="3" stroke-linecap="round" stroke-linejoin="round"/>
<path d="M581.174 456.448L541.707 430.509L412.222 467.925" stroke="white" stroke-width="3" stroke-linecap="round" stroke-linejoin="round"/>
<path fill-rule="evenodd" clip-rule="evenodd" d="M593.473 675.492L612.794 662.143L640.923 649.862L656.837 625.956L665.051 613.665C659.449 616.398 654.388 618.958 649.803 621.489C617.404 639.276 610.024 653.543 593.473 675.492Z" fill="url(#paint24_linear_704_19721)"/>
<path d="M516.498 764.526L630.746 727.772L656.926 707.168" stroke="#FF5E18" stroke-width="3" stroke-linecap="round" stroke-linejoin="round"/>
<path d="M551.524 732.043L602.134 717.972" stroke="#322C24" stroke-width="3" stroke-linecap="round" stroke-linejoin="round"/>
<path d="M541.128 728.802L543.031 710.491L612.77 662.139L618.244 687.071" stroke="white" stroke-width="3" stroke-linecap="round" stroke-linejoin="round"/>
<path d="M516.49 764.528L517.391 745.997L534.848 727.878L542.877 710.479" stroke="white" stroke-width="3" stroke-miterlimit="10"/>
<path d="M547.944 721.469L591.651 702.344L601.436 711.192" stroke="#FF5E18" stroke-width="3" stroke-linecap="round" stroke-linejoin="round"/>
<path d="M628.201 721.689L601.581 730.72L597.774 728.259L558.103 742.505" stroke="#FF5E18" stroke-width="3" stroke-linecap="round" stroke-linejoin="round"/>
<path d="M593.474 675.49C618.642 641.988 627.495 632.928 665.056 613.614" stroke="white" stroke-width="3" stroke-linecap="round" stroke-linejoin="round"/>
<path d="M640.927 649.786L612.767 662.138" stroke="#FF5E18" stroke-width="3" stroke-linecap="round" stroke-linejoin="round"/>
<path d="M537.854 440.448C538.166 440.38 538.491 440.435 538.763 440.6C539.035 440.766 539.233 441.029 539.317 441.337C539.411 441.65 539.377 441.988 539.223 442.277C539.07 442.566 538.808 442.783 538.495 442.88L533.703 444.193C533.383 444.274 533.044 444.231 532.754 444.074C532.464 443.917 532.244 443.656 532.137 443.344C532.061 443.022 532.111 442.683 532.278 442.398C532.445 442.112 532.715 441.901 533.032 441.808L537.854 440.448ZM449.998 467.675C449.839 467.719 449.672 467.731 449.507 467.709C449.343 467.688 449.185 467.634 449.041 467.551C448.898 467.467 448.773 467.356 448.674 467.223C448.574 467.091 448.502 466.94 448.462 466.779C448.422 466.625 448.413 466.464 448.436 466.306C448.46 466.148 448.514 465.996 448.597 465.86C448.68 465.724 448.789 465.605 448.919 465.512C449.048 465.419 449.195 465.352 449.351 465.317L454.148 463.954C454.301 463.906 454.462 463.89 454.621 463.908C454.781 463.927 454.935 463.978 455.073 464.06C455.211 464.141 455.33 464.251 455.423 464.381C455.516 464.512 455.581 464.661 455.612 464.818C455.662 464.97 455.68 465.13 455.666 465.289C455.651 465.448 455.604 465.602 455.527 465.742C455.451 465.882 455.346 466.005 455.221 466.103C455.095 466.201 454.95 466.272 454.796 466.312L449.998 467.675ZM473.95 460.959C473.795 461.009 473.631 461.027 473.469 461.013C473.306 460.998 473.148 460.951 473.004 460.875C472.861 460.798 472.733 460.693 472.631 460.566C472.528 460.44 472.452 460.294 472.407 460.137C472.357 459.982 472.338 459.818 472.353 459.656C472.367 459.493 472.414 459.335 472.491 459.191C472.567 459.047 472.672 458.92 472.799 458.817C472.925 458.715 473.072 458.639 473.228 458.593L478.028 457.206C478.35 457.13 478.689 457.181 478.975 457.348C479.261 457.514 479.472 457.784 479.564 458.102C479.648 458.421 479.604 458.761 479.442 459.048C479.279 459.336 479.01 459.548 478.693 459.641L473.95 460.959ZM497.821 454.309C497.5 454.363 497.171 454.303 496.891 454.139C496.61 453.975 496.396 453.719 496.284 453.414C496.202 453.091 496.25 452.749 496.417 452.462C496.585 452.174 496.859 451.964 497.18 451.877L501.923 450.559C502.078 450.509 502.242 450.491 502.405 450.505C502.567 450.52 502.725 450.567 502.869 450.643C503.013 450.72 503.14 450.825 503.243 450.951C503.345 451.078 503.421 451.224 503.467 451.381C503.561 451.695 503.527 452.033 503.373 452.322C503.22 452.611 502.958 452.827 502.645 452.924L497.821 454.309ZM521.725 447.564C521.571 447.608 521.409 447.621 521.249 447.601C521.089 447.581 520.935 447.529 520.796 447.449C520.657 447.368 520.535 447.259 520.439 447.13C520.343 447.001 520.274 446.854 520.236 446.697C520.148 446.38 520.184 446.041 520.337 445.75C520.49 445.458 520.749 445.236 521.06 445.129L525.875 443.843C526.189 443.756 526.524 443.792 526.811 443.945C527.099 444.098 527.316 444.356 527.418 444.665C527.463 444.824 527.474 444.991 527.453 445.156C527.432 445.32 527.378 445.479 527.294 445.622C527.211 445.765 527.1 445.89 526.967 445.989C526.835 446.089 526.683 446.161 526.523 446.201L521.725 447.564Z" fill="white"/>
<path d="M564.062 460.299C564.38 460.204 564.721 460.237 565.014 460.391C565.307 460.545 565.529 460.808 565.631 461.123C565.675 461.282 565.687 461.449 565.665 461.614C565.644 461.778 565.59 461.936 565.506 462.08C565.423 462.223 565.312 462.348 565.179 462.447C565.047 462.547 564.896 462.619 564.735 462.659L559.985 464.051C559.663 464.127 559.324 464.076 559.038 463.91C558.752 463.743 558.541 463.473 558.448 463.155C558.404 462.996 558.392 462.829 558.414 462.664C558.435 462.5 558.489 462.341 558.572 462.198C558.656 462.055 558.767 461.93 558.9 461.831C559.032 461.731 559.183 461.659 559.344 461.619L564.062 460.299ZM500.183 480.812C499.861 480.876 499.528 480.82 499.245 480.655C498.962 480.49 498.749 480.227 498.646 479.916C498.58 479.597 498.632 479.266 498.792 478.983C498.953 478.7 499.21 478.484 499.517 478.377L504.335 477.066C504.486 477.021 504.645 477.007 504.802 477.026C504.959 477.044 505.111 477.093 505.248 477.172C505.385 477.25 505.505 477.356 505.6 477.482C505.695 477.608 505.764 477.752 505.802 477.906C505.896 478.219 505.862 478.557 505.708 478.846C505.554 479.135 505.293 479.352 504.98 479.449L500.183 480.812ZM548.012 467.372C547.699 467.46 547.363 467.423 547.076 467.27C546.789 467.117 546.571 466.86 546.469 466.55C546.425 466.391 546.413 466.224 546.434 466.059C546.455 465.895 546.509 465.737 546.593 465.593C546.676 465.45 546.788 465.325 546.92 465.226C547.053 465.126 547.204 465.054 547.365 465.014L552.09 463.62C552.251 463.568 552.422 463.55 552.59 463.568C552.759 463.586 552.922 463.639 553.069 463.724C553.216 463.808 553.344 463.922 553.444 464.059C553.544 464.196 553.615 464.352 553.651 464.518C553.696 464.671 553.71 464.832 553.692 464.991C553.674 465.149 553.625 465.303 553.546 465.442C553.468 465.581 553.362 465.703 553.235 465.8C553.109 465.898 552.964 465.969 552.809 466.01L548.012 467.372Z" fill="white"/>
<path d="M697.833 317.854L642.816 447.3L678.514 470.907" stroke="white" stroke-width="3" stroke-linecap="round" stroke-linejoin="round"/>
<path d="M588.803 303.299C589.108 303.199 589.44 303.221 589.729 303.36C590.018 303.5 590.242 303.745 590.354 304.046C590.405 304.199 590.426 304.36 590.416 304.52C590.405 304.681 590.362 304.837 590.29 304.981C590.219 305.125 590.119 305.254 589.997 305.359C589.876 305.464 589.734 305.544 589.581 305.594L584.837 307.187C584.524 307.274 584.188 307.238 583.901 307.085C583.614 306.932 583.396 306.674 583.294 306.365C583.193 306.056 583.215 305.721 583.354 305.428C583.494 305.135 583.74 304.906 584.043 304.79L588.803 303.299ZM549.329 318.611C549.015 318.706 548.677 318.672 548.388 318.518C548.099 318.364 547.883 318.103 547.786 317.79C547.686 317.485 547.708 317.153 547.847 316.864C547.986 316.575 548.232 316.351 548.533 316.239L553.295 314.724C553.447 314.672 553.608 314.651 553.769 314.662C553.929 314.672 554.086 314.715 554.23 314.787C554.374 314.858 554.502 314.958 554.608 315.08C554.713 315.202 554.793 315.343 554.843 315.496C554.943 315.801 554.921 316.132 554.782 316.421C554.642 316.71 554.397 316.934 554.096 317.046L549.329 318.611ZM572.978 310.893C572.664 310.98 572.329 310.944 572.041 310.791C571.754 310.638 571.537 310.38 571.434 310.071C571.334 309.766 571.356 309.435 571.496 309.145C571.635 308.856 571.881 308.633 572.181 308.521L576.943 307.005C577.248 306.905 577.58 306.927 577.869 307.067C578.158 307.206 578.382 307.452 578.494 307.752C578.595 308.061 578.573 308.397 578.433 308.69C578.294 308.983 578.047 309.211 577.744 309.328L572.978 310.893Z" fill="white"/>
<path d="M478.708 222.011C478.832 221.902 478.978 221.821 479.135 221.77C479.292 221.72 479.458 221.702 479.622 221.718C479.786 221.734 479.945 221.783 480.09 221.862C480.235 221.941 480.362 222.049 480.464 222.179C480.668 222.431 480.765 222.754 480.734 223.078C480.703 223.402 480.547 223.7 480.298 223.91L476.341 226.925C476.072 227.106 475.743 227.177 475.423 227.123C475.104 227.069 474.817 226.895 474.622 226.636C474.513 226.511 474.432 226.366 474.381 226.209C474.331 226.052 474.313 225.886 474.329 225.722C474.345 225.557 474.394 225.398 474.473 225.253C474.552 225.109 474.66 224.982 474.79 224.88L478.708 222.011ZM436.545 256.806C436.423 256.914 436.28 256.995 436.125 257.045C435.97 257.095 435.806 257.113 435.644 257.098C435.482 257.082 435.324 257.034 435.182 256.955C435.039 256.876 434.914 256.769 434.814 256.64C434.61 256.387 434.513 256.065 434.544 255.741C434.575 255.417 434.731 255.119 434.98 254.909L438.937 251.894C439.063 251.789 439.209 251.71 439.365 251.662C439.522 251.613 439.687 251.597 439.85 251.612C440.013 251.628 440.172 251.676 440.317 251.753C440.461 251.83 440.589 251.935 440.693 252.062C440.801 252.187 440.883 252.332 440.933 252.489C440.983 252.646 441.001 252.812 440.985 252.976C440.97 253.14 440.921 253.3 440.842 253.444C440.762 253.589 440.655 253.716 440.525 253.818L436.545 256.806ZM446.493 249.348C446.236 249.554 445.909 249.651 445.581 249.62C445.253 249.588 444.951 249.431 444.737 249.18C444.63 249.058 444.548 248.915 444.498 248.76C444.448 248.604 444.43 248.441 444.445 248.279C444.461 248.116 444.51 247.959 444.588 247.816C444.667 247.674 444.774 247.549 444.903 247.449L448.835 244.431C449.093 244.226 449.42 244.128 449.747 244.16C450.075 244.191 450.378 244.349 450.591 244.599C450.702 244.72 450.787 244.863 450.839 245.018C450.892 245.174 450.91 245.339 450.895 245.502C450.879 245.665 450.829 245.823 450.748 245.966C450.668 246.109 450.558 246.233 450.425 246.33L446.493 249.348ZM456.416 241.888C456.159 242.093 455.832 242.191 455.504 242.159C455.176 242.128 454.874 241.97 454.66 241.72C454.552 241.595 454.47 241.45 454.42 241.293C454.37 241.136 454.352 240.97 454.368 240.806C454.383 240.642 454.432 240.482 454.511 240.338C454.591 240.193 454.698 240.066 454.828 239.964L458.785 236.949C459.038 236.744 459.361 236.647 459.685 236.678C460.008 236.709 460.307 236.866 460.516 237.114C460.625 237.239 460.706 237.384 460.757 237.541C460.807 237.698 460.825 237.864 460.809 238.028C460.793 238.193 460.744 238.352 460.665 238.497C460.586 238.641 460.478 238.768 460.348 238.87L456.416 241.888Z" fill="white"/>
<path d="M559.897 323.416C559.592 323.522 559.257 323.503 558.966 323.363C558.676 323.223 558.452 322.973 558.346 322.669C558.261 322.366 558.288 322.043 558.42 321.758C558.553 321.474 558.783 321.246 559.069 321.116L563.831 319.6C564.147 319.52 564.481 319.563 564.767 319.72C565.053 319.877 565.269 320.137 565.372 320.446C565.422 320.601 565.44 320.765 565.426 320.928C565.411 321.09 565.364 321.248 565.288 321.392C565.211 321.536 565.106 321.663 564.98 321.766C564.853 321.868 564.707 321.945 564.55 321.99L559.897 323.416ZM571.721 319.557C571.416 319.663 571.081 319.644 570.791 319.504C570.5 319.364 570.277 319.114 570.17 318.809C570.061 318.493 570.079 318.148 570.22 317.845C570.361 317.542 570.613 317.305 570.925 317.184L575.687 315.669C576 315.581 576.335 315.618 576.623 315.771C576.91 315.924 577.128 316.181 577.23 316.49C577.284 316.647 577.305 316.813 577.293 316.979C577.28 317.144 577.234 317.305 577.157 317.452C577.079 317.599 576.973 317.729 576.844 317.833C576.715 317.937 576.566 318.014 576.406 318.059L571.721 319.557Z" fill="white"/>
<path d="M591.466 588.278C591.334 588.378 591.183 588.45 591.022 588.489C590.862 588.529 590.694 588.535 590.531 588.508C590.368 588.481 590.212 588.42 590.073 588.331C589.934 588.241 589.814 588.124 589.722 587.987C589.624 587.853 589.554 587.701 589.517 587.54C589.479 587.378 589.475 587.211 589.505 587.048C589.534 586.885 589.597 586.729 589.689 586.591C589.781 586.453 589.9 586.336 590.038 586.245L593.144 584.047C593.268 583.939 593.414 583.857 593.571 583.807C593.728 583.756 593.894 583.739 594.058 583.754C594.222 583.77 594.381 583.819 594.526 583.898C594.671 583.977 594.798 584.085 594.9 584.215C595.099 584.474 595.193 584.8 595.162 585.126C595.131 585.452 594.977 585.754 594.732 585.971L591.466 588.278ZM600.634 581.669C600.376 581.875 600.049 581.972 599.722 581.941C599.394 581.91 599.091 581.752 598.878 581.501C598.715 581.221 598.658 580.891 598.716 580.572C598.774 580.253 598.943 579.965 599.194 579.76L603.261 576.905C603.394 576.808 603.545 576.739 603.705 576.702C603.866 576.664 604.032 576.659 604.194 576.686C604.356 576.713 604.511 576.772 604.651 576.86C604.79 576.947 604.91 577.062 605.005 577.196C605.103 577.33 605.173 577.482 605.21 577.643C605.248 577.805 605.252 577.972 605.222 578.135C605.192 578.298 605.13 578.454 605.038 578.592C604.946 578.73 604.827 578.847 604.688 578.938L600.634 581.669ZM620.927 567.291C620.793 567.389 620.641 567.459 620.48 567.496C620.318 567.533 620.151 567.537 619.988 567.508C619.825 567.478 619.669 567.416 619.531 567.324C619.393 567.232 619.276 567.113 619.185 566.974C618.987 566.719 618.893 566.398 618.924 566.076C618.955 565.754 619.108 565.456 619.351 565.243L623.417 562.388C623.549 562.288 623.7 562.217 623.861 562.177C624.022 562.138 624.189 562.131 624.352 562.159C624.515 562.186 624.671 562.246 624.811 562.336C624.95 562.426 625.069 562.543 625.161 562.68C625.344 562.953 625.415 563.286 625.361 563.61C625.306 563.934 625.131 564.225 624.87 564.424L620.927 567.291Z" fill="white"/>
<path d="M699.933 348.627C699.993 348.476 700.083 348.338 700.197 348.222C700.311 348.106 700.447 348.014 700.597 347.952C700.748 347.89 700.909 347.858 701.071 347.859C701.234 347.86 701.395 347.893 701.544 347.957C701.842 348.094 702.077 348.34 702.201 348.644C702.325 348.947 702.329 349.287 702.211 349.594L700.278 354.15C700.218 354.304 700.127 354.444 700.011 354.561C699.895 354.678 699.755 354.769 699.602 354.83C699.448 354.89 699.284 354.918 699.119 354.911C698.954 354.905 698.792 354.864 698.644 354.792C698.493 354.733 698.356 354.643 698.241 354.528C698.126 354.414 698.035 354.277 697.975 354.127C697.915 353.976 697.886 353.815 697.89 353.652C697.894 353.49 697.931 353.331 697.999 353.183L699.933 348.627ZM666.771 434.346C666.708 434.497 666.616 434.635 666.5 434.751C666.383 434.867 666.245 434.959 666.092 435.021C665.94 435.083 665.777 435.114 665.613 435.112C665.449 435.111 665.286 435.077 665.135 435.012C664.981 434.953 664.841 434.862 664.724 434.746C664.607 434.629 664.516 434.49 664.456 434.337C664.395 434.183 664.367 434.019 664.374 433.854C664.38 433.689 664.421 433.527 664.493 433.379L666.352 428.815C666.42 428.662 666.518 428.524 666.64 428.409C666.761 428.294 666.905 428.205 667.061 428.146C667.218 428.086 667.384 428.059 667.552 428.064C667.719 428.07 667.883 428.108 668.036 428.178C668.331 428.309 668.564 428.551 668.685 428.851C668.805 429.152 668.804 429.487 668.68 429.787L666.771 434.346ZM672.778 416.703C677.242 418.552 668.246 414.771 672.728 416.698L672.778 416.703ZM676.352 411.43C676.229 411.742 675.987 411.993 675.68 412.127C675.372 412.262 675.024 412.268 674.711 412.146C674.558 412.078 674.42 411.98 674.305 411.859C674.191 411.737 674.101 411.594 674.042 411.437C673.982 411.281 673.955 411.114 673.96 410.947C673.966 410.78 674.004 410.615 674.074 410.463L675.983 405.904C676.043 405.75 676.133 405.61 676.249 405.492C676.365 405.374 676.504 405.281 676.657 405.219C676.81 405.156 676.974 405.126 677.14 405.129C677.305 405.132 677.468 405.169 677.619 405.237C677.916 405.374 678.149 405.62 678.268 405.925C678.388 406.229 678.385 406.568 678.261 406.871L676.352 411.43ZM686.027 388.573C685.897 388.891 685.646 389.145 685.329 389.279C685.012 389.412 684.655 389.414 684.337 389.284C684.018 389.155 683.764 388.904 683.631 388.587C683.497 388.27 683.495 387.913 683.625 387.594L685.534 383.035C685.592 382.878 685.681 382.734 685.796 382.611C685.91 382.489 686.048 382.39 686.2 382.321C686.353 382.253 686.518 382.215 686.686 382.21C686.854 382.205 687.02 382.234 687.177 382.294C687.479 382.426 687.716 382.672 687.836 382.978C687.956 383.284 687.95 383.626 687.819 383.928L686.027 388.573ZM690.843 377.105C690.711 377.406 690.465 377.644 690.159 377.764C689.853 377.884 689.511 377.878 689.209 377.747C689.058 377.687 688.921 377.598 688.806 377.483C688.691 377.369 688.601 377.232 688.54 377.081C688.48 376.931 688.451 376.769 688.455 376.607C688.46 376.445 688.497 376.285 688.565 376.138L690.424 371.574C690.551 371.273 690.791 371.034 691.093 370.909C691.394 370.784 691.733 370.782 692.035 370.905C692.193 370.963 692.337 371.052 692.459 371.167C692.582 371.281 692.68 371.419 692.749 371.572C692.818 371.725 692.856 371.89 692.861 372.057C692.866 372.225 692.837 372.392 692.777 372.548L690.843 377.105Z" fill="white"/>
<path d="M708.788 356.462C708.848 356.308 708.939 356.168 709.055 356.05C709.171 355.932 709.31 355.839 709.463 355.777C709.616 355.715 709.78 355.684 709.945 355.687C710.111 355.69 710.274 355.727 710.424 355.795C710.575 355.855 710.712 355.945 710.827 356.059C710.942 356.173 711.033 356.31 711.093 356.461C711.153 356.611 711.182 356.773 711.178 356.935C711.174 357.097 711.137 357.257 711.069 357.404L709.133 361.985C709.073 362.136 708.983 362.273 708.869 362.389C708.755 362.504 708.618 362.594 708.467 362.654C708.317 362.715 708.155 362.744 707.993 362.739C707.831 362.735 707.671 362.698 707.524 362.63C707.227 362.498 706.992 362.258 706.868 361.958C706.743 361.658 706.738 361.322 706.855 361.019L708.788 356.462ZM680.418 430.711C680.355 430.862 680.263 431 680.146 431.116C680.03 431.232 679.891 431.324 679.739 431.386C679.587 431.448 679.424 431.479 679.26 431.478C679.095 431.476 678.933 431.442 678.782 431.378C678.63 431.315 678.493 431.223 678.378 431.106C678.263 430.989 678.173 430.85 678.113 430.697C678.053 430.545 678.024 430.382 678.029 430.218C678.033 430.054 678.071 429.893 678.14 429.744L680.048 425.185C680.171 424.872 680.413 424.622 680.721 424.487C681.028 424.353 681.377 424.346 681.689 424.469C681.977 424.609 682.202 424.852 682.321 425.149C682.44 425.446 682.445 425.777 682.334 426.077L680.418 430.711ZM685.234 419.243C685.102 419.545 684.857 419.784 684.551 419.908C684.246 420.033 683.904 420.033 683.598 419.91C683.286 419.787 683.035 419.545 682.9 419.237C682.766 418.93 682.759 418.581 682.882 418.269L684.815 413.712C684.878 413.564 684.969 413.429 685.084 413.316C685.199 413.203 685.335 413.113 685.485 413.053C685.635 412.994 685.795 412.964 685.956 412.966C686.117 412.969 686.276 413.003 686.424 413.068C686.575 413.128 686.713 413.217 686.829 413.332C686.945 413.446 687.037 413.582 687.099 413.732C687.161 413.882 687.193 414.043 687.192 414.206C687.191 414.369 687.158 414.53 687.093 414.679L685.234 419.243ZM694.916 396.312C694.853 396.463 694.761 396.601 694.644 396.717C694.528 396.833 694.389 396.925 694.237 396.987C694.085 397.049 693.922 397.08 693.758 397.078C693.593 397.077 693.431 397.043 693.28 396.978C693.129 396.919 692.992 396.829 692.877 396.715C692.762 396.6 692.671 396.463 692.611 396.313C692.551 396.162 692.522 396.001 692.526 395.839C692.53 395.676 692.567 395.517 692.635 395.37L694.495 390.806C694.555 390.655 694.645 390.517 694.759 390.401C694.873 390.285 695.009 390.193 695.159 390.131C695.309 390.069 695.471 390.037 695.633 390.038C695.796 390.039 695.957 390.072 696.106 390.137C696.263 390.192 696.406 390.278 696.529 390.39C696.652 390.502 696.75 390.638 696.82 390.789C696.889 390.94 696.927 391.103 696.933 391.269C696.938 391.435 696.909 391.6 696.85 391.755L694.916 396.312ZM704.591 373.455C704.459 373.757 704.214 373.996 703.908 374.12C703.603 374.245 703.261 374.245 702.955 374.122C702.806 374.059 702.671 373.968 702.558 373.853C702.445 373.738 702.356 373.602 702.296 373.452C702.236 373.302 702.207 373.142 702.209 372.981C702.211 372.82 702.246 372.66 702.31 372.513L704.251 367.882C704.378 367.581 704.618 367.342 704.919 367.217C705.221 367.091 705.56 367.09 705.862 367.213C706.157 367.354 706.388 367.6 706.511 367.902C706.634 368.204 706.641 368.542 706.529 368.849L704.591 373.455Z" fill="white"/>
<path d="M664.923 169.984C664.869 169.827 664.848 169.661 664.86 169.495C664.873 169.33 664.919 169.169 664.997 169.022C665.074 168.875 665.18 168.745 665.309 168.641C665.438 168.537 665.587 168.46 665.747 168.415C666.055 168.318 666.389 168.343 666.678 168.488C666.967 168.632 667.188 168.883 667.295 169.188L668.739 173.918C668.795 174.072 668.819 174.235 668.81 174.399C668.8 174.562 668.759 174.722 668.686 174.869C668.614 175.016 668.513 175.146 668.389 175.253C668.265 175.36 668.121 175.441 667.965 175.491C667.65 175.597 667.306 175.574 667.007 175.429C666.708 175.284 666.478 175.027 666.367 174.714L664.923 169.984ZM698.494 268.729C698.545 268.884 698.563 269.048 698.548 269.21C698.534 269.373 698.487 269.531 698.411 269.675C698.334 269.819 698.229 269.946 698.102 270.048C697.976 270.151 697.83 270.227 697.673 270.272C697.516 270.326 697.35 270.348 697.184 270.335C697.019 270.322 696.858 270.276 696.711 270.199C696.564 270.122 696.435 270.015 696.33 269.886C696.226 269.757 696.149 269.608 696.105 269.449L694.656 264.768C694.556 264.449 694.581 264.104 694.725 263.803C694.87 263.501 695.124 263.266 695.435 263.145C695.76 263.055 696.106 263.091 696.406 263.244C696.706 263.398 696.937 263.658 697.053 263.974L698.494 268.729ZM694.825 256.748C694.921 257.073 694.889 257.422 694.734 257.723C694.58 258.024 694.316 258.254 693.996 258.366C693.841 258.416 693.677 258.434 693.515 258.42C693.352 258.405 693.194 258.359 693.05 258.282C692.907 258.205 692.779 258.101 692.677 257.974C692.574 257.847 692.498 257.701 692.453 257.544L690.935 252.807C690.881 252.65 690.859 252.484 690.872 252.319C690.885 252.153 690.931 251.992 691.008 251.845C691.085 251.698 691.192 251.569 691.321 251.464C691.45 251.36 691.599 251.283 691.759 251.239C691.915 251.19 692.08 251.172 692.244 251.189C692.407 251.205 692.566 251.254 692.71 251.333C692.854 251.412 692.98 251.52 693.082 251.649C693.183 251.778 693.257 251.926 693.3 252.085L694.825 256.748ZM687.334 233.072C687.389 233.224 687.413 233.385 687.404 233.547C687.394 233.709 687.352 233.867 687.28 234.012C687.208 234.156 687.107 234.285 686.983 234.39C686.86 234.494 686.716 234.572 686.561 234.62C686.249 234.728 685.907 234.709 685.609 234.569C685.31 234.428 685.078 234.177 684.961 233.868L683.52 229.113C683.466 228.958 683.445 228.793 683.458 228.63C683.47 228.466 683.517 228.307 683.594 228.162C683.671 228.017 683.777 227.889 683.906 227.788C684.035 227.686 684.183 227.611 684.342 227.569C684.646 227.469 684.978 227.492 685.267 227.631C685.556 227.77 685.78 228.016 685.892 228.317L687.334 233.072ZM683.647 221.264C683.735 221.577 683.699 221.913 683.546 222.2C683.393 222.487 683.135 222.705 682.826 222.807C682.512 222.902 682.174 222.868 681.885 222.714C681.596 222.56 681.379 222.299 681.282 221.986L679.767 217.224C679.679 216.91 679.716 216.575 679.869 216.288C680.022 216 680.279 215.783 680.588 215.68C680.743 215.627 680.908 215.605 681.071 215.618C681.235 215.631 681.394 215.677 681.539 215.754C681.684 215.831 681.812 215.938 681.914 216.066C682.015 216.195 682.09 216.343 682.132 216.502L683.647 221.264ZM676.233 197.57C676.323 197.894 676.288 198.24 676.134 198.54C675.981 198.84 675.72 199.071 675.404 199.187C675.09 199.281 674.752 199.248 674.463 199.094C674.174 198.94 673.958 198.678 673.861 198.366L672.345 193.604C672.295 193.449 672.276 193.285 672.291 193.122C672.305 192.96 672.352 192.802 672.429 192.658C672.505 192.514 672.61 192.387 672.737 192.284C672.864 192.182 673.01 192.105 673.166 192.06C673.322 192.01 673.485 191.992 673.648 192.006C673.81 192.021 673.968 192.068 674.112 192.144C674.256 192.221 674.383 192.326 674.486 192.452C674.589 192.579 674.665 192.725 674.71 192.882L676.233 197.57Z" fill="white"/>
<path d="M616.962 536.165L581.448 562.513" stroke="#FF5E18" stroke-width="3" stroke-linecap="round" stroke-linejoin="round"/>
<path d="M786.034 640.243C792.248 640.838 797.768 636.283 798.363 630.068C798.958 623.854 794.402 618.334 788.188 617.739C781.974 617.145 776.454 621.7 775.859 627.914C775.264 634.128 779.819 639.648 786.034 640.243Z" fill="#FF5E18"/>
<path fill-rule="evenodd" clip-rule="evenodd" d="M172.451 25.1863C189.598 24.3811 206.365 30.4111 219.071 41.9532C231.777 53.4954 239.386 69.6069 240.227 86.7524C241.023 103.913 234.976 120.687 223.414 133.393C211.853 146.099 195.722 153.697 178.563 154.519C170.068 154.933 161.576 153.666 153.573 150.79C145.57 147.914 138.214 143.485 131.926 137.759C125.639 132.033 120.544 125.122 116.935 117.421C113.325 109.721 111.272 101.384 110.892 92.8886C110.474 84.3978 111.735 75.9078 114.605 67.9056C117.475 59.9034 121.896 52.5464 127.615 46.2566C133.334 39.9667 140.239 34.8677 147.933 31.252C155.627 27.6363 163.959 25.575 172.451 25.1863Z" fill="url(#paint25_radial_704_19721)"/>
<path d="M824.433 507.959C829.595 508.454 834.181 504.669 834.675 499.507C835.17 494.344 831.385 489.758 826.222 489.264C821.06 488.77 816.474 492.554 815.98 497.717C815.486 502.879 819.27 507.465 824.433 507.959Z" fill="white"/>
<path d="M704.435 594.574C639.855 564.01 565.104 521.067 488.227 469.061C391.111 403.239 308.665 335.103 253.174 277.633" stroke="white" stroke-width="3" stroke-miterlimit="10"/>
<path d="M654.004 591.967C596.791 561.085 535.231 523.747 472.446 481.202C376.468 416.262 292.683 349.345 229.781 289.519" stroke="white" stroke-width="3" stroke-miterlimit="10"/>
<defs>
<linearGradient id="paint0_linear_704_19721" x1="216.205" y1="465.432" x2="300.664" y2="300.073" gradientUnits="userSpaceOnUse">
<stop stop-color="#FF5E18"/>
<stop offset="1" stop-color="#25211A"/>
</linearGradient>
<linearGradient id="paint1_linear_704_19721" x1="415.915" y1="138.91" x2="571.38" y2="105.128" gradientUnits="userSpaceOnUse">
<stop stop-color="#FF5E18"/>
<stop offset="1" stop-color="#141414"/>
</linearGradient>
<linearGradient id="paint2_linear_704_19721" x1="254.999" y1="535.5" x2="395.999" y2="589" gradientUnits="userSpaceOnUse">
<stop stop-color="#FF5E18"/>
<stop offset="1" stop-color="#141414"/>
</linearGradient>
<linearGradient id="paint3_linear_704_19721" x1="450.499" y1="447" x2="605.999" y2="385.5" gradientUnits="userSpaceOnUse">
<stop stop-color="#FF5E18"/>
<stop offset="1" stop-color="#141414"/>
</linearGradient>
<linearGradient id="paint4_linear_704_19721" x1="343.998" y1="467.5" x2="437.998" y2="473" gradientUnits="userSpaceOnUse">
<stop stop-color="#FF5E18"/>
<stop offset="1" stop-color="#141414"/>
</linearGradient>
<linearGradient id="paint5_linear_704_19721" x1="430" y1="299.5" x2="547" y2="209.5" gradientUnits="userSpaceOnUse">
<stop stop-color="#FF5E18"/>
<stop offset="1" stop-color="#141414"/>
</linearGradient>
<linearGradient id="paint6_linear_704_19721" x1="498.998" y1="308.5" x2="572.998" y2="357" gradientUnits="userSpaceOnUse">
<stop stop-color="#FF5E18"/>
<stop offset="1" stop-color="#141414"/>
</linearGradient>
<linearGradient id="paint7_linear_704_19721" x1="523.999" y1="417" x2="612.499" y2="427" gradientUnits="userSpaceOnUse">
<stop stop-color="#FF5E18"/>
<stop offset="1" stop-color="#141414"/>
</linearGradient>
<linearGradient id="paint8_linear_704_19721" x1="378.724" y1="579.566" x2="490.23" y2="613.949" gradientUnits="userSpaceOnUse">
<stop stop-color="#FF5E18"/>
<stop offset="1" stop-color="#141414"/>
</linearGradient>
<linearGradient id="paint9_linear_704_19721" x1="439.001" y1="498.5" x2="573.001" y2="464.5" gradientUnits="userSpaceOnUse">
<stop stop-color="#FF5E18"/>
<stop offset="1" stop-color="#141414"/>
</linearGradient>
<linearGradient id="paint10_linear_704_19721" x1="603.537" y1="460.085" x2="754.45" y2="343.513" gradientUnits="userSpaceOnUse">
<stop stop-color="#FF5E18"/>
<stop offset="1" stop-color="#141414"/>
</linearGradient>
<linearGradient id="paint11_linear_704_19721" x1="481.999" y1="326.5" x2="558.999" y2="268" gradientUnits="userSpaceOnUse">
<stop stop-color="#FF5E18"/>
<stop offset="1" stop-color="#141414"/>
</linearGradient>
<linearGradient id="paint12_linear_704_19721" x1="602.998" y1="256.5" x2="626.998" y2="177" gradientUnits="userSpaceOnUse">
<stop stop-color="#FF5E18"/>
<stop offset="1" stop-color="#141414"/>
</linearGradient>
<linearGradient id="paint13_linear_704_19721" x1="519.013" y1="639.165" x2="639.067" y2="532.116" gradientUnits="userSpaceOnUse">
<stop stop-color="#FF5E18"/>
<stop offset="1" stop-color="#141414"/>
</linearGradient>
<linearGradient id="paint14_linear_704_19721" x1="433.5" y1="460.001" x2="483.5" y2="300.5" gradientUnits="userSpaceOnUse">
<stop stop-color="#FF5E18"/>
<stop offset="1" stop-color="#141414"/>
</linearGradient>
<linearGradient id="paint15_linear_704_19721" x1="564" y1="234.5" x2="642.5" y2="289" gradientUnits="userSpaceOnUse">
<stop stop-color="#FF5E18"/>
<stop offset="1" stop-color="#141414"/>
</linearGradient>
<linearGradient id="paint16_linear_704_19721" x1="717.679" y1="154.07" x2="734.032" y2="309.115" gradientUnits="userSpaceOnUse">
<stop stop-color="#E7703D"/>
<stop offset="1" stop-color="#141414"/>
</linearGradient>
<linearGradient id="paint17_linear_704_19721" x1="777.077" y1="433.026" x2="680.355" y2="387.581" gradientUnits="userSpaceOnUse">
<stop stop-color="#141414"/>
<stop offset="1" stop-color="#FF5E18"/>
</linearGradient>
<linearGradient id="paint18_linear_704_19721" x1="583.217" y1="571.987" x2="596.121" y2="693.963" gradientUnits="userSpaceOnUse">
<stop stop-color="#FF5E18"/>
<stop offset="1" stop-color="#141414"/>
</linearGradient>
<linearGradient id="paint19_linear_704_19721" x1="858.264" y1="125.454" x2="785.296" y2="360.192" gradientUnits="userSpaceOnUse">
<stop stop-color="#141414"/>
<stop offset="1" stop-color="#FF5E18"/>
</linearGradient>
<linearGradient id="paint20_linear_704_19721" x1="661.554" y1="636.787" x2="654.04" y2="715.278" gradientUnits="userSpaceOnUse">
<stop stop-color="#FF5E18"/>
<stop offset="1" stop-color="#141414"/>
</linearGradient>
<linearGradient id="paint21_linear_704_19721" x1="514.763" y1="774.767" x2="653.747" y2="730.673" gradientUnits="userSpaceOnUse">
<stop stop-color="#FF5E18"/>
<stop offset="1" stop-color="#141414"/>
</linearGradient>
<linearGradient id="paint22_linear_704_19721" x1="539.928" y1="733.504" x2="587.795" y2="741.83" gradientUnits="userSpaceOnUse">
<stop stop-color="#141414"/>
<stop offset="1" stop-color="white"/>
</linearGradient>
<linearGradient id="paint23_linear_704_19721" x1="587.91" y1="659.885" x2="565.894" y2="735.989" gradientUnits="userSpaceOnUse">
<stop stop-color="#FF5E18"/>
<stop offset="1" stop-color="#141414"/>
</linearGradient>
<linearGradient id="paint24_linear_704_19721" x1="657.575" y1="612.5" x2="613.8" y2="665.708" gradientUnits="userSpaceOnUse">
<stop stop-color="#FF5E18"/>
<stop offset="1" stop-color="#141414"/>
</linearGradient>
<radialGradient id="paint25_radial_704_19721" cx="0" cy="0" r="1" gradientUnits="userSpaceOnUse" gradientTransform="translate(175.543 89.8634) rotate(64.4166) scale(56.3492 56.3491)">
<stop stop-color="#FF5E18"/>
<stop offset="0.463542" stop-color="#FF5E18" stop-opacity="0.875"/>
<stop offset="1" stop-color="#FF5E18" stop-opacity="0"/>
</radialGradient>
</defs>
</svg>
