<svg width="125" height="48" viewBox="0 0 125 48" fill="none" xmlns="http://www.w3.org/2000/svg">
<path fill-rule="evenodd" clip-rule="evenodd" d="M22.0076 30.0393H31.1048V34.267H15.8951V30.4249L21.8802 23.7994L15.9242 17.592V13.7388H31.1048V17.9654H22.201L27.7221 23.7469L22.0076 30.0393Z" fill="white"/>
<path d="M23.5 4.77689L37.0955 10.4075L42.7261 24.0028L37.0955 37.5981L23.5 43.2298L9.90456 37.5981L4.27277 24.0028L9.90456 10.4075L23.5 4.77689V4.77689ZM23.5 0.5C23.2584 0.500113 23.0191 0.547585 22.7957 0.639731L7.48103 6.98465C7.2577 7.07706 7.05478 7.2126 6.88387 7.3835C6.71297 7.55441 6.57742 7.75732 6.48501 7.98065L0.140017 23.2952C-0.0466725 23.7461 -0.0466725 24.2527 0.140017 24.7037L6.48501 40.0182C6.57727 40.2417 6.71274 40.4447 6.88367 40.6156C7.05459 40.7865 7.2576 40.922 7.48103 41.0142L22.7957 47.3591C23.0189 47.4522 23.2583 47.5001 23.5 47.5C23.7417 47.4999 23.9811 47.4521 24.2043 47.3591L39.519 41.0142C39.7423 40.9218 39.9452 40.7863 40.1161 40.6154C40.287 40.4445 40.4226 40.2416 40.515 40.0182L46.86 24.7037C47.0467 24.2527 47.0467 23.7461 46.86 23.2952L40.515 7.98065C40.328 7.52982 39.9698 7.17161 39.519 6.98465L24.2043 0.639731C23.9809 0.547696 23.7416 0.500228 23.5 0.5V0.5Z" fill="white"/>
<path d="M66.1191 24.6865H62.1816V27.3525H66.8027V29H60.1309V19.0469H66.7891V20.708H62.1816V23.0801H66.1191V24.6865ZM72.0322 23.4561C71.7633 23.4196 71.5264 23.4014 71.3213 23.4014C70.5739 23.4014 70.084 23.6543 69.8516 24.1602V29H67.876V21.6035H69.7422L69.7969 22.4854C70.1934 21.8063 70.7425 21.4668 71.4443 21.4668C71.6631 21.4668 71.8682 21.4964 72.0596 21.5557L72.0322 23.4561ZM72.5654 25.2471C72.5654 24.1123 72.8343 23.1986 73.3721 22.5059C73.9144 21.8132 74.6436 21.4668 75.5596 21.4668C76.3708 21.4668 77.002 21.7448 77.4531 22.3008L77.5352 21.6035H79.3262V28.7539C79.3262 29.401 79.1781 29.9639 78.8818 30.4424C78.5902 30.9209 78.1777 31.2855 77.6445 31.5361C77.1113 31.7868 76.487 31.9121 75.7715 31.9121C75.2292 31.9121 74.7005 31.8027 74.1855 31.584C73.6706 31.3698 73.2809 31.0918 73.0166 30.75L73.8916 29.5469C74.3838 30.0983 74.9808 30.374 75.6826 30.374C76.2067 30.374 76.6146 30.2327 76.9062 29.9502C77.1979 29.6722 77.3438 29.2757 77.3438 28.7607V28.3643C76.888 28.8792 76.2887 29.1367 75.5459 29.1367C74.6572 29.1367 73.9372 28.7904 73.3857 28.0977C72.8389 27.4004 72.5654 26.4775 72.5654 25.3291V25.2471ZM74.541 25.3906C74.541 26.0605 74.6755 26.5869 74.9443 26.9697C75.2132 27.348 75.5824 27.5371 76.0518 27.5371C76.6533 27.5371 77.084 27.3115 77.3438 26.8604V23.75C77.0794 23.2988 76.6533 23.0732 76.0654 23.0732C75.5915 23.0732 75.2178 23.2669 74.9443 23.6543C74.6755 24.0417 74.541 24.6204 74.541 25.3906ZM80.543 25.2334C80.543 24.4997 80.6842 23.8457 80.9668 23.2715C81.2493 22.6973 81.6549 22.2529 82.1836 21.9385C82.7168 21.624 83.3343 21.4668 84.0361 21.4668C85.0342 21.4668 85.8477 21.7721 86.4766 22.3828C87.11 22.9935 87.4632 23.8229 87.5361 24.8711L87.5498 25.377C87.5498 26.5117 87.2331 27.4232 86.5996 28.1113C85.9661 28.7949 85.1162 29.1367 84.0498 29.1367C82.9834 29.1367 82.1312 28.7949 81.4932 28.1113C80.8597 27.4277 80.543 26.498 80.543 25.3223V25.2334ZM82.5186 25.377C82.5186 26.0788 82.6507 26.6165 82.915 26.9902C83.1794 27.3594 83.5576 27.5439 84.0498 27.5439C84.5283 27.5439 84.902 27.3617 85.1709 26.9971C85.4398 26.6279 85.5742 26.04 85.5742 25.2334C85.5742 24.5452 85.4398 24.012 85.1709 23.6338C84.902 23.2555 84.5238 23.0664 84.0361 23.0664C83.5531 23.0664 83.1794 23.2555 82.915 23.6338C82.6507 24.0075 82.5186 24.5885 82.5186 25.377ZM100.477 29H98.4258L94.4336 22.4512V29H92.3828V19.0469H94.4336L98.4326 25.6094V19.0469H100.477V29ZM101.83 25.2334C101.83 24.4997 101.971 23.8457 102.254 23.2715C102.536 22.6973 102.942 22.2529 103.471 21.9385C104.004 21.624 104.621 21.4668 105.323 21.4668C106.321 21.4668 107.135 21.7721 107.764 22.3828C108.397 22.9935 108.75 23.8229 108.823 24.8711L108.837 25.377C108.837 26.5117 108.52 27.4232 107.887 28.1113C107.253 28.7949 106.403 29.1367 105.337 29.1367C104.271 29.1367 103.418 28.7949 102.78 28.1113C102.147 27.4277 101.83 26.498 101.83 25.3223V25.2334ZM103.806 25.377C103.806 26.0788 103.938 26.6165 104.202 26.9902C104.466 27.3594 104.845 27.5439 105.337 27.5439C105.815 27.5439 106.189 27.3617 106.458 26.9971C106.727 26.6279 106.861 26.04 106.861 25.2334C106.861 24.5452 106.727 24.012 106.458 23.6338C106.189 23.2555 105.811 23.0664 105.323 23.0664C104.84 23.0664 104.466 23.2555 104.202 23.6338C103.938 24.0075 103.806 24.5885 103.806 25.377ZM109.746 25.2471C109.746 24.0941 110.004 23.1758 110.519 22.4922C111.038 21.8086 111.747 21.4668 112.645 21.4668C113.365 21.4668 113.959 21.7357 114.429 22.2734V18.5H116.411V29H114.627L114.531 28.2139C114.039 28.8291 113.406 29.1367 112.631 29.1367C111.76 29.1367 111.061 28.7949 110.532 28.1113C110.008 27.4232 109.746 26.4684 109.746 25.2471ZM111.722 25.3906C111.722 26.0833 111.842 26.6143 112.084 26.9834C112.326 27.3525 112.676 27.5371 113.137 27.5371C113.747 27.5371 114.178 27.2796 114.429 26.7646V23.8457C114.183 23.3307 113.757 23.0732 113.15 23.0732C112.198 23.0732 111.722 23.8457 111.722 25.3906ZM121.347 29.1367C120.262 29.1367 119.378 28.804 118.694 28.1387C118.015 27.4733 117.676 26.5869 117.676 25.4795V25.2881C117.676 24.5452 117.819 23.8822 118.106 23.2988C118.394 22.7109 118.799 22.2598 119.323 21.9453C119.852 21.6263 120.453 21.4668 121.128 21.4668C122.14 21.4668 122.935 21.7858 123.514 22.4238C124.097 23.0618 124.389 23.9665 124.389 25.1377V25.9443H119.679C119.743 26.4274 119.934 26.8148 120.253 27.1064C120.576 27.3981 120.984 27.5439 121.477 27.5439C122.238 27.5439 122.832 27.2682 123.261 26.7168L124.231 27.8037C123.935 28.223 123.534 28.5511 123.028 28.7881C122.522 29.0205 121.962 29.1367 121.347 29.1367ZM121.121 23.0664C120.729 23.0664 120.41 23.1986 120.164 23.4629C119.923 23.7272 119.768 24.1055 119.699 24.5977H122.447V24.4404C122.438 24.0029 122.32 23.6657 122.092 23.4287C121.864 23.1872 121.54 23.0664 121.121 23.0664Z" fill="white"/>
</svg>
