<svg width="12" height="11" viewBox="0 0 12 11" fill="none" xmlns="http://www.w3.org/2000/svg">
<path d="M4.076 10.532L4.412 10.1L5.54 7.748L5.636 6.788H5.972L6.092 7.748L7.22 10.1L7.532 10.532L10.052 8.78L9.74 8.348L7.868 6.524L6.98 6.14L7.076 5.804L8.012 6.02L10.604 5.684L11.132 5.516L10.124 2.492L9.644 2.66L7.34 3.908L6.692 4.628L6.404 4.388L6.884 3.596L7.34 1.004V0.5H4.268V1.004L4.748 3.596L5.228 4.388L4.916 4.628L4.268 3.908L1.988 2.66L1.484 2.492L0.5 5.516L1.004 5.684L3.596 6.02L4.556 5.804L4.628 6.14L3.764 6.524L1.868 8.348L1.58 8.78L4.076 10.532Z" fill="#FF5E18"/>
</svg>
