<svg width="90" height="34" viewBox="0 0 90 34" fill="none" xmlns="http://www.w3.org/2000/svg">
<path d="M28.0845 0.842285H13.1254V20.7887H33.2016V6.03193C33.2098 3.23001 30.9046 0.842285 28.0845 0.842285ZM8.5314 0.842285H6.02187C3.20172 0.842285 0.790283 3.12443 0.790283 6.04005V8.53336H8.5314V0.842285ZM0.790283 13.2032H8.5314V20.8943H0.790283V13.2032ZM25.4687 33.1497H27.9782C30.7984 33.1497 33.2098 30.8675 33.2098 27.9519V25.4667H25.4687V33.1497ZM13.1254 25.4667H20.8665V33.1578H13.1254V25.4667ZM0.790283 25.4667V27.96C0.790283 30.7619 3.08728 33.1578 6.02187 33.1578H8.5314V25.4667H0.790283Z" fill="white"/>
<path d="M48.2811 20.3525H52.6356V22H46.2303V12.0469H48.2811V20.3525ZM57.0927 22.1367C56.008 22.1367 55.1239 21.804 54.4403 21.1387C53.7613 20.4733 53.4218 19.5869 53.4218 18.4795V18.2881C53.4218 17.5452 53.5653 16.8822 53.8524 16.2988C54.1395 15.7109 54.5451 15.2598 55.0692 14.9453C55.5979 14.6263 56.1994 14.4668 56.8739 14.4668C57.8856 14.4668 58.6809 14.7858 59.2596 15.4238C59.843 16.0618 60.1346 16.9665 60.1346 18.1377V18.9443H55.4247C55.4885 19.4274 55.6799 19.8148 55.9989 20.1064C56.3225 20.3981 56.7303 20.5439 57.2225 20.5439C57.9836 20.5439 58.5783 20.2682 59.0067 19.7168L59.9774 20.8037C59.6812 21.223 59.2802 21.5511 58.7743 21.7881C58.2684 22.0205 57.7079 22.1367 57.0927 22.1367ZM56.8671 16.0664C56.4751 16.0664 56.1561 16.1986 55.91 16.4629C55.6685 16.7272 55.5135 17.1055 55.4452 17.5977H58.1932V17.4404C58.1841 17.0029 58.0656 16.6657 57.8378 16.4287C57.6099 16.1872 57.2863 16.0664 56.8671 16.0664ZM60.955 18.2471C60.955 17.0941 61.2124 16.1758 61.7274 15.4922C62.2469 14.8086 62.9556 14.4668 63.8534 14.4668C64.5734 14.4668 65.1682 14.7357 65.6376 15.2734V11.5H67.62V22H65.8358L65.7401 21.2139C65.2479 21.8291 64.6145 22.1367 63.8397 22.1367C62.9693 22.1367 62.2697 21.7949 61.7411 21.1113C61.217 20.4232 60.955 19.4684 60.955 18.2471ZM62.9305 18.3906C62.9305 19.0833 63.0513 19.6143 63.2928 19.9834C63.5344 20.3525 63.8853 20.5371 64.3456 20.5371C64.9563 20.5371 65.3869 20.2796 65.6376 19.7646V16.8457C65.3915 16.3307 64.9654 16.0732 64.3593 16.0732C63.4068 16.0732 62.9305 16.8457 62.9305 18.3906ZM68.8641 18.2471C68.8641 17.1123 69.133 16.1986 69.6708 15.5059C70.2131 14.8132 70.9423 14.4668 71.8583 14.4668C72.6695 14.4668 73.3007 14.7448 73.7518 15.3008L73.8339 14.6035H75.6249V21.7539C75.6249 22.401 75.4768 22.9639 75.1805 23.4424C74.8889 23.9209 74.4764 24.2855 73.9432 24.5361C73.41 24.7868 72.7857 24.9121 72.0702 24.9121C71.5279 24.9121 70.9992 24.8027 70.4843 24.584C69.9693 24.3698 69.5796 24.0918 69.3153 23.75L70.1903 22.5469C70.6825 23.0983 71.2795 23.374 71.9813 23.374C72.5054 23.374 72.9133 23.2327 73.205 22.9502C73.4966 22.6722 73.6425 22.2757 73.6425 21.7607V21.3643C73.1867 21.8792 72.5874 22.1367 71.8446 22.1367C70.9559 22.1367 70.2359 21.7904 69.6844 21.0977C69.1376 20.4004 68.8641 19.4775 68.8641 18.3291V18.2471ZM70.8397 18.3906C70.8397 19.0605 70.9742 19.5869 71.243 19.9697C71.5119 20.348 71.8811 20.5371 72.3505 20.5371C72.952 20.5371 73.3827 20.3115 73.6425 19.8604V16.75C73.3781 16.2988 72.952 16.0732 72.3641 16.0732C71.8902 16.0732 71.5165 16.2669 71.243 16.6543C70.9742 17.0417 70.8397 17.6204 70.8397 18.3906ZM80.5536 22.1367C79.469 22.1367 78.5848 21.804 77.9012 21.1387C77.2222 20.4733 76.8827 19.5869 76.8827 18.4795V18.2881C76.8827 17.5452 77.0262 16.8822 77.3134 16.2988C77.6005 15.7109 78.0061 15.2598 78.5302 14.9453C79.0588 14.6263 79.6604 14.4668 80.3348 14.4668C81.3466 14.4668 82.1418 14.7858 82.7206 15.4238C83.3039 16.0618 83.5956 16.9665 83.5956 18.1377V18.9443H78.8856C78.9494 19.4274 79.1408 19.8148 79.4598 20.1064C79.7834 20.3981 80.1913 20.5439 80.6835 20.5439C81.4445 20.5439 82.0393 20.2682 82.4677 19.7168L83.4384 20.8037C83.1421 21.223 82.7411 21.5511 82.2352 21.7881C81.7294 22.0205 81.1688 22.1367 80.5536 22.1367ZM80.328 16.0664C79.9361 16.0664 79.6171 16.1986 79.371 16.4629C79.1294 16.7272 78.9745 17.1055 78.9061 17.5977H81.6542V17.4404C81.6451 17.0029 81.5266 16.6657 81.2987 16.4287C81.0708 16.1872 80.7473 16.0664 80.328 16.0664ZM88.8798 16.4561C88.6109 16.4196 88.3739 16.4014 88.1688 16.4014C87.4214 16.4014 86.9315 16.6543 86.6991 17.1602V22H84.7235V14.6035H86.5897L86.6444 15.4854C87.0409 14.8063 87.59 14.4668 88.2919 14.4668C88.5106 14.4668 88.7157 14.4964 88.9071 14.5557L88.8798 16.4561Z" fill="white"/>
</svg>
