<svg width="43" height="42" viewBox="0 0 43 42" fill="none" xmlns="http://www.w3.org/2000/svg">
<ellipse cx="21.4975" cy="20.7904" rx="21.4975" ry="20.7531" fill="url(#paint0_linear_358_10279)"/>
<path d="M28.9187 18.6472C28.7955 18.4269 28.5542 18.3006 28.2563 18.3006H21.615C21.4817 18.3006 21.369 18.1865 21.369 18.0514V10.6594C21.369 10.032 20.9693 10.0001 20.8891 10.0001C20.5915 10.0001 20.4227 10.2847 20.3674 10.3781L13.1288 22.5991C12.9756 22.858 12.9581 23.1328 13.0814 23.3528C13.2046 23.5728 13.4459 23.6994 13.7438 23.6994H20.3851C20.5184 23.6994 20.6311 23.8135 20.6311 23.9486V31.3408C20.6311 31.9682 21.0308 32.0001 21.111 32.0001C21.4086 32.0001 21.5774 31.7156 21.6327 31.6219L28.8713 19.4009C29.0245 19.142 29.0417 18.8674 28.9187 18.6472Z" fill="#141414"/>
<defs>
<linearGradient id="paint0_linear_358_10279" x1="21.4975" y1="0.0372925" x2="21.4975" y2="41.5435" gradientUnits="userSpaceOnUse">
<stop stop-color="white"/>
<stop offset="1" stop-color="#807e7e"/>
</linearGradient>
</defs>
</svg>
