<svg width="29" height="28" viewBox="0 0 29 28" fill="none" xmlns="http://www.w3.org/2000/svg">
<ellipse cx="14.5" cy="14" rx="14.5" ry="14" fill="url(#paint0_linear_566_16356)"/>
<path fill-rule="evenodd" clip-rule="evenodd" d="M8.13434 19.7772C8.52287 19.7772 8.84924 19.4507 8.84924 19.0621V17.9585C10.1081 19.5751 12.0663 20.5543 14.1644 20.5543C17.5524 20.5543 20.4276 18.0207 20.8472 14.6477L20.8938 14.3058H19.464L19.4329 14.57C19.0444 17.1658 16.7909 19.1243 14.1644 19.1243C12.2994 19.1243 10.5588 18.114 9.59523 16.5285H11.3825C11.771 16.5285 12.0974 16.2021 12.0974 15.8135C12.0974 15.4249 11.771 15.0985 11.3825 15.0985H8.1188C7.77689 15.0985 7.41943 15.3161 7.41943 15.8135V19.0621C7.41943 19.4507 7.7458 19.7772 8.13434 19.7772ZM8.86479 13.311L8.89587 13.0467C9.2844 10.4509 11.5379 8.4924 14.1644 8.4924C16.0294 8.4924 17.77 9.50274 18.7336 11.0882H16.9619C16.5733 11.0882 16.247 11.4146 16.247 11.8032C16.247 12.1918 16.5733 12.5182 16.9619 12.5182H20.1945C20.4898 12.5027 20.9094 12.3162 20.9094 11.8032V8.55458C20.9094 8.16598 20.583 7.83956 20.1945 7.83956C19.8059 7.83956 19.4796 8.16598 19.4796 8.55458V9.65818C18.2207 8.04163 16.2625 7.06238 14.1644 7.06238C10.7764 7.06238 7.90122 9.59601 7.4816 12.969L7.43497 13.311H8.86479Z" fill="#141414"/>
<defs>
<linearGradient id="paint0_linear_566_16356" x1="14.5" y1="0" x2="14.5" y2="28" gradientUnits="userSpaceOnUse">
<stop stop-color="#FF5E18"/>
<stop offset="1" stop-color="#FF7C44"/>
</linearGradient>
</defs>
</svg>
