<svg width="29" height="28" viewBox="0 0 29 28" fill="none" xmlns="http://www.w3.org/2000/svg">
<ellipse cx="14.5" cy="14" rx="14.5" ry="14" fill="url(#paint0_linear_566_16359)"/>
<path d="M19.5057 12.5542C19.4226 12.4056 19.2598 12.3204 19.0589 12.3204H14.5793C14.4894 12.3204 14.4134 12.2434 14.4134 12.1523V7.16572C14.4134 6.74246 14.1438 6.72095 14.0897 6.72095C13.889 6.72095 13.7752 6.91291 13.7378 6.97594L8.85546 15.2202C8.7521 15.3948 8.74032 15.5802 8.82344 15.7287C8.90656 15.8771 9.06932 15.9625 9.27023 15.9625H13.7498C13.8397 15.9625 13.9157 16.0395 13.9157 16.1306V21.1173C13.9157 21.5406 14.1853 21.5621 14.2394 21.5621C14.4401 21.5621 14.554 21.3701 14.5913 21.3069L19.4737 13.0627C19.577 12.8881 19.5887 12.7028 19.5057 12.5542Z" fill="#141414"/>
<defs>
<linearGradient id="paint0_linear_566_16359" x1="14.5" y1="0" x2="14.5" y2="28" gradientUnits="userSpaceOnUse">
<stop stop-color="white"/>
<stop offset="1" stop-color="#807e7e"/>
</linearGradient>
</defs>
</svg>
