<svg width="248" height="300" viewBox="0 0 248 300" fill="none" xmlns="http://www.w3.org/2000/svg">
<path fill-rule="evenodd" clip-rule="evenodd" d="M107.152 267.965L73.8398 286.524C109.451 281.595 138.67 274.801 173.611 266.316L212.47 289.72C218.965 288.483 245.462 271.966 240.916 261.81C247.906 254.057 248.38 248.541 244.833 244.396H145.671L154.548 246.046C161.352 247.304 160.094 248.459 153.929 249.459L127.782 252.82C119.802 253.748 119.534 259.346 130.442 260.635C135.422 261.109 133.412 264.47 126.442 265.388L107.152 267.965Z" fill="url(#paint0_linear_693_20114)" stroke="black" stroke-width="1.03101" stroke-linecap="round" stroke-linejoin="round"/>
<path d="M218.437 27.4293C231.401 18.7179 240.556 9.64059 238.885 7.15461C237.215 4.66863 225.351 9.71536 212.387 18.4268C199.423 27.1382 190.268 36.2155 191.939 38.7014C193.609 41.1874 205.473 36.1407 218.437 27.4293Z" stroke="#585858" stroke-width="1.69086" stroke-miterlimit="10"/>
<path d="M52.5117 206.829V231.099L65.7499 244.419H147.499M52.5117 118.471V164.969V118.471Z" stroke="#FF5E18" stroke-width="1.03101" stroke-linecap="round" stroke-linejoin="round"/>
<path d="M9.92857 46.2998H22.1667L31.0953 52.7952V209.293L22.1667 215.778H9.92857L1 209.293V52.7952L9.92857 46.2998Z" stroke="#FF5E18" stroke-width="1.03101" stroke-miterlimit="10"/>
<path fill-rule="evenodd" clip-rule="evenodd" d="M14.4364 46.2998H22.169L31.0976 52.7952V209.293L22.169 215.778H14.4364L5.50781 209.293V52.7952L14.4364 46.2998Z" fill="url(#paint1_linear_693_20114)" stroke="#FF5E18" stroke-width="1.03101" stroke-linecap="round" stroke-linejoin="round"/>
<path d="M84.2513 217.942C77.4982 221.324 66.3323 222.612 64.9301 212.56C64.3424 208.436 61.1772 198.126 53.1766 206.126C46.4028 212.952 35.8452 210.385 33.1027 200.415C29.4632 187.084 23.6999 185.609 15.0703 187.537C25.4629 175.949 69.6109 161.978 83.6327 138.884" stroke="#807e7e" stroke-width="1.03101" stroke-linecap="round" stroke-linejoin="round"/>
<path fill-rule="evenodd" clip-rule="evenodd" d="M106.647 71.2074C124.339 77.177 144.795 75.0737 160.033 70.7331C171.178 73.8262 182.849 77.5378 192.757 88.3428C195.85 91.7039 197.552 101.169 198.108 106.004C198.304 107.798 198.469 109.623 198.665 111.468C200.212 126.934 200.212 125.294 189.386 142.234L192.994 142.564L200.861 150.183V163.999L190.613 179.113L179.952 187.145C183.808 195.96 185.21 205.796 187.334 215.168L191.118 225.839L197.644 246.243C199.581 253.398 202.216 260.346 205.511 266.986L208.14 272.451C209.802 275.574 211.069 278.892 211.914 282.328C212.677 287.483 213.852 294.504 207.491 296.855C201.872 298.917 194.644 300.329 189.128 297.164C183.839 294.174 183.282 292.69 181.653 282.947C180.705 282.379 179.756 281.854 178.797 281.297C173.9 278.853 174.014 277.956 173.312 272.193C173.117 270.595 173.034 269.286 173.818 268.523C173.003 265.058 174.849 263.1 174.127 259.481C173.272 255.568 172.025 251.751 170.405 248.088C168.168 242.685 165.786 237.365 163.404 232.025L159.177 222.478C149.542 210.515 141.344 197.462 134.753 183.588L134.082 182.557C129.463 193.558 124.504 204.445 114.493 216.962L111.668 226.901L109.369 250.975C108.946 255.233 109.008 253.831 110.348 257.532C111.441 260.625 111.441 263.46 111.606 266.966C112.483 268.42 112.421 268.11 112.421 269.791V273.791C110.07 277.513 103.049 278.523 99.6878 278.864C92.1511 279.616 89.7488 280.988 83.2534 283.73C73.6444 287.854 62.8394 288.462 56.7151 283.565V278.946C56.7151 276.956 56.5708 277.431 57.973 276.008C60.3546 269.822 65.4788 268.863 72.6649 266.234C75.9499 262.042 79.5151 258.077 83.3359 254.367L85.5732 225.87C82.5524 217.972 84.8206 210.776 89.5529 206.693L90.4499 195.156L89.0787 194.877C85.2639 194.094 83.4184 194.063 83.9236 189.001L85.8825 174.133C86.2537 171.329 87.3156 170.937 89.8932 170.937H92.8831L96.2133 155.039C94.1512 154.482 94.9039 146.791 96.3267 146.049C97.0793 139.698 97.3577 136.563 99.4197 130.491L97.7392 129.707L95.172 130.408C91.3572 132.367 84.6969 133.089 78.284 132.14C56.8698 128.944 63.6745 103.808 75.624 92.4978C72.6031 81.5278 75.8198 71.5579 65.3757 64.114C63.3137 62.2891 64.5406 57.9795 67.149 59.8559L93.3161 78.5585C96.2854 75.5273 101.018 72.1147 106.647 71.2074Z" fill="url(#paint2_linear_693_20114)"/>
<path fill-rule="evenodd" clip-rule="evenodd" d="M99.4466 130.43C97.4568 136.224 97.0959 139.359 96.4258 145.184C98.0754 141.988 100.488 138.348 103.457 136.162C102.921 135.771 102.426 135.379 101.859 135.018C101.542 134.834 101.275 134.575 101.079 134.266C100.883 133.956 100.765 133.603 100.735 133.238C100.705 132.872 100.763 132.505 100.905 132.167C101.047 131.829 101.268 131.53 101.55 131.296L101.859 131.1C100.45 130.72 99.0715 130.234 97.7352 129.646L99.4466 130.43Z" fill="white"/>
<path fill-rule="evenodd" clip-rule="evenodd" d="M181.56 119.448C173.415 118.252 170.899 127.624 164.517 136.14L159.362 130.985L163.569 124.356L167.693 119.85L156.867 101.106L158.929 83.043L167.28 79.1045C162.857 88.2702 171.765 106.993 181.56 119.448Z" fill="#FF5E18"/>
<path fill-rule="evenodd" clip-rule="evenodd" d="M171.571 75.559C166.581 77.2396 157.137 79.9202 151.136 81.2915L143.074 86.8074L144.692 86.7558L145.342 85.4361H151.889L152.92 86.7765L155.518 86.828L156.332 92.0347L154.868 104.005L143.527 103.407L141.197 103.304L140.3 100.211V100.066L142.362 87.2713C137.207 90.8799 133.238 95.705 129.402 100.427L135.588 105.747C140.25 105.341 144.946 105.732 149.476 106.902C152.441 107.71 155.269 108.954 157.869 110.593C161.668 113.072 165.018 116.178 167.777 119.779C165.741 116.323 164.098 112.651 162.879 108.83C162.012 106.085 161.368 103.275 160.951 100.427C159.92 93.3234 160.725 86.5703 164.044 82.1782C164.488 80.6626 167.653 76.8066 177.561 76.7756C178.654 76.9303 173.427 75.4766 171.571 75.559Z" fill="white"/>
<path d="M97.457 218.808C103.561 218.808 102.89 214.303 103.705 208.673C104.624 201.229 106.159 193.873 108.293 186.682C110.675 178.949 113.531 171.474 116.304 163.639C116.778 161.577 117.222 159.463 117.706 157.37" stroke="black" stroke-width="1.03101" stroke-linecap="round" stroke-linejoin="round"/>
<path d="M116.716 214.127C112.324 209.735 107.983 206.652 112.097 197.363C115.402 189.904 119.151 182.65 123.325 175.64" stroke="black" stroke-width="1.03101" stroke-linecap="round" stroke-linejoin="round"/>
<path d="M132.184 157.864C136.308 172.814 140.978 179.753 148.422 192.991C149.938 195.826 151.422 198.651 152.928 201.476C155.165 205.703 157.217 209.724 159.176 213.848C162.423 220.57 162.423 223.066 168.042 223.127" stroke="black" stroke-width="1.03101" stroke-linecap="round" stroke-linejoin="round"/>
<path d="M161.18 194.476C165.046 200.662 167.149 206.26 169.892 213.374" stroke="black" stroke-width="1.03101" stroke-linecap="round" stroke-linejoin="round"/>
<path d="M175.77 189.661C178.677 198.507 179.461 206.518 185.368 205.93" stroke="black" stroke-width="1.03101" stroke-linecap="round" stroke-linejoin="round"/>
<path d="M181.371 230.87C182.268 233.025 183.165 235.211 184.093 237.365" stroke="black" stroke-width="1.03101" stroke-linecap="round" stroke-linejoin="round"/>
<path d="M89.314 227.457C89.2006 229.303 88.9531 231.911 88.9531 233.757" stroke="black" stroke-width="1.03101" stroke-linecap="round" stroke-linejoin="round"/>
<path d="M100.996 234.963C102.336 228.684 102.285 223.787 112.337 224.539" stroke="black" stroke-width="1.03101" stroke-linecap="round" stroke-linejoin="round"/>
<path d="M162.16 229.158C168.46 229.158 169.532 234.901 171.604 240.499" stroke="black" stroke-width="1.03101" stroke-linecap="round" stroke-linejoin="round"/>
<path d="M104.051 174.041C106.169 168.405 107.716 162.571 108.67 156.627" stroke="black" stroke-width="1.03101" stroke-linecap="round" stroke-linejoin="round"/>
<path d="M106.991 164.688C102.454 164.132 102.062 163.657 99.4023 171.967" stroke="black" stroke-width="1.03101" stroke-linecap="round" stroke-linejoin="round"/>
<path d="M114.152 169.73L118.276 170.823" stroke="black" stroke-width="1.03101" stroke-linecap="round" stroke-linejoin="round"/>
<path d="M136.4 170.185C134.338 170.442 132.905 170.69 130.895 170.917" stroke="black" stroke-width="1.03101" stroke-linecap="round" stroke-linejoin="round"/>
<path d="M146.623 171.721C145.788 170.514 144.942 169.339 144.107 168.164C143.829 167.04 143.54 165.926 143.262 164.771" stroke="black" stroke-width="1.03101" stroke-linecap="round" stroke-linejoin="round"/>
<path d="M169.387 141.008C177.202 132.503 179.181 126.574 187.893 130.904" stroke="black" stroke-width="1.03101" stroke-linecap="round" stroke-linejoin="round"/>
<path d="M180.641 141.904C191.105 125.532 192.951 126.924 191.136 107.809" stroke="black" stroke-width="1.03101" stroke-linecap="round" stroke-linejoin="round"/>
<path d="M162.773 108.87C164.289 108.427 165.774 108.004 167.279 107.55C168.038 107.291 168.867 107.329 169.6 107.656C170.332 107.983 170.914 108.575 171.228 109.313C171.455 109.736 171.702 110.19 171.929 110.633C173.64 113.726 176.692 114.355 178.228 110.777C179.548 107.777 180.837 104.756 182.146 101.756" stroke="black" stroke-width="1.03101" stroke-linecap="round" stroke-linejoin="round"/>
<path d="M178.578 97.7246C176.135 104.086 175.485 102.519 179.609 107.664" stroke="black" stroke-width="1.03101" stroke-linecap="round" stroke-linejoin="round"/>
<path d="M176.412 94.3646C173.908 94.1717 171.391 94.2582 168.906 94.6224C167.143 94.8698 166.473 95.2616 166.556 97.169C166.751 100.582 166.246 99.7156 162.638 100.262L160.844 100.51" stroke="black" stroke-width="1.03101" stroke-linecap="round" stroke-linejoin="round"/>
<path d="M163.898 82.2197C168.878 82.3847 173.105 83.4776 176.714 86.9521" stroke="black" stroke-width="1.03101" stroke-linecap="round" stroke-linejoin="round"/>
<path d="M174.816 77.0645C175.993 77.7985 177.082 78.6631 178.064 79.642" stroke="black" stroke-width="1.03101" stroke-linecap="round" stroke-linejoin="round"/>
<path d="M149.374 106.943C148.982 110.16 148.591 113.325 148.168 116.542" stroke="black" stroke-width="1.03101" stroke-linecap="round" stroke-linejoin="round"/>
<path d="M157.768 110.582C156.67 114.084 156.131 117.738 156.17 121.408C157.201 121.521 159.088 121.408 160.005 121.779C159.952 124.531 160.038 127.284 160.263 130.027" stroke="black" stroke-width="1.03101" stroke-linecap="round" stroke-linejoin="round"/>
<path d="M137.136 83.8154C135.29 87.2015 134.058 90.8875 133.496 94.7029" stroke="black" stroke-width="1.03101" stroke-linecap="round" stroke-linejoin="round"/>
<path d="M110.707 147.728C110.79 145.46 110.315 138.449 116.697 138.449H120.584" stroke="black" stroke-width="1.03101" stroke-linecap="round" stroke-linejoin="round"/>
<path d="M71.3517 97.3955C69.2897 102.798 68.3308 106.912 70.032 108.623C70.8465 109.262 71.063 109.458 71.8775 110.098C74.9706 112.562 77.1769 112.366 79.8369 109.345C80.8791 108.131 82.1785 107.164 83.6408 106.515C85.1032 105.866 86.6918 105.551 88.2912 105.592" stroke="black" stroke-width="1.03101" stroke-linecap="round" stroke-linejoin="round"/>
<path d="M70.8203 100.642C75.3774 101.539 74.5629 101.447 78.0374 98.0029" stroke="black" stroke-width="1.03101" stroke-linecap="round" stroke-linejoin="round"/>
<path d="M65.6371 108.984C65.3587 114.325 68.7301 118.944 74.2873 122.841C76.8957 124.687 77.5968 123.872 78.3495 121.326C78.7103 120.13 79.0506 118.944 79.3805 117.748C81.061 118.47 82.7416 119.171 84.3912 119.903" stroke="black" stroke-width="1.03101" stroke-linecap="round" stroke-linejoin="round"/>
<path d="M93.6274 110.665C85.8742 112.511 83.3173 121.635 85.5649 126.759" stroke="black" stroke-width="1.03101" stroke-linecap="round" stroke-linejoin="round"/>
<path d="M64.4297 117.047C68.4094 125.584 72.4922 123.872 74.3996 131.151" stroke="black" stroke-width="1.03101" stroke-linecap="round" stroke-linejoin="round"/>
<path d="M85.5741 128.161C86.3485 128.161 86.9762 127.533 86.9762 126.759C86.9762 125.984 86.3485 125.356 85.5741 125.356C84.7997 125.356 84.1719 125.984 84.1719 126.759C84.1719 127.533 84.7997 128.161 85.5741 128.161Z" fill="black" stroke="black" stroke-width="0.226823" stroke-miterlimit="10"/>
<path d="M191.14 109.21C191.915 109.21 192.543 108.582 192.543 107.807C192.543 107.033 191.915 106.405 191.14 106.405C190.366 106.405 189.738 107.033 189.738 107.807C189.738 108.582 190.366 109.21 191.14 109.21Z" fill="black" stroke="black" stroke-width="0.226823" stroke-miterlimit="10"/>
<path d="M103.203 212.93C104.908 213.058 106.581 213.455 108.162 214.105" stroke="black" stroke-width="1.03101" stroke-linecap="round" stroke-linejoin="round"/>
<path d="M108.164 215.508C108.938 215.508 109.566 214.881 109.566 214.106C109.566 213.332 108.938 212.704 108.164 212.704C107.389 212.704 106.762 213.332 106.762 214.106C106.762 214.881 107.389 215.508 108.164 215.508Z" fill="#FF5E18" stroke="black" stroke-width="0.226823" stroke-miterlimit="10"/>
<path d="M118.297 172.227C119.071 172.227 119.699 171.599 119.699 170.825C119.699 170.051 119.071 169.423 118.297 169.423C117.522 169.423 116.895 170.051 116.895 170.825C116.895 171.599 117.522 172.227 118.297 172.227Z" fill="black" stroke="black" stroke-width="0.226823" stroke-miterlimit="10"/>
<path d="M130.898 172.309C131.673 172.309 132.3 171.681 132.3 170.907C132.3 170.133 131.673 169.505 130.898 169.505C130.124 169.505 129.496 170.133 129.496 170.907C129.496 171.681 130.124 172.309 130.898 172.309Z" fill="black" stroke="black" stroke-width="0.226823" stroke-miterlimit="10"/>
<path d="M91.8398 206.828L93.3554 195.538" stroke="black" stroke-width="1.03101" stroke-linecap="round" stroke-linejoin="round"/>
<path fill-rule="evenodd" clip-rule="evenodd" d="M142.985 123.43L127.778 141.906C126.747 143.225 126.097 144.792 127.664 146.133L130.489 148.958L132.232 150.7L133.098 151.587C133.164 150.423 133.481 149.287 134.026 148.257C135.675 145.885 139.397 147.669 139.284 151.566C141.078 150.112 142.985 151.679 143.851 153.948C144.241 154.962 144.382 156.054 144.264 157.134C145.614 154.896 147.934 155.793 149.027 157.979C149.387 158.719 149.587 159.527 149.615 160.35C149.63 160.642 149.63 160.935 149.615 161.227C149.615 161.618 149.481 162.031 149.398 162.454L148.976 164.691C148.929 165.12 148.97 165.554 149.096 165.967C149.222 166.38 149.43 166.763 149.708 167.093L148.677 168.794L159.224 154.041L168.637 148.277L173.617 145.184L169.39 140.957L159.677 131.245L150.914 122.481L149.883 121.945C147.213 120.409 144.913 121.11 142.985 123.43Z" fill="black"/>
<path fill-rule="evenodd" clip-rule="evenodd" d="M65.4072 64.0525C75.8513 71.4964 72.6243 81.4663 75.6554 92.4363C76.2118 94.3801 77.0011 96.2494 78.0061 98.0037C79.0806 99.8393 80.4023 101.518 81.9343 102.994C84.2948 103.111 86.5454 104.027 88.3163 105.592C90.1838 107.178 91.9568 108.871 93.626 110.665C94.5007 111.552 95.4379 112.375 96.4303 113.129L101.194 116.036C105.245 116.49 108.132 116.686 110.988 117.16L113.05 114.191C112.432 112.459 112.772 110.067 114.813 107.778L121.536 100.22C120.855 99.7462 120.185 99.1894 119.473 98.7049C117.068 96.8559 114.521 94.8695 111.834 92.7456C111.834 92.7456 111.772 92.7456 111.772 92.694L105.38 87.7039C101.627 84.7655 97.6263 81.6828 93.3373 78.5485L67.232 59.7944C64.572 57.918 63.3451 62.2276 65.4072 64.0525Z" fill="url(#paint3_linear_693_20114)"/>
<path fill-rule="evenodd" clip-rule="evenodd" d="M166.773 239.634C167.423 241.119 168.124 242.727 168.835 244.367C169.485 245.872 170.155 247.46 170.794 249.037C175.949 252.13 177.465 261.718 178.888 269.472C179.228 271.183 179.537 272.812 179.867 274.266C180.517 275.493 181.074 276.843 181.692 278.297C182.496 280.194 183.373 282.102 184.29 283.834C187.621 290.082 190.146 291.876 197.694 291.453C201.921 291.205 206.447 289.999 208.777 287.504C209.28 286.944 209.679 286.298 209.952 285.597C210.787 283.442 210.591 280.761 210.375 277.565C209.983 276.648 209.591 275.699 209.2 274.854C209.004 274.379 208.777 273.926 208.581 273.451C208.531 273.375 208.492 273.292 208.468 273.204L205.952 268.049L205.447 267.018C202.152 260.378 199.517 253.429 197.58 246.274L196.992 244.428L192.487 230.345C192.291 233.005 188.59 235.551 184.033 237.428C180.05 239.08 175.841 240.123 171.547 240.521C169.299 240.614 167.536 240.366 166.773 239.634Z" fill="url(#paint4_linear_693_20114)"/>
<path fill-rule="evenodd" clip-rule="evenodd" d="M85.0705 232.603L84.1426 244.366L83.359 254.305C79.5382 258.016 75.973 261.98 72.688 266.172C65.4709 268.801 60.3777 269.76 57.9961 275.946C60.6252 279.039 65.275 279.472 69.894 279.246C75.7192 278.936 78.8535 278.122 82.2661 276.616C86.2149 274.853 88.71 273.761 90.9163 273.008C97.3292 260.966 99.4634 246.965 109.846 246.325L110.042 244.366L111.021 234.283C107.713 234.758 104.373 234.986 101.031 234.964C96.9849 234.993 92.9478 234.588 88.9883 233.757C87.6566 233.466 86.3473 233.08 85.0705 232.603Z" fill="url(#paint5_linear_693_20114)"/>
<path fill-rule="evenodd" clip-rule="evenodd" d="M109.815 246.325C99.4325 246.964 97.2983 260.966 90.8854 273.008C88.679 273.76 86.184 274.853 82.2352 276.616C78.8535 278.122 75.7192 278.936 69.863 279.245C65.2441 279.472 60.5839 278.998 57.9652 275.946C56.563 277.369 56.7073 276.895 56.7073 278.885V283.504C60.8314 286.834 67.1721 287.628 73.8118 286.493C77.0567 285.927 80.2232 284.978 83.2456 283.669C89.741 280.926 92.1432 279.544 99.68 278.802C103.041 278.462 110.062 277.451 112.413 273.73V269.729C112.413 268.245 112.475 268.296 111.856 267.317C111.76 267.186 111.674 267.048 111.598 266.904C111.433 263.399 111.433 260.543 110.341 257.47C109 253.769 108.938 255.171 109.361 250.913L109.815 246.325Z" fill="url(#paint6_linear_693_20114)"/>
<path d="M200.015 253.831C201.555 258.321 203.387 262.705 205.5 266.956L208.129 272.42C209.79 275.544 211.058 278.862 211.902 282.297C212.249 284.201 212.456 286.127 212.521 288.061M201.386 298.536C197.179 299.319 192.756 299.237 189.117 297.134C183.828 294.144 183.271 292.659 181.642 282.916C180.693 282.349 179.745 281.823 178.786 281.266C173.889 278.823 174.002 277.926 173.301 272.162C173.105 270.564 173.023 269.255 173.806 268.492C172.992 265.028 174.837 263.069 174.116 259.45C173.26 255.537 172.013 251.72 170.394 248.057C168.156 242.655 165.775 237.335 163.393 231.994L159.166 222.447C149.536 210.493 141.342 197.451 134.751 183.588L134.081 182.557M99.7073 278.864C92.1706 279.617 89.7683 280.988 83.2729 283.73C73.6639 287.855 62.8589 288.463 56.7347 283.565V278.947C56.7347 276.957 56.5903 277.431 57.9925 276.008C60.3742 269.822 65.4983 268.863 72.6845 266.234C75.9694 262.042 79.5346 258.077 83.3554 254.367L85.5927 225.87C82.5719 217.972 84.8401 210.776 89.5725 206.693L90.4694 195.156L89.0982 194.878C85.2834 194.094 83.4379 194.063 83.9431 189.001L85.902 174.134C86.2732 171.329 87.3351 170.938 89.9127 170.938H92.9026L96.2328 155.039C94.1708 154.483 94.9234 146.791 96.3462 146.049C97.0988 139.698 97.3772 136.564 99.4392 130.491L97.7587 129.707L95.1915 130.409C93.5306 131.199 91.7679 131.754 89.9539 132.058M72.1792 130.295C65.1787 126.852 63.4672 119.686 64.8694 112.149M68.2614 66.4548C67.3891 65.5718 66.4403 64.7679 65.4261 64.0525C63.3641 62.2276 64.591 57.918 67.1995 59.7944L93.3666 78.497C96.305 75.5277 101.037 72.115 106.667 71.1871C124.359 77.1567 144.814 75.0534 160.052 70.7128C171.198 73.8059 182.869 77.5175 192.777 88.3225M185.611 207.106C186.199 209.827 186.735 212.539 187.343 215.199M70.3028 98.9935C71.8238 96.6277 73.6162 94.4477 75.6435 92.4981C74.8233 89.1916 74.2818 85.8222 74.0248 82.4252L70.3028 98.9935ZM189.395 142.214L193.004 142.544L200.87 150.163V163.999L190.622 179.114L179.961 187.145C180.877 189.287 181.679 191.476 182.364 193.702L189.395 142.214Z" stroke="white" stroke-width="1.03101" stroke-linecap="round" stroke-linejoin="round"/>
<path fill-rule="evenodd" clip-rule="evenodd" d="M185.951 82.1365C188.402 83.9889 190.679 86.0594 192.756 88.3226C193.676 89.4201 194.398 90.669 194.89 92.0136L195.138 97.3336L190.766 102.798L182.147 101.767L176.466 95.385L176.074 87.7452L181.229 81.6416L185.951 82.1365Z" fill="white" stroke="black" stroke-width="1.03101" stroke-linecap="round" stroke-linejoin="round"/>
<path fill-rule="evenodd" clip-rule="evenodd" d="M132.232 150.699L133.098 151.586C133.164 150.422 133.481 149.286 134.026 148.256C135.675 145.884 139.397 147.668 139.284 151.565C141.078 150.112 142.985 151.679 143.851 153.947C144.241 154.961 144.382 156.053 144.264 157.133C145.614 154.895 147.934 155.792 149.027 157.978C149.509 158.988 149.702 160.113 149.584 161.226C149.367 163.236 148.13 165.278 149.697 167.103L148.666 168.804L159.214 154.05L167.338 149.07L141.697 124.996L127.778 141.905C126.747 143.224 126.097 144.792 127.664 146.132L130.489 148.957L132.232 150.699Z" fill="black"/>
<path d="M74.4453 105.283C86.0133 98.5398 89.9105 108.252 96.4781 113.129C88.8898 116.82 88.1372 126.841 95.2511 130.347" stroke="white" stroke-width="1.03101" stroke-linecap="round" stroke-linejoin="round"/>
<path fill-rule="evenodd" clip-rule="evenodd" d="M89.5738 206.632C87.9553 208.055 86.6475 209.797 85.7321 211.748C84.8168 213.699 84.3135 215.818 84.2538 217.973C84.1619 220.659 84.6179 223.336 85.5941 225.84C86.455 226.559 87.4717 227.067 88.5634 227.324C88.8083 227.404 89.0604 227.459 89.316 227.489C90.1974 227.744 91.131 227.755 92.0184 227.523C92.9058 227.291 93.714 226.823 94.3577 226.17C96.0692 224.489 97.0486 221.716 97.4507 218.839C97.8691 216.176 97.8412 213.462 97.3682 210.807C97.0074 209.127 96.1929 208.281 93.7906 207.415C93.1523 207.182 92.4975 206.996 91.8317 206.859L89.5738 206.632Z" fill="white"/>
<path d="M167.671 119.82C157.567 103.014 155.578 74.5171 178.146 77.2596" stroke="white" stroke-width="1.03101" stroke-linecap="round" stroke-linejoin="round"/>
<path d="M178.621 88.3535L179.013 94.055L183.436 98.9317L190.107 100.025L193.664 95.9933V89.5289" stroke="black" stroke-width="1.03101" stroke-linecap="round" stroke-linejoin="round"/>
<path fill-rule="evenodd" clip-rule="evenodd" d="M85.542 176.505L83.913 188.939C83.4387 194.002 85.2842 194.033 89.068 194.816L90.4393 195.094V195.146C91.4703 195.239 92.4498 195.435 93.3158 195.538L93.9654 195.631L97.213 196.043C99.6978 196.466 101.337 195.847 102.11 193.136C102.533 191.651 102.863 190.28 103.141 188.939C102.915 188.877 102.667 188.795 102.42 188.743C99.8937 188.063 101.626 182.495 103.564 183.052C103.791 183.114 104.038 183.197 104.265 183.248C104.544 181.681 104.822 180.031 105.162 178.217C105.283 177.724 105.284 177.21 105.165 176.717C105.047 176.224 104.813 175.766 104.482 175.381C102.934 174.005 101.198 172.856 99.3266 171.969C97.9245 171.33 95.7181 171.185 92.8003 170.876H89.9135C87.3359 170.876 86.274 171.268 85.9028 174.072L85.542 176.505Z" fill="white"/>
<path d="M190.109 100.024L190.78 102.798" stroke="white" stroke-width="1.03101" stroke-miterlimit="10"/>
<path d="M183.433 98.9307L182.145 101.756" stroke="black" stroke-width="1.03101" stroke-miterlimit="10"/>
<path d="M176.469 95.3748L179.015 94.0654" stroke="black" stroke-width="1.03101" stroke-miterlimit="10"/>
<path fill-rule="evenodd" clip-rule="evenodd" d="M133.136 17.3574C152.282 17.3574 167.788 31.9978 167.788 50.0818C167.773 57.6649 165.019 64.9874 160.035 70.7021C144.755 75.0426 124.341 77.1459 106.649 71.1763C101.434 65.3808 98.5342 57.8681 98.5039 50.0715C98.5039 32.0288 114.01 17.3574 133.136 17.3574Z" fill="url(#paint7_linear_693_20114)" stroke="black" stroke-width="1.03101" stroke-linecap="round" stroke-linejoin="round"/>
<path fill-rule="evenodd" clip-rule="evenodd" d="M191.55 227.179C223.584 203.713 231.76 167.999 222.821 130.563C221.767 126.213 220.364 121.954 218.625 117.83C208.242 93.4156 190.715 71.3313 163.62 65.6504C163.28 66.2587 162.661 67.2382 161.94 68.3104C167.311 71.6406 129.628 80.5382 123.194 80.2599C114.43 79.899 109.894 75.5894 103.089 72.1149L106.873 71.2694C105.5 69.7266 104.236 68.0902 103.089 66.3721C96.2847 67.5268 93.934 72.5067 95.5011 76.1771C99.3983 85.2706 124.029 85.1572 136.515 83.8684C137.69 83.755 138.752 83.621 139.68 83.5075C149.362 81.9431 158.902 79.6021 168.208 76.507C172.332 75.1048 173.466 74.9708 177.25 76.8163C182.363 79.2718 187.029 82.5649 191.055 86.5594C192.779 88.3112 194.282 90.2675 195.53 92.3846C199.436 98.2083 202.791 104.383 205.551 110.829C222.264 149.101 215.573 176.165 193.375 199.435C206.417 190.671 207.15 214.714 191.55 227.179Z" fill="url(#paint8_linear_693_20114)" stroke="black" stroke-width="1.03101" stroke-linecap="round" stroke-linejoin="round"/>
<path d="M75.6602 92.4365C76.7693 96.4548 78.9378 100.101 81.939 102.994" stroke="white" stroke-width="1.03101" stroke-miterlimit="10"/>
<path fill-rule="evenodd" clip-rule="evenodd" d="M110.09 118.417L115.967 129.335L118.493 131.882C120.812 134.202 121.204 135.068 120.761 137.594C119.977 141.903 118.493 141.481 121.74 144.728L122.771 145.759C123.428 146.371 124.273 146.742 125.167 146.813C126.062 146.884 126.954 146.651 127.7 146.151C126.132 144.811 126.751 143.244 127.813 141.924L143.02 123.448C144.948 121.128 147.248 120.427 149.877 122.015L150.908 122.551C151.547 121.231 152.114 120.231 150.454 118.52L127.865 99.3121C125.741 97.8068 122.833 98.8688 121.544 100.24L114.822 107.797C112.76 110.066 112.441 112.478 113.059 114.21L110.09 118.417ZM125.235 124.747L126.462 125.778C126.908 126.183 127.178 126.746 127.214 127.347C127.251 127.948 127.051 128.539 126.658 128.995L124.895 130.985C124.488 131.426 123.925 131.692 123.326 131.729C122.727 131.765 122.137 131.569 121.678 131.181L120.472 130.088C120.248 129.892 120.064 129.654 119.932 129.386C119.801 129.119 119.724 128.828 119.705 128.531C119.687 128.233 119.728 127.935 119.826 127.654C119.924 127.373 120.077 127.113 120.276 126.892L122.039 124.912C122.236 124.687 122.475 124.504 122.744 124.374C123.012 124.243 123.304 124.168 123.602 124.152C123.901 124.137 124.199 124.182 124.479 124.284C124.76 124.386 125.017 124.544 125.235 124.747Z" fill="#FF5E18" stroke="black" stroke-width="1.03101" stroke-linecap="round" stroke-linejoin="round"/>
<path fill-rule="evenodd" clip-rule="evenodd" d="M145.5 173.205L145.418 184.227L153.594 193.836L152.924 181.124L166.471 161.699L186.679 148.904L200.845 150.162L193.092 142.44H189.597L179.184 141.821L159.223 154.049L145.5 173.205Z" fill="#807e7e" stroke="white" stroke-width="1.03101" stroke-linejoin="round"/>
<path d="M150.906 122.532L173.609 145.235" stroke="white" stroke-width="1.03101" stroke-miterlimit="10"/>
<path d="M127.684 146.132L133.107 151.586" stroke="white" stroke-width="1.03101" stroke-miterlimit="10"/>
<path d="M135.488 105.788C150.067 104.757 159.532 109.603 167.677 119.82" stroke="black" stroke-width="1.03101" stroke-linecap="round" stroke-linejoin="round"/>
<path d="M129.27 100.468C133.105 95.7462 137.105 90.921 142.229 87.3125" stroke="black" stroke-width="1.03101" stroke-linecap="round" stroke-linejoin="round"/>
<path d="M96.4258 145.182C98.0754 141.986 100.488 138.347 103.457 136.161" stroke="black" stroke-width="1.03101" stroke-linecap="round" stroke-linejoin="round"/>
<path fill-rule="evenodd" clip-rule="evenodd" d="M140.215 100.108L141.143 103.304L154.824 104.005L156.309 92.0141L155.494 86.8075L152.896 86.7559L151.886 85.4053L145.339 85.4362L144.7 86.7559L142.318 86.8384L140.215 100.108Z" fill="white" stroke="black" stroke-width="1.03101" stroke-linecap="round" stroke-linejoin="round"/>
<path d="M140.242 100.252L153.089 100.726L154.037 92.1895" stroke="black" stroke-width="1.03101" stroke-linecap="round" stroke-linejoin="round"/>
<path d="M144.702 86.7559L143.547 95.736L151.558 96.0453L152.31 89.6633" stroke="black" stroke-width="1.03101" stroke-linecap="round" stroke-linejoin="round"/>
<path d="M143.07 86.8069L151.133 81.291" stroke="black" stroke-width="1.03101" stroke-linecap="round" stroke-linejoin="round"/>
<path d="M96.2031 154.978C108.786 156.966 121.509 157.938 134.248 157.885" stroke="white" stroke-width="1.03101" stroke-miterlimit="10"/>
<path d="M124.535 140.286L140 121.47C142.516 118.377 146.073 116.428 149.96 118.14" stroke="black" stroke-width="1.03101" stroke-miterlimit="10"/>
<path fill-rule="evenodd" clip-rule="evenodd" d="M104.35 129.388C103.422 130.006 102.505 130.646 101.577 131.295C101.295 131.529 101.073 131.828 100.931 132.166C100.79 132.504 100.731 132.871 100.762 133.237C100.792 133.602 100.91 133.955 101.106 134.264C101.302 134.574 101.569 134.833 101.886 135.017C103.453 136.048 105.154 137.481 106.783 138.461C107.463 137.358 107.876 136.112 107.99 134.821C108.577 133.955 109.134 133.058 109.722 132.192L104.35 129.388Z" fill="black" stroke="white" stroke-width="1.03101" stroke-linecap="round" stroke-linejoin="round"/>
<path fill-rule="evenodd" clip-rule="evenodd" d="M130.635 120.933L135.398 115.479L121.314 103.241L116.582 108.334L130.635 120.933Z" fill="white"/>
<path d="M141.703 124.996L167.344 149.07" stroke="white" stroke-width="1.03101" stroke-miterlimit="10"/>
<path d="M113.062 114.19L114.269 115.5" stroke="black" stroke-width="1.03101" stroke-linecap="round" stroke-linejoin="round"/>
<path fill-rule="evenodd" clip-rule="evenodd" d="M112.949 50.5871C111.382 52.9688 109.784 55.3195 108.217 57.7011C108.361 60.0209 108.495 62.3716 108.609 64.7223C120.589 66.2379 133.353 66.073 136.992 65.2275V57.7218C130.476 57.9486 123.981 58.3404 117.145 57.5568C118.826 55.2061 120.96 52.3192 122.641 49.9685C120.455 47.257 118.352 44.8134 116.166 42.1019C123.225 41.2348 130.335 40.8627 137.446 40.9884L137.776 33.627C128.208 33.6785 117.712 34.1012 108.021 36.3076L107.402 43.8649C109.341 46.0816 111.021 48.3189 112.949 50.5871Z" fill="white" stroke="#FF5E18" stroke-width="1.03101" stroke-linecap="round" stroke-linejoin="round"/>
<path fill-rule="evenodd" clip-rule="evenodd" d="M119.981 84.4352V79.8163C111.836 79.3111 108.279 82.4144 105.371 87.652L111.866 92.7452C118.125 90.6213 119.496 87.2602 119.981 84.4352Z" fill="#FF5E18" stroke="black" stroke-width="1.03101" stroke-miterlimit="10"/>
<path fill-rule="evenodd" clip-rule="evenodd" d="M125.271 79.8994C123.702 79.1276 121.894 78.9946 120.229 79.5283C119.25 80.6211 119.136 82.6213 119.806 84.4359C120.982 85.6628 124.229 85.2195 125.188 84.4874C124.876 82.9709 124.904 81.4038 125.271 79.8994Z" fill="#FF5E18" stroke="black" stroke-width="1.03101" stroke-linecap="round" stroke-linejoin="round"/>
<path fill-rule="evenodd" clip-rule="evenodd" d="M125.179 84.4874C124.727 82.987 124.756 81.3826 125.262 79.8994C129.314 82.2501 131.108 83.7864 130.128 90.0343C128.283 101.736 109.663 98.7051 125.179 84.4874Z" fill="#FF5E18" stroke="black" stroke-width="1.03101" stroke-linecap="round" stroke-linejoin="round"/>
<path d="M124.97 82.1885C127.29 85.8898 126.228 89.4674 124.383 92.1275" stroke="black" stroke-width="1.03101" stroke-linecap="round" stroke-linejoin="round"/>
<path d="M119.416 82.7549C116.694 83.2112 114.176 84.4882 112.199 86.415" stroke="black" stroke-width="1.03101" stroke-linecap="round" stroke-linejoin="round"/>
<path d="M134.084 182.496C132.958 180.558 131.227 179.044 129.156 178.187" stroke="white" stroke-width="1.03101" stroke-linecap="round" stroke-linejoin="round"/>
<path d="M92.8788 170.876C99.3226 171.577 102.158 171.33 101.003 177.846C100.715 179.413 99.3433 185.516 98.4566 189.465M97.7246 192.558C97.5609 193.167 97.3364 193.757 97.0544 194.321C95.7657 196.507 93.415 195.352 90.4766 195.156" stroke="black" stroke-width="1.03101" stroke-linecap="round" stroke-linejoin="round"/>
<path d="M99.3986 171.968C101.27 172.855 103.006 174.004 104.554 175.38C104.885 175.765 105.119 176.222 105.237 176.716C105.356 177.209 105.355 177.723 105.234 178.216C104.472 183.241 103.44 188.221 102.141 193.134C101.358 195.846 99.7285 196.465 97.2438 196.042L93.9961 195.63" stroke="black" stroke-width="1.03101" stroke-miterlimit="10"/>
<path fill-rule="evenodd" clip-rule="evenodd" d="M103.625 183.052C113.306 185.805 121.43 188.093 129.709 192.403L127.338 197.218C119.266 193.801 110.959 190.969 102.48 188.743C99.9544 188.062 101.686 182.495 103.625 183.052Z" fill="white" stroke="black" stroke-width="1.03101" stroke-miterlimit="10"/>
<path d="M87.1406 180.144C87.5324 181.01 87.8933 181.876 88.2541 182.721C89.2851 185.185 88.7284 184.845 91.3472 185.103C93.9659 185.36 93.4092 185.268 95.3166 183.278C97.2239 181.288 99.1313 179.329 101.028 177.37" stroke="#25211A" stroke-width="1.03101" stroke-linecap="round" stroke-linejoin="round"/>
<path d="M85.5977 225.859C86.4586 226.578 87.4753 227.087 88.567 227.344C91.1961 228.014 92.8766 227.643 94.3613 226.189C97.8358 222.808 98.2276 214.848 97.3821 210.827C97.0213 209.147 96.2068 208.301 93.8045 207.435C92.5338 206.948 91.1858 206.693 89.8248 206.683" stroke="black" stroke-width="1.03101" stroke-linecap="round" stroke-linejoin="round"/>
<path fill-rule="evenodd" clip-rule="evenodd" d="M170.475 228.861C169.692 226.923 168.877 225.026 168.063 223.118C166.104 218.468 165.351 216.345 170.28 213.375C173.373 211.53 177.672 210.437 180.105 212.148C182.033 213.489 184.332 221.891 185.002 224.325C185.786 226.985 185.508 228.861 181.363 230.872C180.548 231.263 179.744 231.655 178.899 232.047C174.981 233.954 172.125 232.717 170.475 228.861Z" fill="#807e7e" stroke="black" stroke-width="1.03101" stroke-linecap="round" stroke-linejoin="round"/>
<path d="M57.9492 275.946C60.5783 279.039 65.2282 279.472 69.8471 279.245C75.6723 278.936 78.8066 278.122 82.2193 276.616C89.3642 273.4 91.7458 272.441 96.3338 271.688C101.087 270.874 104.479 270.935 108.17 268.977" stroke="white" stroke-width="1.03101" stroke-linecap="round" stroke-linejoin="round"/>
<path d="M72.6875 266.173C75.0176 266.286 77.4198 267.41 79.9665 269.503" stroke="white" stroke-width="1.03101" stroke-linecap="round" stroke-linejoin="round"/>
<path d="M83.3594 254.305C84.4522 253.996 86.9679 254.615 88.5144 255.677" stroke="white" stroke-width="1.03101" stroke-linecap="round" stroke-linejoin="round"/>
<path d="M109.812 246.325C99.4299 246.964 97.2957 260.966 90.8828 273.008" stroke="white" stroke-width="1.03101" stroke-miterlimit="10"/>
<path d="M85.0703 232.603C90.4728 234.737 101.082 235.747 110.99 234.283" stroke="white" stroke-width="1.03101" stroke-miterlimit="10"/>
<path d="M166.773 239.634C170.052 242.799 192.054 236.809 192.549 230.282" stroke="white" stroke-width="1.03101" stroke-miterlimit="10"/>
<path d="M173.809 268.245C178.541 270.431 179.83 273.957 181.706 278.297C182.51 280.195 183.387 282.102 184.304 283.834C187.634 290.082 190.16 291.876 197.707 291.453C202.863 291.175 208.513 289.391 209.966 285.597C210.801 283.442 210.605 280.731 210.389 277.514" stroke="white" stroke-width="1.03101" stroke-miterlimit="10"/>
<path d="M181.671 282.915C181.24 281.411 180.542 279.996 179.609 278.739" stroke="white" stroke-width="1.03101" stroke-linecap="round" stroke-linejoin="round"/>
<path d="M208.637 273.421C204.018 269.297 195.533 270.152 188.141 274.544" stroke="white" stroke-width="1.03101" stroke-linecap="round" stroke-linejoin="round"/>
<path d="M170.789 249.036C177.089 252.82 178.006 266.203 179.883 274.265" stroke="white" stroke-width="1.03101" stroke-linecap="round" stroke-linejoin="round"/>
<path d="M132.239 150.699C131.425 149.885 131.311 148.318 132.569 146.802L143.096 134.038" stroke="white" stroke-width="1.03101" stroke-linecap="round" stroke-linejoin="round"/>
<path d="M139.125 149.627L148.136 139.131" stroke="white" stroke-width="1.03101" stroke-linecap="round" stroke-linejoin="round"/>
<path d="M143.859 153.936L152.87 143.615" stroke="white" stroke-width="1.03101" stroke-linecap="round" stroke-linejoin="round"/>
<path d="M149.031 157.968L157.486 148.317" stroke="white" stroke-width="1.03101" stroke-linecap="round" stroke-linejoin="round"/>
<path d="M153.602 193.836L167.098 194.981L179.944 187.114" stroke="white" stroke-width="1.03101" stroke-linecap="round" stroke-linejoin="round"/>
<path d="M208.241 183.64C210.234 183.64 211.85 182.112 211.85 180.227C211.85 178.342 210.234 176.814 208.241 176.814C206.248 176.814 204.633 178.342 204.633 180.227C204.633 182.112 206.248 183.64 208.241 183.64Z" fill="#FF5E18" stroke="#FF5E18" stroke-width="1.03101" stroke-miterlimit="10"/>
<path d="M164.798 235.139C152.642 237.355 141.249 237.129 141.394 219.674C141.394 213.786 140.548 207.683 135.538 206.848C132.269 206.291 129.547 207.6 127.114 209.539C120.866 214.436 118.969 217.426 114.855 216.56" stroke="#807e7e" stroke-width="1.03101" stroke-miterlimit="10"/>
<path d="M54.3242 205.063C63.8714 196.238 68.9955 191.062 75.8002 182.69" stroke="#807e7e" stroke-width="1.03101" stroke-linecap="round" stroke-linejoin="round"/>
<path d="M109.812 75.9512C118.923 77.948 128.274 78.6251 137.578 77.9616" stroke="black" stroke-width="1.03101" stroke-miterlimit="10"/>
<path fill-rule="evenodd" clip-rule="evenodd" d="M141.782 35.6885L133.637 35.9153L134.029 31.6572H141.978L141.782 35.6885Z" fill="#25211A"/>
<path fill-rule="evenodd" clip-rule="evenodd" d="M130.478 63.6604C124.945 63.9099 119.403 63.8342 113.879 63.4336C113.982 64.6708 114.126 65.8668 114.24 67.104C119.695 67.7193 125.189 67.9158 130.674 67.6917C130.592 66.3411 130.53 65.0214 130.478 63.6604Z" fill="#25211A"/>
<path d="M101.638 93.7234L81.3993 78.1551C81.246 78.0636 81.1132 77.9416 81.0092 77.7966C80.9051 77.6515 80.8321 77.4866 80.7946 77.3121C80.7571 77.1375 80.756 76.9571 80.7913 76.7821C80.8267 76.6072 80.8977 76.4413 81 76.295C81.1022 76.1487 81.2336 76.0251 81.3858 75.9318C81.5379 75.8385 81.7077 75.7775 81.8845 75.7528C82.0613 75.728 82.2413 75.74 82.4133 75.7879C82.5852 75.8358 82.7455 75.9186 82.884 76.0312L114.969 100.415" stroke="white" stroke-width="1.03101" stroke-linecap="round" stroke-linejoin="round"/>
<path d="M89.9302 93.19L81.3315 86.5606C81.163 86.4781 81.0146 86.3598 80.8966 86.2141C80.7785 86.0683 80.6937 85.8985 80.6481 85.7166C80.6025 85.5347 80.5971 85.345 80.6323 85.1607C80.6676 84.9765 80.7427 84.8022 80.8523 84.65C80.9618 84.4978 81.1034 84.3713 81.2669 84.2795C81.4304 84.1876 81.612 84.1325 81.799 84.1181C81.986 84.1036 82.1739 84.1302 82.3496 84.1959C82.5253 84.2617 82.6845 84.3649 82.8162 84.4985L111.128 106.005M101.158 101.82L93.0954 95.6335L101.158 101.82Z" stroke="white" stroke-width="1.03101" stroke-linecap="round" stroke-linejoin="round"/>
<path d="M86.5541 99.0035L80.7495 94.5185C80.581 94.4361 80.4326 94.3179 80.3146 94.1721C80.1965 94.0263 80.1117 93.8565 80.0661 93.6746C80.0204 93.4927 80.0151 93.303 80.0503 93.1187C80.0856 92.9345 80.1607 92.7602 80.2703 92.608C80.3798 92.4558 80.5213 92.3293 80.6849 92.2375C80.8484 92.1456 81.03 92.0905 81.217 92.0761C81.404 92.0617 81.5919 92.0882 81.7676 92.154C81.9433 92.2197 82.1025 92.3229 82.2341 92.4565L107.442 111.499M100.462 109.736L89.7399 101.488L100.462 109.736Z" stroke="white" stroke-width="1.03101" stroke-linecap="round" stroke-linejoin="round"/>
<path fill-rule="evenodd" clip-rule="evenodd" d="M168.633 148.286L159.23 154.049L166.478 161.7L176.026 155.648L168.633 148.286Z" fill="black" stroke="white" stroke-width="1.03101" stroke-linecap="round" stroke-linejoin="round"/>
<path fill-rule="evenodd" clip-rule="evenodd" d="M186.992 142.265L179.188 141.821L186.683 148.904L194.333 149.575L186.992 142.265Z" fill="black" stroke="white" stroke-width="1.03101" stroke-linecap="round" stroke-linejoin="round"/>
<path fill-rule="evenodd" clip-rule="evenodd" d="M145.418 184.227L145.449 179.67L153.285 187.897L153.594 193.836L145.418 184.227Z" fill="black" stroke="white" stroke-width="1.03101" stroke-linecap="round" stroke-linejoin="round"/>
<path d="M96.4258 113.128L101.189 116.035" stroke="white" stroke-width="1.03101" stroke-miterlimit="10"/>
<path fill-rule="evenodd" clip-rule="evenodd" d="M114.797 51.8975C110.732 52.1567 106.655 52.1567 102.59 51.8975C102.652 52.7944 102.703 53.6605 102.786 54.5575C106.806 54.9303 110.847 55.0164 114.88 54.8152C114.859 53.8564 114.828 52.8769 114.797 51.8975Z" fill="white"/>
<path fill-rule="evenodd" clip-rule="evenodd" d="M115.388 37.091L110.367 37.5962L110.594 31.1832L115.491 30.709L115.388 37.091Z" fill="white"/>
<path fill-rule="evenodd" clip-rule="evenodd" d="M135.741 53.6078H130.73L130.895 50.7209L135.793 50.5869L135.741 53.6078Z" fill="white"/>
<path d="M187.613 87.7041L185.675 87.8072C182.654 88.0031 184.582 91.0858 186.706 90.9724H187.737C189.283 90.8899 191.211 93.8799 189.17 94.1892L186.479 94.6119" stroke="#FF5E18" stroke-width="2.06203" stroke-linecap="round" stroke-linejoin="round"/>
<path d="M149.784 87.375H148.279C146.567 87.375 146.371 89.5814 148.021 89.5814H148.361C150.155 89.5814 150.176 92.1898 147.969 92.1073H146.516" stroke="#FF5E18" stroke-width="1.54652" stroke-linecap="round" stroke-linejoin="round"/>
<path d="M94.5544 173.517L92.7398 173.372C92.5549 173.327 92.3623 173.322 92.1753 173.358C91.9883 173.394 91.8112 173.47 91.6564 173.581C91.5015 173.691 91.3724 173.834 91.2781 174C91.1837 174.165 91.1263 174.349 91.1097 174.539C91.0931 174.729 91.1178 174.92 91.1821 175.099C91.2464 175.278 91.3487 175.442 91.482 175.578C91.6153 175.714 91.7765 175.819 91.9545 175.887C92.1325 175.955 92.323 175.983 92.513 175.97H92.9048C95.0287 176.135 95.1112 179.249 92.4821 178.94L90.75 178.775" stroke="#FF5E18" stroke-width="1.54652" stroke-linecap="round" stroke-linejoin="round"/>
<path fill-rule="evenodd" clip-rule="evenodd" d="M110.709 147.73C106.059 147.276 101.43 146.699 96.2749 145.987C94.8521 146.771 94.0686 154.421 96.1615 154.978C100.389 155.679 104.533 156.205 108.626 156.627C111.647 156.937 114.637 157.194 117.668 157.359C122.452 157.669 127.236 157.803 132.164 157.865C132.866 157.865 133.536 157.865 134.227 157.865C133.5 156.819 133.082 155.59 133.02 154.318C132.939 153.402 132.939 152.481 133.02 151.565L132.154 150.678L130.412 148.936C123.421 148.74 117.122 148.338 110.709 147.73Z" fill="#807e7e"/>
<path d="M157.827 190.362L157.043 181.939L169.302 165.226L187.808 153.72L196.314 154.441" stroke="#25211A" stroke-width="1.03101" stroke-linecap="round" stroke-linejoin="round"/>
<path fill-rule="evenodd" clip-rule="evenodd" d="M167.096 194.981L153.6 193.837L152.93 181.124L166.477 161.7L186.685 148.905L200.851 150.163V163.968L190.613 179.083L179.942 187.115L167.096 194.981Z" fill="url(#paint9_linear_693_20114)" stroke="black" stroke-width="1.03101" stroke-linecap="round" stroke-linejoin="round"/>
<path fill-rule="evenodd" clip-rule="evenodd" d="M162.663 190.197C161.271 190.135 159.9 190.084 158.539 190.001C158.26 187.197 158.013 184.403 157.734 181.578L170.024 164.886L188.5 153.38C191.356 153.638 194.181 153.885 197.006 154.112C197.006 156.823 197.006 159.514 197.006 162.205C196.449 163.123 195.861 164.051 195.294 164.968C189.778 173.876 194.067 181.774 199.862 173.516C202.717 169.484 206.78 171.454 207.141 174.547C202.243 173.516 201.769 178.021 197.738 183.826C192.665 191.043 182.169 188.135 172.457 185.259C170.395 185.98 170.127 187.073 170.395 190.27C169.024 190.434 166.086 189.538 165.611 187.97L162.663 190.197Z" fill="url(#paint10_linear_693_20114)" stroke="#FF5E18" stroke-width="1.03101" stroke-linecap="round" stroke-linejoin="round"/>
<path d="M93.3516 78.4971C104.497 86.6936 108.281 90.4259 116.085 96.2717" stroke="white" stroke-width="1.03101" stroke-linejoin="round"/>
<path d="M101.051 146.636C108.134 147.533 114.629 148.172 121.547 148.564" stroke="black" stroke-width="1.03101" stroke-linecap="round" stroke-linejoin="round"/>
<path fill-rule="evenodd" clip-rule="evenodd" d="M101.195 116.035C107.123 116.685 110.546 116.819 114.99 118.097C118.464 119.015 119.805 119.664 120.846 120.778C122.179 122.459 123.369 124.249 124.403 126.129C125.599 128.902 123.815 131.222 121.629 129.851C120.608 129.063 119.627 128.223 118.691 127.335C118.855 127.983 118.841 128.662 118.65 129.302C118.46 129.943 118.1 130.519 117.609 130.972C117.118 131.425 116.514 131.737 115.861 131.875C115.208 132.014 114.529 131.973 113.897 131.758C114.485 135.222 110.01 137.686 107.711 134.583C106.736 133.315 105.451 132.321 103.979 131.696C101.861 131.21 99.7913 130.537 97.7925 129.686C94.9469 126.562 95.6789 118.252 101.195 116.035Z" fill="white" stroke="black" stroke-width="1.03101" stroke-linecap="round" stroke-linejoin="round"/>
<path d="M113.897 131.719C113.321 130.657 112.607 129.675 111.773 128.801" stroke="black" stroke-width="1.03101" stroke-linecap="round" stroke-linejoin="round"/>
<path d="M118.692 127.295C118.268 126.37 117.701 125.517 117.012 124.769" stroke="black" stroke-width="1.03101" stroke-linecap="round" stroke-linejoin="round"/>
<path fill-rule="evenodd" clip-rule="evenodd" d="M137.472 159.319C134.502 159.432 133.348 156.906 133.069 154.339C132.904 152.823 133.131 149.545 134.028 148.256C135.678 145.884 139.4 147.668 139.286 151.565C141.895 149.503 144.689 153.689 144.266 157.133C146.143 153.968 150.009 157.019 149.586 161.257C149.37 163.267 148.132 165.309 149.7 167.134L148.669 168.835C147.07 168.897 144.132 168.948 143.153 164.608C140.152 165.195 137.802 162.03 137.472 159.319Z" fill="white" stroke="black" stroke-width="1.03101" stroke-linecap="round" stroke-linejoin="round"/>
<path d="M139.291 151.564C137.755 153.07 137.477 156.658 137.477 159.318" stroke="black" stroke-width="1.03101" stroke-miterlimit="10"/>
<path d="M144.272 157.133C143.086 159.415 142.695 162.027 143.159 164.556" stroke="black" stroke-width="1.03101" stroke-linecap="round" stroke-linejoin="round"/>
<path fill-rule="evenodd" clip-rule="evenodd" d="M145.504 173.206L152.309 163.741L159.474 171.742L152.927 181.124L145.504 173.206Z" fill="black" stroke="white" stroke-width="1.03101" stroke-linecap="round" stroke-linejoin="round"/>
<path d="M193.378 199.435C206.451 190.671 207.152 214.715 191.553 227.18C216.782 208.704 227.246 182.609 226.164 154.05C225.829 146.13 224.71 138.263 222.823 130.563M209.585 100.416C201.079 86.8071 189.707 75.3628 174.984 69.1768" stroke="white" stroke-width="1.03101" stroke-linecap="round" stroke-linejoin="round"/>
<path d="M101.886 64.248C99.6635 59.8564 98.5051 55.0038 98.5039 50.0819C98.5039 31.998 113.969 17.3575 133.136 17.3575C138.996 17.3422 144.772 18.7579 149.962 21.4816" stroke="#807e7e" stroke-width="1.03101" stroke-linecap="round" stroke-linejoin="round"/>
<path d="M173.136 175.442C175.129 175.442 176.744 173.914 176.744 172.029C176.744 170.144 175.129 168.616 173.136 168.616C171.143 168.616 169.527 170.144 169.527 172.029C169.527 173.914 171.143 175.442 173.136 175.442Z" fill="#FF5E18" stroke="#FF5E18" stroke-width="1.03101" stroke-miterlimit="10"/>
<path d="M182.911 181.484C183.697 181.484 184.334 180.884 184.334 180.144C184.334 179.404 183.697 178.804 182.911 178.804C182.125 178.804 181.488 179.404 181.488 180.144C181.488 180.884 182.125 181.484 182.911 181.484Z" fill="#FF5E18" stroke="#FF5E18" stroke-width="1.03101" stroke-miterlimit="10"/>
<path d="M178.434 193.692C181.355 193.692 183.723 191.434 183.723 188.65C183.723 185.866 181.355 183.608 178.434 183.608C175.513 183.608 173.145 185.866 173.145 188.65C173.145 191.434 175.513 193.692 178.434 193.692Z" fill="#FF5E18" stroke="#FF5E18" stroke-width="1.03101" stroke-miterlimit="10"/>
<path d="M159.676 131.296C161.408 126.898 164.149 122.968 167.676 119.821C173.026 118.394 178.663 118.462 183.977 120.017" stroke="white" stroke-width="1.03101" stroke-linecap="round" stroke-linejoin="round"/>
<path fill-rule="evenodd" clip-rule="evenodd" d="M211.041 0.583254C217.501 -0.838113 224.26 0.36248 229.835 3.92137C235.411 7.48025 239.345 13.1064 240.775 19.5642C242.199 26.0323 240.997 32.8012 237.431 38.3828C233.866 43.9644 228.231 47.9018 221.763 49.3296C215.301 50.747 208.54 49.5407 202.966 45.9758C197.393 42.4109 193.463 36.7789 192.039 30.3177C191.333 27.1175 191.264 23.8096 191.837 20.5829C192.41 17.3561 193.613 14.274 195.378 11.5125C197.142 8.75104 199.434 6.36444 202.122 4.48913C204.809 2.61383 207.84 1.28657 211.041 0.583254Z" fill="url(#paint11_radial_693_20114)"/>
<path d="M199.33 33.0708C201.927 33.0708 204.032 30.9659 204.032 28.3694C204.032 25.7729 201.927 23.668 199.33 23.668C196.734 23.668 194.629 25.7729 194.629 28.3694C194.629 30.9659 196.734 33.0708 199.33 33.0708Z" fill="#141414"/>
<path d="M238.847 7.16113C240.517 9.65618 231.372 18.76 218.402 27.4618C205.432 36.1635 193.575 41.4835 191.926 38.6895" stroke="#585858" stroke-width="1.03101" stroke-miterlimit="10"/>
<path d="M199.135 116.263C199.527 124.16 199.413 124.748 195.918 131.934" stroke="white" stroke-width="1.03101" stroke-linecap="round" stroke-linejoin="round"/>
<defs>
<linearGradient id="paint0_linear_693_20114" x1="136.063" y1="301.571" x2="221.637" y2="234.04" gradientUnits="userSpaceOnUse">
<stop stop-color="#FF5E18"/>
<stop offset="1" stop-color="#141414"/>
</linearGradient>
<linearGradient id="paint1_linear_693_20114" x1="18.3027" y1="46.2998" x2="22.6524" y2="175.274" gradientUnits="userSpaceOnUse">
<stop stop-color="#FF5E18"/>
<stop offset="1" stop-color="#141414"/>
</linearGradient>
<linearGradient id="paint2_linear_693_20114" x1="87.0896" y1="241.773" x2="237.617" y2="76.295" gradientUnits="userSpaceOnUse">
<stop stop-color="#FF5E18"/>
<stop offset="1" stop-color="#141414"/>
</linearGradient>
<linearGradient id="paint3_linear_693_20114" x1="63.0266" y1="113.22" x2="45.5927" y2="109.925" gradientUnits="userSpaceOnUse">
<stop/>
<stop offset="1" stop-color="#EDDCB9"/>
</linearGradient>
<linearGradient id="paint4_linear_693_20114" x1="175.239" y1="277.343" x2="210.293" y2="274.765" gradientUnits="userSpaceOnUse">
<stop stop-color="#FF5E18"/>
<stop offset="1" stop-color="#141414"/>
</linearGradient>
<linearGradient id="paint5_linear_693_20114" x1="73.6868" y1="276.312" x2="107.195" y2="242.288" gradientUnits="userSpaceOnUse">
<stop stop-color="#FF5E18"/>
<stop offset="1" stop-color="#141414"/>
</linearGradient>
<linearGradient id="paint6_linear_693_20114" x1="-767622" y1="-572554" x2="-723842" y2="-554047" gradientUnits="userSpaceOnUse">
<stop stop-color="#D97316"/>
<stop offset="1" stop-color="#25211A"/>
</linearGradient>
<linearGradient id="paint7_linear_693_20114" x1="162.87" y1="26.2907" x2="101.524" y2="61.8606" gradientUnits="userSpaceOnUse">
<stop stop-color="#FF5E18"/>
<stop offset="1" stop-color="#141414"/>
</linearGradient>
<linearGradient id="paint8_linear_693_20114" x1="160.623" y1="65.6504" x2="160.623" y2="227.179" gradientUnits="userSpaceOnUse">
<stop stop-color="#FF5E18"/>
<stop offset="1" stop-color="#141414"/>
</linearGradient>
<linearGradient id="paint9_linear_693_20114" x1="135.38" y1="206.431" x2="159.197" y2="199.085" gradientUnits="userSpaceOnUse">
<stop stop-color="white"/>
<stop offset="1"/>
</linearGradient>
<linearGradient id="paint10_linear_693_20114" x1="166.478" y1="163.932" x2="191.222" y2="187.645" gradientUnits="userSpaceOnUse">
<stop stop-color="#FF5E18"/>
<stop offset="1" stop-color="#141414"/>
</linearGradient>
<radialGradient id="paint11_radial_693_20114" cx="0" cy="0" r="1" gradientUnits="userSpaceOnUse" gradientTransform="translate(213.39 24.7443) rotate(148.173) scale(17.5953)">
<stop stop-color="#FF5E18"/>
<stop offset="0.66" stop-color="#FF7C44"/>
<stop offset="1" stop-color="#D97316" stop-opacity="0"/>
</radialGradient>
</defs>
</svg>
