<svg width="43" height="43" viewBox="0 0 43 43" fill="none" xmlns="http://www.w3.org/2000/svg">
<ellipse cx="21.4975" cy="21.2842" rx="21.4975" ry="20.7531" fill="url(#paint0_linear_358_10275)"/>
<path fill-rule="evenodd" clip-rule="evenodd" d="M12.0599 29.848C12.6359 29.848 13.1198 29.3642 13.1198 28.7881V27.1522C14.9862 29.5485 17.8894 31.0001 21 31.0001C26.023 31.0001 30.2857 27.2444 30.9078 22.2444L30.977 21.7374H28.8571L28.8111 22.1292C28.235 25.9771 24.894 28.8803 21 28.8803C18.235 28.8803 15.6544 27.3826 14.2258 25.0324H16.8756C17.4516 25.0324 17.9355 24.5485 17.9355 23.9725C17.9355 23.3964 17.4516 22.9126 16.8756 22.9126H12.0369C11.53 22.9126 11 23.2351 11 23.9725V28.7881C11 29.3642 11.4839 29.848 12.0599 29.848ZM13.1429 20.2628L13.1889 19.8711C13.765 16.0232 17.106 13.1199 21 13.1199C23.765 13.1199 26.3456 14.6176 27.7742 16.9679H25.1475C24.5714 16.9679 24.0876 17.4517 24.0876 18.0278C24.0876 18.6038 24.5714 19.0877 25.1475 19.0877H29.9401C30.3779 19.0646 31 18.7881 31 18.0278V13.2121C31 12.6361 30.5161 12.1522 29.9401 12.1522C29.3641 12.1522 28.8802 12.6361 28.8802 13.2121V14.848C27.0138 12.4517 24.1106 11.0001 21 11.0001C15.977 11.0001 11.7143 14.7559 11.0922 19.7559L11.023 20.2628H13.1429Z" fill="#141414"/>
<defs>
<linearGradient id="paint0_linear_358_10275" x1="21.4975" y1="0.531128" x2="21.4975" y2="42.0373" gradientUnits="userSpaceOnUse">
<stop stop-color="#FF5E18"/>
<stop offset="1" stop-color="#FF7C44"/>
</linearGradient>
</defs>
</svg>
