<svg width="50" height="38" viewBox="0 0 50 38" fill="none" xmlns="http://www.w3.org/2000/svg">
<g filter="url(#filter0_i_604_16290)">
<path d="M0 19C0 8.50659 8.50659 0 19 0H31C41.4934 0 50 8.50659 50 19C50 29.4934 41.4934 38 31 38H19C8.50659 38 0 29.4934 0 19Z" fill="#141414"/>
<g filter="url(#filter1_d_604_16290)">
<path fill-rule="evenodd" clip-rule="evenodd" d="M41.3559 22.7354C43.9694 15.305 38.2733 7.67012 30.7013 8.01101C37.9387 14.5552 33.6498 26.8257 24 27.2346C29.696 32.3472 38.8096 30.0977 41.3559 22.7354Z" fill="url(#paint0_linear_604_16290)"/>
</g>
</g>
<defs>
<filter id="filter0_i_604_16290" x="0" y="0" width="50" height="42" filterUnits="userSpaceOnUse" color-interpolation-filters="sRGB">
<feFlood flood-opacity="0" result="BackgroundImageFix"/>
<feBlend mode="normal" in="SourceGraphic" in2="BackgroundImageFix" result="shape"/>
<feColorMatrix in="SourceAlpha" type="matrix" values="0 0 0 0 0 0 0 0 0 0 0 0 0 0 0 0 0 0 127 0" result="hardAlpha"/>
<feOffset dy="4"/>
<feGaussianBlur stdDeviation="4.5"/>
<feComposite in2="hardAlpha" operator="arithmetic" k2="-1" k3="1"/>
<feColorMatrix type="matrix" values="0 0 0 0 0.708333 0 0 0 0 0.708333 0 0 0 0 0.708333 0 0 0 0.25 0"/>
<feBlend mode="normal" in2="shape" result="effect1_innerShadow_604_16290"/>
</filter>
<filter id="filter1_d_604_16290" x="20" y="8" width="26" height="30" filterUnits="userSpaceOnUse" color-interpolation-filters="sRGB">
<feFlood flood-opacity="0" result="BackgroundImageFix"/>
<feColorMatrix in="SourceAlpha" type="matrix" values="0 0 0 0 0 0 0 0 0 0 0 0 0 0 0 0 0 0 127 0" result="hardAlpha"/>
<feOffset dy="4"/>
<feGaussianBlur stdDeviation="2"/>
<feComposite in2="hardAlpha" operator="out"/>
<feColorMatrix type="matrix" values="0 0 0 0 0 0 0 0 0 0 0 0 0 0 0 0 0 0 0.25 0"/>
<feBlend mode="normal" in2="BackgroundImageFix" result="effect1_dropShadow_604_16290"/>
<feBlend mode="normal" in="SourceGraphic" in2="effect1_dropShadow_604_16290" result="shape"/>
</filter>
<linearGradient id="paint0_linear_604_16290" x1="40.1695" y1="8.00001" x2="22.9532" y2="9.18106" gradientUnits="userSpaceOnUse">
<stop stop-color="#FF7C44"/>
<stop offset="1" stop-color="#FF5E18"/>
</linearGradient>
</defs>
</svg>
