<svg width="151" height="150" viewBox="0 0 151 150" fill="none" xmlns="http://www.w3.org/2000/svg">
    <path fill-rule="evenodd" clip-rule="evenodd" d="M90.8829 89.6426L150.204 148.898L149.053 150L89.7476 90.7449L90.8829 89.6426Z" fill="url(#paint0_linear_706_18727)" />
    <path d="M74.4128 74.3047C103.066 45.6756 134.294 30.3864 144.127 40.1638C153.961 49.9412 138.611 81.1904 109.942 109.82C81.2724 138.449 50.0608 153.786 40.2272 143.96C30.3936 134.135 45.7276 102.998 74.4128 74.3047Z" stroke="#121212" stroke-width="2" stroke-linecap="round" stroke-linejoin="round" />
    <path fill-rule="evenodd" clip-rule="evenodd" d="M115.318 56.8582C124.154 63.4873 129.999 73.3474 131.569 84.2759C133.14 95.2044 130.309 106.309 123.696 115.155C120.416 119.534 116.305 123.224 111.597 126.014C106.889 128.805 101.678 130.641 96.2592 131.419C90.8409 132.196 85.3223 131.899 80.0188 130.545C74.7154 129.191 69.7309 126.806 65.3503 123.526C56.5032 116.905 50.6504 107.044 49.0792 96.1116C47.508 85.1792 50.347 74.0709 56.9718 65.2297C60.2518 60.851 64.3631 57.1609 69.0708 54.3703C73.7786 51.5796 78.9905 49.7431 84.4089 48.9657C89.8272 48.1883 95.3457 48.4852 100.649 49.8394C105.953 51.1936 110.937 53.5787 115.318 56.8582Z" fill="url(#paint1_radial_706_18727)" />
    <path fill-rule="evenodd" clip-rule="evenodd" d="M103.198 76.6215C103.272 76.693 103.331 76.7787 103.371 76.8734C103.411 76.9681 103.432 77.0699 103.432 77.1727C103.432 77.2756 103.411 77.3773 103.371 77.472C103.331 77.5667 103.272 77.6524 103.198 77.7239C103.126 77.8028 103.039 77.8659 102.941 77.9091C102.843 77.9523 102.737 77.9746 102.631 77.9746C102.524 77.9746 102.418 77.9523 102.32 77.9091C102.222 77.8659 102.135 77.8028 102.063 77.7239C91.8967 67.4666 83.6206 55.4982 77.6148 42.3688C70.2437 26.6803 66.4221 11.1675 65.9584 0.830993C65.9621 0.617258 66.0466 0.41283 66.1949 0.258741C66.3432 0.104651 66.5443 0.0123044 66.7579 0.000236285C66.968 -0.00476849 67.1722 0.0698895 67.3294 0.209195C67.4866 0.3485 67.5852 0.54212 67.6054 0.751112C68.0371 11.0078 71.7467 26.3128 79.0699 41.7617C84.9921 54.7125 93.1607 66.5143 103.198 76.6215ZM76.2557 100.889C76.4007 101.046 76.4812 101.251 76.4812 101.464C76.4812 101.678 76.4007 101.883 76.2557 102.039C76.0991 102.184 75.8935 102.265 75.6801 102.265C75.4667 102.265 75.2611 102.184 75.1045 102.039C65.2495 92.1152 53.6855 84.0462 40.9667 78.2191C25.8886 71.2216 11.0343 67.8347 0.753016 67.3394C0.648681 67.3354 0.546234 67.3105 0.45165 67.2663C0.357066 67.2221 0.272266 67.1595 0.202252 67.0821C0.132239 67.0047 0.0784289 66.9141 0.0439573 66.8156C0.00948572 66.7172 -0.0049671 66.6128 0.00150456 66.5087C0.00314333 66.4022 0.0269794 66.2973 0.0714296 66.2005C0.11588 66.1038 0.179969 66.0173 0.259686 65.9467C0.339402 65.8761 0.432957 65.8228 0.534409 65.7903C0.63586 65.7578 0.742984 65.7467 0.848949 65.7578C11.2901 66.2371 26.4322 69.6719 41.6703 76.8132C54.5536 82.689 66.2698 90.8396 76.2557 100.873V100.889ZM83.0033 94.8183C83.1508 94.9703 83.2333 95.1737 83.2333 95.3854C83.2333 95.5972 83.1508 95.8006 83.0033 95.9526C82.8505 96.1048 82.6435 96.1902 82.4277 96.1902C82.2119 96.1902 82.0049 96.1048 81.8521 95.9526C72.0629 86.1137 61.3904 77.1936 49.9689 69.3045C36.8255 60.1342 24.7853 53.7917 16.9824 50.8841C16.8859 50.8487 16.7975 50.7943 16.7224 50.7241C16.6473 50.6539 16.5871 50.5694 16.5453 50.4755C16.5035 50.3816 16.4811 50.2803 16.4793 50.1776C16.4775 50.0749 16.4963 49.9729 16.5347 49.8776C16.5669 49.7763 16.6195 49.6826 16.6891 49.6022C16.7588 49.5219 16.8441 49.4565 16.9399 49.4102C17.0356 49.3638 17.1398 49.3375 17.2461 49.3327C17.3524 49.3279 17.4585 49.3448 17.5581 49.3823C25.5528 52.3379 37.625 58.7762 50.8963 67.9785C62.3833 75.9381 73.129 84.9157 83.0033 94.8023V94.8183ZM89.7509 88.7793C89.8964 88.9259 89.978 89.124 89.978 89.3305C89.978 89.537 89.8964 89.7351 89.7509 89.8817C89.5943 90.0265 89.3887 90.107 89.1753 90.107C88.9619 90.107 88.7563 90.0265 88.5997 89.8817C74.8007 76.0943 60.7299 61.9076 49.6971 50.8361C42.9495 44.0623 37.4491 38.5026 33.1639 34.237C33.0184 34.0904 32.9367 33.8923 32.9367 33.6858C32.9367 33.4793 33.0184 33.2812 33.1639 33.1346C33.3167 32.9824 33.5237 32.897 33.7395 32.897C33.9553 32.897 34.1623 32.9824 34.3151 33.1346C37.657 36.4736 43.6211 42.4327 50.8004 49.7018C61.4334 60.3898 75.0085 74.0494 89.7509 88.7634V88.7793ZM96.4825 82.6924C96.5586 82.7627 96.6193 82.848 96.6608 82.9428C96.7023 83.0377 96.7237 83.1401 96.7237 83.2436C96.7237 83.3471 96.7023 83.4495 96.6608 83.5444C96.6193 83.6392 96.5586 83.7245 96.4825 83.7948C96.4082 83.8697 96.3198 83.9291 96.2224 83.9696C96.1249 84.0102 96.0204 84.0311 95.9149 84.0311C95.8094 84.0311 95.7049 84.0102 95.6074 83.9696C95.51 83.9291 95.4216 83.8697 95.3473 83.7948C85.4002 73.884 76.3917 63.0755 68.4369 51.5071C59.051 37.9275 52.4473 25.4661 49.4892 17.494C49.4463 17.3961 49.4248 17.2902 49.4262 17.1833C49.4275 17.0764 49.4518 16.971 49.4972 16.8742C49.5426 16.7774 49.6082 16.6914 49.6895 16.622C49.7709 16.5526 49.8661 16.5013 49.9689 16.4716C50.0643 16.4332 50.1664 16.4144 50.2692 16.4162C50.372 16.418 50.4734 16.4404 50.5674 16.4821C50.6613 16.5239 50.7459 16.584 50.8162 16.6591C50.8864 16.7341 50.9408 16.8225 50.9762 16.9189C53.8863 24.7951 60.4261 37.1446 69.716 50.6284C77.6557 62.0935 86.6142 72.8196 96.4825 82.6765V82.6924Z" fill="url(#paint2_linear_706_18727)" />
    <path fill-rule="evenodd" clip-rule="evenodd" d="M85.4644 85.3288C94.2427 76.51 103.581 71.5734 106.251 74.2733C108.921 76.9733 103.996 86.2554 95.1701 95.0422C86.3438 103.829 77.0539 108.798 74.3837 106.098C71.7134 103.398 76.6382 94.1955 85.4644 85.3288Z" fill="#FF5E18" />
    <path fill-rule="evenodd" clip-rule="evenodd" d="M129.515 34.4764C130.163 35.1116 130.679 35.8697 131.031 36.7064C131.383 37.5431 131.564 38.4416 131.564 39.3491C131.564 40.2567 131.383 41.1552 131.031 41.9919C130.679 42.8286 130.163 43.5867 129.515 44.2218C128.223 45.5106 126.471 46.2344 124.646 46.2344C122.82 46.2344 121.069 45.5106 119.777 44.2218C119.134 43.5834 118.624 42.8242 118.276 41.9879C117.927 41.1517 117.748 40.2549 117.748 39.3491C117.748 38.4434 117.927 37.5466 118.276 36.7104C118.624 35.8741 119.134 35.1149 119.777 34.4764C121.069 33.1877 122.82 32.4639 124.646 32.4639C126.471 32.4639 128.223 33.1877 129.515 34.4764Z" fill="#FF5E18" />
    <path fill-rule="evenodd" clip-rule="evenodd" d="M59.4947 142.905C59.8718 143.277 60.1712 143.72 60.3756 144.208C60.58 144.696 60.6852 145.22 60.6852 145.749C60.6852 146.278 60.58 146.802 60.3756 147.29C60.1712 147.779 59.8718 148.221 59.4947 148.593C58.7454 149.339 57.7306 149.758 56.6726 149.758C55.6146 149.758 54.5997 149.339 53.8504 148.593C53.4714 148.222 53.1702 147.78 52.9646 147.292C52.759 146.803 52.6531 146.279 52.6531 145.749C52.6531 145.219 52.759 144.695 52.9646 144.207C53.1702 143.718 53.4714 143.276 53.8504 142.905C54.6038 142.167 55.6171 141.753 56.6726 141.753C57.728 141.753 58.7414 142.167 59.4947 142.905Z" fill="#FF5E18" />
    <path fill-rule="evenodd" clip-rule="evenodd" d="M93.8414 66.4284C93.5875 66.6167 93.27 66.6987 92.9566 66.6569C92.6431 66.6152 92.3582 66.4529 92.1625 66.2047C91.9941 65.9584 91.9237 65.6581 91.9651 65.3626C92.0065 65.0672 92.1567 64.7977 92.3864 64.6071C99.2608 58.945 106.968 54.3754 115.235 51.0594C121.935 48.631 127.308 48.6789 130.266 51.6824C133.224 54.6859 133.272 60.006 130.889 66.7C127.543 74.9337 122.996 82.6271 117.394 89.5298C117.188 89.778 116.895 89.939 116.575 89.9805C116.254 90.022 115.93 89.9409 115.667 89.7534C115.422 89.5535 115.267 89.265 115.234 88.9509C115.201 88.6367 115.293 88.3223 115.491 88.076C120.938 81.3749 125.367 73.9084 128.635 65.9171C130.713 60.0859 130.841 55.5966 128.635 53.3599C126.428 51.1233 121.887 51.2351 116.067 53.3599C108.038 56.564 100.543 60.9706 93.8414 66.4284ZM88.1491 115.331C88.4107 115.14 88.7359 115.057 89.0573 115.098C89.3787 115.14 89.6719 115.303 89.876 115.555C90.0481 115.8 90.1207 116.101 90.0792 116.398C90.0376 116.694 89.885 116.964 89.6522 117.152C82.7598 122.789 75.0431 127.337 66.7711 130.636C60.0555 133.065 54.731 133.017 51.7249 130.029C48.7189 127.042 48.7349 121.69 51.1493 114.996C54.4772 106.758 59.0265 99.0672 64.6445 92.1818C64.8377 91.93 65.1229 91.7651 65.4377 91.7232C65.7524 91.6813 66.0709 91.7658 66.3234 91.9581C66.5531 92.1488 66.7033 92.4182 66.7447 92.7137C66.7861 93.0091 66.7157 93.3094 66.5472 93.5558C61.0586 100.245 56.6262 107.734 53.4038 115.763C51.3252 121.53 51.1973 126.019 53.4038 128.272C55.6104 130.524 60.1515 130.381 65.9237 128.272C72.3195 126.147 80.0424 121.626 88.1491 115.331Z" fill="url(#paint3_linear_706_18727)" />
    <path d="M80.9723 80.823C97.8573 63.9522 115.766 54.4784 120.946 59.6387C126.127 64.7989 116.581 82.6762 99.6961 99.5789C82.8111 116.482 64.9508 125.923 59.7222 120.763C54.4936 115.603 64.0714 97.7097 80.9723 80.823Z" stroke="url(#paint4_linear_706_18727)" stroke-width="2" stroke-linecap="round" stroke-linejoin="round" />
    <defs>
        <linearGradient id="paint0_linear_706_18727" x1="129.946" y1="140.526" x2="100.527" y2="110.475" gradientUnits="userSpaceOnUse">
            <stop stop-color="white" stop-opacity="0" />
            <stop offset="0.504916" stop-color="#DBDBDB" />
            <stop offset="1" stop-color="#FF5E18" />
        </linearGradient>
        <radialGradient id="paint1_radial_706_18727" cx="0" cy="0" r="1" gradientUnits="userSpaceOnUse" gradientTransform="translate(90.3244 90.1923) rotate(48.7448) scale(38.2633 38.253)">
            <stop stop-color="#FF5E18" />
            <stop offset="0.578125" stop-color="#FF5E18" />
            <stop offset="0.970158" stop-color="#FF5E18" stop-opacity="0" />
        </radialGradient>
        <linearGradient id="paint2_linear_706_18727" x1="29.2122" y1="33.4858" x2="81.1358" y2="83.8542" gradientUnits="userSpaceOnUse">
            <stop stop-color="#25211A" stop-opacity="0" />
            <stop offset="0.514999" stop-color="#824E38" />
            <stop offset="1" stop-color="#FF5E18" />
        </linearGradient>
        <linearGradient id="paint3_linear_706_18727" x1="83.5767" y1="75.8224" x2="117.929" y2="106.206" gradientUnits="userSpaceOnUse">
            <stop stop-color="white" stop-opacity="0" />
            <stop offset="0.526042" stop-color="#FF5E18" />
        </linearGradient>
        <linearGradient id="paint4_linear_706_18727" x1="102.136" y1="103.416" x2="81.1959" y2="84.1856" gradientUnits="userSpaceOnUse">
            <stop stop-color="#121212" />
            <stop offset="1" stop-color="#121212" stop-opacity="0" />
        </linearGradient>
    </defs>
</svg>
    