<svg width="148" height="151" viewBox="0 0 148 151" fill="none" xmlns="http://www.w3.org/2000/svg">
    <path d="M73.8382 150C114.066 150 146.676 117.417 146.676 77.2231C146.676 37.0296 114.066 4.44629 73.8382 4.44629C33.6108 4.44629 1 37.0296 1 77.2231C1 117.417 33.6108 150 73.8382 150Z" stroke="white" stroke-width="2" stroke-linecap="round" stroke-linejoin="round" />
    <path d="M73.8407 120.082C97.5313 120.082 116.736 100.893 116.736 77.2221C116.736 53.5515 97.5313 34.3627 73.8407 34.3627C50.1501 34.3627 30.9451 53.5515 30.9451 77.2221C30.9451 100.893 50.1501 120.082 73.8407 120.082Z" stroke="white" stroke-width="2" stroke-linecap="round" stroke-linejoin="round" />
    <path fill-rule="evenodd" clip-rule="evenodd" d="M68.1213 38.2418C78.4849 36.7551 89.0154 39.4406 97.3972 45.7079C105.779 51.9753 111.326 61.3112 112.818 71.6629C114.306 82.0151 111.618 92.534 105.343 100.906C99.0692 109.279 89.7229 114.82 79.3598 116.31C74.2289 117.048 69.0026 116.769 63.9796 115.489C58.9567 114.208 54.2356 111.952 50.0862 108.848C45.9367 105.744 42.4401 101.854 39.7964 97.3999C37.1527 92.9458 35.4136 88.0148 34.6785 82.889C33.1981 72.5404 35.8878 62.0277 42.1575 53.6576C48.4271 45.2875 57.7646 39.7434 68.1213 38.2418Z" fill="url(#paint0_radial_706_18667)" />
    <path d="M73.8401 124.474C76.2973 124.474 78.2893 122.484 78.2893 120.029C78.2893 117.574 76.2973 115.583 73.8401 115.583C71.3829 115.583 69.3909 117.574 69.3909 120.029C69.3909 122.484 71.3829 124.474 73.8401 124.474Z" fill="#FF5E18" />
    <path fill-rule="evenodd" clip-rule="evenodd" d="M92.6943 28.1783C92.5196 28.1193 92.3591 28.0246 92.2231 27.9003C92.0871 27.7759 91.9785 27.6245 91.9042 27.4559C91.8299 27.2873 91.7917 27.105 91.7918 26.9208C91.7919 26.7365 91.8305 26.5543 91.905 26.3858C91.964 26.2112 92.0588 26.0509 92.1833 25.915C92.3077 25.7791 92.4592 25.6705 92.628 25.5963C92.7968 25.5221 92.9791 25.4839 93.1635 25.484C93.3479 25.4841 93.5303 25.5226 93.699 25.5971C104.152 29.6039 113.141 36.6858 119.479 45.9065C125.792 55.1478 129.145 66.0874 129.095 77.2758C129.094 88.4116 125.716 99.2857 119.408 108.466C113.075 117.696 104.084 124.786 93.6272 128.793C93.4582 128.865 93.2763 128.901 93.0927 128.9C92.9091 128.899 92.7277 128.86 92.5596 128.786C92.3915 128.712 92.2404 128.605 92.1155 128.47C91.9905 128.336 91.8945 128.177 91.8332 128.005C91.7666 127.835 91.7342 127.654 91.7379 127.472C91.7415 127.29 91.7812 127.111 91.8546 126.944C91.928 126.778 92.0336 126.627 92.1654 126.501C92.2972 126.376 92.4526 126.277 92.6226 126.212C102.557 122.399 111.097 115.66 117.111 106.888C123.148 98.1912 126.384 87.86 126.386 77.2758C126.417 66.6698 123.206 56.3073 117.183 47.5735C111.167 38.7869 102.629 32.0254 92.6943 28.1783ZM55.0194 126.212C55.1894 126.277 55.3448 126.376 55.4766 126.501C55.6084 126.627 55.714 126.778 55.7874 126.944C55.8607 127.111 55.9004 127.29 55.904 127.472C55.9077 127.654 55.8754 127.835 55.8088 128.005C55.7453 128.176 55.648 128.333 55.5227 128.466C55.3973 128.599 55.2465 128.705 55.0791 128.779C54.9117 128.852 54.7312 128.892 54.5484 128.894C54.3655 128.897 54.184 128.862 54.0147 128.793C43.5575 124.786 34.5665 117.696 28.2343 108.466C21.9441 99.2809 18.5911 88.4052 18.6182 77.2758C18.6122 66.1194 21.9968 55.2242 28.324 46.032C34.6623 36.8112 43.6518 29.7294 54.1044 25.7226C54.2734 25.6509 54.4553 25.6145 54.6389 25.6157C54.8225 25.6169 55.004 25.6557 55.172 25.7295C55.3401 25.8034 55.4912 25.9109 55.6162 26.0453C55.7411 26.1798 55.8372 26.3383 55.8985 26.5113C55.973 26.6798 56.0115 26.862 56.0116 27.0462C56.0118 27.2305 55.9734 27.4127 55.8992 27.5814C55.8249 27.75 55.7163 27.9013 55.5803 28.0257C55.4443 28.1501 55.2838 28.2448 55.1091 28.3038C45.1715 32.0904 36.6107 38.7883 30.5486 47.5198C24.5092 56.2655 21.2972 66.6504 21.3451 77.2758C21.3017 87.8727 24.5142 98.2277 30.5486 106.942C36.5713 115.694 45.1105 122.413 55.0373 126.212H55.0194Z" fill="url(#paint1_linear_706_18667)" />
    <path d="M95.8003 15.5233C100.091 15.5233 103.568 12.0483 103.568 7.76167C103.568 3.47502 100.091 0 95.8003 0C91.5101 0 88.0321 3.47502 88.0321 7.76167C88.0321 12.0483 91.5101 15.5233 95.8003 15.5233Z" fill="#FF5E18" />
    <path d="M20.0564 137.094C26.041 137.094 30.8924 132.246 30.8924 126.267C30.8924 120.287 26.041 115.44 20.0564 115.44C14.0718 115.44 9.22034 120.287 9.22034 126.267C9.22034 132.246 14.0718 137.094 20.0564 137.094Z" fill="#FF5E18" />
    <defs>
        <radialGradient id="paint0_radial_706_18667" cx="0" cy="0" r="1" gradientUnits="userSpaceOnUse" gradientTransform="translate(73.75 77.2768) rotate(90) scale(39.4357 39.469)">
            <stop stop-color="#FF5E18" />
            <stop offset="0.557292" stop-color="#FF5E18" stop-opacity="0.588542" />
            <stop offset="1" stop-color="#FF5E18" stop-opacity="0" />
        </radialGradient>
        <linearGradient id="paint1_linear_706_18667" x1="58.5005" y1="80.8617" x2="57.605" y2="25.2932" gradientUnits="userSpaceOnUse">
            <stop stop-color="#FF5E18" />
            <stop offset="0.34" stop-color="#FF5E18" stop-opacity="0.46" />
            <stop offset="1" stop-color="#FF5E18" stop-opacity="0" />
        </linearGradient>
    </defs>
</svg>
    