<svg width="290" height="150" viewBox="0 0 290 150" fill="none" xmlns="http://www.w3.org/2000/svg">
    <path fill-rule="evenodd" clip-rule="evenodd" d="M211.629 3.58918e-05C231.54 -0.0194096 250.643 7.86323 264.737 21.9144C271.723 28.8745 277.263 37.1455 281.038 46.2519C284.814 55.3583 286.751 65.1206 286.738 74.9775C286.761 84.8326 284.829 94.5946 281.053 103.699C277.277 112.803 271.731 121.069 264.737 128.018C257.771 134.998 249.493 140.533 240.379 144.305C231.265 148.078 221.495 150.013 211.629 150C201.768 150.011 192.001 148.075 182.891 144.303C173.781 140.53 165.507 134.996 158.544 128.018C151.55 121.069 146.005 112.803 142.228 103.699C138.452 94.5946 136.52 84.8326 136.544 74.9775C136.531 65.1206 138.468 55.3583 142.243 46.2519C146.019 37.1455 151.559 28.8745 158.544 21.9144C172.632 7.86665 191.726 -0.0159095 211.629 3.58918e-05ZM263.114 23.5811C256.361 16.8159 248.335 11.451 239.5 7.79453C230.664 4.13809 221.193 2.26225 211.629 2.27481C202.07 2.26521 192.603 4.1425 183.771 7.79885C174.94 11.4552 166.918 16.8186 160.167 23.5811C153.396 30.3291 148.027 38.3476 144.367 47.1756C140.708 56.0036 138.83 65.4672 138.843 75.0225C138.827 84.585 140.703 94.0564 144.362 102.892C148.022 111.728 153.393 119.754 160.167 126.509C166.918 133.271 174.94 138.635 183.771 142.291C192.603 145.948 202.07 147.825 211.629 147.815C221.193 147.828 230.664 145.952 239.5 142.296C248.335 138.639 256.361 133.274 263.114 126.509C269.889 119.754 275.26 111.728 278.919 102.892C282.579 94.0564 284.455 84.585 284.439 75.0225C284.451 65.4672 282.574 56.0036 278.914 47.1756C275.255 38.3476 269.885 30.3291 263.114 23.5811V23.5811Z" fill="url(#paint0_linear_706_18705)" />
    <path fill-rule="evenodd" clip-rule="evenodd" d="M174.228 46.956C173.949 47.3032 173.551 47.5335 173.111 47.6017C172.671 47.6699 172.221 47.5709 171.851 47.3243C171.497 47.0496 171.265 46.6472 171.204 46.2034C171.144 45.7596 171.259 45.3099 171.527 44.9506C176.375 38.516 182.69 33.33 189.947 29.8232C197.126 26.3567 205.033 24.6625 213.003 24.8832C219.582 25.0389 226.064 26.4905 232.08 29.1547C238.096 31.819 243.526 35.6434 248.059 40.4089C257.204 50.0226 262.159 62.8677 261.838 76.1269C261.5 89.4008 255.904 101.998 246.277 111.152C241.489 115.68 235.852 119.218 229.69 121.561C223.528 123.904 216.964 125.006 210.374 124.804C202.393 124.634 194.574 122.519 187.597 118.644C180.514 114.823 174.462 109.345 169.96 102.677C169.711 102.305 169.618 101.85 169.701 101.41C169.783 100.969 170.036 100.579 170.403 100.323C170.781 100.078 171.24 99.9927 171.681 100.084C172.121 100.175 172.508 100.436 172.758 100.81C176.919 107.004 182.505 112.111 189.047 115.706C195.574 119.322 202.883 121.3 210.345 121.468C216.477 121.628 222.581 120.576 228.305 118.373C234.029 116.171 239.262 112.86 243.702 108.632C248.157 104.407 251.732 99.3447 254.222 93.7354C256.712 88.126 258.068 82.0803 258.213 75.9456C258.372 69.8187 257.32 63.7206 255.115 58.0011C252.91 52.2817 249.597 47.0535 245.365 42.6166C241.143 38.1705 236.084 34.6012 230.477 32.1135C224.871 29.6257 218.829 28.2685 212.696 28.1197C205.235 27.9133 197.836 29.521 191.135 32.8044C184.436 36.0852 178.634 40.9414 174.228 46.956V46.956Z" fill="url(#paint1_linear_706_18705)" />
    <path d="M103.655 148.895C144.514 148.895 177.636 115.801 177.636 74.9765C177.636 34.1522 144.514 1.05762 103.655 1.05762C62.7963 1.05762 29.6738 34.1522 29.6738 74.9765C29.6738 115.801 62.7963 148.895 103.655 148.895Z" stroke="#121212" stroke-width="2" stroke-linecap="round" stroke-linejoin="round" />
    <path fill-rule="evenodd" clip-rule="evenodd" d="M33.164 1.48729C43.3088 0.0331771 53.6163 2.6635 61.8208 8.80007C70.0252 14.9366 75.4552 24.0772 76.917 34.2125C77.6408 39.2332 77.3679 44.3472 76.1136 49.2625C74.8594 54.1777 72.6483 58.798 69.607 62.8596C66.5656 66.9211 62.7533 70.3443 58.3878 72.9337C54.0223 75.5232 49.1892 77.2281 44.1643 77.9512C34.0179 79.3995 23.7108 76.7674 15.5042 70.6324C7.29758 64.4974 1.8616 55.3605 0.388703 45.226C-1.06041 35.0848 1.57685 24.7834 7.72171 16.5831C13.8666 8.38275 23.0169 2.95358 33.164 1.48729V1.48729Z" fill="url(#paint2_radial_706_18705)" />
    <path d="M275.986 125.044C283.505 125.044 289.601 118.954 289.601 111.441C289.601 103.927 283.505 97.8369 275.986 97.8369C268.466 97.8369 262.371 103.927 262.371 111.441C262.371 118.954 268.466 125.044 275.986 125.044Z" fill="#121212" />
    <path d="M207.237 33.3983C210.872 33.3983 213.819 30.4538 213.819 26.8217C213.819 23.1895 210.872 20.2451 207.237 20.2451C203.601 20.2451 200.655 23.1895 200.655 26.8217C200.655 30.4538 203.601 33.3983 207.237 33.3983Z" fill="#121212" />
    <path d="M157.055 81.5545C160.691 81.5545 163.638 78.6101 163.638 74.9779C163.638 71.3458 160.691 68.4014 157.055 68.4014C153.42 68.4014 150.473 71.3458 150.473 74.9779C150.473 78.6101 153.42 81.5545 157.055 81.5545Z" fill="#FF5E18" />
    <defs>
        <linearGradient id="paint0_linear_706_18705" x1="196.12" y1="38.2201" x2="241.139" y2="144.103" gradientUnits="userSpaceOnUse">
            <stop stop-color="#FF5E18" stop-opacity="0" />
            <stop offset="0.4" stop-color="#FF5E18" />
            <stop offset="1" stop-color="#FF5E18" />
        </linearGradient>
        <linearGradient id="paint1_linear_706_18705" x1="215.663" y1="104.659" x2="246.7" y2="34.4532" gradientUnits="userSpaceOnUse">
            <stop stop-color="#FF5E18" stop-opacity="0" />
            <stop offset="0.54" stop-color="#FF5E18" />
            <stop offset="1" stop-color="#FF5E18" />
        </linearGradient>
        <radialGradient id="paint2_radial_706_18705" cx="0" cy="0" r="1" gradientUnits="userSpaceOnUse" gradientTransform="translate(38.656 39.7179) rotate(90) scale(38.6222 38.656)">
            <stop stop-color="#FF5E18" />
            <stop offset="0.608526" stop-color="#FF5E18" />
            <stop offset="0.96875" stop-color="#FF5E18" stop-opacity="0" />
        </radialGradient>
    </defs>
</svg>
    