<svg width="148" height="151" viewBox="0 0 148 151" fill="none" xmlns="http://www.w3.org/2000/svg">
    <path d="M73.8382 150C114.066 150 146.676 117.417 146.676 77.2231C146.676 37.0296 114.066 4.44629 73.8382 4.44629C33.6108 4.44629 1 37.0296 1 77.2231C1 117.417 33.6108 150 73.8382 150Z" stroke="#121212" stroke-width="2" stroke-linecap="round" stroke-linejoin="round" />
    <path d="M73.8407 120.081C97.5313 120.081 116.736 100.892 116.736 77.2218C116.736 53.5511 97.5313 34.3623 73.8407 34.3623C50.1501 34.3623 30.9451 53.5511 30.9451 77.2218C30.9451 100.892 50.1501 120.081 73.8407 120.081Z" stroke="#121212" stroke-width="2" stroke-linecap="round" stroke-linejoin="round" />
    <path fill-rule="evenodd" clip-rule="evenodd" d="M68.1213 38.2425C78.4849 36.7558 89.0154 39.4413 97.3972 45.7087C105.779 51.976 111.326 61.312 112.818 71.6636C114.306 82.0158 111.618 92.5347 105.343 100.907C99.0692 109.28 89.7229 114.82 79.3598 116.311C74.2289 117.049 69.0026 116.77 63.9796 115.489C58.9567 114.209 54.2356 111.952 50.0862 108.849C45.9367 105.745 42.4401 101.855 39.7964 97.4007C37.1527 92.9465 35.4136 88.0156 34.6785 82.8897C33.1981 72.5411 35.8878 62.0285 42.1575 53.6583C48.4271 45.2882 57.7646 39.7442 68.1213 38.2425Z" fill="url(#paint0_radial_706_18717)" />
    <path d="M73.8401 124.475C76.2973 124.475 78.2893 122.485 78.2893 120.029C78.2893 117.574 76.2973 115.584 73.8401 115.584C71.3829 115.584 69.3909 117.574 69.3909 120.029C69.3909 122.485 71.3829 124.475 73.8401 124.475Z" fill="#FF5E18" />
    <path fill-rule="evenodd" clip-rule="evenodd" d="M92.6943 28.1787C92.5196 28.1197 92.3591 28.025 92.2231 27.9006C92.0871 27.7762 91.9785 27.6249 91.9042 27.4563C91.8299 27.2876 91.7917 27.1054 91.7918 26.9211C91.7919 26.7369 91.8305 26.5547 91.905 26.3862C91.964 26.2116 92.0588 26.0513 92.1833 25.9153C92.3077 25.7794 92.4592 25.6709 92.628 25.5967C92.7968 25.5225 92.9791 25.4842 93.1635 25.4844C93.3479 25.4845 93.5303 25.523 93.699 25.5974C104.152 29.6043 113.141 36.6861 119.479 45.9068C125.792 55.1482 129.145 66.0877 129.095 77.2762C129.094 88.4119 125.716 99.286 119.408 108.466C113.075 117.697 104.084 124.786 93.6272 128.794C93.4582 128.865 93.2763 128.902 93.0927 128.9C92.9091 128.899 92.7277 128.86 92.5596 128.787C92.3915 128.713 92.2404 128.605 92.1155 128.471C91.9905 128.336 91.8945 128.178 91.8332 128.005C91.7666 127.835 91.7342 127.655 91.7379 127.473C91.7415 127.291 91.7812 127.111 91.8546 126.944C91.928 126.778 92.0336 126.627 92.1654 126.502C92.2972 126.376 92.4526 126.278 92.6226 126.212C102.557 122.399 111.097 115.66 117.111 106.889C123.148 98.1916 126.384 87.8603 126.386 77.2762C126.417 66.6701 123.206 56.3076 117.183 47.5739C111.167 38.7873 102.629 32.0258 92.6943 28.1787ZM55.0194 126.212C55.1894 126.278 55.3448 126.376 55.4766 126.502C55.6084 126.627 55.714 126.778 55.7874 126.944C55.8607 127.111 55.9004 127.291 55.904 127.473C55.9077 127.655 55.8754 127.835 55.8088 128.005C55.7453 128.176 55.648 128.333 55.5227 128.466C55.3973 128.599 55.2465 128.706 55.0791 128.779C54.9117 128.853 54.7312 128.892 54.5484 128.894C54.3655 128.897 54.184 128.863 54.0147 128.794C43.5575 124.786 34.5665 117.697 28.2343 108.466C21.9441 99.2813 18.5911 88.4055 18.6182 77.2762C18.6122 66.1198 21.9968 55.2246 28.324 46.0323C34.6623 36.8116 43.6518 29.7298 54.1044 25.7229C54.2734 25.6512 54.4553 25.6149 54.6389 25.6161C54.8225 25.6173 55.004 25.656 55.172 25.7299C55.3401 25.8038 55.4912 25.9113 55.6162 26.0457C55.7411 26.1801 55.8372 26.3387 55.8985 26.5116C55.973 26.6802 56.0115 26.8624 56.0116 27.0466C56.0118 27.2309 55.9734 27.4131 55.8992 27.5817C55.8249 27.7504 55.7163 27.9017 55.5803 28.0261C55.4443 28.1505 55.2838 28.2452 55.1091 28.3042C45.1715 32.0907 36.6107 38.7886 30.5486 47.5201C24.5092 56.2659 21.2972 66.6508 21.3451 77.2762C21.3017 87.8731 24.5142 98.2281 30.5486 106.943C36.5713 115.694 45.1105 122.414 55.0373 126.212H55.0194Z" fill="url(#paint1_linear_706_18717)" />
    <path d="M95.8003 15.5233C100.091 15.5233 103.568 12.0483 103.568 7.76167C103.568 3.47502 100.091 0 95.8003 0C91.5101 0 88.0321 3.47502 88.0321 7.76167C88.0321 12.0483 91.5101 15.5233 95.8003 15.5233Z" fill="#FF5E18" />
    <path d="M20.0564 137.094C26.041 137.094 30.8924 132.247 30.8924 126.267C30.8924 120.288 26.041 115.44 20.0564 115.44C14.0718 115.44 9.22034 120.288 9.22034 126.267C9.22034 132.247 14.0718 137.094 20.0564 137.094Z" fill="#FF5E18" />
    <defs>
        <radialGradient id="paint0_radial_706_18717" cx="0" cy="0" r="1" gradientUnits="userSpaceOnUse" gradientTransform="translate(73.75 77.2775) rotate(90) scale(39.4357 39.469)">
            <stop stop-color="#FF5E18" />
            <stop offset="0.557292" stop-color="#FF5E18" stop-opacity="0.588542" />
            <stop offset="1" stop-color="#FF5E18" stop-opacity="0" />
        </radialGradient>
        <linearGradient id="paint1_linear_706_18717" x1="58.5005" y1="80.8621" x2="57.605" y2="25.2935" gradientUnits="userSpaceOnUse">
            <stop stop-color="#FF5E18" />
            <stop offset="0.34" stop-color="#FF5E18" stop-opacity="0.46" />
            <stop offset="1" stop-color="#FF5E18" stop-opacity="0" />
        </linearGradient>
    </defs>
</svg>
    