<svg width="140" height="151" viewBox="0 0 140 151" fill="none" xmlns="http://www.w3.org/2000/svg">
    <path fill-rule="evenodd" clip-rule="evenodd" d="M63.343 26.0006C74.8949 24.3563 86.6278 27.3595 95.9658 34.3507C105.304 41.3419 111.483 51.7497 113.148 63.2892C113.975 69.0089 113.665 74.8353 112.236 80.4353C110.808 86.0352 108.288 91.2989 104.822 95.9253C101.356 100.552 97.0114 104.45 92.0363 107.398C87.0613 110.345 81.5536 112.284 75.8281 113.103C64.2681 114.762 52.5221 111.766 43.1728 104.773C33.8235 97.7803 27.6365 87.364 25.9722 75.8144C24.3221 64.2581 27.3314 52.5199 34.3388 43.1793C41.3462 33.8387 51.7784 27.6598 63.343 26.0006Z" fill="url(#paint0_radial_706_18739)" />
    <path d="M69.6426 1C51.4343 1.00895 33.9749 8.24233 21.1029 21.1098C8.2309 33.9773 0.999998 51.4256 1 69.6185C1.00767 82.3729 4.57557 94.8723 11.3027 105.712C18.0298 116.551 27.6494 125.302 39.0803 130.978C46.4295 134.658 53.6603 132.751 56.6338 126.691C60.2323 119.483 60.131 109.811 52.3088 106.08C45.407 102.804 39.5767 97.6392 35.4948 91.1853C31.4128 84.7314 29.2467 77.2531 29.2477 69.6185C29.2455 64.3176 30.2888 59.0683 32.3181 54.1705C34.3473 49.2727 37.3227 44.8224 41.0741 41.0741C44.8256 37.3258 49.2796 34.353 54.1815 32.3254C59.0834 30.2979 64.3372 29.2554 69.6426 29.2577C74.9449 29.2577 80.1953 30.302 85.0934 32.3309C89.9914 34.3599 94.4412 37.3336 98.1882 41.0822C101.935 44.8307 104.906 49.2804 106.93 54.1769C108.955 59.0734 109.993 64.3206 109.987 69.6185C109.988 77.2531 107.822 84.7314 103.74 91.1853C99.6578 97.6392 93.8275 102.804 86.9257 106.08C79.1035 109.794 79.0529 119.483 82.5838 126.691C85.6248 132.751 92.8388 134.658 100.205 130.978C111.621 125.289 121.224 116.534 127.939 105.696C134.653 94.8579 138.212 82.365 138.218 69.6185C138.226 60.6134 136.46 51.6948 133.018 43.3722C129.576 35.0497 124.527 27.4862 118.158 21.1139C111.79 14.7417 104.228 9.6855 95.9033 6.23428C87.5788 2.78306 78.6553 1.00443 69.6426 1V1Z" stroke="#121212" stroke-width="2" stroke-linecap="round" stroke-linejoin="round" />
    <path fill-rule="evenodd" clip-rule="evenodd" d="M88.5154 20.3115C88.3524 20.2535 88.2028 20.1632 88.0756 20.0459C87.9484 19.9287 87.8462 19.787 87.7752 19.6293C87.7042 19.4717 87.6658 19.3013 87.6624 19.1284C87.6589 18.9556 87.6905 18.7838 87.7552 18.6234C87.8901 18.3087 88.1396 18.0569 88.4532 17.919C88.7669 17.7812 89.1212 17.7675 89.4446 17.8807C99.8704 21.9003 108.847 28.9576 115.209 38.1371C121.618 47.382 125.027 58.3726 124.974 69.6189C125.011 80.7767 121.634 91.6792 115.293 100.864C108.939 110.051 99.9601 117.11 89.5291 121.121C89.2055 121.23 88.8528 121.214 88.5402 121.077C88.2276 120.939 87.9777 120.69 87.8396 120.378C87.7185 120.053 87.7305 119.694 87.8728 119.378C88.0151 119.062 88.2764 118.815 88.5999 118.69C98.5436 114.864 107.099 108.127 113.148 99.362C119.163 90.6075 122.385 80.2382 122.389 69.6189C122.411 58.9486 119.188 48.5234 113.148 39.7238C107.07 30.9328 98.4877 24.1695 88.5154 20.3115ZM50.7223 118.774C50.8824 118.836 51.0287 118.929 51.1528 119.047C51.277 119.165 51.3764 119.307 51.4455 119.464C51.5146 119.621 51.5519 119.79 51.5554 119.961C51.5589 120.133 51.5284 120.303 51.4657 120.462C51.4059 120.624 51.3143 120.772 51.1963 120.897C51.0782 121.022 50.9362 121.122 50.7785 121.192C50.6209 121.261 50.4509 121.298 50.2787 121.3C50.1065 121.302 49.9357 121.27 49.7762 121.205C39.3318 117.194 30.3369 110.136 23.9613 100.949C17.6382 91.7265 14.2789 80.7975 14.3314 69.6189C14.3156 58.4513 17.6975 47.5427 24.0289 38.3397C30.3968 29.1449 39.3941 22.0849 49.8438 18.0833C50.0032 18.0182 50.1741 17.9859 50.3463 17.9883C50.5185 17.9906 50.6885 18.0275 50.8461 18.0968C51.0037 18.1661 51.1458 18.2663 51.2638 18.3916C51.3819 18.5169 51.4735 18.6646 51.5332 18.826C51.6034 18.9847 51.6397 19.1563 51.6398 19.3298C51.6399 19.5033 51.6039 19.6749 51.5339 19.8337C51.464 19.9925 51.3617 20.135 51.2336 20.2522C51.1055 20.3693 50.9544 20.4585 50.7899 20.514C40.8152 24.3521 32.2389 31.1203 26.1914 39.9264C20.1273 48.6442 16.8681 59.0024 16.8487 69.6189C16.8222 80.2636 20.0591 90.6611 26.1238 99.4127C32.1552 108.222 40.7384 114.978 50.7223 118.774Z" fill="url(#paint1_linear_706_18739)" />
    <path d="M69.6439 76.8771C73.6841 76.8771 76.9593 73.6047 76.9593 69.568C76.9593 65.5312 73.6841 62.2588 69.6439 62.2588C65.6038 62.2588 62.3286 65.5312 62.3286 69.568C62.3286 73.6047 65.6038 76.8771 69.6439 76.8771Z" fill="#121212" />
    <path fill-rule="evenodd" clip-rule="evenodd" d="M68.3209 69.6191C68.3296 69.2742 68.4718 68.9461 68.7175 68.7038C68.9632 68.4614 69.2934 68.3236 69.6387 68.3193C69.8073 68.3215 69.9739 68.3569 70.1288 68.4234C70.2837 68.4899 70.424 68.5863 70.5417 68.707C70.6594 68.8277 70.7521 68.9704 70.8145 69.1269C70.877 69.2834 70.908 69.4506 70.9058 69.6191V149.699C70.9103 150.037 70.7817 150.362 70.5477 150.606C70.3137 150.849 69.9932 150.99 69.6556 150.999C69.3103 150.995 68.9801 150.857 68.7344 150.615C68.4887 150.372 68.3465 150.044 68.3378 149.699L68.3209 69.6191Z" fill="url(#paint2_linear_706_18739)" />
    <defs>
        <radialGradient id="paint0_radial_706_18739" cx="0" cy="0" r="1" gradientUnits="userSpaceOnUse" gradientTransform="translate(69.565 69.5554) rotate(90) scale(43.9948 44.0349)">
            <stop stop-color="#FF5E18" />
            <stop offset="0.442708" stop-color="#FF5E18" />
            <stop offset="0.963542" stop-color="#FF5E18" stop-opacity="0" />
        </radialGradient>
        <linearGradient id="paint1_linear_706_18739" x1="46.8" y1="31.6386" x2="69.5504" y2="131.962" gradientUnits="userSpaceOnUse">
            <stop stop-color="#FF5E18" />
            <stop offset="0.510417" stop-color="#FF5E18" />
            <stop offset="1" stop-color="white" stop-opacity="0" />
        </linearGradient>
        <linearGradient id="paint2_linear_706_18739" x1="62.85" y1="142.204" x2="62.0067" y2="72.9944" gradientUnits="userSpaceOnUse">
            <stop stop-color="white" stop-opacity="0" />
            <stop offset="0.681245" stop-color="#121212" />
            <stop offset="1" stop-color="#121212" />
        </linearGradient>
    </defs>
</svg>
    