<svg width="290" height="150" viewBox="0 0 290 150" fill="none" xmlns="http://www.w3.org/2000/svg">
    <path fill-rule="evenodd" clip-rule="evenodd" d="M211.629 3.58918e-05C231.54 -0.0194096 250.643 7.86323 264.737 21.9144C271.723 28.8745 277.263 37.1455 281.038 46.2519C284.814 55.3583 286.751 65.1206 286.738 74.9775C286.761 84.8326 284.829 94.5946 281.053 103.699C277.277 112.803 271.731 121.069 264.737 128.018C257.771 134.998 249.493 140.533 240.379 144.305C231.265 148.078 221.495 150.013 211.629 150C201.768 150.011 192.001 148.075 182.891 144.303C173.781 140.53 165.507 134.996 158.544 128.018C151.55 121.069 146.005 112.803 142.228 103.699C138.452 94.5946 136.52 84.8326 136.544 74.9775C136.531 65.1206 138.468 55.3583 142.243 46.2519C146.019 37.1455 151.559 28.8745 158.544 21.9144C172.632 7.86665 191.726 -0.0159095 211.629 3.58918e-05ZM263.114 23.5811C256.361 16.8159 248.335 11.451 239.5 7.79453C230.664 4.13809 221.193 2.26225 211.629 2.27481C202.07 2.26521 192.603 4.1425 183.771 7.79885C174.94 11.4552 166.918 16.8186 160.167 23.5811C153.396 30.3291 148.027 38.3476 144.367 47.1756C140.708 56.0036 138.83 65.4672 138.843 75.0225C138.827 84.585 140.703 94.0564 144.362 102.892C148.022 111.728 153.393 119.754 160.167 126.509C166.918 133.271 174.94 138.635 183.771 142.291C192.603 145.948 202.07 147.825 211.629 147.815C221.193 147.828 230.664 145.952 239.5 142.296C248.335 138.639 256.361 133.274 263.114 126.509C269.889 119.754 275.26 111.728 278.919 102.892C282.579 94.0564 284.455 84.585 284.439 75.0225C284.451 65.4672 282.574 56.0036 278.914 47.1756C275.255 38.3476 269.885 30.3291 263.114 23.5811Z" fill="url(#paint0_linear_706_18655)" />
    <path fill-rule="evenodd" clip-rule="evenodd" d="M174.228 46.9554C173.949 47.3026 173.551 47.5329 173.111 47.6011C172.671 47.6693 172.221 47.5703 171.851 47.3237C171.497 47.049 171.265 46.6466 171.204 46.2028C171.144 45.759 171.259 45.3092 171.527 44.9499C176.375 38.5154 182.69 33.3294 189.947 29.8226C197.126 26.356 205.033 24.6619 213.003 24.8826C219.582 25.0383 226.064 26.4899 232.08 29.1541C238.096 31.8183 243.526 35.6428 248.059 40.4083C257.204 50.022 262.159 62.867 261.838 76.1263C261.5 89.4002 255.904 101.997 246.277 111.152C241.489 115.68 235.852 119.217 229.69 121.56C223.528 123.903 216.964 125.005 210.374 124.803C202.393 124.633 194.574 122.518 187.597 118.643C180.514 114.823 174.462 109.344 169.96 102.677C169.711 102.304 169.618 101.849 169.701 101.409C169.783 100.969 170.036 100.579 170.403 100.322C170.781 100.078 171.24 99.9921 171.681 100.083C172.121 100.174 172.508 100.435 172.758 100.809C176.919 107.003 182.505 112.111 189.047 115.705C195.574 119.322 202.883 121.299 210.345 121.468C216.477 121.627 222.581 120.576 228.305 118.373C234.029 116.17 239.262 112.859 243.702 108.631C248.157 104.407 251.732 99.3441 254.222 93.7347C256.712 88.1254 258.068 82.0797 258.213 75.945C258.372 69.8181 257.32 63.72 255.115 58.0005C252.91 52.2811 249.597 47.0529 245.365 42.616C241.143 38.1699 236.084 34.6006 230.477 32.1129C224.871 29.6251 218.829 28.2679 212.696 28.1191C205.235 27.9127 197.836 29.5204 191.135 32.8038C184.436 36.0846 178.634 40.9408 174.228 46.9554Z" fill="url(#paint1_linear_706_18655)" />
    <path d="M103.655 148.896C144.514 148.896 177.636 115.801 177.636 74.9769C177.636 34.1526 144.514 1.05798 103.655 1.05798C62.7963 1.05798 29.6738 34.1526 29.6738 74.9769C29.6738 115.801 62.7963 148.896 103.655 148.896Z" stroke="white" stroke-width="2" stroke-linecap="round" stroke-linejoin="round" />
    <path fill-rule="evenodd" clip-rule="evenodd" d="M33.164 1.48692C43.3088 0.0328108 53.6163 2.66313 61.8208 8.7997C70.0252 14.9363 75.4552 24.0768 76.917 34.2121C77.6408 39.2328 77.3679 44.3468 76.1136 49.2621C74.8594 54.1774 72.6483 58.7977 69.607 62.8592C66.5656 66.9207 62.7533 70.3439 58.3878 72.9334C54.0223 75.5228 49.1892 77.2277 44.1643 77.9508C34.0179 79.3991 23.7108 76.7671 15.5042 70.632C7.29758 64.4971 1.8616 55.3601 0.388703 45.2256C-1.06041 35.0844 1.57685 24.783 7.72171 16.5827C13.8666 8.38238 23.0169 2.95321 33.164 1.48692Z" fill="url(#paint2_radial_706_18655)" />
    <path d="M275.986 125.044C283.505 125.044 289.601 118.953 289.601 111.44C289.601 103.927 283.505 97.8365 275.986 97.8365C268.466 97.8365 262.371 103.927 262.371 111.44C262.371 118.953 268.466 125.044 275.986 125.044Z" fill="white" />
    <path d="M207.237 33.3992C210.872 33.3992 213.819 30.4548 213.819 26.8227C213.819 23.1905 210.872 20.2461 207.237 20.2461C203.601 20.2461 200.655 23.1905 200.655 26.8227C200.655 30.4548 203.601 33.3992 207.237 33.3992Z" fill="white" />
    <path d="M157.055 81.5542C160.691 81.5542 163.638 78.6097 163.638 74.9776C163.638 71.3454 160.691 68.401 157.055 68.401C153.42 68.401 150.473 71.3454 150.473 74.9776C150.473 78.6097 153.42 81.5542 157.055 81.5542Z" fill="#FF5E18" />
    <defs>
        <linearGradient id="paint0_linear_706_18655" x1="196.12" y1="38.2201" x2="241.139" y2="144.103" gradientUnits="userSpaceOnUse">
            <stop stop-color="#FF5E18" stop-opacity="0" />
            <stop offset="0.4" stop-color="#FF5E18" />
            <stop offset="1" stop-color="#FF5E18" />
        </linearGradient>
        <linearGradient id="paint1_linear_706_18655" x1="215.663" y1="104.659" x2="246.7" y2="34.4526" gradientUnits="userSpaceOnUse">
            <stop stop-color="#FF5E18" stop-opacity="0" />
            <stop offset="0.54" stop-color="#FF5E18" />
            <stop offset="1" stop-color="#FF5E18" />
        </linearGradient>
        <radialGradient id="paint2_radial_706_18655" cx="0" cy="0" r="1" gradientUnits="userSpaceOnUse" gradientTransform="translate(38.656 39.7175) rotate(90) scale(38.6222 38.656)">
            <stop stop-color="#FF5E18" />
            <stop offset="0.608526" stop-color="#FF5E18" />
            <stop offset="0.96875" stop-color="#FF5E18" stop-opacity="0" />
        </radialGradient>
    </defs>
</svg>
    