<svg width="258" height="397" viewBox="0 0 258 397" fill="none" xmlns="http://www.w3.org/2000/svg">
<g clip-path="url(#clip0_705_21685)">
<path fill-rule="evenodd" clip-rule="evenodd" d="M1.48206 393.151L20.838 393.654C37.3483 353.478 51.8134 317.801 65.0632 278.691C69.7169 264.953 72.9182 255.005 75.9416 247.07C81.8699 231.971 86.7311 224.954 100.129 215.391C115.928 204.288 133.891 196.294 149.038 184.629C154.966 180.04 151.557 173.438 146.311 178.175C142.015 182.123 137.246 185.524 132.112 188.3C122.36 193.926 112.401 198.011 99.9809 204.377C79.8543 214.651 70.784 225.102 63.4329 251.748C48.4046 306.195 29.5822 342.197 1.48206 393.151Z" fill="url(#paint0_linear_705_21685)"/>
<path fill-rule="evenodd" clip-rule="evenodd" d="M40.9646 394.217L64.2036 394.78L76.7123 354.366C82.2553 336.395 83.3224 322.923 66.1599 311.821C59.9399 308.078 53.292 305.096 46.3594 302.939C44.077 308.86 44.077 308.475 41.5575 314.219C64.4407 325.795 64.5889 335.358 56.0225 358.629L40.9646 394.217Z" fill="url(#paint1_linear_705_21685)"/>
<path fill-rule="evenodd" clip-rule="evenodd" d="M42.5059 394.217L48.6417 394.395L62.6029 355.669C71.4953 331.095 67.6123 325.381 41.676 313.952C40.2235 317.476 40.6979 316.321 39.1565 319.874C62.2769 326.891 64.5889 334.677 57.2082 354.662L42.5059 394.217Z" fill="url(#paint2_linear_705_21685)"/>
<path d="M1.48206 393.151C29.5822 342.197 48.4046 306.195 63.4329 251.807C70.784 225.161 79.8543 214.651 99.9809 204.436C112.401 198.071 122.36 193.985 132.112 188.36C139.286 184.43 145.749 179.326 151.231 173.26C153.276 171.128 155.085 169.5 156.626 169.411C160.539 169.174 163.74 174.888 162.021 181.994C160.403 187.218 157.439 191.925 153.425 195.643C145.421 203.637 134.869 207.308 126.392 214.503C118.537 221.105 124.346 226.079 134.721 221.016C147.378 215.095 156.389 211.157 163.888 207.959C197.324 193.985 207.728 179.714 228.566 164.348C234.109 160.263 244.187 159.226 245.491 168.02C255.036 166.006 260.312 172.194 253.079 179.3L245.728 186.406C251.301 186.583 253.821 192.327 248.278 198.396L233.872 210.239C241.164 210.565 243.535 213.644 242.764 218.144C242.171 221.579 235.976 225.901 233.279 227.944L184.785 264.361C174.263 270.282 163.71 276.204 153.158 282.125C108.281 307.35 110 313.005 98.7953 362.715L91.3552 395.52" stroke="white" stroke-width="3" stroke-linecap="round" stroke-linejoin="round"/>
<path d="M246.054 167.96C236.332 170.921 222.667 184.955 213.834 192.12C202.948 200.771 191.174 208.244 178.709 214.414" stroke="white" stroke-width="3" stroke-linecap="round" stroke-linejoin="round"/>
<path d="M245.728 186.494C238.051 187.323 233.457 191.38 227.943 195.969C221.244 201.505 209.062 210.979 202.511 215.568C195.812 220.378 188.665 224.533 181.169 227.974" stroke="white" stroke-width="3" stroke-linecap="round" stroke-linejoin="round"/>
<path d="M236.243 210.269C231.296 210.896 226.623 212.896 222.756 216.042C202.007 232.533 202.333 233.125 177.227 245.945" stroke="white" stroke-width="3" stroke-linecap="round" stroke-linejoin="round"/>
<path d="M123.753 217.345C114.268 230.846 119.752 249.528 100.781 261.134" stroke="white" stroke-width="3" stroke-miterlimit="10" stroke-linecap="round"/>
<path fill-rule="evenodd" clip-rule="evenodd" d="M74.2224 251.896C70.369 265.279 70.6358 272.621 77.483 290.03C72.029 286.448 68.7387 279.727 61.9508 278.602L65.0632 261.459L74.2224 251.896Z" fill="white"/>
<path fill-rule="evenodd" clip-rule="evenodd" d="M121.234 302.761C120.315 293.612 123.516 290.918 131.282 285.796L145.095 276.914C153.425 271.526 160.153 268.654 168.157 276.677C172.573 281.148 169.965 283.842 166.111 286.151C154.759 293.079 143.554 300.007 132.261 307.202C128.437 310.044 122.123 312.087 121.234 302.761Z" fill="white" stroke="white" stroke-miterlimit="10"/>
<path fill-rule="evenodd" clip-rule="evenodd" d="M121.412 304.064L124.909 309.304H116.076L121.412 304.064Z" fill="white" stroke="white" stroke-linecap="round" stroke-linejoin="round"/>
<path fill-rule="evenodd" clip-rule="evenodd" d="M85.1898 143.86C93.3867 113.541 108.619 85.5772 129.652 62.2339L127.933 54.9506L149.66 33.219L159.472 36.6535C162.143 34.886 164.904 33.2555 167.741 31.7683C155.322 24.337 150.401 20.3992 136.44 32.4196C108.547 56.4901 81.0103 98.236 76.1788 140.367C75.2895 149.101 83.2038 151.055 85.1898 143.86Z" fill="white"/>
<path fill-rule="evenodd" clip-rule="evenodd" d="M105.05 79.6132L105.702 73.3365L111.185 70.2278L219.021 138.087L216.472 145.755L210.425 151.144L105.05 79.6132Z" fill="white"/>
<path fill-rule="evenodd" clip-rule="evenodd" d="M162.851 116.503L168.779 107.621C169.522 106.521 170.663 105.753 171.963 105.476C173.262 105.2 174.618 105.439 175.745 106.141L217.006 133.824C228.536 141.344 217.184 158.664 205.653 151.144L164.155 123.55C163.599 123.178 163.124 122.7 162.756 122.142C162.389 121.584 162.137 120.958 162.015 120.301C161.894 119.645 161.905 118.97 162.048 118.318C162.192 117.666 162.465 117.049 162.851 116.503Z" fill="#FF5E18" stroke="#FF5E18" stroke-miterlimit="10"/>
<path d="M103.419 13.2047C107.07 13.2047 110.029 10.2487 110.029 6.60236C110.029 2.95598 107.07 0 103.419 0C99.7688 0 96.8093 2.95598 96.8093 6.60236C96.8093 10.2487 99.7688 13.2047 103.419 13.2047Z" fill="white"/>
<path d="M127.755 40.5912C103.093 65.313 80.5953 102.766 76.2677 140.367C75.2895 149.249 83.2038 151.055 85.1601 143.86" stroke="#FF5E18" stroke-width="3" stroke-linecap="round" stroke-linejoin="round"/>
<path d="M155.914 105.815L129.741 89.1762" stroke="#141414" stroke-width="3" stroke-miterlimit="10" stroke-linecap="round"/>
<path fill-rule="evenodd" clip-rule="evenodd" d="M66.3675 36.5054H75.1117C76.7123 36.5054 78.0758 38.6667 78.0758 41.3314V56.1348C78.0758 58.7995 76.8012 60.9608 75.1117 60.9608H66.3675C64.7965 60.9608 63.4033 58.7995 63.4033 56.1348V41.3314C63.5219 38.6667 64.6779 36.5054 66.3675 36.5054Z" fill="#FF5E18" stroke="white" stroke-width="3" stroke-miterlimit="10"/>
<path fill-rule="evenodd" clip-rule="evenodd" d="M199.043 49.6509H214.664C216.179 49.844 217.561 50.6137 218.522 51.7996C219.483 52.9855 219.949 54.496 219.822 56.0164V75.557C219.949 77.0774 219.483 78.5879 218.522 79.7739C217.561 80.9598 216.179 81.7294 214.664 81.9225H199.043C197.533 81.7225 196.158 80.9498 195.204 79.7647C194.249 78.5795 193.788 77.0729 193.915 75.557V56.0164C193.788 54.5006 194.249 52.9939 195.204 51.8088C196.158 50.6236 197.533 49.8509 199.043 49.6509V49.6509Z" fill="#FF5E18" stroke="#FF5E18" stroke-miterlimit="10"/>
<path fill-rule="evenodd" clip-rule="evenodd" d="M202.155 56.2533H211.403C212.287 56.3787 213.088 56.8395 213.64 57.5399C214.192 58.2402 214.453 59.1261 214.368 60.0134V71.5305C214.453 72.4178 214.192 73.3037 213.64 74.004C213.088 74.7043 212.287 75.1651 211.403 75.2906H202.155C201.272 75.1651 200.471 74.7043 199.919 74.004C199.367 73.3037 199.106 72.4178 199.191 71.5305V60.0134C199.106 59.1261 199.367 58.2402 199.919 57.5399C200.471 56.8395 201.272 56.3787 202.155 56.2533Z" fill="white" stroke="#FF5E18" stroke-miterlimit="10"/>
<path fill-rule="evenodd" clip-rule="evenodd" d="M211.73 67.7704H220.948C221.835 67.8888 222.64 68.3478 223.194 69.0498C223.747 69.7519 224.005 70.6417 223.912 71.5305V83.0476C224.005 83.9363 223.747 84.8262 223.194 85.5282C222.64 86.2303 221.835 86.6892 220.948 86.8077H211.73C210.843 86.6892 210.037 86.2303 209.484 85.5282C208.93 84.8262 208.673 83.9363 208.765 83.0476V71.5305C208.673 70.6417 208.93 69.7519 209.484 69.0498C210.037 68.3478 210.843 67.8888 211.73 67.7704Z" fill="white" stroke="#FF5E18" stroke-width="3" stroke-miterlimit="10"/>
<path fill-rule="evenodd" clip-rule="evenodd" d="M117.292 128.109H124.406C125.68 128.109 126.718 130.626 126.718 133.735V150.818C126.718 153.927 125.68 156.443 124.406 156.443H117.292C116.047 156.443 115.009 153.927 115.009 150.818V133.735C115.069 130.626 116.047 128.109 117.292 128.109Z" fill="#FF5E18" stroke="#FF5E18" stroke-miterlimit="10"/>
<path fill-rule="evenodd" clip-rule="evenodd" d="M117.292 128.109H124.406C125.68 128.109 126.718 130.626 126.718 133.735V150.818C126.718 153.927 125.68 156.443 124.406 156.443H117.292C116.047 156.443 115.009 153.927 115.009 150.818V133.735C115.069 130.626 116.047 128.109 117.292 128.109Z" fill="#FF5E18" stroke="#FF5E18" stroke-miterlimit="10"/>
<path fill-rule="evenodd" clip-rule="evenodd" d="M183.244 3.58246H193.619C194.584 3.66548 195.477 4.12569 196.104 4.86308C196.732 5.60047 197.042 6.55541 196.968 7.52019V19.363C197.042 20.3278 196.732 21.2827 196.104 22.0201C195.477 22.7574 194.584 23.2177 193.619 23.3007H183.244C182.282 23.2103 181.393 22.748 180.767 22.0123C180.142 21.2767 179.828 20.326 179.895 19.363V7.52019C179.828 6.55716 180.142 5.60644 180.767 4.87081C181.393 4.13518 182.282 3.67287 183.244 3.58246V3.58246Z" fill="#FF5E18" stroke="#FF5E18" stroke-miterlimit="10"/>
<path fill-rule="evenodd" clip-rule="evenodd" d="M101.048 233.037C97.6095 241.682 91.1477 249.942 83.0556 251.156C70.8729 253.11 69.1537 232.208 81.8403 219.802C95.8904 206.094 110.207 209.854 101.048 233.037Z" fill="#FF5E18"/>
<path fill-rule="evenodd" clip-rule="evenodd" d="M154.492 220.631C165.933 216.634 168.957 225.842 169.461 238.188C169.589 241.381 168.976 244.561 167.67 247.478C166.364 250.395 164.4 252.971 161.932 255.005C156.003 259.831 125.147 279.816 118.299 281.651C109.199 283.931 103.894 273.243 114.268 264.923C120.73 259.624 124.257 254.383 127.696 241.978C128.548 238.044 130.43 234.407 133.15 231.438C136.914 227.559 149.69 222.348 154.492 220.631Z" fill="#FF5E18"/>
</g>
<defs>
<linearGradient id="paint0_linear_705_21685" x1="59.5016" y1="278" x2="50.5016" y2="383.5" gradientUnits="userSpaceOnUse">
<stop stop-color="white"/>
<stop offset="1" stop-color="#343434" stop-opacity="0"/>
</linearGradient>
<linearGradient id="paint1_linear_705_21685" x1="55.9998" y1="312" x2="75.4998" y2="387.5" gradientUnits="userSpaceOnUse">
<stop stop-color="#FF5E18"/>
<stop offset="1" stop-color="#343434" stop-opacity="0"/>
</linearGradient>
<linearGradient id="paint2_linear_705_21685" x1="53.0002" y1="328.5" x2="52.9892" y2="378.5" gradientUnits="userSpaceOnUse">
<stop stop-color="white"/>
<stop offset="1" stop-color="#343434" stop-opacity="0"/>
</linearGradient>
<clipPath id="clip0_705_21685">
<rect width="258" height="397" fill="white"/>
</clipPath>
</defs>
</svg>
