<svg width="258" height="397" viewBox="0 0 258 397" fill="none" xmlns="http://www.w3.org/2000/svg">
<g clip-path="url(#clip0_705_20502)">
<path fill-rule="evenodd" clip-rule="evenodd" d="M1.48206 393.152L20.838 393.655C37.3483 353.478 51.8134 317.802 65.0632 278.691C69.7169 264.953 72.9182 255.005 75.9416 247.071C81.8699 231.971 86.7311 224.954 100.129 215.391C115.928 204.289 133.891 196.295 149.038 184.63C154.966 180.041 151.557 173.438 146.311 178.175C142.015 182.123 137.246 185.524 132.112 188.301C122.36 193.926 112.401 198.012 99.9809 204.377C79.8543 214.651 70.784 225.102 63.4329 251.749C48.4046 306.196 29.5822 342.198 1.48206 393.152Z" fill="url(#paint0_linear_705_20502)"/>
<path fill-rule="evenodd" clip-rule="evenodd" d="M40.9646 394.217L64.2036 394.779L76.7123 354.366C82.2553 336.394 83.3224 322.923 66.1599 311.821C59.9399 308.078 53.292 305.096 46.3594 302.938C44.077 308.86 44.077 308.475 41.5575 314.219C64.4407 325.795 64.5889 335.358 56.0225 358.629L40.9646 394.217Z" fill="url(#paint1_linear_705_20502)"/>
<path fill-rule="evenodd" clip-rule="evenodd" d="M42.5059 394.217L48.6417 394.394L62.6029 355.668C71.4953 331.095 67.6123 325.38 41.676 313.952C40.2235 317.475 40.6979 316.321 39.1565 319.874C62.2769 326.89 64.5889 334.677 57.2082 354.662L42.5059 394.217Z" fill="url(#paint2_linear_705_20502)"/>
<path d="M1.48206 393.151C29.5822 342.197 48.4046 306.195 63.4329 251.807C70.784 225.161 79.8543 214.65 99.9809 204.436C112.401 198.071 122.36 193.985 132.112 188.36C139.286 184.43 145.749 179.326 151.231 173.26C153.276 171.128 155.085 169.5 156.626 169.411C160.539 169.174 163.74 174.888 162.021 181.994C160.403 187.218 157.439 191.925 153.425 195.643C145.421 203.637 134.869 207.308 126.392 214.502C118.537 221.105 124.346 226.079 134.721 221.016C147.378 215.095 156.389 211.157 163.888 207.959C197.324 193.985 207.728 179.714 228.566 164.348C234.109 160.262 244.187 159.226 245.491 168.019C255.036 166.006 260.312 172.194 253.079 179.3L245.728 186.405C251.301 186.583 253.821 192.327 248.278 198.396L233.872 210.239C241.164 210.565 243.535 213.644 242.764 218.144C242.171 221.579 235.976 225.901 233.279 227.944L184.785 264.361C174.263 270.282 163.71 276.203 153.158 282.125C108.281 307.35 110 313.005 98.7953 362.715L91.3552 395.52" stroke="#141414" stroke-width="3" stroke-linecap="round" stroke-linejoin="round"/>
<path d="M246.054 167.96C236.332 170.921 222.667 184.954 213.834 192.119C202.948 200.771 191.174 208.244 178.709 214.413" stroke="#141414" stroke-width="3" stroke-linecap="round" stroke-linejoin="round"/>
<path d="M245.728 186.494C238.051 187.323 233.457 191.379 227.943 195.968C221.244 201.505 209.062 210.979 202.511 215.568C195.812 220.378 188.665 224.532 181.169 227.973" stroke="#141414" stroke-width="3" stroke-linecap="round" stroke-linejoin="round"/>
<path d="M236.243 210.269C231.296 210.896 226.623 212.896 222.756 216.042C202.007 232.533 202.333 233.125 177.227 245.945" stroke="#141414" stroke-width="3" stroke-linecap="round" stroke-linejoin="round"/>
<path d="M123.753 217.345C114.268 230.846 119.752 249.527 100.781 261.133" stroke="#141414" stroke-width="3" stroke-miterlimit="10" stroke-linecap="round"/>
<path fill-rule="evenodd" clip-rule="evenodd" d="M74.2224 251.896C70.369 265.279 70.6358 272.621 77.483 290.03C72.029 286.448 68.7387 279.727 61.9508 278.602L65.0632 261.46L74.2224 251.896Z" fill="#141414"/>
<path fill-rule="evenodd" clip-rule="evenodd" d="M121.234 302.761C120.315 293.612 123.516 290.918 131.282 285.796L145.095 276.914C153.425 271.526 160.153 268.654 168.157 276.677C172.573 281.148 169.965 283.842 166.111 286.152C154.759 293.08 143.554 300.008 132.261 307.202C128.437 310.044 122.123 312.087 121.234 302.761Z" fill="#141414" stroke="#141414" stroke-miterlimit="10"/>
<path fill-rule="evenodd" clip-rule="evenodd" d="M121.412 304.063L124.909 309.304H116.076L121.412 304.063Z" fill="#141414" stroke="#141414" stroke-linecap="round" stroke-linejoin="round"/>
<path fill-rule="evenodd" clip-rule="evenodd" d="M85.1898 143.86C93.3867 113.541 108.619 85.5768 129.652 62.2335L127.933 54.9502L149.66 33.2187L159.472 36.6531C162.143 34.8857 164.904 33.2552 167.741 31.768C155.322 24.3366 150.401 20.3988 136.44 32.4193C108.547 56.4898 81.0103 98.2356 76.1788 140.366C75.2895 149.1 83.2038 151.054 85.1898 143.86Z" fill="#141414"/>
<path fill-rule="evenodd" clip-rule="evenodd" d="M105.05 79.613L105.702 73.3363L111.185 70.2275L219.021 138.087L216.472 145.755L210.425 151.143L105.05 79.613Z" fill="#141414"/>
<path fill-rule="evenodd" clip-rule="evenodd" d="M162.851 116.503L168.779 107.621C169.522 106.522 170.663 105.753 171.963 105.476C173.262 105.2 174.618 105.439 175.745 106.141L217.006 133.824C228.536 141.344 217.184 158.664 205.653 151.144L164.155 123.55C163.599 123.179 163.124 122.7 162.756 122.142C162.389 121.584 162.137 120.958 162.015 120.301C161.894 119.645 161.905 118.97 162.048 118.318C162.192 117.666 162.465 117.049 162.851 116.503Z" fill="#FF5E18" stroke="#FF5E18" stroke-miterlimit="10"/>
<path d="M103.419 13.2047C107.07 13.2047 110.029 10.2487 110.029 6.60236C110.029 2.95598 107.07 0 103.419 0C99.7688 0 96.8093 2.95598 96.8093 6.60236C96.8093 10.2487 99.7688 13.2047 103.419 13.2047Z" fill="#141414"/>
<path d="M127.755 40.5908C103.093 65.3126 80.5953 102.765 76.2677 140.366C75.2895 149.248 83.2038 151.054 85.1601 143.86" stroke="#FF5E18" stroke-width="3" stroke-linecap="round" stroke-linejoin="round"/>
<path d="M155.914 105.815L129.741 89.1758" stroke="#141414" stroke-width="3" stroke-miterlimit="10" stroke-linecap="round"/>
<path fill-rule="evenodd" clip-rule="evenodd" d="M66.3675 36.5059H75.1117C76.7123 36.5059 78.0758 38.6672 78.0758 41.3318V56.1353C78.0758 58.7999 76.8012 60.9613 75.1117 60.9613H66.3675C64.7965 60.9613 63.4033 58.7999 63.4033 56.1353V41.3318C63.5219 38.6672 64.6779 36.5059 66.3675 36.5059Z" fill="#FF5E18" stroke="#141414" stroke-width="3" stroke-miterlimit="10"/>
<path fill-rule="evenodd" clip-rule="evenodd" d="M199.043 49.6514H214.664C216.179 49.8444 217.561 50.6142 218.522 51.8001C219.483 52.986 219.949 54.4965 219.822 56.0168V75.5575C219.949 77.0778 219.483 78.5884 218.522 79.7743C217.561 80.9602 216.179 81.7299 214.664 81.923H199.043C197.533 81.7229 196.158 80.9503 195.204 79.7651C194.249 78.58 193.788 77.0733 193.915 75.5575V56.0168C193.788 54.501 194.249 52.9944 195.204 51.8092C196.158 50.6241 197.533 49.8514 199.043 49.6514Z" fill="#FF5E18" stroke="#FF5E18" stroke-miterlimit="10"/>
<path fill-rule="evenodd" clip-rule="evenodd" d="M202.155 56.2529H211.403C212.287 56.3784 213.088 56.8392 213.64 57.5395C214.192 58.2398 214.453 59.1257 214.368 60.013V71.5301C214.453 72.4174 214.192 73.3033 213.64 74.0037C213.088 74.704 212.287 75.1648 211.403 75.2902H202.155C201.272 75.1648 200.471 74.704 199.919 74.0037C199.367 73.3033 199.106 72.4174 199.191 71.5301V60.013C199.106 59.1257 199.367 58.2398 199.919 57.5395C200.471 56.8392 201.272 56.3784 202.155 56.2529Z" fill="#141414" stroke="#FF5E18" stroke-miterlimit="10"/>
<path fill-rule="evenodd" clip-rule="evenodd" d="M211.73 67.7705H220.948C221.835 67.8889 222.64 68.3479 223.194 69.05C223.747 69.752 224.005 70.6419 223.912 71.5306V83.0477C224.005 83.9365 223.747 84.8263 223.194 85.5284C222.64 86.2304 221.835 86.6894 220.948 86.8078H211.73C210.843 86.6894 210.037 86.2304 209.484 85.5284C208.93 84.8263 208.673 83.9365 208.765 83.0477V71.5306C208.673 70.6419 208.93 69.752 209.484 69.05C210.037 68.3479 210.843 67.8889 211.73 67.7705Z" fill="#141414" stroke="#FF5E18" stroke-width="3" stroke-miterlimit="10"/>
<path fill-rule="evenodd" clip-rule="evenodd" d="M117.292 128.109H124.406C125.68 128.109 126.718 130.626 126.718 133.735V150.818C126.718 153.927 125.68 156.443 124.406 156.443H117.292C116.047 156.443 115.009 153.927 115.009 150.818V133.735C115.069 130.626 116.047 128.109 117.292 128.109Z" fill="#FF5E18" stroke="#FF5E18" stroke-miterlimit="10"/>
<path fill-rule="evenodd" clip-rule="evenodd" d="M117.292 128.109H124.406C125.68 128.109 126.718 130.626 126.718 133.735V150.818C126.718 153.927 125.68 156.443 124.406 156.443H117.292C116.047 156.443 115.009 153.927 115.009 150.818V133.735C115.069 130.626 116.047 128.109 117.292 128.109Z" fill="#FF5E18" stroke="#FF5E18" stroke-miterlimit="10"/>
<path fill-rule="evenodd" clip-rule="evenodd" d="M183.244 3.58203H193.619C194.584 3.66505 195.477 4.12526 196.104 4.86265C196.732 5.60004 197.042 6.55498 196.968 7.51977V19.3626C197.042 20.3273 196.732 21.2822 196.104 22.0196C195.477 22.757 194.584 23.2173 193.619 23.3003H183.244C182.282 23.2099 181.393 22.7475 180.767 22.0119C180.142 21.2763 179.828 20.3256 179.895 19.3626V7.51977C179.828 6.55674 180.142 5.60601 180.767 4.87038C181.393 4.13475 182.282 3.67244 183.244 3.58203Z" fill="#FF5E18" stroke="#FF5E18" stroke-miterlimit="10"/>
<path fill-rule="evenodd" clip-rule="evenodd" d="M101.048 233.037C97.6095 241.682 91.1477 249.942 83.0556 251.156C70.8729 253.11 69.1537 232.208 81.8403 219.802C95.8904 206.094 110.207 209.854 101.048 233.037Z" fill="#FF5E18"/>
<path fill-rule="evenodd" clip-rule="evenodd" d="M154.492 220.631C165.933 216.634 168.957 225.842 169.461 238.188C169.589 241.381 168.976 244.561 167.67 247.478C166.364 250.395 164.4 252.971 161.932 255.005C156.003 259.831 125.147 279.816 118.299 281.651C109.199 283.931 103.894 273.243 114.268 264.923C120.73 259.624 124.257 254.383 127.696 241.978C128.548 238.044 130.43 234.407 133.15 231.438C136.914 227.559 149.69 222.348 154.492 220.631Z" fill="#FF5E18"/>
</g>
<defs>
<linearGradient id="paint0_linear_705_20502" x1="59.5016" y1="278" x2="50.5016" y2="383.5" gradientUnits="userSpaceOnUse">
<stop stop-color="#141414"/>
<stop offset="1" stop-color="white" stop-opacity="0"/>
</linearGradient>
<linearGradient id="paint1_linear_705_20502" x1="55.9998" y1="312" x2="75.4998" y2="387.5" gradientUnits="userSpaceOnUse">
<stop stop-color="#FF5E18"/>
<stop offset="1" stop-color="#343434" stop-opacity="0"/>
</linearGradient>
<linearGradient id="paint2_linear_705_20502" x1="53.0002" y1="328.5" x2="52.9892" y2="378.5" gradientUnits="userSpaceOnUse">
<stop stop-color="#141414"/>
<stop offset="1" stop-color="white" stop-opacity="0"/>
</linearGradient>
<clipPath id="clip0_705_20502">
<rect width="258" height="397" fill="white"/>
</clipPath>
</defs>
</svg>
