<svg width="224" height="414" viewBox="0 0 224 414" fill="none" xmlns="http://www.w3.org/2000/svg">
<g clip-path="url(#clip0_705_20476)">
<path fill-rule="evenodd" clip-rule="evenodd" d="M43.9704 411.806L63.5852 414.029L81.9851 375.752C90.1333 358.821 93.5703 345.894 81.1555 333.975C77.2663 330.445 72.9214 327.453 68.237 325.08C63.6741 322.619 56.1482 320.247 52.2371 323.034L48.5629 329.735L38.5778 346.428C45.6889 338.897 50.6074 330.625 59.8222 334.39C76.9778 347.228 75.3481 356.39 63.5852 378.212L43.9704 411.806Z" fill="url(#paint0_linear_705_20476)"/>
<path fill-rule="evenodd" clip-rule="evenodd" d="M46.6667 406.588L51.8222 407.151L69.6 376.078C82.3408 353.93 80.3852 346.428 61.1852 335.28C59.1894 333.858 56.7845 333.126 54.3354 333.196C51.8864 333.266 49.5269 334.133 47.6149 335.666C44.0846 338.657 40.9038 342.039 38.1334 345.746L35.9408 348.711C38.747 345.995 41.8136 343.562 45.0963 341.447C53.5704 335.784 57.3333 339.401 64.0296 343.819C74.7556 350.906 73.6889 358.644 65.1852 374.625L46.6667 406.588Z" fill="url(#paint1_linear_705_20476)"/>
<path fill-rule="evenodd" clip-rule="evenodd" d="M98.2222 62.3242H190.637V200.166C183.724 202.486 177.133 205.674 171.022 209.654C161.215 216.118 162.133 230.112 176.267 226.347C178.222 225.784 180.178 225.279 182.193 224.716C163.141 233.285 171.881 251.401 186.667 245.471C188.059 244.967 189.363 244.73 190.667 244.226V252.409L184.889 254.129L177.926 257.479L174.815 262.134L98.3407 261.393V225.517L101.541 214.309L104.296 198.773L104.711 190.767L102.904 178.403L98.3407 171.198L98.2222 62.3242Z" fill="url(#paint2_linear_705_20476)"/>
<path fill-rule="evenodd" clip-rule="evenodd" d="M85.6593 198.239L88.4445 185.4L88.5926 179.737C91.2 180.983 93.0075 183.355 92.6815 188.632C91.6507 196.469 89.7832 204.173 87.1111 211.611C83.526 220.862 80.4149 226.436 78.0445 232.544C68.8889 255.107 69.5408 293.385 91.2001 312.361L79.9407 312.598C71.0518 312.835 72.326 314.081 67.763 321.997L22.2518 402.051H1.6593L21.926 371.957L39.5556 345.065L46.0149 334.361L51.0815 325.466L54.5186 318.854L57.6296 310.76L59.763 300.679L60.8 290.628L61.7778 275.506L62.9334 258.013L63.4963 252.854L65.2148 244.581L68.1778 237.228L73.0074 228.007L78.1334 218.341L81.3333 211.552L83.7926 205.088L85.6593 198.239Z" fill="url(#paint3_linear_705_20476)"/>
<path fill-rule="evenodd" clip-rule="evenodd" d="M114.341 281.792C109.748 316.868 157.719 302.725 165.896 285.142C169.985 276.396 114.578 279.924 114.341 281.792Z" fill="url(#paint4_linear_705_20476)"/>
<path d="M190.489 272.541V281.702C190.481 283.587 189.729 285.393 188.397 286.726C187.066 288.058 185.261 288.811 183.378 288.818H105.185C103.306 288.795 101.511 288.038 100.182 286.709C98.8538 285.379 98.0972 283.583 98.0741 281.702V227.088M98.0741 171.642V125.685C98.1046 123.808 98.8636 122.015 100.191 120.687C101.518 119.359 103.309 118.6 105.185 118.569H183.378C185.259 118.585 187.059 119.34 188.389 120.671C189.719 122.002 190.473 123.803 190.489 125.685V200.166M190.489 243.84V252.735" stroke="#141414" stroke-width="3" stroke-linecap="round" stroke-linejoin="round"/>
<path fill-rule="evenodd" clip-rule="evenodd" d="M144.326 20.2212C143.822 20.2127 143.321 20.2929 142.844 20.4584L112.119 33.2078C111.668 33.3936 111.261 33.6716 110.925 34.0239C110.588 34.3762 110.329 34.7951 110.163 35.2536L97.4223 66.0004C97.2034 66.4639 97.0897 66.9702 97.0897 67.4829C97.0897 67.9956 97.2034 68.5019 97.4223 68.9654L110.163 99.7122C110.331 100.159 110.592 100.565 110.929 100.902C111.267 101.24 111.672 101.501 112.119 101.669L142.844 114.419C143.307 114.639 143.814 114.751 144.326 114.745C144.81 114.751 145.288 114.639 145.719 114.419L176.444 101.669C176.903 101.503 177.321 101.244 177.673 100.907C178.025 100.57 178.303 100.163 178.489 99.7122L191.23 68.9654C191.576 68.0074 191.576 66.9584 191.23 66.0004L178.489 35.2536C178.306 34.7911 178.03 34.371 177.678 34.0191C177.327 33.6673 176.907 33.3912 176.444 33.2078L145.719 20.4584C145.274 20.2884 144.801 20.2078 144.326 20.2212ZM144.326 28.7899L171.615 40.0865L182.904 67.394L171.615 94.7014L144.326 106.057L117.037 94.7014L105.659 67.394L117.037 40.0865L144.326 28.7899Z" fill="#141414"/>
<path fill-rule="evenodd" clip-rule="evenodd" d="M182.904 67.3941L171.615 40.057L144.326 28.79L117.037 40.057L105.659 67.3941L117.037 94.7015L144.326 106.057L171.615 94.7015L182.904 67.3941Z" fill="#141414"/>
<path fill-rule="evenodd" clip-rule="evenodd" d="M141.304 73.1754H159.615V81.6849H129.037V74.0056L141.037 60.6632L129.126 48.151V40.4717H159.615V48.9812H141.718L152.83 60.6039L141.304 73.1754Z" fill="white"/>
<path d="M144.326 13.8467C143.817 13.8696 143.316 13.98 142.844 14.1728L112.118 26.9222C111.672 27.0902 111.267 27.3517 110.929 27.6892C110.592 28.0267 110.331 28.4324 110.163 28.8791L97.4222 59.7149C97.217 60.1455 97.1104 60.6165 97.1104 61.0936C97.1104 61.5707 97.217 62.0417 97.4222 62.4723L110.074 93.4267C110.237 93.8764 110.496 94.2848 110.834 94.623C111.172 94.9612 111.58 95.2208 112.03 95.3836L142.756 108.163C143.231 108.341 143.73 108.451 144.237 108.489C144.716 108.458 145.187 108.347 145.63 108.163L176.355 95.3836C176.816 95.223 177.238 94.9651 177.59 94.6275C177.943 94.2899 178.219 93.8804 178.4 93.4267L191.141 62.5909C191.467 61.7008 191.467 60.7236 191.141 59.8335L178.4 28.9977C178.214 28.547 177.936 28.1401 177.584 27.8031C177.232 27.4661 176.814 27.2065 176.355 27.0408L145.63 14.2914C145.227 14.0622 144.785 13.9114 144.326 13.8467ZM144.326 22.5044L171.615 33.7713L182.904 61.1085L171.615 88.4159L144.326 99.6828L117.037 88.4159L105.659 61.1085L117.037 33.7713L144.326 22.5044Z" fill="white"/>
<path d="M1.48145 402.229C17.837 377.145 39.3185 347.851 52.8889 321.937C61.4518 305.511 59.9999 297.18 62.9333 257.923C63.9999 244.433 66.7852 238.71 74.3704 225.309C82.0694 212.488 86.7882 198.099 88.1777 183.206C89.4221 170.605 92.2666 168.381 95.9407 170.279C106.815 175.764 104.83 194.651 102.815 207.578C101.007 217.955 95.0518 231.683 98.0741 240.608" stroke="#141414" stroke-width="3" stroke-linecap="round" stroke-linejoin="round"/>
<path d="M95.6147 401.991L110.074 370.592C116.859 355.767 120.8 348.177 126.341 340.587C139.911 322.174 162.874 307.053 175.941 288.67" stroke="#141414" stroke-width="3" stroke-linecap="round" stroke-linejoin="round"/>
<path d="M176.119 226.436C178.074 225.873 180.03 225.369 182.044 224.805C162.993 233.374 171.733 251.49 186.518 245.56C195.378 242.031 204.717 239.852 214.222 239.096C223.615 233.374 220.77 221.84 211.615 217.837C214.578 210.395 214.578 198.773 202.222 198.298C192.978 197.942 179.081 204.406 170.993 209.802C161.067 216.207 161.985 230.201 176.119 226.436Z" stroke="#141414" stroke-width="3" stroke-linejoin="round"/>
<path d="M208.296 249.325C201.452 250.807 191.141 252.29 184.593 254.158C167.674 258.576 172.741 276.899 188.978 272.956C196.12 271.511 203.142 269.529 209.985 267.026C223.348 261.689 220.385 246.805 208.296 249.325Z" stroke="#141414" stroke-width="3" stroke-miterlimit="10"/>
<path d="M211.496 217.777C201.345 218.749 191.375 221.113 181.867 224.804" stroke="#141414" stroke-width="3" stroke-miterlimit="10"/>
<path d="M190.489 174.341C194.974 168.379 200.316 163.114 206.341 158.716C216.059 151.363 230.459 158.716 217.126 172.473C208.92 180.92 201.204 189.83 194.015 199.158" stroke="#141414" stroke-width="3" stroke-miterlimit="10"/>
<path d="M214.104 239.007L198.489 251.193" stroke="#141414" stroke-width="3" stroke-miterlimit="10"/>
<path fill-rule="evenodd" clip-rule="evenodd" d="M98.0741 278.678V261.511L173.57 262.163L174.785 267.974L180.119 272.689L184.533 273.43L190.489 272.54V281.702L188.77 286.268L183.378 288.818H170.4H107.052L101.985 287.988L98.8148 284.638L98.0741 278.678Z" fill="#141414"/>
<path d="M173.807 16.0109C178.226 16.0109 181.807 12.4267 181.807 8.00544C181.807 3.58416 178.226 0 173.807 0C169.389 0 165.807 3.58416 165.807 8.00544C165.807 12.4267 169.389 16.0109 173.807 16.0109Z" fill="#141414"/>
<path fill-rule="evenodd" clip-rule="evenodd" d="M75.3482 81.9521H85.7482C86.7075 82.0354 87.5957 82.4921 88.2219 83.224C88.8481 83.956 89.1621 84.9046 89.0964 85.8659V97.9037C89.1621 98.865 88.8481 99.8137 88.2219 100.546C87.5957 101.278 86.7075 101.734 85.7482 101.817H75.3482C74.3889 101.734 73.5007 101.278 72.8745 100.546C72.2483 99.8137 71.9343 98.865 72 97.9037V85.8659C71.9343 84.9046 72.2483 83.956 72.8745 83.224C73.5007 82.4921 74.3889 82.0354 75.3482 81.9521Z" fill="#FF5E18" stroke="#FF5E18" stroke-miterlimit="10"/>
<path fill-rule="evenodd" clip-rule="evenodd" d="M165.067 108.696H175.467C177.304 108.696 178.815 111.068 178.815 114.004V130.103C178.815 133.068 177.304 135.411 175.467 135.411H165.067C163.23 135.411 161.719 133.039 161.719 130.103V114.004C161.719 111.217 163.23 108.696 165.067 108.696Z" fill="#FF5E18" stroke="white" stroke-width="3" stroke-miterlimit="10"/>
<path d="M137.037 140.065V203.605L125.126 186.527" stroke="#141414" stroke-width="3" stroke-linecap="round" stroke-linejoin="round"/>
<path d="M151.911 203.605V140.065L163.852 157.173" stroke="#141414" stroke-width="3" stroke-linecap="round" stroke-linejoin="round"/>
<path fill-rule="evenodd" clip-rule="evenodd" d="M85.7482 252.023C85.2445 261.273 82.3704 271.325 76.6519 275.565C68 281.969 61.6296 263.141 68.1777 246.864C75.437 228.896 87.0519 226.998 85.7482 252.023Z" fill="#FF5E18"/>
</g>
<defs>
<linearGradient id="paint0_linear_705_20476" x1="63.9449" y1="321.777" x2="63.9449" y2="414.029" gradientUnits="userSpaceOnUse">
<stop stop-color="#FF5E18"/>
<stop offset="1" stop-color="#FF5E18" stop-opacity="0"/>
</linearGradient>
<linearGradient id="paint1_linear_705_20476" x1="59.2593" y1="352.833" x2="56.8108" y2="407.151" gradientUnits="userSpaceOnUse">
<stop stop-color="#141414"/>
<stop offset="1" stop-color="#141414" stop-opacity="0"/>
</linearGradient>
<linearGradient id="paint2_linear_705_20476" x1="75.5554" y1="249.059" x2="36.9885" y2="114.166" gradientUnits="userSpaceOnUse">
<stop stop-color="#FF5E18" stop-opacity="0"/>
<stop offset="1" stop-color="#FF5E18"/>
</linearGradient>
<linearGradient id="paint3_linear_705_20476" x1="59.2591" y1="210.513" x2="69.6435" y2="314.286" gradientUnits="userSpaceOnUse">
<stop stop-color="#141414"/>
<stop offset="1" stop-color="#141414" stop-opacity="0"/>
</linearGradient>
<linearGradient id="paint4_linear_705_20476" x1="158.518" y1="290.569" x2="117.033" y2="302.414" gradientUnits="userSpaceOnUse">
<stop stop-color="#FF5E18"/>
<stop offset="1" stop-color="white" stop-opacity="0"/>
</linearGradient>
<clipPath id="clip0_705_20476">
<rect width="224" height="414" fill="white"/>
</clipPath>
</defs>
</svg>
