<svg width="258" height="388" viewBox="0 0 258 388" fill="none" xmlns="http://www.w3.org/2000/svg">
<path fill-rule="evenodd" clip-rule="evenodd" d="M1.45312 384.144L20.7542 384.648C37.2683 344.398 51.7664 308.656 65.0785 269.473C69.7333 255.71 72.9353 245.744 75.8705 237.795C81.8002 222.668 86.6625 215.638 100.152 206.057C115.866 194.934 133.833 186.926 148.983 175.239C154.913 170.642 151.503 164.027 146.345 168.773C142.015 172.728 137.215 176.135 132.054 178.917C122.329 184.553 112.338 188.646 99.9153 195.023C79.8731 205.316 70.7117 215.786 63.3589 242.481C48.4161 297.029 29.5005 333.097 1.45312 384.144Z" fill="url(#paint0_linear_705_20530)"/>
<path fill-rule="evenodd" clip-rule="evenodd" d="M40.9727 385.212L64.1873 385.775L76.7582 345.287C82.2432 327.283 83.3105 313.787 66.2331 302.664C59.9967 298.903 53.3262 295.915 46.3686 293.766C44.0561 299.698 44.0561 299.312 41.6249 305.067C64.4245 316.664 64.6024 326.245 56.0044 349.559L40.9727 385.212Z" fill="url(#paint1_linear_705_20530)"/>
<path fill-rule="evenodd" clip-rule="evenodd" d="M42.4284 385.212L48.5656 385.39L62.5596 346.593C71.4541 321.974 67.5406 316.249 41.6279 304.8C40.1455 308.33 40.6495 307.173 39.0781 310.732C62.2928 317.762 64.5164 325.563 57.1636 345.584L42.4284 385.212Z" fill="url(#paint2_linear_705_20530)"/>
<path d="M1.45312 384.144C29.5005 333.097 48.4161 297.029 63.3589 242.541C70.7117 215.846 79.8731 205.316 99.9153 195.083C112.338 188.706 122.329 184.612 132.054 178.977C139.231 175.063 145.72 170.004 151.266 163.998C153.223 161.862 155.032 160.231 156.662 160.142C160.517 159.904 163.778 165.629 161.969 172.748C160.386 177.99 157.427 182.712 153.401 186.422C145.366 194.43 134.9 198.108 126.332 205.316C118.475 211.93 124.286 216.914 134.663 211.841C147.353 205.909 156.425 201.964 163.926 198.761C197.31 184.761 207.776 170.464 228.53 155.07C234.104 150.976 244.155 149.938 245.459 158.748C255.095 156.731 260.283 162.93 253.049 170.049L245.696 177.167C251.27 177.345 253.79 183.1 248.246 189.18L233.837 201.045C241.219 201.371 243.502 204.456 242.731 208.964C242.168 212.405 236.031 216.736 233.333 218.782L184.769 255.266C174.214 261.198 163.659 267.13 153.104 273.062C108.217 298.334 109.936 303.999 98.7294 353.801L91.5545 386.517" stroke="#141414" stroke-width="3" stroke-linecap="round" stroke-linejoin="round"/>
<path d="M246.022 158.54C236.298 161.506 222.659 175.566 213.824 182.744C204.558 190.133 194.634 196.657 184.176 202.231" stroke="#141414" stroke-width="3" stroke-linecap="round" stroke-linejoin="round"/>
<path d="M245.726 177.107C238.136 177.938 233.481 182.002 227.937 186.599C221.236 192.146 209.051 201.637 202.587 206.235C197.067 210.173 191.248 213.674 185.184 216.705" stroke="#141414" stroke-width="3" stroke-linecap="round" stroke-linejoin="round"/>
<path d="M236.207 200.926C231.262 201.57 226.593 203.572 222.717 206.71C201.963 223.231 202.289 223.824 177.266 236.668" stroke="#141414" stroke-width="3" stroke-linecap="round" stroke-linejoin="round"/>
<path d="M123.694 208.015C117.082 217.506 117.764 229.549 112.25 239.93C109.597 244.881 105.612 248.991 100.746 251.795" stroke="#141414" stroke-width="3" stroke-miterlimit="10" stroke-linecap="round"/>
<path fill-rule="evenodd" clip-rule="evenodd" d="M118.148 27.9707H174.569V223.231L118.148 244.439V27.9707Z" fill="url(#paint3_linear_705_20530)"/>
<path fill-rule="evenodd" clip-rule="evenodd" d="M74.151 242.63C70.3857 256.037 70.6525 263.393 77.5013 280.834C71.957 277.245 68.6068 270.512 61.9062 269.384L65.0786 252.21L74.151 242.63Z" fill="#141414"/>
<path fill-rule="evenodd" clip-rule="evenodd" d="M121.204 293.588C120.315 284.422 123.487 281.723 131.255 276.592L145.071 267.693C153.432 262.295 160.132 259.418 168.137 267.456C172.555 271.935 169.946 274.634 166.181 276.948C154.736 283.888 143.529 290.829 132.233 298.037C128.379 300.884 122.064 302.931 121.204 293.588Z" fill="#141414" stroke="#141414" stroke-miterlimit="10"/>
<path fill-rule="evenodd" clip-rule="evenodd" d="M121.349 294.893L124.877 300.143H116.102L121.349 294.893Z" fill="#141414" stroke="#141414" stroke-linecap="round" stroke-linejoin="round"/>
<path fill-rule="evenodd" clip-rule="evenodd" d="M100.98 223.736C97.5412 232.397 91.0779 240.672 82.9839 241.888C70.7984 243.846 69.0788 222.905 81.7683 210.477C95.8216 196.744 110.201 200.511 100.98 223.736Z" fill="#FF5E18"/>
<path d="M146.346 3.67773C146.035 3.68607 145.73 3.76735 145.457 3.91503L127.075 11.538C126.558 11.7504 126.144 12.1543 125.918 12.6651L118.239 31.2628C118.061 31.7919 118.061 32.365 118.239 32.8942L125.918 51.2842C126.012 51.5617 126.164 51.8162 126.363 52.0309C126.562 52.2456 126.805 52.4157 127.075 52.53L145.457 60.1233C145.73 60.2671 146.039 60.3289 146.346 60.3012C146.635 60.3318 146.925 60.2694 147.176 60.1233L165.588 52.53C166.141 52.2916 166.578 51.8437 166.803 51.2842L174.393 32.8942C174.526 32.6427 174.595 32.3627 174.595 32.0785C174.595 31.7942 174.526 31.5143 174.393 31.2628L166.803 12.7541C166.547 12.2444 166.115 11.8442 165.588 11.627L147.176 4.00401C146.934 3.82284 146.647 3.71016 146.346 3.67773ZM146.346 8.83882L162.712 15.6313L169.412 31.9746L162.712 48.3477L146.346 55.0512L130.01 48.3477L123.22 31.9746L130.01 15.6313L146.346 8.83882Z" fill="#141414"/>
<path fill-rule="evenodd" clip-rule="evenodd" d="M169.441 31.1358L162.71 14.7628L146.374 8L130.008 14.7628L123.219 31.1358L130.008 47.5089L146.374 54.2124L162.71 47.5089L169.441 31.1358Z" fill="#141414"/>
<path fill-rule="evenodd" clip-rule="evenodd" d="M144.564 35.5048H155.445V40.6659H137.211V35.9794L144.415 28.0598L137.211 20.5259V15.958H155.445V21.0301H144.801L151.442 27.9709L144.564 35.5048Z" fill="white"/>
<path d="M146.343 0C146.04 0.0163927 145.74 0.0763659 145.454 0.178006L127.072 7.86028C126.804 7.95275 126.561 8.10495 126.361 8.30537C126.16 8.50578 126.008 8.74915 125.916 9.01707L118.237 27.4071C118.067 27.968 118.067 28.5666 118.237 29.1275L125.916 47.5471C126.012 47.8201 126.164 48.0696 126.364 48.2792C126.563 48.4889 126.804 48.6538 127.072 48.7633L145.454 56.3565C145.74 56.4582 146.04 56.5182 146.343 56.5346C146.628 56.521 146.908 56.4608 147.174 56.3565L165.585 48.7633C165.858 48.6514 166.106 48.4863 166.315 48.2775C166.524 48.0687 166.689 47.8204 166.801 47.5471L174.391 29.1275C174.522 28.8596 174.59 28.5654 174.59 28.2673C174.59 27.9691 174.522 27.6749 174.391 27.4071L166.801 9.01707C166.691 8.74925 166.526 8.50766 166.317 8.30826C166.107 8.10886 165.858 7.95619 165.585 7.86028L147.174 0.178006C146.908 0.0737367 146.628 0.0135803 146.343 0ZM146.343 5.16109L162.709 11.9535L169.41 28.2969L162.709 44.581L146.343 51.3735L130.007 44.581L123.218 28.2969L130.007 11.9535L146.343 5.16109Z" fill="white"/>
<path d="M146.343 94.1748C146.041 94.1786 145.741 94.2286 145.454 94.3231L127.072 102.005C126.806 102.102 126.565 102.255 126.365 102.455C126.165 102.655 126.012 102.896 125.916 103.162L118.237 121.552C118.067 122.113 118.067 122.712 118.237 123.273L125.916 141.692C126.012 141.965 126.164 142.215 126.364 142.424C126.563 142.634 126.804 142.799 127.072 142.908L145.454 150.531C145.745 150.609 146.043 150.659 146.343 150.68C146.625 150.662 146.903 150.612 147.174 150.531L165.585 142.908C165.858 142.797 166.106 142.631 166.315 142.423C166.524 142.214 166.689 141.966 166.801 141.692L174.391 123.273C174.522 123.005 174.59 122.711 174.59 122.412C174.59 122.114 174.522 121.82 174.391 121.552L166.801 103.162C166.687 102.897 166.52 102.658 166.311 102.459C166.102 102.261 165.855 102.106 165.585 102.005L147.174 94.3231C146.907 94.2285 146.626 94.1783 146.343 94.1748ZM146.343 99.3062L162.709 106.099L169.41 122.472L162.709 138.756L146.343 145.519L130.007 138.756L123.218 122.472L130.007 106.099L146.343 99.3062Z" fill="#141414"/>
<path fill-rule="evenodd" clip-rule="evenodd" d="M169.441 121.136L162.71 104.792L146.374 98L130.008 104.792L123.219 121.136L130.008 137.42L146.374 144.212L162.71 137.42L169.441 121.136Z" fill="#141414"/>
<path fill-rule="evenodd" clip-rule="evenodd" d="M144.564 125.883H155.445V130.955H137.211V126.387L144.415 118.378L137.211 110.933V106.336H155.445V111.408H144.801L151.442 118.378L144.564 125.883Z" fill="white"/>
<path d="M146.342 90.4077C146.048 90.3629 145.748 90.3629 145.453 90.4077L127.071 98.0306C126.803 98.14 126.562 98.305 126.362 98.5146C126.163 98.7242 126.011 98.9738 125.915 99.2467L118.236 117.666C118.057 118.216 118.057 118.808 118.236 119.357L125.915 137.777C126.011 138.05 126.163 138.299 126.362 138.509C126.562 138.719 126.803 138.883 127.071 138.993L145.453 146.616C145.748 146.661 146.048 146.661 146.342 146.616C146.617 146.661 146.898 146.661 147.173 146.616L165.584 138.993C165.857 138.881 166.105 138.716 166.314 138.507C166.523 138.298 166.688 138.05 166.8 137.777L174.39 119.357C174.52 119.094 174.588 118.805 174.588 118.512C174.588 118.218 174.52 117.929 174.39 117.666L166.8 99.2467C166.688 98.9734 166.523 98.7252 166.314 98.5164C166.105 98.3076 165.857 98.1424 165.584 98.0306L147.173 90.4077C146.898 90.3628 146.617 90.3628 146.342 90.4077ZM146.342 95.5391L162.708 102.331L169.409 118.616L162.708 134.989L146.342 141.781L130.006 134.989L123.217 118.616L130.006 102.331L146.342 95.5391Z" fill="white"/>
<path d="M146.346 198.79C146.042 198.766 145.736 198.817 145.457 198.939L127.075 206.561C126.558 206.774 126.144 207.178 125.918 207.689L118.239 226.138C118.061 226.667 118.061 227.24 118.239 227.769L124.169 242.333L128.735 240.524L123.102 226.939L129.891 210.595L146.227 203.803L162.593 210.595L168.523 225.159L173.118 223.35L166.655 207.629C166.399 207.12 165.967 206.719 165.44 206.502L147.028 198.879C146.81 198.8 146.577 198.77 146.346 198.79Z" fill="#141414"/>
<path fill-rule="evenodd" clip-rule="evenodd" d="M170 225.069L163.811 210.029L146.929 203L130.016 210.029L123 226.942L128.852 241L170 225.069Z" fill="#141414"/>
<path fill-rule="evenodd" clip-rule="evenodd" d="M144.564 230.439H155.119L141.955 235.6H137.211V230.944L144.415 222.994L137.211 215.46V210.893H155.445V215.965H144.801L151.442 222.905L144.564 230.439Z" fill="white"/>
<path d="M146.343 194.935C146.04 194.951 145.74 195.011 145.454 195.113L127.072 202.795C126.804 202.887 126.561 203.04 126.361 203.24C126.16 203.44 126.008 203.684 125.916 203.952L118.237 222.342C118.067 222.903 118.067 223.501 118.237 224.062L125.679 241.859L130.748 239.812L130.007 239.575L123.218 223.202L130.007 206.858L146.343 200.066L162.709 206.858L169.41 223.202L168.609 225.248L174.539 222.876C174.508 222.68 174.448 222.49 174.361 222.312L166.771 203.922C166.662 203.654 166.497 203.413 166.287 203.213C166.078 203.014 165.828 202.861 165.556 202.765L147.144 195.083C146.886 194.992 146.616 194.942 146.343 194.935Z" fill="white"/>
<path d="M177.987 223L117 246.551" stroke="#141414" stroke-width="3" stroke-linecap="round" stroke-linejoin="round"/>
<defs>
<linearGradient id="paint0_linear_705_20530" x1="51.5" y1="267.5" x2="23.5442" y2="368.512" gradientUnits="userSpaceOnUse">
<stop stop-color="#141414"/>
<stop offset="1" stop-color="white" stop-opacity="0"/>
</linearGradient>
<linearGradient id="paint1_linear_705_20530" x1="41" y1="307" x2="51.5295" y2="393.496" gradientUnits="userSpaceOnUse">
<stop stop-color="#FF5E18"/>
<stop offset="1" stop-color="white" stop-opacity="0"/>
</linearGradient>
<linearGradient id="paint2_linear_705_20530" x1="48" y1="318" x2="53" y2="369.5" gradientUnits="userSpaceOnUse">
<stop stop-color="#141414"/>
<stop offset="1" stop-color="#141414" stop-opacity="0"/>
</linearGradient>
<linearGradient id="paint3_linear_705_20530" x1="94.8745" y1="223.943" x2="96.3583" y2="54.873" gradientUnits="userSpaceOnUse">
<stop stop-color="#FF5E18" stop-opacity="0"/>
<stop offset="1" stop-color="#FF5E18"/>
</linearGradient>
</defs>
</svg>
