<svg width="224" height="414" viewBox="0 0 224 414" fill="none" xmlns="http://www.w3.org/2000/svg">
<g clip-path="url(#clip0_705_21660)">
<path fill-rule="evenodd" clip-rule="evenodd" d="M43.9704 411.806L63.5852 414.03L81.9851 375.752C90.1333 358.822 93.5703 345.894 81.1555 333.975C77.2663 330.445 72.9214 327.454 68.237 325.08C63.6741 322.619 56.1482 320.247 52.2371 323.034L48.5629 329.735L38.5778 346.428C45.6889 338.897 50.6074 330.625 59.8222 334.39C76.9778 347.229 75.3481 356.39 63.5852 378.213L43.9704 411.806Z" fill="url(#paint0_linear_705_21660)"/>
<path fill-rule="evenodd" clip-rule="evenodd" d="M46.6667 406.588L51.8222 407.151L69.6 376.078C82.3408 353.929 80.3852 346.428 61.1852 335.28C59.1894 333.858 56.7845 333.126 54.3354 333.196C51.8864 333.265 49.5269 334.132 47.6149 335.665C44.0846 338.657 40.9038 342.039 38.1334 345.746L35.9408 348.711C38.747 345.995 41.8136 343.562 45.0963 341.447C53.5704 335.784 57.3333 339.401 64.0296 343.819C74.7556 350.905 73.6889 358.644 65.1852 374.625L46.6667 406.588Z" fill="url(#paint1_linear_705_21660)"/>
<path fill-rule="evenodd" clip-rule="evenodd" d="M98.2222 62.3239H190.637V200.166C183.724 202.486 177.133 205.674 171.022 209.654C161.215 216.117 162.133 230.112 176.267 226.347C178.222 225.783 180.178 225.279 182.193 224.716C163.141 233.285 171.881 251.401 186.667 245.471C188.059 244.967 189.363 244.729 190.667 244.225V252.409L184.889 254.128L177.926 257.479L174.815 262.134L98.3407 261.393V225.516L101.541 214.309L104.296 198.772L104.711 190.767L102.904 178.403L98.3407 171.198L98.2222 62.3239Z" fill="url(#paint2_linear_705_21660)"/>
<path fill-rule="evenodd" clip-rule="evenodd" d="M85.6593 198.238L88.4445 185.4L88.5926 179.737C91.2 180.982 93.0075 183.354 92.6815 188.632C91.6507 196.469 89.7832 204.172 87.1111 211.611C83.526 220.861 80.4149 226.435 78.0445 232.543C68.8889 255.107 69.5408 293.385 91.2001 312.361L79.9407 312.598C71.0518 312.835 72.326 314.08 67.763 321.997L22.2518 402.051H1.6593L21.926 371.957L39.5556 345.064L46.0149 334.361L51.0815 325.466L54.5186 318.854L57.6296 310.759L59.763 300.678L60.8 290.627L61.7778 275.506L62.9334 258.012L63.4963 252.853L65.2148 244.581L68.1778 237.228L73.0074 228.007L78.1334 218.341L81.3333 211.551L83.7926 205.088L85.6593 198.238Z" fill="url(#paint3_linear_705_21660)"/>
<path fill-rule="evenodd" clip-rule="evenodd" d="M114.341 281.792C109.748 316.867 157.719 302.724 165.896 285.142C169.985 276.395 114.578 279.924 114.341 281.792Z" fill="url(#paint4_linear_705_21660)"/>
<path d="M190.489 272.541V281.703C190.481 283.588 189.729 285.393 188.397 286.726C187.066 288.059 185.261 288.811 183.378 288.819H105.185C103.306 288.796 101.511 288.038 100.182 286.709C98.8538 285.379 98.0972 283.583 98.0741 281.703V227.088M98.0741 171.643V125.685C98.1046 123.808 98.8636 122.015 100.191 120.687C101.518 119.36 103.309 118.6 105.185 118.569H183.378C185.259 118.585 187.059 119.34 188.389 120.671C189.719 122.002 190.473 123.803 190.489 125.685V200.166M190.489 243.84V252.735" stroke="white" stroke-width="3" stroke-linecap="round" stroke-linejoin="round"/>
<path fill-rule="evenodd" clip-rule="evenodd" d="M144.326 20.2212C143.822 20.2127 143.321 20.293 142.844 20.4584L112.119 33.2078C111.668 33.3936 111.261 33.6716 110.925 34.0239C110.588 34.3762 110.329 34.7951 110.163 35.2536L97.4223 66.0005C97.2034 66.464 97.0897 66.9703 97.0897 67.4829C97.0897 67.9956 97.2034 68.5019 97.4223 68.9654L110.163 99.7122C110.331 100.159 110.592 100.565 110.929 100.902C111.267 101.24 111.672 101.501 112.119 101.669L142.844 114.419C143.307 114.639 143.814 114.751 144.326 114.745C144.81 114.751 145.288 114.639 145.719 114.419L176.444 101.669C176.903 101.504 177.321 101.244 177.673 100.907C178.025 100.57 178.303 100.163 178.489 99.7122L191.23 68.9654C191.576 68.0075 191.576 66.9584 191.23 66.0005L178.489 35.2536C178.306 34.7911 178.03 34.371 177.678 34.0192C177.327 33.6673 176.907 33.3912 176.444 33.2078L145.719 20.4584C145.274 20.2884 144.801 20.2078 144.326 20.2212ZM144.326 28.79L171.615 40.0865L182.904 67.394L171.615 94.7014L144.326 106.057L117.037 94.7014L105.659 67.394L117.037 40.0865L144.326 28.79Z" fill="#141414"/>
<path fill-rule="evenodd" clip-rule="evenodd" d="M182.904 67.394L171.615 40.0569L144.326 28.7899L117.037 40.0569L105.659 67.394L117.037 94.7014L144.326 106.057L171.615 94.7014L182.904 67.394Z" fill="#141414"/>
<path fill-rule="evenodd" clip-rule="evenodd" d="M141.304 73.1757H159.615V81.6852H129.037V74.0059L141.037 60.6635L129.126 48.1513V40.472H159.615V48.9814H141.718L152.83 60.6042L141.304 73.1757Z" fill="white"/>
<path d="M144.326 13.8465C143.817 13.8694 143.316 13.9797 142.844 14.1726L112.118 26.922C111.672 27.09 111.267 27.3515 110.929 27.689C110.592 28.0265 110.331 28.4321 110.163 28.8789L97.4222 59.7147C97.217 60.1453 97.1104 60.6163 97.1104 61.0934C97.1104 61.5705 97.217 62.0415 97.4222 62.4721L110.074 93.4265C110.237 93.8762 110.496 94.2846 110.834 94.6228C111.172 94.961 111.58 95.2206 112.03 95.3834L142.756 108.162C143.231 108.341 143.73 108.451 144.237 108.489C144.716 108.457 145.187 108.347 145.63 108.162L176.355 95.3834C176.816 95.2228 177.238 94.9649 177.59 94.6273C177.943 94.2897 178.219 93.8802 178.4 93.4265L191.141 62.5907C191.467 61.7006 191.467 60.7234 191.141 59.8333L178.4 28.9975C178.214 28.5468 177.936 28.1399 177.584 27.8029C177.232 27.4659 176.814 27.2063 176.355 27.0406L145.63 14.2912C145.227 14.062 144.785 13.9111 144.326 13.8465ZM144.326 22.5042L171.615 33.7711L182.904 61.1082L171.615 88.4157L144.326 99.6826L117.037 88.4157L105.659 61.1082L117.037 33.7711L144.326 22.5042Z" fill="white"/>
<path d="M1.48145 402.229C17.837 377.145 39.3185 347.851 52.8889 321.937C61.4518 305.511 59.9999 297.18 62.9333 257.923C63.9999 244.433 66.7852 238.71 74.3704 225.309C82.0694 212.488 86.7882 198.099 88.1777 183.206C89.4221 170.605 92.2666 168.381 95.9407 170.279C106.815 175.764 104.83 194.651 102.815 207.578C101.007 217.956 95.0518 231.683 98.0741 240.608" stroke="white" stroke-width="3" stroke-linecap="round" stroke-linejoin="round"/>
<path d="M95.6147 401.992L110.074 370.593C116.859 355.768 120.8 348.177 126.341 340.587C139.911 322.175 162.874 307.053 175.941 288.67" stroke="white" stroke-width="3" stroke-linecap="round" stroke-linejoin="round"/>
<path d="M176.119 226.435C178.074 225.872 180.03 225.368 182.044 224.805C162.993 233.373 171.733 251.489 186.518 245.56C195.378 242.03 204.717 239.852 214.222 239.096C223.615 233.373 220.77 221.84 211.615 217.837C214.578 210.395 214.578 198.772 202.222 198.298C192.978 197.942 179.081 204.406 170.993 209.802C161.067 216.206 161.985 230.201 176.119 226.435Z" stroke="white" stroke-width="3" stroke-linejoin="round"/>
<path d="M208.296 249.325C201.452 250.808 191.141 252.29 184.593 254.158C167.674 258.576 172.741 276.899 188.978 272.956C196.12 271.512 203.142 269.529 209.985 267.026C223.348 261.689 220.385 246.805 208.296 249.325Z" stroke="white" stroke-width="3" stroke-miterlimit="10"/>
<path d="M211.496 217.778C201.345 218.749 191.375 221.114 181.867 224.805" stroke="white" stroke-width="3" stroke-miterlimit="10"/>
<path d="M190.489 174.341C194.974 168.379 200.316 163.113 206.341 158.715C216.059 151.362 230.459 158.715 217.126 172.473C208.92 180.92 201.204 189.829 194.015 199.158" stroke="white" stroke-width="3" stroke-miterlimit="10"/>
<path d="M214.104 239.007L198.489 251.193" stroke="white" stroke-width="3" stroke-miterlimit="10"/>
<path fill-rule="evenodd" clip-rule="evenodd" d="M98.0741 278.678V261.511L173.57 262.163L174.785 267.975L180.119 272.689L184.533 273.43L190.489 272.541V281.703L188.77 286.269L183.378 288.819H170.4H107.052L101.985 287.988L98.8148 284.638L98.0741 278.678Z" fill="white"/>
<path d="M173.807 16.0109C178.226 16.0109 181.807 12.4267 181.807 8.00544C181.807 3.58416 178.226 0 173.807 0C169.389 0 165.807 3.58416 165.807 8.00544C165.807 12.4267 169.389 16.0109 173.807 16.0109Z" fill="white"/>
<path fill-rule="evenodd" clip-rule="evenodd" d="M75.3482 81.952H85.7482C86.7075 82.0353 87.5957 82.492 88.2219 83.2239C88.8481 83.9559 89.1621 84.9045 89.0964 85.8658V97.9036C89.1621 98.8648 88.8481 99.8135 88.2219 100.545C87.5957 101.277 86.7075 101.734 85.7482 101.817H75.3482C74.3889 101.734 73.5007 101.277 72.8745 100.545C72.2483 99.8135 71.9343 98.8648 72 97.9036V85.8658C71.9343 84.9045 72.2483 83.9559 72.8745 83.2239C73.5007 82.492 74.3889 82.0353 75.3482 81.952Z" fill="#FF5E18" stroke="#FF5E18" stroke-miterlimit="10"/>
<path fill-rule="evenodd" clip-rule="evenodd" d="M165.067 108.696H175.467C177.304 108.696 178.815 111.068 178.815 114.003V130.103C178.815 133.068 177.304 135.411 175.467 135.411H165.067C163.23 135.411 161.719 133.039 161.719 130.103V114.003C161.719 111.216 163.23 108.696 165.067 108.696Z" fill="white" stroke="#FF5E18" stroke-width="3" stroke-miterlimit="10"/>
<path d="M137.037 140.066V203.605L125.126 186.527" stroke="white" stroke-width="3" stroke-linecap="round" stroke-linejoin="round"/>
<path d="M151.911 203.605V140.066L163.852 157.174" stroke="white" stroke-width="3" stroke-linecap="round" stroke-linejoin="round"/>
<path fill-rule="evenodd" clip-rule="evenodd" d="M85.7482 252.023C85.2445 261.274 82.3704 271.325 76.6519 275.565C68 281.969 61.6296 263.142 68.1777 246.864C75.437 228.896 87.0519 226.999 85.7482 252.023Z" fill="#FF5E18"/>
</g>
<defs>
<linearGradient id="paint0_linear_705_21660" x1="63.9449" y1="321.778" x2="63.9449" y2="414.03" gradientUnits="userSpaceOnUse">
<stop stop-color="#FF5E18"/>
<stop offset="1" stop-color="#FF5E18" stop-opacity="0"/>
</linearGradient>
<linearGradient id="paint1_linear_705_21660" x1="59.2593" y1="352.833" x2="56.8108" y2="407.151" gradientUnits="userSpaceOnUse">
<stop stop-color="white"/>
<stop offset="1" stop-color="#141414" stop-opacity="0"/>
</linearGradient>
<linearGradient id="paint2_linear_705_21660" x1="75.5554" y1="249.058" x2="36.9885" y2="114.165" gradientUnits="userSpaceOnUse">
<stop stop-color="#FF5E18" stop-opacity="0"/>
<stop offset="1" stop-color="#FF5E18"/>
</linearGradient>
<linearGradient id="paint3_linear_705_21660" x1="59.2591" y1="210.513" x2="69.6435" y2="314.286" gradientUnits="userSpaceOnUse">
<stop stop-color="white"/>
<stop offset="1" stop-color="#141414" stop-opacity="0"/>
</linearGradient>
<linearGradient id="paint4_linear_705_21660" x1="158.518" y1="290.569" x2="117.033" y2="302.414" gradientUnits="userSpaceOnUse">
<stop stop-color="#FF5E18"/>
<stop offset="1" stop-color="#141414"/>
</linearGradient>
<clipPath id="clip0_705_21660">
<rect width="224" height="414" fill="white"/>
</clipPath>
</defs>
</svg>
