<svg xmlns:inkscape="http://www.inkscape.org/namespaces/inkscape" xmlns:sodipodi="http://sodipodi.sourceforge.net/DTD/sodipodi-0.dtd" xmlns="http://www.w3.org/2000/svg" xmlns:svg="http://www.w3.org/2000/svg" xmlns:rdf="http://www.w3.org/1999/02/22-rdf-syntax-ns#" xmlns:cc="http://creativecommons.org/ns#" xmlns:dc="http://purl.org/dc/elements/1.1/" version="1.1" x="0px" y="0px" style="enable-background:new 0 0 1417.3 1417.3;" xml:space="preserve" id="svg230" sodipodi:docname="__nautilus_logo.svg" inkscape:version="1.1.1 (c3084ef, 2021-09-22)" viewBox="414.37 258.52 575.6 575.6"><metadata id="metadata236"><rdf:RDF><cc:Work rdf:about=""><dc:format>image/svg+xml</dc:format><dc:type rdf:resource="http://purl.org/dc/dcmitype/StillImage"></dc:type><dc:title></dc:title></cc:Work></rdf:RDF></metadata><defs id="defs234">																																					<linearGradient id="SVGID_1_" gradientUnits="userSpaceOnUse" x1="221.05969" y1="1266.04" x2="316.77499" y2="1266.04" gradientTransform="matrix(-1.0909783,0,0,-1.0909783,992.50151,1697.5195)">			<stop offset="0" style="stop-color:#FFEABD" id="stop91"></stop>			<stop offset="1" style="stop-color:#FFC027" id="stop93"></stop>		</linearGradient>																																							<linearGradient y2="500.89191" x2="772.49377" y1="500.89191" x1="629.24402" gradientUnits="userSpaceOnUse" id="SVGID_00000085238500194547172150000002663939323965651385_" gradientTransform="matrix(1.0909783,0,0,1.0909783,-66.042332,-60.228797)">				<stop id="stop200" style="stop-color:#FFEABD" offset="0"></stop>				<stop id="stop202" style="stop-color:#FFC027" offset="1"></stop>			</linearGradient>																		</defs><sodipodi:namedview pagecolor="#ffffff" bordercolor="#666666" borderopacity="1" objecttolerance="10" gridtolerance="10" guidetolerance="10" inkscape:pageopacity="0" inkscape:pageshadow="2" inkscape:window-width="1397" inkscape:window-height="765" id="namedview232" showgrid="false" inkscape:zoom="0.43852551" inkscape:cx="539.30728" inkscape:cy="527.90544" inkscape:current-layer="svg230" inkscape:pagecheckerboard="0" inkscape:window-x="0" inkscape:window-y="25" inkscape:window-maximized="0"></sodipodi:namedview><style type="text/css" id="style2">	.st0{fill:#FFAE00;}	.st1{fill:#FFFFFF;}	.st2{fill:#FFAE00;stroke:#000000;stroke-width:3;stroke-linecap:round;stroke-linejoin:round;stroke-miterlimit:10;}	.st3{stroke:#000000;stroke-width:3;stroke-linecap:round;stroke-linejoin:round;stroke-miterlimit:10;}	.st4{fill:#FFEABD;}	.st5{fill:url(#SVGID_1_);stroke:#000000;stroke-width:3;stroke-miterlimit:10;}	.st6{fill:url(#SVGID_00000083792725791167882730000005257895608741983141_);stroke:#000000;stroke-width:3;stroke-miterlimit:10;}	.st7{fill:url(#SVGID_00000083054266982739729460000005379981168656792984_);stroke:#000000;stroke-width:3;stroke-miterlimit:10;}	.st8{stroke:#000000;stroke-width:7.5363;stroke-miterlimit:10;}	.st9{fill:url(#SVGID_00000161619639015532486300000001637237158889523588_);stroke:#000000;stroke-width:3;stroke-miterlimit:10;}</style><g id="Layer_1"></g><g id="g39" inkscape:export-xdpi="10.67" inkscape:export-ydpi="10.67" transform="translate(0.76709003,-1.1823842)">			<path class="st0" d="m 701.4,835.3 c -76.9,0 -149.2,-29.9 -203.5,-84.3 -54.4,-54.4 -84.3,-126.7 -84.3,-203.5 0,-76.8 29.9,-149.2 84.3,-203.5 54.4,-54.4 126.7,-84.3 203.5,-84.3 76.8,0 149.2,29.9 203.5,84.3 54.4,54.4 84.3,126.7 84.3,203.5 0,76.8 -29.9,149.2 -84.3,203.5 -54.4,54.3 -126.7,84.3 -203.5,84.3 z m 0,-560.4 c -72.8,0 -141.2,28.3 -192.7,79.8 -51.5,51.5 -79.8,119.9 -79.8,192.7 0,72.8 28.3,141.2 79.8,192.7 51.5,51.5 119.9,79.8 192.7,79.8 72.8,0 141.2,-28.3 192.7,-79.8 51.5,-51.5 79.8,-119.9 79.8,-192.7 0,-72.8 -28.4,-141.2 -79.9,-192.7 -51.4,-51.5 -119.9,-79.8 -192.6,-79.8 z" id="path37" inkscape:connector-curvature="0" style="fill:#ffae00"></path>		</g><g id="g1539" transform="matrix(0.98509019,0,0,0.98509019,13.421732,8.323474)" inkscape:export-xdpi="10.67" inkscape:export-ydpi="10.67"><g inkscape:export-ydpi="9.8400002" inkscape:export-xdpi="9.8400002" transform="matrix(1.0909783,0,0,1.0909783,-66.042332,-60.228797)" id="g47">			<path inkscape:connector-curvature="0" id="path43" d="m 701.4,788.8 c -60.1,0 -106.9,-34.7 -129.4,-55.3 -31.5,-28.9 -53.5,-65 -53.5,-87.8 0,-13 7.4,-18.5 24.8,-18.5 13.1,0 30.9,3.1 51.5,6.8 29.8,5.2 66.9,11.8 106.7,11.8 39.8,0 76.9,-6.5 106.7,-11.8 20.6,-3.6 38.4,-6.8 51.5,-6.8 17.4,0 24.8,5.5 24.8,18.5 0,22.8 -22,58.9 -53.5,87.8 -22.7,20.7 -69.5,55.3 -129.6,55.3 z"></path>			<path inkscape:connector-curvature="0" id="path45" d="m 859.6,628.9 c 8.2,0 13.9,1.2 17.6,3.8 3.7,2.6 5.5,6.7 5.5,13 0,18.3 -16.6,53.2 -53,86.6 -22.3,20.5 -68.7,54.9 -128.3,54.9 -59.6,0 -106,-34.4 -128.3,-54.9 -36.4,-33.4 -53,-68.3 -53,-86.6 0,-6.3 1.7,-10.4 5.5,-13 3.7,-2.6 9.4,-3.8 17.6,-3.8 12.9,0 30.7,3.1 51.2,6.7 29.9,5.3 67.1,11.8 107,11.8 39.9,0 77.1,-6.5 107,-11.8 20.5,-3.6 38.2,-6.7 51.2,-6.7 0,0 0,0 0,0 m 0,-3.3 c -32.3,0 -91.1,18.5 -158.2,18.5 -67.1,0 -125.9,-18.5 -158.2,-18.5 -16.8,0 -26.4,5 -26.4,20.2 0,44.4 82.7,144.8 184.6,144.8 101.9,0 184.6,-100.5 184.6,-144.9 0,-15.1 -9.7,-20.1 -26.4,-20.1 z"></path>		</g><path inkscape:export-ydpi="9.8400002" inkscape:export-xdpi="9.8400002" style="fill:#ffae00;stroke-width:1.09097826" inkscape:connector-curvature="0" id="path53" d="m 857.79809,623.92369 c 0,38.18425 -71.02268,124.48063 -158.73734,124.48063 -87.71466,0 -158.62825,-86.40548 -158.62825,-124.48063 0,-38.07514 71.02269,-1.41827 158.73735,-1.41827 87.71465,0 158.62824,-36.76597 158.62824,1.41827 z" class="st0"></path><g inkscape:export-ydpi="9.8400002" inkscape:export-xdpi="9.8400002" transform="matrix(1.0909783,0,0,1.0909783,-66.042332,-60.228797)" id="g57">			<path style="fill:#ffffff" inkscape:connector-curvature="0" id="path55" d="m 701.4,747.6 c -68.2,0 -122.2,-52.9 -141.8,-88.5 -1.7,-3.1 -0.6,-7.1 2.5,-8.8 3.1,-1.7 7.1,-0.6 8.8,2.5 10.9,19.8 29.3,39.6 50.5,54.5 17.7,12.4 46,27.3 79.9,27.3 3.6,0 6.5,2.9 6.5,6.5 0,3.6 -2.9,6.5 -6.4,6.5 z" class="st1"></path>		</g><g inkscape:export-ydpi="9.8400002" inkscape:export-xdpi="9.8400002" transform="matrix(1.0909783,0,0,1.0909783,-66.042332,-60.228797)" id="g63">			<path inkscape:connector-curvature="0" id="path59" d="m 701.4,663.2 c -30.1,0 -50.8,-1.7 -67.1,-5.4 -18.6,-4.3 -32,-11.4 -42.2,-22.3 -20.5,-22.1 -28.9,-61.3 -28.9,-135.1 0,-78.5 62,-142.4 138.2,-142.4 76.2,0 138.2,63.9 138.2,142.4 0,73.8 -8.4,113 -28.9,135.1 -21.4,23.1 -57.7,27.7 -109.3,27.7 z"></path>			<path inkscape:connector-curvature="0" id="path61" d="m 701.4,359.5 c 36.5,0 70.8,14.6 96.6,41.2 25.8,26.6 40.1,62 40.1,99.6 0,73.4 -8.2,112.3 -28.5,134.1 -9.9,10.7 -23.1,17.7 -41.4,21.9 -16.2,3.7 -36.8,5.4 -66.8,5.4 -30,0 -50.6,-1.7 -66.8,-5.4 -18.3,-4.2 -31.5,-11.2 -41.4,-21.9 -20.2,-21.8 -28.5,-60.7 -28.5,-134.1 0,-37.6 14.2,-73 40.1,-99.6 25.7,-26.5 60.1,-41.2 96.6,-41.2 m 0,-3 c -77.2,0 -139.7,64.4 -139.7,143.9 0,143.9 31.5,164.3 139.7,164.3 108.2,0 139.7,-20.4 139.7,-164.3 0,-79.5 -62.6,-143.9 -139.7,-143.9 z"></path>		</g><ellipse inkscape:export-ydpi="9.8400002" inkscape:export-xdpi="9.8400002" style="fill:#ffae00;stroke:#000000;stroke-width:3.27293491;stroke-linecap:round;stroke-linejoin:round;stroke-miterlimit:10" id="ellipse65" ry="156.99178" rx="152.40967" cy="485.69675" cx="699.16986" class="st2"></ellipse><path inkscape:export-ydpi="9.8400002" inkscape:export-xdpi="9.8400002" style="stroke:#000000;stroke-width:3.27293491;stroke-linecap:round;stroke-linejoin:round;stroke-miterlimit:10" inkscape:connector-curvature="0" id="path77" d="m 606.87308,360.67063 c 6.98226,-5.1276 19.85581,-10.1461 38.83883,-0.1091 l -15.49189,-14.7282 z" class="st3"></path><path inkscape:export-ydpi="9.8400002" inkscape:export-xdpi="9.8400002" style="stroke:#000000;stroke-width:3.27293491;stroke-linecap:round;stroke-linejoin:round;stroke-miterlimit:10" inkscape:connector-curvature="0" id="path79" d="m 791.13932,360.67063 c -6.98226,-5.1276 -20.1831,-10.037 -39.16612,0.1091 l 14.8373,-14.9464 z" class="st3"></path><path inkscape:export-ydpi="9.8400002" inkscape:export-xdpi="9.8400002" style="fill:#ffae00;stroke:#000000;stroke-width:3.27293491;stroke-linecap:round;stroke-linejoin:round;stroke-miterlimit:10" inkscape:connector-curvature="0" id="path81" d="m 772.37449,323.90466 c 0,-17.89204 -32.83845,-32.29296 -73.31374,-32.29296 -40.4753,0 -73.31374,14.51002 -73.31374,32.29296 v 14.51001 c 0,17.89205 32.83844,32.29296 73.31374,32.29296 40.47529,0 73.31374,-14.51001 73.31374,-32.29296 0,-2.50925 0,-12.00076 0,-14.51001 z" class="st2"></path><g inkscape:export-ydpi="9.8400002" inkscape:export-xdpi="9.8400002" transform="matrix(1.0909783,0,0,1.0909783,-66.042332,-60.228797)" id="g85">			<path style="fill:#ffeabd" inkscape:connector-curvature="0" id="path83" d="m 607.5,643.5 c -5.8,0 -10.4,-4.7 -10.4,-10.4 0,-5.7 4.7,-10.4 10.4,-10.4 5.7,0 10.4,4.7 10.4,10.4 0,5.7 -4.7,10.4 -10.4,10.4 z m 0,-15.9 c -3,0 -5.4,2.4 -5.4,5.4 0,3 2.4,5.4 5.4,5.4 3,0 5.4,-2.4 5.4,-5.4 0,-3 -2.4,-5.4 -5.4,-5.4 z" class="st4"></path>		</g><g inkscape:export-ydpi="9.8400002" inkscape:export-xdpi="9.8400002" transform="matrix(1.0909783,0,0,1.0909783,-66.042332,-60.228797)" id="g89">			<path style="fill:#ffeabd" inkscape:connector-curvature="0" id="path87" d="m 794.7,645.3 c -5.8,0 -10.4,-4.7 -10.4,-10.4 0,-5.7 4.7,-10.4 10.4,-10.4 5.7,0 10.4,4.7 10.4,10.4 0,5.7 -4.6,10.4 -10.4,10.4 z m 0,-15.9 c -3,0 -5.4,2.4 -5.4,5.4 0,3 2.4,5.4 5.4,5.4 3,0 5.4,-2.4 5.4,-5.4 0,-3 -2.4,-5.4 -5.4,-5.4 z" class="st4"></path>		</g><ellipse inkscape:export-ydpi="9.8400002" inkscape:export-xdpi="9.8400002" style="fill:url(#SVGID_1_);stroke:#000000;stroke-width:3.27293491;stroke-miterlimit:10" id="ellipse96" ry="23.019642" rx="52.257862" cy="316.26782" cx="699.16986" class="st5"></ellipse><g inkscape:export-ydpi="9.8400002" inkscape:export-xdpi="9.8400002" transform="matrix(1.0909783,0,0,1.0909783,-66.042332,-60.228797)" id="g100">			<path inkscape:connector-curvature="0" id="path98" d="m 701.4,367.9 c -36.2,0 -64.5,-10 -64.5,-22.8 0,-12.8 28.3,-22.8 64.5,-22.8 36.2,0 64.5,10 64.5,22.8 0,12.8 -28.4,22.8 -64.5,22.8 z m 0,-42.2 c -36.5,0 -61,10 -61,19.4 0,9.4 24.5,19.4 61,19.4 36.5,0 61,-10 61,-19.4 0,-9.4 -24.5,-19.4 -61,-19.4 z"></path>		</g><g inkscape:export-ydpi="9.8400002" inkscape:export-xdpi="9.8400002" transform="matrix(1.0909783,0,0,1.0909783,-66.042332,-60.228797)" id="g104">			<path inkscape:connector-curvature="0" id="path102" d="m 744.6,355 c -28.2,-9.6 -60.5,-9.6 -86.5,0 l -1,-2.8 c 26.6,-9.9 59.7,-9.9 88.5,0 z"></path>		</g><g inkscape:export-ydpi="9.8400002" inkscape:export-xdpi="9.8400002" transform="matrix(1.0909783,0,0,1.0909783,-66.042332,-60.228797)" id="g108">			<path inkscape:connector-curvature="0" id="path106" d="m 745.9,339.3 c -28.1,-9.6 -63,-9.6 -89,0 l -1,-2.8 c 26.5,-9.8 62.3,-9.8 91,0 z"></path>		</g><g inkscape:export-ydpi="9.8400002" inkscape:export-xdpi="9.8400002" transform="matrix(1.0909783,0,0,1.0909783,-66.042332,-60.228797)" id="g118">			<g id="g112">				<path inkscape:connector-curvature="0" id="path110" d="m 682.8,366 c -4.7,-12.6 -4.7,-28.8 0,-42.4 l 2.8,1 c -4.4,13 -4.4,28.5 0,40.4 z"></path>			</g>			<g id="g116">				<path inkscape:connector-curvature="0" id="path114" d="m 719.9,365.9 -2.8,-1 c 4.4,-13 4.4,-28.5 0,-40.4 l 2.8,-1 c 4.6,12.6 4.6,28.8 0,42.4 z"></path>			</g>		</g><path inkscape:export-ydpi="9.8400002" inkscape:export-xdpi="9.8400002" style="stroke:#000000;stroke-width:3.27293491;stroke-linecap:round;stroke-linejoin:round;stroke-miterlimit:10" inkscape:connector-curvature="0" id="path120" d="m 587.56277,378.78087 c 0.32729,-0.54549 -21.81957,33.16574 -21.81957,33.16574 l 19.63761,19.52851 c -0.1091,0 -14.61911,-25.0925 2.18196,-52.69425 z" class="st3"></path><path inkscape:export-ydpi="9.8400002" inkscape:export-xdpi="9.8400002" style="stroke:#000000;stroke-width:3.27293491;stroke-linecap:round;stroke-linejoin:round;stroke-miterlimit:10" inkscape:connector-curvature="0" id="path122" d="m 810.34054,378.78087 c -0.3273,-0.54549 21.81956,33.16574 21.81956,33.16574 l -19.63761,19.52851 c 0.1091,0 14.61911,-25.0925 -2.18195,-52.69425 z" class="st3"></path><path inkscape:export-ydpi="9.8400002" inkscape:export-xdpi="9.8400002" style="stroke:#000000;stroke-width:3.27293491;stroke-linecap:round;stroke-linejoin:round;stroke-miterlimit:10" inkscape:connector-curvature="0" id="path124" d="m 574.47103,552.57371 c -6.21858,7.52775 -11.45527,20.5104 -6.98226,27.92905 L 555.7062,562.39252 c 0,0 -0.21819,-16.47377 0.54549,-16.47377 0.76369,0 18.21934,6.65496 18.21934,6.65496 z" class="st3"></path><path inkscape:export-ydpi="9.8400002" inkscape:export-xdpi="9.8400002" style="stroke:#000000;stroke-width:3.27293491;stroke-linecap:round;stroke-linejoin:round;stroke-miterlimit:10" inkscape:connector-curvature="0" id="path126" d="m 824.08686,553.88289 c 6.21858,7.52775 11.12798,19.09212 6.65497,26.61987 l 11.78257,-18.11024 c 0,0 0.21819,-16.47377 -0.54549,-16.47377 -0.76369,0 -17.89205,7.96414 -17.89205,7.96414 z" class="st3"></path><g inkscape:export-ydpi="9.8400002" inkscape:export-xdpi="9.8400002" transform="matrix(1.0909783,0,0,1.0909783,-66.042332,-60.228797)" id="g159">			<path style="fill:#ffae00;stroke:#000000;stroke-width:3;stroke-linecap:round;stroke-linejoin:round;stroke-miterlimit:10" inkscape:connector-curvature="0" id="path128" d="m 570.6,432.4 c -16.4,0 -29.6,30.1 -29.6,67.2 0,37.1 13.3,67.2 29.6,67.2 h 6 c 16.4,0 29.6,-30.1 29.6,-67.2 0,-37.1 -13.3,-67.2 -29.6,-67.2 -2.4,0 -3.7,0 -6,0 z" class="st2"></path>							<linearGradient gradientTransform="rotate(90,-1315.3721,2755.511)" y2="879.71979" x2="-3523.4858" y1="879.71979" x1="-3619.2009" gradientUnits="userSpaceOnUse" id="SVGID_00000176005321536671225770000008511700494046240935_">				<stop id="stop130" style="stop-color:#FFEABD" offset="0"></stop>				<stop id="stop132" style="stop-color:#FFC027" offset="1"></stop>			</linearGradient>							<ellipse id="ellipse135" ry="47.900002" rx="21.1" cy="499.5" cx="560.40002" style="fill:url(#SVGID_00000176005321536671225770000008511700494046240935_);stroke:#000000;stroke-width:3;stroke-miterlimit:10"></ellipse>			<g id="g139">				<path inkscape:connector-curvature="0" id="path137" d="m 564.8,567.2 v -3.4 c 9.7,0 17.6,-28.8 17.6,-64.2 0,-16.7 -2.1,-33.2 -5.7,-45.3 -3.5,-11.7 -8.2,-18.4 -12.9,-18.4 v -3.4 c 6.5,0 12.1,7.2 16.2,20.8 3.8,12.5 5.9,28.9 5.9,46.3 -0.1,33.5 -7.3,67.6 -21.1,67.6 z"></path>			</g>			<g id="g143">				<path inkscape:connector-curvature="0" id="path141" d="m 567.5,543.8 c -9.9,-26.6 -9.9,-59.7 0,-88.5 l 2.8,1 c -9.6,28.2 -9.6,60.5 0,86.5 z"></path>			</g>			<g id="g147">				<path inkscape:connector-curvature="0" id="path145" d="m 555.8,547.4 c -10.5,-28.3 -10.5,-65 0,-95.6 l 2.8,1 c -10.3,30 -10.3,65.9 0,93.6 z"></path>			</g>			<g id="g157">				<g id="g151">					<path inkscape:connector-curvature="0" id="path149" d="m 560.9,521.6 c -7,0 -14.2,-1.2 -21,-3.5 l 1,-2.8 c 13,4.4 27.3,4.4 39.3,0 l 1,2.8 c -6.3,2.3 -13.2,3.5 -20.3,3.5 z"></path>				</g>				<g id="g155">					<path inkscape:connector-curvature="0" id="path153" d="m 580.2,483.8 c -13,-4.4 -27.3,-4.4 -39.3,0 l -1,-2.8 c 12.6,-4.7 27.7,-4.7 41.3,0 z"></path>				</g>			</g>		</g><g inkscape:export-ydpi="9.8400002" inkscape:export-xdpi="9.8400002" transform="matrix(1.0909783,0,0,1.0909783,-66.042332,-60.228797)" id="g192">			<path style="fill:#ffae00;stroke:#000000;stroke-width:3;stroke-linecap:round;stroke-linejoin:round;stroke-miterlimit:10" inkscape:connector-curvature="0" id="path161" d="m 831.7,432.4 c 16.4,0 29.6,30.1 29.6,67.2 0,37.1 -13.3,67.2 -29.6,67.2 h -6 c -16.4,0 -29.6,-30.1 -29.6,-67.2 0,-37.1 13.3,-67.2 29.6,-67.2 2.3,0 3.7,0 6,0 z" class="st2"></path>							<linearGradient gradientTransform="matrix(0,1,1,0,4141.9595,4070.8831)" y2="-3300.1541" x2="-3523.4858" y1="-3300.1541" x1="-3619.2009" gradientUnits="userSpaceOnUse" id="SVGID_00000121272453921459185760000015437207460504906381_">				<stop id="stop163" style="stop-color:#FFEABD" offset="0"></stop>				<stop id="stop165" style="stop-color:#FFC027" offset="1"></stop>			</linearGradient>							<ellipse id="ellipse168" ry="47.900002" rx="21.1" cy="499.5" cx="841.79999" style="fill:url(#SVGID_00000121272453921459185760000015437207460504906381_);stroke:#000000;stroke-width:3;stroke-miterlimit:10"></ellipse>			<g id="g172">				<path inkscape:connector-curvature="0" id="path170" d="m 841.8,564.4 c -12.8,0 -22.8,-28.5 -22.8,-64.9 0,-36.4 10,-64.9 22.8,-64.9 v 3.4 c -9.4,0 -19.4,24.7 -19.4,61.4 0,36.7 10,61.4 19.4,61.4 z"></path>			</g>			<g id="g176">				<path inkscape:connector-curvature="0" id="path174" d="m 834.7,543.8 -2.8,-1 c 9.6,-26 9.6,-58.3 0,-86.5 l 2.8,-1 c 9.9,28.8 9.9,61.9 0,88.5 z"></path>			</g>			<g id="g180">				<path inkscape:connector-curvature="0" id="path178" d="m 846.4,547.4 -2.8,-1 c 10.3,-27.7 10.3,-63.6 0,-93.6 l 2.8,-1 c 10.5,30.6 10.5,67.3 0,95.6 z"></path>			</g>			<g id="g190">				<g id="g184">					<path inkscape:connector-curvature="0" id="path182" d="m 841.3,521.6 c -7.1,0 -14,-1.2 -20.3,-3.5 l 1,-2.8 c 12,4.4 26.3,4.4 39.3,0 l 1,2.8 c -6.8,2.3 -14,3.5 -21,3.5 z"></path>				</g>				<g id="g188">					<path inkscape:connector-curvature="0" id="path186" d="m 822,483.8 -1,-2.8 c 13.7,-4.7 28.7,-4.7 41.3,0 l -1,2.8 c -12,-4.4 -26.3,-4.4 -39.3,0 z"></path>				</g>			</g>		</g><path inkscape:export-ydpi="9.8400002" inkscape:export-xdpi="9.8400002" style="stroke:#000000;stroke-width:3.27293491;stroke-linecap:round;stroke-linejoin:round;stroke-miterlimit:10" inkscape:connector-curvature="0" id="path194" d="m 646.3665,301.43051 c 3.70932,-1.09098 6.10948,1.74556 5.56399,4.36391 7.20045,-7.41865 18.87392,-10.1461 18.87392,-10.1461 z" class="st3"></path><path inkscape:export-ydpi="9.8400002" inkscape:export-xdpi="9.8400002" style="stroke:#000000;stroke-width:3.27293491;stroke-linecap:round;stroke-linejoin:round;stroke-miterlimit:10" inkscape:connector-curvature="0" id="path196" d="m 751.9732,301.43051 c -3.70933,-1.09098 -6.98226,2.40015 -5.1276,5.45489 -8.18234,-6.32767 -17.45565,-11.23708 -17.45565,-11.23708 z" class="st3"></path><circle inkscape:export-ydpi="9.8400002" inkscape:export-xdpi="9.8400002" class="st8" cx="698.62439" cy="486.24222" r="91.969475" id="circle198" style="stroke:#000000;stroke-width:8.22194004;stroke-miterlimit:10"></circle><circle inkscape:export-ydpi="9.8400002" inkscape:export-xdpi="9.8400002" style="fill:url(#SVGID_00000085238500194547172150000002663939323965651385_);stroke:#000000;stroke-width:3.27293491;stroke-miterlimit:10" cx="698.62439" cy="486.24222" r="78.114044" id="circle205"></circle><g inkscape:export-ydpi="9.8400002" inkscape:export-xdpi="9.8400002" transform="matrix(1.0909783,0,0,1.0909783,-66.042332,-60.228797)" id="g223">				<g id="g217">					<path d="m 726.9,565.6 c -5,0 -10,-1.9 -13.8,-5.7 l -71.2,-71.2 c -7.6,-7.6 -7.6,-20 0,-27.7 L 661,441.9 c 7.6,-7.6 20,-7.6 27.7,0 l 71.2,71.2 c 7.6,7.6 7.6,20 0,27.7 l -19.1,19.1 c -3.8,3.8 -8.8,5.7 -13.9,5.7 z M 674.8,442.5 c -3.6,0 -6.9,1.4 -9.4,3.9 l -19.1,19.1 c -2.5,2.5 -3.9,5.8 -3.9,9.4 0,3.6 1.4,6.9 3.9,9.4 l 71.2,71.2 c 5.2,5.2 13.6,5.2 18.8,0 l 19.1,-19.1 c 5.2,-5.2 5.2,-13.6 0,-18.8 l -71.2,-71.2 c -2.5,-2.6 -5.8,-3.9 -9.4,-3.9 z" id="path215" inkscape:connector-curvature="0"></path>				</g>				<g id="g221">					<path d="m 674.8,565.6 c -5,0 -10,-1.9 -13.8,-5.7 l -19.1,-19.1 c -7.6,-7.6 -7.6,-20 0,-27.7 l 71.2,-71.2 c 7.6,-7.6 20,-7.6 27.7,0 l 19.1,19.1 c 7.6,7.6 7.6,20 0,27.7 l -71.2,71.2 c -3.9,3.8 -8.9,5.7 -13.9,5.7 z m -9.4,-10.2 c 2.5,2.5 5.8,3.9 9.4,3.9 3.6,0 6.9,-1.4 9.4,-3.9 l 71.2,-71.2 c 5.2,-5.2 5.2,-13.6 0,-18.8 l -19.1,-19.1 c -5.2,-5.2 -13.6,-5.2 -18.8,0 l -71.2,71.2 c -5.2,5.2 -5.2,13.6 0,18.8 z" id="path219" inkscape:connector-curvature="0"></path>				</g>			</g></g></svg>