<?xml version="1.0" encoding="UTF-8" standalone="no"?><!DOCTYPE svg PUBLIC "-//W3C//DTD SVG 1.1//EN" "http://www.w3.org/Graphics/SVG/1.1/DTD/svg11.dtd"><svg width="100%" height="100%" viewBox="0 0 1080 1080" version="1.1" xmlns="http://www.w3.org/2000/svg" xmlns:xlink="http://www.w3.org/1999/xlink" xml:space="preserve" xmlns:serif="http://www.serif.com/" style="fill-rule:evenodd;clip-rule:evenodd;stroke-linejoin:round;stroke-miterlimit:2;"><g id="Layer_x0020_1"><path d="M1077.57,522.525l-153.26,-358.79c-3.11,-7.4 -9.07,-13.2 -16.49,-16.17l-362.1,-145.37c-7.44,-2.97 -15.75,-2.92 -23.15,0.23l-358.84,153.27c-7.39,3.1 -13.19,9.05 -16.17,16.49l-145.35,362.1c-3.03,7.48 -2.93,15.75 0.22,23.14l153.27,358.85c3.1,7.38 9.05,13.19 16.49,16.17l362.1,145.35c3.43,1.39 7.13,2.13 10.79,2.19l0.92,0c3.89,-0.06 7.76,-0.85 11.47,-2.47l358.8,-153.26c7.39,-3.11 13.2,-9.06 16.17,-16.49l145.36,-362.1c3.01,-7.48 2.93,-15.75 -0.23,-23.14Z" style="fill-rule:nonzero;"/><g><rect x="515.927" y="233.542" width="48.13" height="82.229" style="fill:#fff;"/><rect x="515.927" y="764.227" width="48.13" height="82.229" style="fill:#fff;"/><path d="M711.586,436.104l0,-48.129l-343.171,-0l0,48.129l343.171,0Z" style="fill:#fff;"/><path d="M711.586,563.219l0,-48.13l-343.171,0l0,48.13l343.171,-0Z" style="fill:#fff;"/><path d="M711.586,686.744l0,-48.13l-343.171,0l0,48.13l343.171,-0Z" style="fill:#fff;"/></g></g></svg>