<svg width="54" height="47" viewBox="0 0 54 47" fill="none" xmlns="http://www.w3.org/2000/svg">
<path d="M41.995 25.7531C41.995 36.6295 32.8515 45.5062 21.4975 45.5062C10.1435 45.5062 1 36.6295 1 25.7531C1 14.8767 10.1435 6 21.4975 6C32.8515 6 41.995 14.8767 41.995 25.7531Z" stroke="#585858" stroke-width="2"/>
<path d="M27.9932 21.0443L26.3962 19.5026L21.3872 24.4082L16.3783 19.5026L14.7812 21.0443L19.8628 25.8799L14.7812 30.7154L16.3783 32.2571L21.3872 27.3515L26.3962 32.2571L27.9932 30.7154L22.9117 25.8799L27.9932 21.0443Z" fill="#585858"/>
<path d="M46.576 10.032L46.912 9.6L48.04 7.248L48.136 6.288H48.472L48.592 7.248L49.72 9.6L50.032 10.032L52.552 8.28L52.24 7.848L50.368 6.024L49.48 5.64L49.576 5.304L50.512 5.52L53.104 5.184L53.632 5.016L52.624 1.992L52.144 2.16L49.84 3.408L49.192 4.128L48.904 3.888L49.384 3.096L49.84 0.504001V0H46.768V0.504001L47.248 3.096L47.728 3.888L47.416 4.128L46.768 3.408L44.488 2.16L43.984 1.992L43 5.016L43.504 5.184L46.096 5.52L47.056 5.304L47.128 5.64L46.264 6.024L44.368 7.848L44.08 8.28L46.576 10.032Z" fill="#FF5E18"/>
</svg>
