<svg width="54" height="46" viewBox="0 0 54 46" fill="none" xmlns="http://www.w3.org/2000/svg">
<path d="M41.995 24.8027C41.995 35.6791 32.8515 44.5558 21.4975 44.5558C10.1435 44.5558 1 35.6791 1 24.8027C1 13.9263 10.1435 5.04962 21.4975 5.04962C32.8515 5.04962 41.995 13.9263 41.995 24.8027Z" stroke="white" stroke-width="2"/>
<path d="M27.9932 20.094L26.3962 18.5522L21.3872 23.4578L16.3783 18.5522L14.7812 20.094L19.8628 24.9295L14.7812 29.765L16.3783 31.3067L21.3872 26.4011L26.3962 31.3067L27.9932 29.765L22.9117 24.9295L27.9932 20.094Z" fill="white"/>
<path d="M46.576 10.032L46.912 9.6L48.04 7.248L48.136 6.288H48.472L48.592 7.248L49.72 9.6L50.032 10.032L52.552 8.28L52.24 7.848L50.368 6.024L49.48 5.64L49.576 5.304L50.512 5.52L53.104 5.184L53.632 5.016L52.624 1.992L52.144 2.16L49.84 3.408L49.192 4.128L48.904 3.888L49.384 3.096L49.84 0.504001V0H46.768V0.504001L47.248 3.096L47.728 3.888L47.416 4.128L46.768 3.408L44.488 2.16L43.984 1.992L43 5.016L43.504 5.184L46.096 5.52L47.056 5.304L47.128 5.64L46.264 6.024L44.368 7.848L44.08 8.28L46.576 10.032Z" fill="#FF5E18"/>
</svg>
